<svg xmlns="http://www.w3.org/2000/svg" viewBox="0 0 91.06 113.7"><defs><style>.cls-1{fill:#f8f9f9;}.cls-2{fill:#2d2c42;}.cls-3{fill:#060000;opacity:0.1;isolation:isolate;}.cls-4{fill:#a86167;}.cls-5{fill:#545589;}.cls-6{fill:#3d3a57;}</style></defs><title>Asset 15</title><g id="Layer_2" data-name="Layer 2"><g id="Layer_6" data-name="Layer 6"><path class="cls-1" d="M23.69,68.77A22.33,22.33,0,1,0,46,91.1h0A22.33,22.33,0,0,0,23.69,68.77ZM25.05,93a4.36,4.36,0,1,1,4.36-4.36A4.36,4.36,0,0,1,25.05,93Z"/><path class="cls-2" d="M47.36,52.92c-.49.53-9.55,9.15-9.55,9.15s.9,6,10.59,6.77l16.16,1.24s3.06,11.21,6.69,14.79,2,3.78,3.33,5.53S74,92.61,76.1,92.78s6.34-2.33,6.39-4.26A4.52,4.52,0,0,0,80.79,85c-.54-.49-1.9-5.2-2.71-6.2s-3.91-13-3.91-13-3.08-5.8-7.35-6.26a36.42,36.42,0,0,1-9-2.54"/><path class="cls-3" d="M47.36,52.92c-.49.53-9.55,9.15-9.55,9.15s.9,6,10.59,6.77l16.16,1.24s3.06,11.21,6.69,14.79,2,3.78,3.33,5.53S74,92.61,76.1,92.78s6.34-2.33,6.39-4.26A4.52,4.52,0,0,0,80.79,85c-.54-.49-1.9-5.2-2.71-6.2s-3.91-13-3.91-13-3.08-5.8-7.35-6.26a36.42,36.42,0,0,1-9-2.54"/><path class="cls-4" d="M63,18.15s3.4-9.24,5.73-6.3S65,19.63,65,19.63Z"/><path class="cls-5" d="M45.12,23l1.94-.82s3.52,3.69,4.91,4.38,5.21,2.35,5.72,2.62,6.24-9.88,4.87-11.34c0,0,2.57.93,3.74.57,0,0-2.92,14.16-3.36,16.08s-1.49,2.14-3.42,2.21S45.84,33.3,45.84,33.3Z"/><path class="cls-2" d="M68.85,94.4s1.94,8.43,3.36,8.34,11.44-5,12.67-5.93c1.58-1.24,1.52-3.43-.3-3s-7,0-7.83-.88l-2.24-2.39Z"/><path class="cls-2" d="M73.91,91s1.93,8.43,3.35,8.35,11.44-5,12.67-5.93c1.59-1.24,1.52-3.43-.29-3s-7,0-7.83-.88l-2.25-2.39Z"/><path class="cls-2" d="M49,47.56c-.53.5-16.66,14.18-16.66,14.18A12.81,12.81,0,0,0,43.3,72c9.61,1.45,15.16-.36,15.16-.36s2.23,11.4,5.6,15.24,1.68,3.92,2.91,5.76-.71,2.16,1.35,2.48,6.49-1.86,6.68-3.79a4.54,4.54,0,0,0-1.44-3.65c-.5-.53-1.51-5.32-2.25-6.38s-3-13.22-3-13.22-2.65-6-6.88-6.78a36.49,36.49,0,0,1-8.82-3.19"/><circle class="cls-4" cx="34.17" cy="10.28" r="7.65"/><path class="cls-4" d="M30.17,15.05s1.14,4.67-.6,7.07,11.68,1.25,11.68,1.25S37.61,15.79,39,14,30.17,15.05,30.17,15.05Z"/><path class="cls-5" d="M47.33,22.4C49,24.12,48.4,33.89,48.4,33.89l-1,8.73s1.24,1.58.84,2.21-1.07,1.26.21,1.55,4.23.78,3.28,2.16a13.34,13.34,0,0,1-1,1.13c-.3.32-.65.69-1.06,1.1-1,1-2.15,2.13-3.49,3.38L45,55.22c-5.1,4.62-11.45,9.51-12.77,7.16-2.2-3.93-3.72-4.49-3.62-7.84s-2.73-11.93-2.73-11.93-3.3-14.65,1.34-19l.73-1.16a3,3,0,0,1,3.28-1.34c2.26.54,5.73,1.29,7.24,1.17,2.32-.19,1.81-1.15,1.81-1.15S45.71,20.67,47.33,22.4Z"/><path class="cls-4" d="M54.5,53.65S64,56,62.57,59.3,53,56.57,53,56.57Z"/><path class="cls-2" d="M29.94,13.08c.19-.23,0-.56-.16-.81a3.92,3.92,0,0,1-.08-4.45A4.23,4.23,0,0,1,31.1,6.7,6.88,6.88,0,0,1,33.53,6a3.54,3.54,0,0,0,1.33-.26c.27-.13,1.52-.57,1.79-.7.6-.28,1.42-.16,1.8-.7s0-1.21-.33-1.73A7.77,7.77,0,0,0,33.88.08a4.92,4.92,0,0,0-3.15.56,18.77,18.77,0,0,0-3.21,2A12,12,0,0,0,24,6.3a4.84,4.84,0,0,0-.09,4.89c.19.29.43.56.61.87a14.66,14.66,0,0,1,.84,2.47A4.52,4.52,0,0,0,28,17.12c.95.36,2.13.46,2.7,1.3l.26-1.77a1,1,0,0,0-.48-1.19l-1.35-1.14a1.56,1.56,0,0,1-.59-.75C28.21,12.35,29.63,13.46,29.94,13.08Z"/><path class="cls-3" d="M43.5,46.75l6.14,4C48.42,52,46.78,53.59,45,55.22c-1.7-.92-3.44-1.91-5-2.91C34.3,48.66,29.43,39.5,27.24,35.06a9.14,9.14,0,0,1-.4-7.87,16.6,16.6,0,0,1,4.54-1.28C34.23,25.48,43.5,46.75,43.5,46.75Z"/><path class="cls-3" d="M44.31,45.49l6.39,4.18c-.3.32-.65.69-1.06,1.1-1,1-2.15,2.13-3.49,3.38-1.82-1-3.69-2-5.35-3.1C35.11,47.4,30.24,38.24,28.05,33.79s3.7-2.85,3.7-2.85-3.05-1.38-.21-1.81S44.31,45.49,44.31,45.49Z"/><path class="cls-5" d="M27.12,26.42a9.15,9.15,0,0,0,.4,7.87c2.19,4.45,7.06,13.61,12.75,17.26a121.77,121.77,0,0,0,13.82,7.24s.77-4.23,2.07-4.7L43.78,46S34.51,24.71,31.66,25.14A16.7,16.7,0,0,0,27.12,26.42Z"/><path class="cls-6" d="M25.05,113.7A25.06,25.06,0,1,1,50.1,88.64,25.06,25.06,0,0,1,25.05,113.7Zm0-49.56a24.51,24.51,0,1,0,24.51,24.5A24.51,24.51,0,0,0,25.05,64.14Z"/><path class="cls-6" d="M25.05,93.27a4.63,4.63,0,1,1,4.63-4.63h0A4.63,4.63,0,0,1,25.05,93.27Zm0-8.71a4.09,4.09,0,1,0,4.09,4.08A4.08,4.08,0,0,0,25.05,84.56Z"/><polygon class="cls-6" points="24.51 63.87 23.96 63.87 23.96 35.82 9.8 35.82 9.8 35.27 24.51 35.27 24.51 63.87"/><rect class="cls-6" x="44.79" y="72.85" width="12.13" height="0.54"/><rect class="cls-6" x="23.69" y="54.06" width="27.78" height="0.54"/><polygon class="cls-6" points="71.21 105.07 56.66 73.24 57.16 73.01 71.48 104.35 84.58 98.47 84.8 98.97 71.21 105.07"/><ellipse class="cls-6" cx="11.16" cy="35.54" rx="7.62" ry="1.09"/></g></g></svg>