<svg xmlns="http://www.w3.org/2000/svg" xmlns:xlink="http://www.w3.org/1999/xlink" viewBox="0 0 151.83 109.81"><defs><style>.cls-1{fill:#fbc700;}.cls-13,.cls-2,.cls-3,.cls-7{fill:#060000;}.cls-2{opacity:0.2;}.cls-2,.cls-3,.cls-7{isolation:isolate;}.cls-12,.cls-3{opacity:0.05;}.cls-4{fill:url(#linear-gradient);}.cls-5{fill:#eb5a38;}.cls-6{fill:#f7bd99;}.cls-7{opacity:0.1;}.cls-8{fill:#152561;}.cls-9{fill:#bcb3af;}.cls-10{fill:#555462;}.cls-11{fill:#f5eceb;}.cls-14{fill:url(#linear-gradient-2);}.cls-15{fill:#57ba92;}.cls-16{fill:none;stroke:#f5eceb;stroke-miterlimit:10;}</style><linearGradient id="linear-gradient" x1="148.24" y1="726.16" x2="148.24" y2="768.75" gradientTransform="matrix(1, 0, 0, -1, -47.74, 801.25)" gradientUnits="userSpaceOnUse"><stop offset="0" stop-color="#868581" stop-opacity="0.25"/><stop offset="0.54" stop-color="#868581" stop-opacity="0.12"/><stop offset="1" stop-color="#868581" stop-opacity="0.1"/></linearGradient><linearGradient id="linear-gradient-2" x1="111.88" y1="743.28" x2="111.88" y2="745.73" xlink:href="#linear-gradient"/></defs><title>Asset 19</title><g id="Layer_2" data-name="Layer 2"><g id="Layer_6" data-name="Layer 6"><path class="cls-1" d="M151.77,9.51c-.51,4.35-4.1,7.79-5,12.08a12.13,12.13,0,0,0-.2,1.7c-.12,2.47.37,5,.12,7.45-.47,4.63-3.29,8.25-6.86,11.39a103.28,103.28,0,0,1-8.72,6.46c-7.35,5.13-14.24,11.61-17.26,20-2,5.63-2.16,11.74-3.64,17.53s-4.84,11.72-10.52,13.56c-6.1,2-12.82-1.32-19.09,0-6.74,1.4-11.52,7.77-18.16,9.56-8.45,2.29-16.86-3.33-25.53-4.5-4.16-.56-8.4-.08-12.58-.44a31.64,31.64,0,0,1-13.2-4.2,7.66,7.66,0,0,1-3.4-3.26,7.82,7.82,0,0,1-.3-4.08c.63-5.08,2.23-10.61-.28-15.08C4.88,73.58-.75,70.63.08,66c.51-2.8,3.26-4.55,5.82-5.81,5.26-2.59,10.87-4.61,15.58-8.11A20.65,20.65,0,0,0,29,42.13a13.38,13.38,0,0,0,.61-4.87c-.17-2.59-1.07-5.51.49-7.59a6.29,6.29,0,0,1,2.77-1.88C36.8,26.2,41.19,26.1,45.29,25a16.86,16.86,0,0,0,4-1.68c2.5-1.45,4.51-3.58,5-6.37.29-1.63,0-3.41.85-4.86,1.37-2.44,4.09-3.47,7.12-3.8,3.76-.41,8,.23,10.86.55l.29,0A25.46,25.46,0,0,0,84.28,7.19c3.85-1.3,7.61-3.08,11.27-4.35l1-.34A52.18,52.18,0,0,1,104.76.6,53.14,53.14,0,0,1,116.58.14a51.94,51.94,0,0,1,6,.77q.87.16,1.74.36A52.24,52.24,0,0,0,134.4,2.92h.74c4.08-.07,8.26-1.11,12.13.14a6.53,6.53,0,0,1,4.16,3.41A6.06,6.06,0,0,1,151.77,9.51Z"/><path class="cls-2" d="M146.63,23.29H143.1A4.69,4.69,0,0,0,140,19.17a3.3,3.3,0,1,0-4.48-1.3,3.25,3.25,0,0,0,1.3,1.3,4.66,4.66,0,0,0-3.07,4.12h0a4.68,4.68,0,0,0-3.07-4,3.3,3.3,0,1,0-4.83-3.5,4.51,4.51,0,0,0-1.35-.76,3.3,3.3,0,1,0-4.48-1.3,3.43,3.43,0,0,0,1.29,1.3,4.67,4.67,0,0,0-3.08,4.39v3.85h-1.51v-3a4.68,4.68,0,0,0-3.08-4.4,3.3,3.3,0,1,0-4.48-1.3,3.25,3.25,0,0,0,1.3,1.3,4.73,4.73,0,0,0-2.7,2.53,4.72,4.72,0,0,0-2.23-1.71,3.3,3.3,0,1,0-3.19,0,4.75,4.75,0,0,0-2.39,2v-.58a4.68,4.68,0,0,0-3.08-4.4,3.3,3.3,0,1,0-4.48-1.3,3.25,3.25,0,0,0,1.3,1.3,4.67,4.67,0,0,0-3.09,4.4v5.22H89a4.65,4.65,0,0,0-2.66-2.47,3.3,3.3,0,1,0-4.48-1.3,3.25,3.25,0,0,0,1.3,1.3,4.47,4.47,0,0,0-.93.46,4.68,4.68,0,0,0-3.05-3.76,3.3,3.3,0,1,0-3.18,0,4.66,4.66,0,0,0-2.88,3.08,4.67,4.67,0,0,0-1.9-1.29A3.3,3.3,0,1,0,66.68,18a3.45,3.45,0,0,0,1.3,1.3,4.63,4.63,0,0,0-1.38.79,4.7,4.7,0,0,0-2.72-2.58,3.29,3.29,0,1,0-3.19,0,4.68,4.68,0,0,0-3.08,4.4v1.37h-8.3a16.66,16.66,0,0,1-4,1.67c-4.1,1.14-8.48,1.23-12.43,2.82a6.37,6.37,0,0,0-2.77,1.88c-1.56,2.08-.66,5-.49,7.6A13.35,13.35,0,0,1,29,42.12h110.9c3.57-3.12,6.38-6.75,6.85-11.38C147,28.27,146.51,25.76,146.63,23.29Z"/><path class="cls-3" d="M106.15,71.28a2.06,2.06,0,0,1-1.49,2.07c-1.55.34.62,1.36,1.49,1.11s4.45-3.38,4.45-3.38-1.26-1.93-2.08-1.93C108.52,69.15,107,71.66,106.15,71.28Z"/><path class="cls-3" d="M99.14,70.26s.1,1.6-2.27,2.51c0,0-2.46.25-.77,1.45s6.81-.34,6.81-.34a9,9,0,0,0-.67-2.8S99.44,70.89,99.14,70.26Z"/><path class="cls-4" d="M117.62,36.88c-.75-.88-2.34,2.4-2.34,2.4l-5.79,1.33a1.85,1.85,0,0,1-.94-.64A2.65,2.65,0,0,0,111,38.64l-1.49-.09a1.1,1.1,0,0,1-.44-.07,1.49,1.49,0,0,1-.57-.73,3.46,3.46,0,0,0-1.89-1.6,6.06,6.06,0,0,1-1.59-.59,5.47,5.47,0,0,1-.83-.9c-1.27-1.46-3.38-1.87-5.32-2.12a1.21,1.21,0,0,0-1,.15,4.6,4.6,0,0,0-.4.58,1.86,1.86,0,0,1-1.11.44,3.57,3.57,0,0,0-1.41.54,1.77,1.77,0,0,0-.79,1.24c-.08.76.48,1.49.38,2.25a5.63,5.63,0,0,0-.14.69,2.05,2.05,0,0,0,.1.65,4.57,4.57,0,0,1,.18,2,2,2,0,0,1-1.14,1.54,3.45,3.45,0,0,0,2.38-.33,2.39,2.39,0,0,0,1.25-1.95v-.06l.09,0,0,.15.13,0a3.17,3.17,0,0,1,0,.87l-.87.7a1.16,1.16,0,0,0,0,.13h0a1.09,1.09,0,0,0,0,.12l-1.71,1.06a6.73,6.73,0,0,0-2.33,3.33l-1.55,2.4a5.87,5.87,0,0,1-1.54,1.08l-4.63,4s-1.6.88-1.59,1.75h0v0h0V56h0a.07.07,0,0,0,0,0h0a.43.43,0,0,0,0,0h0s0,0,0,0h0l0,0h0l0,0h0l0,0v0l0,0h0l0,0h0l0,0,0,0,0,0,0,0,0,0,0,0,.05,0,0,0,.09.05c1.78,1,2.23-1.62,2.23-1.62l5.38-3.52s4.43-4,4.43-4.9l1,.41,0,.17v.15s0,2.06,2.54,2.6c0,0,2.37,2.37,2.44,3.13v0h0a5.51,5.51,0,0,0,.69,2l-1,.79v.14h0l0,.49a29.52,29.52,0,0,0-2.77,3.23,4.45,4.45,0,0,0,.35,3.18l.64,5.83v1.7l-.3-.14v.39a.74.74,0,0,1-.34-.29v0h0c0,.28-.16,1.66-2.34,2.49,0,0-1.44.14-1.41.74,0,.2.15.46.61.78,1.74,1.23,7-.34,7-.34v0h0a9.24,9.24,0,0,0-.69-2.84l-.35,0V71l-.22,0a9.35,9.35,0,0,1,.2-2,16.07,16.07,0,0,0,.29-4.74A5.91,5.91,0,0,0,103,65l3.14,5,.37.76c-.13.1-.27.18-.38.25l.63.59a.66.66,0,0,1-.44,0,2.09,2.09,0,0,1-1.54,2.1c-.64.14-.66.39-.41.62a2.7,2.7,0,0,0,2,.56c.89-.25,4.58-3.43,4.58-3.43a9.6,9.6,0,0,0-1.11-1.35,1.86,1.86,0,0,0-1.08-.66l-.21.32-.39-.36,0,0-.09-.32a15.41,15.41,0,0,0-3.1-6.15s-.46-.38.25-1.64c0,0,1.15-1.36,2.16-2.84a4.57,4.57,0,0,0,4.11-.89l0-.09.06-.06L111,54.37s.22-2.92-3.41-5.27a15,15,0,0,1-2.66-5.51h0l0-.53c.44.34,5.22-.3,5.22-.3l6.32-2.64a4.1,4.1,0,0,0,1.36-2.55A1,1,0,0,0,117.62,36.88Z"/><path class="cls-5" d="M108.31,40.07a1.9,1.9,0,0,0,1.36.72,4.37,4.37,0,0,1-1.39.86,4.76,4.76,0,0,1-4.57-.56,2.74,2.74,0,0,0-1-.59,5.44,5.44,0,0,0-1,0A2,2,0,0,1,100,39c-.1-.4-.06-.82-.13-1.23,0-.07,0-.14,0-.21A1.77,1.77,0,0,0,98,36.35c-.72.19-1.09,1.32-1.07,2s.36,1.38.33,2.09A2.38,2.38,0,0,1,96,42.33a3.36,3.36,0,0,1-2.31.32,2,2,0,0,0,1.12-1.52,4.76,4.76,0,0,0-.18-1.94,2,2,0,0,1-.1-.64c0-.24.1-.46.13-.69.1-.75-.44-1.47-.36-2.22a1.78,1.78,0,0,1,.76-1.22,3.64,3.64,0,0,1,1.38-.53,1.75,1.75,0,0,0,1.07-.44c.15-.17.22-.41.39-.57a1.22,1.22,0,0,1,1-.15c1.89.25,3.93.65,5.17,2.1a5.17,5.17,0,0,0,.8.88,5.7,5.7,0,0,0,1.54.58,3.42,3.42,0,0,1,1.84,1.59,1.35,1.35,0,0,0,.55.71,1.22,1.22,0,0,0,.43.08l1.45.08A2.59,2.59,0,0,1,108.31,40.07Z"/><path class="cls-6" d="M101,40.09a7.18,7.18,0,0,0,2.1-.26,3.82,3.82,0,0,1,2.8.72l3,.24,6-1.4s1.54-3.24,2.27-2.37-.68,2.9-1.11,3.14l-6.14,2.61s-4.64.63-5.08.29l-.09,1.31-2.32-1.12-1-2.36Z"/><path class="cls-3" d="M116,40.11l-6.14,2.62s-4.64.62-5.07.29l-.1,1.3-2.32-1.11-1-2.37-.32-.69h0l.36.79,1,2.37,2.32,1.11.1-1.3c.43.33,5.07-.29,5.07-.29L116,40.21a4,4,0,0,0,1.31-2.55A4.05,4.05,0,0,1,116,40.11Z"/><path class="cls-6" d="M97,42.14,95,43.4a6.68,6.68,0,0,0-2.27,3.28l-1.5,2.37a5.48,5.48,0,0,1-1.5,1.06l-4.49,4s-2.71,1.49-1,2.51S86.44,55,86.44,55l5.23-3.48s4.29-4,4.29-4.83l1.55.68Z"/><path class="cls-3" d="M96,46.59c0,.87-4.3,4.83-4.3,4.83L86.43,54.9s-.43,2.61-2.17,1.59a1,1,0,0,1-.58-.75c0,.3.13.59.58.85C86,57.61,86.43,55,86.43,55l5.23-3.48s4.3-4,4.3-4.83l1.54.67v-.1Z"/><path class="cls-6" d="M102.75,56.67a51.83,51.83,0,0,0-1.48,5.42,4.56,4.56,0,0,0,1.66,2.69l3,4.91.94,2,1.85-.51a10.88,10.88,0,0,1-1-2.33,15.3,15.3,0,0,0-3-6.05s-.44-.38.25-1.62c0,0,3.4-4.09,3.51-5.75Z"/><path class="cls-3" d="M102.75,56.67a51.83,51.83,0,0,0-1.48,5.42,4.56,4.56,0,0,0,1.66,2.69l3,4.91.94,2,1.85-.51a10.88,10.88,0,0,1-1-2.33,15.3,15.3,0,0,0-3-6.05s-.44-.38.25-1.62c0,0,3.4-4.09,3.51-5.75Z"/><path class="cls-7" d="M102.53,55.48a51,51,0,0,0-3.67,4.25,4.47,4.47,0,0,0,.33,3.14l.63,5.75v2.17l1.89.34a10.56,10.56,0,0,1,.14-2.51,15.19,15.19,0,0,0-.1-6.77s-.24-.53.92-1.35c0,0,4.83-2.22,5.66-3.67Z"/><path class="cls-6" d="M102.48,55.48a51,51,0,0,0-3.67,4.25,4.49,4.49,0,0,0,.34,3.14l.62,5.75v2.17l1.89.34a10.56,10.56,0,0,1,.14-2.51,15.27,15.27,0,0,0-.09-6.77s-.25-.53.91-1.35c0,0,4.84-2.22,5.66-3.67Z"/><path class="cls-3" d="M102.5,55.48l0,0,5.68,1.33c-.83,1.45-5.66,3.67-5.66,3.67-1.16.83-.91,1.36-.91,1.36a15.4,15.4,0,0,1,.09,6.76,10.84,10.84,0,0,0-.15,2.49l.15,0a10.84,10.84,0,0,1,.15-2.51,15.32,15.32,0,0,0-.1-6.76s-.24-.54.92-1.36c0,0,4.83-2.22,5.65-3.67Z"/><path class="cls-6" d="M97.22,39.78a2.61,2.61,0,0,1,0,2.46l.68,3.48,2.8-.39,1.35-1.54L101,40.06s-.87.34-1-2Z"/><path class="cls-7" d="M96.63,42.24a20.91,20.91,0,0,0,.44,3.14l-.2,2A2.73,2.73,0,0,0,99.34,50s2.41,2.47,2.37,3.14a6.13,6.13,0,0,0,.72,2.13l-1,.82,0,.68.67-.68s5.85,4.3,8.94,1.4l-.49-3s.42-2.59-3.11-4.9a16.67,16.67,0,0,1-2.78-5.73s-1.93-.19-2.42-.92l-1-2.9-.79.17.74,3.21S100.45,46.25,98,45l-.55-3.43Z"/><path class="cls-8" d="M96.63,42.09a21,21,0,0,0,.44,3.15l-.2,2a2.75,2.75,0,0,0,2.47,2.57s2.41,2.46,2.37,3.14a6.14,6.14,0,0,0,.72,2.12l-1,.83,0,.67.67-.67s5.85,4.3,8.94,1.4l-.49-3s.22-2.87-3.31-5.19a15.11,15.11,0,0,1-2.58-5.44s-1.93-.19-2.42-.91l-1-2.9-.79.17.74,3.21s-.87,2.9-3.28,1.65l-.55-3.44Z"/><rect class="cls-9" x="70.97" y="54.25" width="7.74" height="0.05"/><rect class="cls-9" x="71.17" y="53.91" width="7.36" height="0.05"/><rect class="cls-9" x="71.31" y="53.57" width="6.73" height="0.05"/><rect class="cls-9" x="71.56" y="53.23" width="5.95" height="0.05"/><rect class="cls-9" x="71.89" y="52.89" width="5.09" height="0.05"/><rect class="cls-9" x="72.33" y="52.56" width="4.07" height="0.05"/><rect class="cls-9" x="73" y="52.22" width="2.53" height="0.05"/><rect class="cls-9" x="70.83" y="54.63" width="8.18" height="0.05"/><rect class="cls-9" x="70.83" y="55.02" width="8.32" height="0.05"/><rect class="cls-9" x="70.68" y="55.4" width="8.56" height="0.05"/><rect class="cls-9" x="70.68" y="55.79" width="8.68" height="0.05"/><rect class="cls-9" x="70.68" y="56.18" width="8.63" height="0.05"/><rect class="cls-9" x="70.78" y="56.56" width="8.39" height="0.05"/><rect class="cls-9" x="70.97" y="56.95" width="7.95" height="0.05"/><rect class="cls-9" x="70.97" y="57.34" width="7.61" height="0.05"/><rect class="cls-9" x="71.31" y="57.72" width="6.84" height="0.05"/><rect class="cls-9" x="71.65" y="58.11" width="5.97" height="0.05"/><rect class="cls-9" x="72.04" y="58.5" width="5" height="0.05"/><rect class="cls-9" x="72.81" y="58.88" width="3.55" height="0.05"/><rect class="cls-9" x="71.7" y="53.09" width="0.05" height="5.13"/><rect class="cls-9" x="71.41" y="53.48" width="0.05" height="4.4"/><rect class="cls-9" x="71.12" y="53.91" width="0.05" height="3.58"/><rect class="cls-9" x="70.83" y="54.59" width="0.05" height="2.28"/><rect class="cls-9" x="72.08" y="52.76" width="0.05" height="5.8"/><rect class="cls-9" x="72.47" y="52.51" width="0.05" height="6.24"/><rect class="cls-9" x="72.85" y="52.32" width="0.05" height="6.58"/><rect class="cls-9" x="73.24" y="52.18" width="0.05" height="6.87"/><rect class="cls-9" x="73.63" y="52.03" width="0.05" height="7.16"/><rect class="cls-9" x="74.01" y="52.03" width="0.05" height="7.16"/><rect class="cls-9" x="74.4" y="52.03" width="0.05" height="7.16"/><rect class="cls-9" x="74.79" y="52.03" width="0.05" height="7.16"/><rect class="cls-9" x="75.17" y="52.18" width="0.05" height="7.01"/><rect class="cls-9" x="75.56" y="52.27" width="0.05" height="6.87"/><rect class="cls-9" x="75.95" y="52.37" width="0.05" height="6.67"/><rect class="cls-9" x="76.33" y="52.56" width="0.05" height="6.29"/><rect class="cls-9" x="76.72" y="52.76" width="0.05" height="5.95"/><rect class="cls-9" x="77.11" y="53.09" width="0.05" height="5.42"/><rect class="cls-9" x="77.49" y="53.24" width="0.05" height="4.98"/><rect class="cls-9" x="77.88" y="53.53" width="0.05" height="4.45"/><rect class="cls-9" x="78.27" y="53.87" width="0.05" height="3.82"/><rect class="cls-9" x="78.65" y="54.16" width="0.05" height="3.1"/><rect class="cls-9" x="79.04" y="54.78" width="0.05" height="2.03"/><path class="cls-10" d="M74.49,59.33a4.52,4.52,0,0,1-1.27-.17A3.52,3.52,0,0,1,71,57.39a3.81,3.81,0,0,1-.28-2.57A3.58,3.58,0,0,1,75,52H75a6,6,0,0,1,2.3,1c3.92,2.77,4.81,2.4,4.81,2.39l.15-.08v.61h-.11c-1.29-.14-3.3,1.34-4.39,2.23a5.22,5.22,0,0,1-2.87,1.17A3.17,3.17,0,0,1,74.49,59.33Zm-.3-7.2a3.39,3.39,0,0,0-3.3,2.73A3.34,3.34,0,0,0,73.27,59a4.48,4.48,0,0,0,1.63.15A5,5,0,0,0,77.66,58c1.08-.89,3.07-2.34,4.43-2.28V55.6c-.38,0-1.59-.13-4.88-2.44A5.63,5.63,0,0,0,75,52.21l-.08,0a4.37,4.37,0,0,0-.72-.06Z"/><path class="cls-10" d="M81.9,55.14h4.15a.48.48,0,0,1,.48.48h0a.47.47,0,0,1-.48.48H81.9v-1Z"/><rect class="cls-11" x="81.9" y="55.14" width="0.58" height="0.97"/><path class="cls-10" d="M78.11,57.87,78,57.72a2.44,2.44,0,0,0,1.24-1.93A3.11,3.11,0,0,0,78,53.7l.11-.16a3.18,3.18,0,0,1,1.32,2.25A2.6,2.6,0,0,1,78.11,57.87Z"/><path class="cls-7" d="M100.22,39.72a4,4,0,0,1-.3-1.59l-2.8,1.74a2.41,2.41,0,0,1,.24.65A2.73,2.73,0,0,0,100.22,39.72Z"/><circle class="cls-6" cx="98.28" cy="37.84" r="2.71"/><path class="cls-7" d="M98.15,37.18a8.45,8.45,0,0,1,.72.5,4.53,4.53,0,0,0,1.24.17c.47.09.91.41,1.38.37a1.18,1.18,0,0,0,1-1.21,1.9,1.9,0,0,0-.85-1.41,5.89,5.89,0,0,0-1.56-.69,4.16,4.16,0,0,0-2.14-.29c-.66.15-2.44,1-2.35,1.86C95.7,37.82,97.46,36.9,98.15,37.18Z"/><path class="cls-5" d="M98.15,37.08c.27.11.46.37.72.5a4.18,4.18,0,0,0,1.24.17c.47.09.91.42,1.38.37a1.17,1.17,0,0,0,1-1.21,1.9,1.9,0,0,0-.85-1.41,5.56,5.56,0,0,0-1.56-.68,4,4,0,0,0-2.14-.29c-.66.15-2.44,1-2.35,1.86C95.7,37.72,97.46,36.8,98.15,37.08Z"/><path class="cls-7" d="M102.17,53.13a3.69,3.69,0,0,0,.53,1.6"/><path class="cls-7" d="M107.09,49.22a1.53,1.53,0,0,1-.24,1.06"/><path class="cls-7" d="M104.78,46.13a3.64,3.64,0,0,1-1.59,1.45"/><g class="cls-12"><path class="cls-13" d="M97.74,45a2,2,0,0,0,2,.1,2.13,2.13,0,0,1-1.66-.24l-.55-3.44-.32.26Z"/><path class="cls-13" d="M101.08,40l1,2.9c.48.72,2.42.92,2.42.92A14.93,14.93,0,0,0,107,49.22c3.53,2.32,3.31,5.19,3.31,5.19l.48,3.05a3.46,3.46,0,0,1-.87.6,3.46,3.46,0,0,0,1.21-.75l-.48-3s.22-2.88-3.31-5.19a15,15,0,0,1-2.58-5.44s-1.94-.19-2.42-.92l-1-2.9-.8.17,0,.07Z"/><path class="cls-13" d="M101.89,56.06l-.35.35,0,.18.45-.45Z"/></g><path class="cls-7" d="M103.9,54.54a8.18,8.18,0,0,1,3.68-1.4"/><path class="cls-7" d="M99.75,49.46a5.78,5.78,0,0,0,1.5-1.3"/><path class="cls-6" d="M85.06,54.63s-.58.73-.29,1,1-.83,1-.83Z"/><path class="cls-14" d="M64.14,55.53a1.21,1.21,0,0,0-1.22,1.22h0a.24.24,0,0,0,0,.12V57h0a1.24,1.24,0,0,0,.42.72l0,0a1.22,1.22,0,1,0,1.51-1.92,1.26,1.26,0,0,0-.76-.27Z"/><path class="cls-15" d="M63.44,57.65a1.14,1.14,0,1,0-.2-1.6,1.12,1.12,0,0,0-.24.7v.11a.13.13,0,0,0,0,.06v0h0a1.14,1.14,0,0,0,.38.68Z"/><path class="cls-11" d="M63.44,57.65h0c0-.16.46-.41.82-.62s.62-.36.66-.47-.1-.33-.26-.43a.51.51,0,0,0-.66,0,6.08,6.08,0,0,1-1,.71v.08h0a6.57,6.57,0,0,0,1.07-.75.44.44,0,0,1,.56,0c.17.11.26.25.23.34a2.21,2.21,0,0,1-.63.43c-.39.23-.8.46-.85.65Z"/><path class="cls-11" d="M107.94,69.1a17,17,0,0,1-2,1.6l.67.62,2.13-.29V69.87Z"/><polygon class="cls-11" points="99.92 70.36 99.48 70.17 99.48 71.42 101.9 71.81 101.9 70.7 99.92 70.36"/><path class="cls-3" d="M99.14,70.17s.1,1.59-2.27,2.51c0,0-2.46.24-.77,1.45s6.81-.34,6.81-.34a8.93,8.93,0,0,0-.67-2.8S99.44,70.8,99.14,70.17Z"/><path class="cls-11" d="M99.14,70.3s.1,1.6-2.27,2.52c0,0-2.46.24-.77,1.45s6.81-.34,6.81-.34a9,9,0,0,0-.67-2.81S99.44,70.94,99.14,70.3Z"/><path class="cls-3" d="M106.2,71.19a2.06,2.06,0,0,1-1.5,2.07c-1.55.34.63,1.36,1.5,1.11S110.64,71,110.64,71s-1.25-1.92-2.07-1.92C108.57,69.07,107.07,71.57,106.2,71.19Z"/><path class="cls-11" d="M106.2,71.32a2.07,2.07,0,0,1-1.5,2.08c-1.55.34.63,1.35,1.5,1.11s4.44-3.38,4.44-3.38-1.25-1.93-2.07-1.93C108.57,69.2,107.07,71.71,106.2,71.32Z"/><polygon class="cls-16" points="35.21 62.33 42.08 76.29 48.95 90.24 35.21 90.24 21.46 90.24 28.33 76.29 35.21 62.33"/><polygon class="cls-16" points="13.49 62.33 20.36 76.29 27.23 90.24 13.49 90.24 13.49 62.33"/><polygon class="cls-16" points="25.72 62.33 32.59 76.29 39.46 90.24 25.72 90.24 14.72 89.28 15.48 83.12 18.85 76.29 25.72 62.33"/><polygon class="cls-16" points="41.8 62.33 48.67 76.29 55.55 90.24 41.8 90.24 28.06 90.24 34.93 76.29 41.8 62.33"/><polygon class="cls-16" points="54.59 62.33 61.46 76.29 68.33 90.24 54.59 90.24 40.85 90.24 47.72 76.29 54.59 62.33"/><polygon class="cls-16" points="68.33 62.33 75.2 76.29 82.08 90.24 68.33 90.24 54.59 90.24 61.46 76.29 68.33 62.33"/><polygon class="cls-16" points="82.08 62.33 88.95 76.29 95.82 90.24 82.08 90.24 68.34 90.24 75.21 76.29 82.08 62.33"/><polygon class="cls-16" points="96.1 62.33 102.97 76.29 109.84 90.24 96.1 90.24 82.36 90.24 89.23 76.29 96.1 62.33"/><polygon class="cls-16" points="109.98 62.33 116.85 76.29 123.72 90.24 109.98 90.24 96.24 90.24 103.11 76.29 109.98 62.33"/><polygon class="cls-16" points="122.9 62.33 129.77 76.29 136.65 90.24 122.9 90.24 109.16 90.24 116.03 76.29 122.9 62.33"/><polygon class="cls-16" points="142.24 90.24 134.59 90.24 141.46 76.29 141.74 75.73 142.24 90.24"/><polygon class="cls-16" points="131.15 62.33 138.02 76.29 144.89 90.24 131.15 90.24 117.41 90.24 124.28 76.29 131.15 62.33"/><polygon class="cls-16" points="135.14 62.33 142.01 76.29 143.52 79.36 143.52 90.24 135.14 90.24 121.4 90.24 128.27 76.29 135.14 62.33"/><polygon class="cls-16" points="139.67 62.33 139.67 90.24 125.93 90.24 132.8 76.29 139.67 62.33"/><polygon class="cls-16" points="62.28 62.33 69.16 76.29 76.03 90.24 62.28 90.24 48.54 90.24 55.41 76.29 62.28 62.33"/><polygon class="cls-16" points="89.36 62.33 96.23 76.29 103.11 90.24 89.36 90.24 75.62 90.24 82.49 76.29 89.36 62.33"/><polygon class="cls-16" points="116.44 62.33 123.31 76.29 130.19 90.24 116.44 90.24 102.7 90.24 109.57 76.29 116.44 62.33"/><polygon class="cls-16" points="143.52 62.33 144.13 63.57 143.25 76.36 143.52 90.24 143.52 90.24 129.78 90.24 136.65 76.29 143.52 62.33"/><polygon class="cls-16" points="117.41 90.38 110.53 76.42 103.66 62.47 117.41 62.47 131.15 62.47 124.28 76.42 117.41 90.38"/><polygon class="cls-16" points="89.23 90.38 82.36 76.42 75.48 62.47 89.23 62.47 102.97 62.47 96.1 76.42 89.23 90.38"/><polygon class="cls-16" points="61.05 90.38 54.18 76.42 47.31 62.47 61.05 62.47 74.79 62.47 67.92 76.42 61.05 90.38"/><polygon class="cls-16" points="32.87 90.38 26 76.42 19.13 62.47 32.87 62.47 46.61 62.47 39.74 76.42 32.87 90.38"/><rect class="cls-11" x="17.2" y="61.1" width="125.09" height="2.47"/><rect class="cls-11" x="17.2" y="89.28" width="125.09" height="2.47"/><rect class="cls-10" x="13.21" y="59.03" width="4.95" height="34.78"/><rect class="cls-10" x="139.81" y="59.03" width="4.95" height="34.78"/></g></g></svg>