<svg xmlns="http://www.w3.org/2000/svg" xmlns:xlink="http://www.w3.org/1999/xlink" viewBox="0 0 100.17 120.36"><defs><style>.cls-1{fill:url(#linear-gradient);}.cls-2{fill:#3d3a57;}.cls-10,.cls-3,.cls-5{fill:#060000;}.cls-3,.cls-9{opacity:0.1;}.cls-3,.cls-5{isolation:isolate;}.cls-4{fill:#f6bfbf;}.cls-5{opacity:0.05;}.cls-6{fill:#545589;}.cls-7{fill:#d7d9e3;}.cls-8{fill:#a6adc5;}.cls-11{fill:#f7c8ce;}.cls-12{fill:#645ea8;}.cls-13{fill:#2d2c42;}.cls-14{fill:#f8f9f9;}</style><linearGradient id="linear-gradient" x1="-213.77" y1="1329" x2="-213.77" y2="1449.36" gradientTransform="translate(230.5 -1329)" gradientUnits="userSpaceOnUse"><stop offset="0" stop-color="#868581" stop-opacity="0.25"/><stop offset="0.54" stop-color="#868581" stop-opacity="0.12"/><stop offset="1" stop-color="#868581" stop-opacity="0.1"/></linearGradient></defs><title>Asset 9</title><g id="Layer_2" data-name="Layer 2"><g id="Layer_6" data-name="Layer 6"><path class="cls-1" d="M32,23.36c-.09-.11-.19-.21-.29-.31a4.6,4.6,0,0,0,1.55-2.89c0-1.36-1.21-2.4-1.66-3.69-.62-1.75.24-3.62.59-5.44A10.18,10.18,0,0,0,30,2.63a2.85,2.85,0,0,0-1.29-1,5.9,5.9,0,0,0-2.49.2c-2.76.34-5.28-2-8-1.83a1.63,1.63,0,0,0-.53.12,2.22,2.22,0,0,0-.78.88,8.33,8.33,0,0,1-3.75,2.55,2,2,0,0,0-.51.23,13.6,13.6,0,0,0-1.26.65C8.57,6.05,9,8.3,10.57,9.69c-.31,1.56-1.91,2.94-1.63,4.54.21,1.26,1.52,2.12,1.77,3.37a3.33,3.33,0,0,1-.4,2.1c-3,.71-6.48,2-6.75,4.29C3.1,28,1.69,39,1.69,39S.07,47.77,6.25,43.6l-.08.24A51.16,51.16,0,0,0,3.9,54.22c-.06.52-.19.94-.42,1.07s.08.13.44.23L3.8,56a42.71,42.71,0,0,0-1.3,7.86,55.06,55.06,0,0,1-1,7c-1.46,7.37,0,16.81,0,16.81l3.2,15,.54,2.58a3.78,3.78,0,0,0,1.3.93A20.38,20.38,0,0,1,7,109c0,.1,0,.21,0,.32a1.31,1.31,0,0,0-.94.59c-1.14,1.6.16,2.88-4.23,6.08A4.17,4.17,0,0,0,0,118.19H0a1.48,1.48,0,0,0,.75,1.62h0a3.14,3.14,0,0,0,.31.18h0l.17.07h0l.17.07h0l.17.05h0l.18,0h0l.18,0H2l.19,0h0l.17,0h.9l.19,0h0l.18,0h0l.2,0H4l.17,0h0l.19-.06h0l.17-.06,0,0,.18-.07c2.93-1.28,9-4.65,9-4.65v-.63h0c0-1.4-.17-4.62-.8-4.49-.22,0-.37.35-.52.7l-.07-.15a13.5,13.5,0,0,1-1.61-5.25,9.41,9.41,0,0,0,1.38-1.22s-.32-1.38-.6-2.83a13.68,13.68,0,0,1-.37-3.1c.16-1.12-2-9.77-2-9.77s.21-1.9.65-4.54c.85-5.14,2.53-13.08,5-15.32l.17-.15s1.79.32,3.25,10.41l.43,4.49a25.4,25.4,0,0,0,.63,3.69,19.57,19.57,0,0,1,.41,5.91c-.19,2.65-.27,5.76-.3,8,0,1.65,0,2.78,0,2.78a6.53,6.53,0,0,0,1,.67V106a1.22,1.22,0,0,1-.34.83h0a2.27,2.27,0,0,0-.49.9,6.73,6.73,0,0,0-.62,2.68c-.33,4.32-.49,3.84-.49,3.84a5.69,5.69,0,0,0-.37,1.46h0a2.64,2.64,0,0,0,0,.28v.24a2150276484677.62,2150276484677.62,0,0,0,0,.18.13.13,0,0,0,0,.06.36.36,0,0,0,0,.11v0a.56.56,0,0,0,0,.12v0s0,.07,0,.11l0,0a.6.6,0,0,0,.06.11l0,0a.76.76,0,0,0,.08.11l0,0,.09.1h0l.12.09h0l.13.07,0,0,.15.06h0l.18,0h0l.2,0H20l.28,0c3.41-.48,5-.8,4.88-2.72-.1-1.16-.38-2.84-.58-4a5.83,5.83,0,0,0-.56-1.68c0-.09,0-.19,0-.28a6.08,6.08,0,0,0-.18-2.37l.07-1.4a4.53,4.53,0,0,0,2.2-1.32s0-1,.1-2.42a32.49,32.49,0,0,1,.72-6.23c.65-1.92,0-8.65,0-8.65S24.47,75,26.74,70a15.08,15.08,0,0,0,.06-13l.11-.11s-.49-.32-.33-4A21.12,21.12,0,0,0,25.48,46a16.77,16.77,0,0,0,1.91.69c3.74,1.12,4.07-3,4.07-3l.81-6.24,1-9.31h0C33.5,27.32,33.86,25.5,32,23.36ZM15.45,17.19l0,.31a4.52,4.52,0,0,1-.2,1,7,7,0,0,0,.2-1.3l0,0Zm9.83,22.73.16.31L25,40a9.35,9.35,0,0,1,.74-2.18,16.36,16.36,0,0,0,1-2.51,24.85,24.85,0,0,0,.15,3C27.23,40.88,25.28,39.92,25.28,39.92Z"/><path class="cls-2" d="M11.49,5.11a2.85,2.85,0,0,0-1.25,1.37c-.3,1,.45,1.94.52,2.95.14,1.84-1.94,3.37-1.64,5.19.21,1.24,1.49,2.09,1.74,3.33.36,1.81-1.6,3.41-1.45,5.25A3.62,3.62,0,0,0,11,25.62a7.45,7.45,0,0,0,3.75,1.53c-.09-1.57-1.26-3-1.06-4.57A11.39,11.39,0,0,1,15,19.64,8.73,8.73,0,0,0,15,14.06a25.69,25.69,0,0,1-1.16-5.57c0-1.14.52-2.82.13-3.9C13.52,3.27,12.38,4.5,11.49,5.11Z"/><path class="cls-3" d="M11.49,5.15a2.85,2.85,0,0,0-1.25,1.37c-.3,1,.45,1.94.52,3,.14,1.84-1.94,3.36-1.64,5.18.21,1.25,1.49,2.1,1.74,3.34.36,1.81-1.6,3.4-1.45,5.24A3.62,3.62,0,0,0,11,25.66,7.46,7.46,0,0,0,14.7,27.2c-.09-1.58-1.26-3-1.06-4.57A11.39,11.39,0,0,1,15,19.69,8.76,8.76,0,0,0,15,14.1a25.48,25.48,0,0,1-1.16-5.56c0-1.14.52-2.82.13-3.91C13.52,3.31,12.38,4.55,11.49,5.15Z"/><path class="cls-4" d="M13,111.39l-1.43,1.43s-5.08,2.7-4.45-1a12.87,12.87,0,0,0,.11-3.28,20.29,20.29,0,0,0-.9-4.5l4.76-1c-.79,2.49.52,5.62,1.33,7.22C12.76,111,13,111.39,13,111.39Z"/><path class="cls-4" d="M23.83,108.5c0,.49-.1,1-.18,1.46,0,0-4,2.7-4.29-.32-.21-2,.26-2.85.61-3.23h0a1.21,1.21,0,0,0,.33-.83V102l3.5,1.11-.16,3A6.38,6.38,0,0,1,23.83,108.5Z"/><path class="cls-5" d="M13,111.39l-1.43,1.43s-5.08,2.7-4.45-1a12.87,12.87,0,0,0,.11-3.28c1.12-.16,2.43,1.06,2.43,1.06,1.86,2.63,2.37,1.63,2.76.71C12.76,111,13,111.39,13,111.39Z"/><path class="cls-2" d="M9.67,110s-2.22-2.07-3.33-.48.16,2.86-4.13,6,0,5.24,2.86,4,8.73-4.61,8.73-4.61,0-5.24-.79-5.08S12.37,113.77,9.67,110Z"/><path class="cls-5" d="M23.83,108.5c0,.49-.1,1-.18,1.46,0,0-4,2.7-4.29-.32-.21-2,.26-2.85.61-3.23a1,1,0,0,1,1-.1c.63-.29,1.33.19,1.91.79A5.84,5.84,0,0,1,23.83,108.5Z"/><path class="cls-2" d="M21,106.62s-1.75-1-2.07,3.34-.47,3.81-.47,3.81-1.59,3.81,1.74,3.33,4.93-.79,4.77-2.7c-.1-1.14-.37-2.81-.57-4a5.87,5.87,0,0,0-1.49-3C22.28,106.81,21.58,106.34,21,106.62Z"/><path class="cls-2" d="M26.66,86.3s.64,6.67,0,8.57a34,34,0,0,0-.7,6.18c-.07,1.37-.09,2.4-.09,2.4-3,3.17-6.51,0-6.51,0s0-1.12,0-2.75c0-2.17.12-5.26.3-7.89a19.89,19.89,0,0,0-.4-5.86,26.39,26.39,0,0,1-.62-3.66l-.41-4.45c-1.43-10-3.18-10.32-3.18-10.32l-.17.14c-2.44,2.23-4.07,10.1-4.9,15.2-.43,2.62-.64,4.5-.64,4.5s2.06,8.58,1.9,9.69a14.49,14.49,0,0,0,.36,3.07c.27,1.44.59,2.8.59,2.8-4,4.29-6.66,1-6.66,1L5,102.33,1.89,87.41S.46,78,1.89,70.74a55.82,55.82,0,0,0,1-6.95A41.92,41.92,0,0,1,4.11,56c.19-.76.41-1.51.64-2.25.36-1.12,6-1,11.58-1,4.21,0,8.22.58,9.38,2.63.27.47.51.94.73,1.41a15.18,15.18,0,0,1,.06,13.19C24.28,74.87,26.66,86.3,26.66,86.3Z"/><path class="cls-4" d="M13.33,28.66s-8.42-8.57-2.07-7.94a4.25,4.25,0,0,0,3.06-.59,3.06,3.06,0,0,0,1.13-2.27,9.3,9.3,0,0,0-.54-3.65S23.49,7.38,21.74,16a14.77,14.77,0,0,0-.33,2.65c0,1.82.57,2.51,1.41,2.8,1.41.48,3.52-.19,4.48,1.38C29.05,25.64,13.33,28.66,13.33,28.66Z"/><path class="cls-3" d="M13.33,28.66s-8.42-8.57-2.07-7.94a4.25,4.25,0,0,0,3.06-.59,3.06,3.06,0,0,0,1.13-2.27,9.3,9.3,0,0,0-.54-3.65S23.49,7.38,21.74,16a14.77,14.77,0,0,0-.33,2.65c0,1.82.57,2.51,1.41,2.8,1.41.48,3.52-.19,4.48,1.38C29.05,25.64,13.33,28.66,13.33,28.66Z"/><path class="cls-4" d="M26,11.83a6.83,6.83,0,0,1-13.66,0c0-.13,0-.25,0-.38A6.83,6.83,0,0,1,26,11.83Z"/><path class="cls-5" d="M13.33,28.66s-8.42-8.57-2.07-7.94a4.25,4.25,0,0,0,3.06-.59c-1.23,2-2.61,5.7,3.61,5.35,5.69-.31,5.6-2.58,4.89-4.07,1.41.48,3.52-.19,4.48,1.38C29.05,25.64,13.33,28.66,13.33,28.66Z"/><path class="cls-3" d="M26.66,57.4C25.22,59.28,6.8,56.82,4.11,56c.19-.76.41-1.51.64-2.25.36-1.12,6-1,11.58-1,4.21,0,8.22.58,9.38,2.63.27.47.51.94.73,1.41S26.66,57.4,26.66,57.4Z"/><path class="cls-6" d="M15.07,19.29s-10.72.88-11.19,5c-.46,3.95-1.83,14.85-1.83,14.85S.46,47.87,6.5,43.75L6.42,44A50.87,50.87,0,0,0,4.21,54.27a1.58,1.58,0,0,1-.41,1.07C3,55.81,25.08,59,26.66,56.92c0,0-.47-.31-.31-4a22.14,22.14,0,0,0-1.27-7.46A11,11,0,0,1,25.55,38c1.75-3.65,1.11-4.76,1.11-4.76l6-4.61s1.3-2.23-1.08-5A8.25,8.25,0,0,0,26,20.88l-4.17-.3s4.57,4.9-4,5.38S15.07,19.29,15.07,19.29Z"/><path class="cls-5" d="M7.93,28s.31,2.54-.32,3.33-.79,4.45,0,6.67"/><path class="cls-3" d="M14.9,68.66c-2.44,2.23-4.07,10.1-4.9,15.2C8.84,76.76,13.64,65,13.64,65Z"/><path class="cls-3" d="M12.21,103.92c-4,4.29-6.66,1-6.66,1L5,102.33a5.28,5.28,0,0,0,6.61-1.21C11.89,102.56,12.21,103.92,12.21,103.92Z"/><path class="cls-3" d="M26,101.05c-.07,1.37-.09,2.4-.09,2.4-3,3.17-6.51,0-6.51,0s0-1.12,0-2.75A6.54,6.54,0,0,0,26,101.05Z"/><rect class="cls-7" x="8.72" y="33.42" width="10.8" height="4.45" rx="0.8"/><rect class="cls-5" x="8.72" y="33.42" width="10.8" height="4.45" rx="0.8"/><rect class="cls-2" x="8.72" y="33.58" width="10.8" height="4.45" rx="0.8"/><circle class="cls-8" cx="17.22" cy="35.73" r="0.48"/><path class="cls-5" d="M4.13,40.46a3.1,3.1,0,0,1,1.79-1.89,2.78,2.78,0,0,0,1.54-1.38c.63-1.38,1.74-2.81,4.6-1.86s-.8,1.59-.8,1.59,6.51-1,4,.95a24.17,24.17,0,0,1-5.72,3L8,42.54a2.33,2.33,0,0,1-3.3.13,1.8,1.8,0,0,1-.19-.2A2,2,0,0,1,4.13,40.46Z"/><path class="cls-4" d="M4,40.15a3,3,0,0,1,1.79-1.89A2.84,2.84,0,0,0,7.3,36.87C7.93,35.49,9,34.06,11.9,35s-.8,1.59-.8,1.59,6.51-1,4,.95a24.2,24.2,0,0,1-5.71,3L7.79,42.23a2.34,2.34,0,0,1-3.3.12l-.19-.19A2,2,0,0,1,4,40.15Z"/><path class="cls-5" d="M26.35,43.43l-1.12,2.7-1.42-1.05-4-2.92-2.7-1.75c-3.81-2.86,0-3.33,0-3.33-1.43-.64,0-1.27,0-1.27,5.08-1.12,4.12,3,4.12,3l3.22,1.67,1.07.56Z"/><path class="cls-4" d="M26.66,43.11l-1.11,2.7-1.42-1.05-4-2.92-2.7-1.75c-3.81-2.86,0-3.33,0-3.33-1.43-.64,0-1.27,0-1.27,5.08-1.11,4.13,3,4.13,3l3.22,1.66,1.07.56Z"/><path class="cls-5" d="M26.66,43.11l-1.11,2.7-1.42-1.05c1.29.05,2.81-.57.67-4.59l1.07.56Z"/><path class="cls-6" d="M32.54,27.07l.3,1.25-.94,9.23-.79,6.2s-.32,4.12-4,3-4-2.22-4-2.22,5.24,1.75,1.91-4.45c0,0,1.9,1,1.58-1.58a48.67,48.67,0,0,1,0-7Z"/><path class="cls-5" d="M26,11.83a6.83,6.83,0,0,1-5.32,6.66,3.43,3.43,0,0,1-.22-2c.32-1.29,1.82-2.24,1.65-3.57a.85.85,0,0,0-.15-.41c-.34-.44-1-.23-1.56-.12a3,3,0,0,1-3.32-2,4.66,4.66,0,0,1-4.73,1.09A6.83,6.83,0,0,1,26,11.83Z"/><path class="cls-2" d="M17.27,10a3,3,0,0,0,3.32,2.05c.54-.11,1.22-.33,1.56.11a1,1,0,0,1,.15.41c.17,1.33-1.33,2.28-1.65,3.58s.64,2.62.84,4a15.5,15.5,0,0,1,0,2.26,2.76,2.76,0,0,0,.73,2.07,1.34,1.34,0,0,0,2-.14c1.78.94,1.07,3.87,2.43,5.36a3.64,3.64,0,0,0,3.09.92,1.23,1.23,0,0,0,.72-.23,1.26,1.26,0,0,0,.36-.67,5.41,5.41,0,0,0-.14-3.21A3.4,3.4,0,0,1,30.29,25a2.19,2.19,0,0,1,.55-1.08c.86-1.06,2-2.08,2-3.44s-1.19-2.38-1.63-3.66c-.59-1.74.24-3.59.58-5.4a10.22,10.22,0,0,0-2.16-8.33,2.92,2.92,0,0,0-1.27-1,5.8,5.8,0,0,0-2.43.2c-2.69.34-5.15-2-7.85-1.8a1.31,1.31,0,0,0-.52.11,2.3,2.3,0,0,0-.76.87c-1.2,1.79-3.55,2.3-5.39,3.41C6,8.14,13.15,14,17.27,10Z"/><g class="cls-9"><path class="cls-10" d="M30.35,29.94A3.64,3.64,0,0,1,27.26,29c-1.35-1.49-.64-4.42-2.43-5.36a1.33,1.33,0,0,1-2,.14,2.8,2.8,0,0,1-.74-2.07,17,17,0,0,0,0-2.26c-.21-1.36-1.18-2.65-.85-4s1.82-2.25,1.65-3.58a.79.79,0,0,0-.15-.41c-.33-.44-1-.22-1.56-.11A3,3,0,0,1,17.9,9.34c-3.68,3.54-9.75-.76-7.15-4-4,3.29,2.59,8.44,6.52,4.66a3,3,0,0,0,3.32,2c.54-.11,1.22-.33,1.56.12a1,1,0,0,1,.15.41c.17,1.33-1.33,2.27-1.65,3.57s.64,2.63.84,4a15.49,15.49,0,0,1,0,2.26,2.72,2.72,0,0,0,.73,2.06,1.33,1.33,0,0,0,2-.14c1.78.94,1.07,3.87,2.43,5.37a3.67,3.67,0,0,0,3.09.92,1.32,1.32,0,0,0,.72-.24,1,1,0,0,0,.3-.46A2.63,2.63,0,0,1,30.35,29.94Z"/><path class="cls-10" d="M17.44.8l.17-.25,0,0a2.23,2.23,0,0,0-.76.87,3.81,3.81,0,0,1-.24.32A4.4,4.4,0,0,0,17.44.8Z"/></g><path class="cls-3" d="M8.72,45.22S8.31,46.65,11,47.29,8.72,45.22,8.72,45.22Z"/><path class="cls-3" d="M7.54,49.46s-1.38,1,1.94,2.75S7.54,49.46,7.54,49.46Z"/><path class="cls-3" d="M4.45,66.24s3.74-1.06,4.25-2.65S4.45,66.24,4.45,66.24Z"/><path class="cls-3" d="M4.45,86.35A6.52,6.52,0,0,0,7.08,87C8.1,86.93,4.45,86.35,4.45,86.35Z"/><path class="cls-3" d="M5,88.57A5.39,5.39,0,0,0,7.08,89C8.42,89.05,5,88.57,5,88.57Z"/><path class="cls-11" d="M61.57,42.58s-9.75,1.54-8.55-.4,7.57-3.88,8.74-3.48S61.57,42.58,61.57,42.58Z"/><path class="cls-3" d="M61.57,42.58s-9.75,1.54-8.55-.4,7.57-3.88,8.74-3.48S61.57,42.58,61.57,42.58Z"/><path class="cls-12" d="M72.74,20.86s-6.29,1.69-3.38,7.06c0,0,4.76,9.36,2.77,10s-11.21.31-11.21.31-2.15,5.21-1.07,5.37,18.26,3.68,20.11.31,0-18,0-18S77.35,18.71,72.74,20.86Z"/><path class="cls-3" d="M72.74,20.86s-6.29,1.69-3.38,7.06c0,0,4.76,9.36,2.77,10s-11.21.31-11.21.31-2.15,5.21-1.07,5.37,18.26,3.68,20.11.31,0-18,0-18S77.35,18.71,72.74,20.86Z"/><path class="cls-2" d="M90.55,100.69s2.76,6.6,1.23,7.83-1.23,3.53-.16,3.53,3.53-2.15,4.92-4.76c1-2,2.74-5.85,3.54-7.72a1,1,0,0,0-.52-1.32l-.11,0L95,96.85Z"/><path class="cls-2" d="M61.38,108.67s-5.83,4.76-8.9,4.6-3.53,3.07,0,3.54,14.12.61,15,0,.62-7.07,0-7.22S61.38,108.67,61.38,108.67Z"/><path class="cls-13" d="M81.18,59.7s0,4.76-2.45,6.75c0,0-2.92,14.89-.31,15.81s14.43,8.91,15.51,12.9l2.61,2s-4.76,4.75-5.68,4.75-10-12.43-18.12-14.73c0,0-5.06-1.23-4.91-7.83S74,55.25,74,55.25h6.91Z"/><path class="cls-3" d="M81.18,59.7s0,4.76-2.45,6.75c0,0-2.92,14.89-.31,15.81s14.43,8.91,15.51,12.9l2.61,2s-4.76,4.75-5.68,4.75-10-12.43-18.12-14.73c0,0-5.06-1.23-4.91-7.83S74,55.25,74,55.25h6.91Z"/><path class="cls-13" d="M65.22,56.47S60.61,70.9,61.38,76.58a22.49,22.49,0,0,0-.46,11.21c1.38,5.83-.15,20.88-.46,21.19s3.38,3.53,7.37.92c0,0,.15-3.69.92-4.45s.77-16.89,0-19.19,8.29-19,8.29-19,4.91-4.45,3.07-6.76.15-6.9.15-6.9l-14,.92Z"/><circle class="cls-11" cx="63.07" cy="15.18" r="6.14"/><path class="cls-11" d="M67.06,12.41S72,18.09,73.2,18.25s-4,6.75-4,6.75-2.92-4.91-4.91-5.37S67.06,12.41,67.06,12.41Z"/><path class="cls-2" d="M74.12,18.09,73.36,17s-5.29,4.72-5.49,6a2.7,2.7,0,0,0,.42,2l3.07-1.38,1.53-3.07Z"/><path class="cls-2" d="M64.91,56.17s-1.23,3.68-.3,3.53.92-2.15,2-2.15,1.69-1.69,1.69-1.69Z"/><path class="cls-2" d="M72.74,56.47s3.53,7.68,8,6.91l.87-.37a1.68,1.68,0,0,0,1-1.93c-.42-1.77-1.2-4.61-1.84-4.61Z"/><path class="cls-13" d="M56.94,15.56a1.87,1.87,0,0,1,2.6-1.15c2,.77,3.68,2.46,4.14,1.23s1.64-2.36,2.44-1.41,4.4,2.71,4.24,1.79,1.92-6.37-2.07-8.36-6.14-3.54-8.14-2S53.24,10.11,54,12s.46,2.77,1.69,3.23S56.94,15.56,56.94,15.56Z"/><path class="cls-12" d="M74.89,19a1.2,1.2,0,0,0-1.53-1.08c-1.39.31-5.07,6.45-5.07,6.45a43.7,43.7,0,0,0-1.38,6c-.62,3.68-1.84,17.19-3.07,19.49s1.07,7.68,1.07,7.68,1.38-1.54,5.84-.62S81,58.78,81.49,58.32s-.46-1.69.77-3.23S85.18,24.54,79,21.32C79,21.32,76.12,19,74.89,19Z"/><path class="cls-3" d="M73.36,23.62s-6.3,1.69-3.38,7.06c0,0,4.76,9.37,2.76,10S61.53,41,61.53,41s-1,3.3.08,3.45,17.12,5.61,19,2.23,0-18,0-18S78,21.47,73.36,23.62Z"/><path class="cls-13" d="M46.5,40.25l10.2,5.6a.48.48,0,0,0,.67-.13.3.3,0,0,0,0-.08l2.5-5.22a.64.64,0,0,0-.33-.78l-8.47-4.37a.5.5,0,0,0-.65.12l-4.23,4a.62.62,0,0,0,.24.85Z"/><polygon class="cls-2" points="47.18 39.48 56.74 44.95 59.29 40.36 51.08 35.9 47.18 39.48"/><ellipse class="cls-14" cx="55.29" cy="37.82" rx="0.12" ry="0.14" transform="translate(-11.39 44.21) rotate(-39.84)"/><ellipse class="cls-14" cx="51.74" cy="42.51" rx="0.08" ry="0.09" transform="translate(-15.22 43.02) rotate(-39.84)"/><path class="cls-11" d="M61.71,44.91s-9.84.69-8.48-1.14,7.88-3.22,9-2.71S61.71,44.91,61.71,44.91Z"/><path class="cls-12" d="M73.36,22.7s-6.3,1.69-3.38,7.06c0,0,4.76,9.37,2.76,10s-11.21.31-11.21.31-2.14,5.22-1.07,5.37,18.27,3.68,20.11.31,0-18,0-18S78,20.55,73.36,22.7Z"/></g></g></svg>