<svg xmlns="http://www.w3.org/2000/svg" viewBox="0 0 154.7 69.03"><defs><style>.cls-1{fill:#3d3a57;}.cls-2{fill:#eb5f3d;}</style></defs><title>Asset 6</title><g id="Layer_2" data-name="Layer 2"><g id="Layer_6" data-name="Layer 6"><path class="cls-1" d="M141.87,34.66a39.48,39.48,0,0,1-7.72,1.48C125.24,37.21,113,37.59,113,37.59S50.25,42.79,3.19,23.43c0,0-6.84-3.59-.49-8.42a21.4,21.4,0,0,1,3.1-1.89L5.88,13a16.26,16.26,0,0,1,2.33-1.8,16.39,16.39,0,0,1,11.57-2.6l123.58,20S147.87,32.45,141.87,34.66Z"/><path class="cls-1" d="M117.25,25.6,143.12,7.25l11.4,2L143.36,28.63S117.55,28.84,117.25,25.6Z"/><polygon class="cls-1" points="52.12 14.45 103.65 0 111.96 1.74 88.68 12.21 81.4 20.35 52.12 14.45"/><path class="cls-2" d="M134.15,36.14C125.24,37.21,113,37.59,113,37.59S50.25,42.79,3.19,23.43c0,0-6.84-3.59-.49-8.42l0,.09S12.87,22,61.38,27.69Z"/><path class="cls-1" d="M125.87,35.74l23,9.41,5.79-.64L140.91,34.15S124.25,30.59,125.87,35.74Z"/><path class="cls-1" d="M115.74,68.26,101,69,59.36,41l-7.72-5.21-3.75-2.53c7-5.94,35.74,2.26,35.74,2.26a2.53,2.53,0,0,1,.7,2.08,12.84,12.84,0,0,1-1.09,4.14c-.07.17-.11.25-.11.25Z"/><path class="cls-2" d="M11.07,16.11C10,16.12,7.46,14.28,5.89,13a16.26,16.26,0,0,1,2.33-1.8c1.27,1,3.51,2.54,4.76,2.48C14.78,13.64,12.73,16.08,11.07,16.11Z"/></g></g></svg>