<svg xmlns="http://www.w3.org/2000/svg" viewBox="0 0 64.19 66.5"><defs><style>.cls-1{fill:#142334;}.cls-2{fill:#645ea8;}.cls-3{fill:#fff;}.cls-3,.cls-4{opacity:0.1;isolation:isolate;}.cls-4,.cls-7{fill:#060000;}.cls-5{fill:#3d3a57;}.cls-6{fill:#f7c6c5;}.cls-8{fill:none;stroke:#060000;stroke-miterlimit:10;}</style></defs><title>Asset 17</title><g id="Layer_2" data-name="Layer 2"><g id="Layer_6" data-name="Layer 6"><path class="cls-1" d="M47.49,56.05a2,2,0,0,1,2.4-1.45,2,2,0,0,1,.67.3l.08.06c1.74,1.31.71,3.7,0,3.76s-2.07.11-2.07.11A2.22,2.22,0,0,1,47.49,56.05Z"/><path class="cls-2" d="M63.21,54.42v.44s-7.08.48-7.83.48H54l-.05.07c-.06.06-.16.18-.27.32a2.79,2.79,0,0,0-.55,1,1.2,1.2,0,0,1-.49.82l-1.42-.38-1.36-1.64-.2-.19-.57-.54-.48-.46,0-.26v0A16.3,16.3,0,0,1,49,52.41s0,0,0,0c.39-1.18,1.05-2.61,2-3l.23-.09.1,0a17.83,17.83,0,0,1,5.23-.37,13.35,13.35,0,0,1,2.83,1.09c.22.33,2.69,3,2.69,3a4.5,4.5,0,0,1,.6.55A1.84,1.84,0,0,1,63.21,54.42Z"/><ellipse class="cls-3" cx="48.35" cy="56.82" rx="0.76" ry="1.2"/><path class="cls-4" d="M51.51,49.74s-.62,1-1.28,2.19h0c-.18.32-.36.67-.53,1v0s-.36-.29-.64-.57c0,0,0,0,0,0,.39-1.18,1-2.61,2-3l.23-.09Z"/><path class="cls-3" d="M49.66,53s3.87,1.15,4.63.65c0,0,.27-3.48-1.53-3.7,0,0-1-.27-1.25-.1S49.66,53,49.66,53Z"/><path class="cls-3" d="M54.67,50.39s.76,2.89,1.3,2.94,6.05,0,5.83-.43-2.61-2.83-2.61-2.83Z"/><path class="cls-1" d="M53.73,55.61s1-1.3,2.73,0,.71,3.7,0,3.75-2.06.11-2.06.11S52.25,58.6,53.73,55.61Z"/><path class="cls-1" d="M64,55.94a1.58,1.58,0,0,0-2-1l-.12.05a2.77,2.77,0,0,0-.55.33c-1.55,1.16-.63,3.3,0,3.35l.82,0a2,2,0,0,0,2-1.84,1.87,1.87,0,0,0,0-.53C64.1,56.24,64.06,56.09,64,55.94Z"/><ellipse class="cls-3" cx="54.18" cy="57.47" rx="0.76" ry="1.2"/><path class="cls-3" d="M56.3,55.18s-.1-1.58,1.58-.92.6,1.36.6,1.36Z"/><path class="cls-3" d="M63.21,54.42v.22l-.27.1-.55-.1s-.12-.89.33-1.15A1.91,1.91,0,0,1,63.21,54.42Z"/><path class="cls-4" d="M63.21,54.43v.43s-7.08.48-7.83.48h0a1.33,1.33,0,0,0-1.11-.16,1.28,1.28,0,0,0-.28.16l-.07.07a1.18,1.18,0,0,0-.27.32,3.82,3.82,0,0,0-.38,2A3.63,3.63,0,0,1,50.37,57a7.1,7.1,0,0,0-.74-1.66,1.32,1.32,0,0,0-.57-.54l-.49-.46,0-.26L52.54,57s.38-2.45,1.25-2.29a19,19,0,0,0,2.62.17Z"/><path class="cls-2" d="M48.35,54.09s-.32.82,0,.87,1.06-.62,2,2.24a3.63,3.63,0,0,0,2.88.7s-.17-2.06,1-2.56,3.13,2,3.13,2v.55L62,57.36a3.71,3.71,0,0,0,1.36-2.78l-7,.44a20.07,20.07,0,0,1-2.61-.16c-.87-.17-1.25,2.29-1.25,2.29Z"/><rect class="cls-1" x="25.84" y="39.21" width="5.82" height="5.82" rx="2.91"/><path class="cls-5" d="M27.23,49.61a5.46,5.46,0,0,0,1.07-1.13,5.05,5.05,0,0,0,.55-1.31c.41-1.29.76-2.61,1.06-3.94-1.61-.24-2.8-1.66-4.37-2.07,0,0-1.24,7.19-1.32,7.85s-.7,3.14,0,3.15c.38,0,1.17-.94,1.45-1.19Z"/><path class="cls-4" d="M27.23,49.61a5.46,5.46,0,0,0,1.07-1.13,5.05,5.05,0,0,0,.55-1.31c.41-1.29.76-2.61,1.06-3.94-1.61-.24-2.8-1.66-4.37-2.07,0,0-1.24,7.19-1.32,7.85s-.7,3.14,0,3.15c.38,0,1.17-.94,1.45-1.19Z"/><path class="cls-5" d="M7.42,31.44a1.29,1.29,0,0,0-.51.14,1.48,1.48,0,0,0-.36.65,1.55,1.55,0,0,1-.63.73c-.23.15-.53.25-.67.49a1,1,0,0,0-.11.52,10.71,10.71,0,0,0,.07,1.6,2.1,2.1,0,0,1,0,.79,2.16,2.16,0,0,1-.43.82,3.86,3.86,0,0,0-.9,2,6,6,0,0,1,0,1.12C3.7,41,3,41.38,2.88,42a3.57,3.57,0,0,1-.1.57c-.13.32-.49.49-.59.81a2.74,2.74,0,0,0,0,.75,2,2,0,0,1-.37,1L.78,47A4.77,4.77,0,0,0,0,49a4.34,4.34,0,0,0,.35,1.8C.82,52,1.51,53.4,2.79,53.89a5.34,5.34,0,0,0,2.39.16,17.09,17.09,0,0,0,3.27-.48c.52-.15,1-.35,1.57-.46a9.46,9.46,0,0,0,1.06-.21,2.18,2.18,0,0,0,1.42-1.72c.45.18.87-.42.81-.9a9.76,9.76,0,0,0-.52-1.36,2.68,2.68,0,0,1,.31-2c.31-.59.75-1.12,1.09-1.7a6.33,6.33,0,0,0,.77-2.1,12.87,12.87,0,0,0,.08-3l-.22-3.87a5.24,5.24,0,0,0-.4-2.08,4.82,4.82,0,0,0-1.59-1.68,26.82,26.82,0,0,0-2.89-1.92c-.65-.36-.6-.22-1.11.21A2.86,2.86,0,0,1,7.42,31.44Z"/><path class="cls-5" d="M16.18,42.22a11.28,11.28,0,0,0-2,1.91A5.59,5.59,0,0,0,13,47.28a9.45,9.45,0,0,0,.11,1.59,3.06,3.06,0,0,0,1,2.29c.45.3,1.08.37,1.39.82.1.14.16.31.27.44a1.22,1.22,0,0,0,.83.29,8.7,8.7,0,0,0,1.35,0,4.64,4.64,0,0,1,1.53-.08c1,.18,1.71,1.11,2.71,1.23A3.52,3.52,0,0,0,24.54,53a5,5,0,0,0,1.84-1.74,4.93,4.93,0,0,0,.33-2.45,11.55,11.55,0,0,0-.32-2.75,5.65,5.65,0,0,1-.17-.71,4.16,4.16,0,0,1,.42-1.84,2.79,2.79,0,0,0-.18-2.75,2.39,2.39,0,0,0-1-.62A10.76,10.76,0,0,0,20.13,40C18.47,40.27,17.48,41.19,16.18,42.22Z"/><path class="cls-6" d="M30.53,38.62a21.22,21.22,0,0,0-1.83,3.12,19.22,19.22,0,0,0-.83,2.46,23.48,23.48,0,0,1-2.67,6.67,2,2,0,0,0-.42.93,1.77,1.77,0,0,0,.28.91,9,9,0,0,0,1.09,1.75,9,9,0,0,0,1.51,1.32,6.19,6.19,0,0,0,3.75,1.66,1.11,1.11,0,0,0,.79-.3,1,1,0,0,0,.19-.79,4.23,4.23,0,0,0-1.34-2.17,3.24,3.24,0,0,1-1.12-2.24,3.36,3.36,0,0,1,.95-1.88c.51-.64,1-1.28,1.51-1.94a36.94,36.94,0,0,0,4.81-9.45A10.22,10.22,0,0,0,38,34.3c-1.15-.28-3.44-1.22-4.41-.25a12.9,12.9,0,0,0-1.46,2.15Z"/><path class="cls-2" d="M40.2,28.84a18,18,0,0,0-1.69,4,2.32,2.32,0,0,0-.11,1,3.67,3.67,0,0,0,.52,1A1.12,1.12,0,0,1,39.07,36a7.09,7.09,0,0,1-2.4-.38l-2.46-.69a1.31,1.31,0,0,1-.56-.26,1.29,1.29,0,0,1-.21-1.11c.49-3.17,2-6.09,2.62-9.25A2,2,0,0,1,36.59,23c1-.82,3.4-.12,3.94,1.07A6,6,0,0,1,40.2,28.84Z"/><path class="cls-6" d="M27,18a.36.36,0,0,0-.22.2.35.35,0,0,0,.1.29L28,20a45,45,0,0,0,3.27,4.26,24.05,24.05,0,0,0,3,2.75,2.35,2.35,0,0,1,.77.83,8,8,0,0,1,.32-5.91c.35-.73.8-1.41,1.16-2.13a.3.3,0,0,0,0-.43.26.26,0,0,0-.13-.06c-.91-.47-1.9-.76-2.81-1.23a15.82,15.82,0,0,1-2-1.35,7.37,7.37,0,0,0-2-1.36c-.76-.2-.73.5-1,1.07A3.17,3.17,0,0,1,27,18Z"/><path class="cls-4" d="M27,18a.36.36,0,0,0-.22.2.35.35,0,0,0,.1.29L28,20a45,45,0,0,0,3.27,4.26,24.05,24.05,0,0,0,3,2.75,2.35,2.35,0,0,1,.77.83,8,8,0,0,1,.32-5.91c.35-.73.8-1.41,1.16-2.13a.3.3,0,0,0,0-.43.26.26,0,0,0-.13-.06c-.91-.47-1.9-.76-2.81-1.23a15.82,15.82,0,0,1-2-1.35,7.37,7.37,0,0,0-2-1.36c-.76-.2-.73.5-1,1.07A3.17,3.17,0,0,1,27,18Z"/><path class="cls-2" d="M33.47,23.89a12.82,12.82,0,0,0-1.68-1.34,11.63,11.63,0,0,1-2.07-2.3c-1.14-1.52-2.28-3.39-1.72-5.2a1.56,1.56,0,0,0-1.4,1,12.86,12.86,0,0,1-.78,1.63,5,5,0,0,1-2.3,1.43,37.68,37.68,0,0,0-5.4,2.68,7.85,7.85,0,0,0-1.91,1.47,20.71,20.71,0,0,0-1.4,2.18,8.25,8.25,0,0,1-4,3.05,7.77,7.77,0,0,0-1.54.66,3.17,3.17,0,0,0-1.18,3.2,5,5,0,0,0,2,2.9,12.59,12.59,0,0,0,3.19,1.56c.93.34,1.88.67,2.82,1a17.32,17.32,0,0,0,2.14.58c1.33.24,2.7.18,4.05.33s2.44.45,3.67.54a5.45,5.45,0,0,0,3.55-.8,6.82,6.82,0,0,0,1.83-2.29,62.33,62.33,0,0,0,3.42-6.84c.3-.7,3-4.63,2.35-5.14-3.43-2.56-2.29,1.51-2.62,1.2S33.86,24.34,33.47,23.89Z"/><path class="cls-1" d="M29.22,21.54a32.06,32.06,0,0,1-1.73-4.65,2.22,2.22,0,0,1-.13-1.34c.18-.52.75-1,.58-1.49-1.32.42-2.86,1.07-3.12,2.44a3.29,3.29,0,0,1-.19.88c-.27.53-1,.64-1.54.73a7.79,7.79,0,0,0-4.55,2.22,3.64,3.64,0,0,1-.63.61,3.53,3.53,0,0,1-.56.25,6.28,6.28,0,0,0-3,1.88c-.38.49-.62,1.09-1.05,1.55-.57.62-1.41.94-2,1.52a5.32,5.32,0,0,0-1,1.37C9.19,29.43,8.41,31.67,9,33.78c.3,1.11.94,2.09,1.29,3.18.48,1.48.43,3.18,1.33,4.45a5.46,5.46,0,0,0,2.33,1.74,12.73,12.73,0,0,0,6.36,1c.8-.1,1.6-.23,2.39-.41a21.34,21.34,0,0,0,5.51-1.69c2.93-1.5,5-4.19,7-6.79a9.09,9.09,0,0,0,1-1.57,11.09,11.09,0,0,0,.61-1.7c.61-1.93,1.47-3.86,1.39-5.89a1.87,1.87,0,0,0-.14-.71c-.08-.17-.21-.31-.28-.48a7.69,7.69,0,0,1-.16-1c-.25-.88-1.4-1-2.31-1l-.29,5.13a3.06,3.06,0,0,1-.7,2.14,1.54,1.54,0,0,1-1.8.14,1.88,1.88,0,0,1-.69-1.75,7.25,7.25,0,0,0-.33-2.4A37.58,37.58,0,0,0,29.22,21.54Z"/><path class="cls-6" d="M29.58,36.16A68.5,68.5,0,0,1,40.1,42.3c.75.57,1.48,1.16,2.27,1.67,2.27,1.44,5.09,2.14,6.84,4.19a15,15,0,0,0,1.11,1.28,4.84,4.84,0,0,0,1.22.72,10.64,10.64,0,0,0,4.48.92,2.66,2.66,0,0,0,1.18-.21c1-.47,1.19-1.74,1.29-2.82a1.14,1.14,0,0,0-.24-1,1.2,1.2,0,0,0-.56-.18A21.83,21.83,0,0,1,49,43c-2.64-1.81-5.07-3.92-7.68-5.79-.92-.65-1.85-1.28-2.79-1.9l-3-2a12.11,12.11,0,0,0-5.23-2.37.58.58,0,0,0-.32,0,.73.73,0,0,0-.35.4,30.42,30.42,0,0,1-1.94,3.11c-.37.54-.41.68.23,1S29,35.87,29.58,36.16Z"/><path class="cls-7" d="M36.71,66.5a.16.16,0,0,0,0-.32.16.16,0,0,0,0,.32Z"/><circle class="cls-6" cx="37.85" cy="15.06" r="9.96"/><path class="cls-1" d="M30,19c.17-.9,1.2-1.35,2.11-1.41a5.26,5.26,0,0,1,4.68,2.38,7.41,7.41,0,0,0,.42-1.73l1.67.12a1.15,1.15,0,0,0,.55,0,1,1,0,0,0,.46-.52c.73-1.36,1.22-3,2.59-3.75v1.88a2.51,2.51,0,0,0,1.75-1.34,7.34,7.34,0,0,0,.44,1.52c0,.08.08.17.17.19a.35.35,0,0,0,.22-.08,10.08,10.08,0,0,0,1.72-1.67l2,3.43A12.87,12.87,0,0,0,43.18,2a9.83,9.83,0,0,0-1.43-.68,14.27,14.27,0,0,0-4-.74A10.42,10.42,0,0,0,32,1.37a10.75,10.75,0,0,0-2.43,2A10.72,10.72,0,0,0,27,6.75a10.64,10.64,0,0,0-.6,2.86,4.52,4.52,0,0,0,0,1.76c.12.4.34.75.49,1.13a9.65,9.65,0,0,1,.38,2,12,12,0,0,0,1.43,4.24,1.17,1.17,0,0,0,.67.64c.31.07.69-.27.52-.54"/><path class="cls-8" d="M30,19c.17-.9,1.2-1.35,2.11-1.41a5.26,5.26,0,0,1,4.68,2.38,7.41,7.41,0,0,0,.42-1.73l1.67.12a1.15,1.15,0,0,0,.55,0,1,1,0,0,0,.46-.52c.73-1.36,1.22-3,2.59-3.75v1.88a2.51,2.51,0,0,0,1.75-1.34,7.34,7.34,0,0,0,.44,1.52c0,.08.08.17.17.19a.35.35,0,0,0,.22-.08,10.08,10.08,0,0,0,1.72-1.67l2,3.43A12.87,12.87,0,0,0,43.18,2a9.83,9.83,0,0,0-1.43-.68,14.27,14.27,0,0,0-4-.74A10.42,10.42,0,0,0,32,1.37a10.75,10.75,0,0,0-2.43,2A10.72,10.72,0,0,0,27,6.75a10.64,10.64,0,0,0-.6,2.86,4.52,4.52,0,0,0,0,1.76c.12.4.34.75.49,1.13a9.65,9.65,0,0,1,.38,2,12,12,0,0,0,1.43,4.24,1.17,1.17,0,0,0,.67.64c.31.07.69-.27.52-.54"/><path class="cls-2" d="M18.58,28.51A6.09,6.09,0,0,0,21,31.05l2.5,1.78a6.14,6.14,0,0,1,1.78,1.66,1.38,1.38,0,0,0-.71,1.69A2.18,2.18,0,0,0,26,37.5a5.65,5.65,0,0,0,2,.16,4.27,4.27,0,0,0,2.23-.58l-1.41-.86c-.37-.24-.8-.6-.66-1h1.48a.75.75,0,0,0,.45-.1.76.76,0,0,0,.22-.39,3.29,3.29,0,0,1,2.78-2.09,1.5,1.5,0,0,0,1-.29,1.23,1.23,0,0,0,.23-.68,4.32,4.32,0,0,0,0-1.39,1.52,1.52,0,0,0-.78-1.1,3.75,3.75,0,0,0-1-.17c-1.57-.21-2.66-1.63-3.51-3s-1.75-2.83-3.25-3.33a5.1,5.1,0,0,0-1.45-.22,6.87,6.87,0,0,0-3.18.49C19.33,23.79,17.87,26.54,18.58,28.51Z"/><path class="cls-4" d="M48.79,16.07l-2-3.43a9.66,9.66,0,0,1-1.72,1.66.31.31,0,0,1-.22.09c-.09,0-.13-.11-.17-.2a7.08,7.08,0,0,1-.44-1.51A2.52,2.52,0,0,1,42.5,14V12.14c-1.36.72-1.85,2.39-2.58,3.75a1.06,1.06,0,0,1-.46.52,1.15,1.15,0,0,1-.55.05l-1.67-.13a7.37,7.37,0,0,1-.42,1.74,5.23,5.23,0,0,0-4.68-2.38c-.91.06-1.94.51-2.11,1.41l-.09-.1c.17.27-.21.61-.52.54a1.14,1.14,0,0,1-.67-.64,12.15,12.15,0,0,1-1.43-4.25,9,9,0,0,0-.38-2c-.15-.38-.37-.74-.48-1.13v0l0,.23a4.44,4.44,0,0,0,0,1.78,12.17,12.17,0,0,0,.48,1.12,9,9,0,0,1,.38,2,12,12,0,0,0,1.43,4.24,1.19,1.19,0,0,0,.67.65c.31.07.68-.28.52-.55l.09.1c.17-.89,1.2-1.35,2.11-1.41A5.26,5.26,0,0,1,36.82,20a7.41,7.41,0,0,0,.42-1.73l1.67.12a1.15,1.15,0,0,0,.55-.05,1,1,0,0,0,.46-.52c.73-1.36,1.22-3,2.58-3.75V16a2.51,2.51,0,0,0,1.76-1.34,7.34,7.34,0,0,0,.44,1.52c0,.08.08.17.17.19a.27.27,0,0,0,.22-.08,10.08,10.08,0,0,0,1.72-1.67l2,3.43a13,13,0,0,0,.86-5.73A13.24,13.24,0,0,1,48.79,16.07Z"/></g></g></svg>