<svg xmlns="http://www.w3.org/2000/svg" viewBox="0 0 143.74 125.03"><defs><style>.cls-1{fill:#f8f9f9;}.cls-2{fill:#2d2c42;}.cls-3{fill:#a76167;}.cls-4{fill:#645ea8;}.cls-5{fill:#dad6e8;}.cls-6,.cls-9{fill:#060000;}.cls-6{opacity:0.1;}.cls-10,.cls-6,.cls-9{isolation:isolate;}.cls-7{fill:#f6bfbf;}.cls-8{fill:#545589;}.cls-10,.cls-9{opacity:0.2;}.cls-10{fill:none;stroke:#060000;stroke-miterlimit:10;stroke-width:2px;}</style></defs><title>Asset 4</title><g id="Layer_2" data-name="Layer 2"><g id="Layer_6" data-name="Layer 6"><ellipse class="cls-1" cx="26" cy="120.87" rx="26" ry="4.16"/><path class="cls-2" d="M37,115l1.12-.84s.74,4.15-.09,4.77-3.93,1.66-3.93,2.9-7,2.9-7.25,1a4.1,4.1,0,0,1,.63-2.89s3.31-3.32,3.72-3.94,1.45-1.86,1.45-1.86Z"/><path class="cls-2" d="M20.47,63.4s0,.18.08.51.12.72.2,1.23c.87,5.31,3.41,20.93,3.24,21.44s-1.66,2.9,0,3.52a1.29,1.29,0,0,1,.51.56,12.14,12.14,0,0,1,.88,2.07A92.24,92.24,0,0,1,28,103.36c.27,1.39.45,2.52.5,3.1a1.42,1.42,0,0,1,0,.41c-.21.83,1.24,3.73,1.86,4.56s1.66,1.65,1.45,2.48,5.18,3.11,5.8,1.66.62-2.28.83-2.69.41-3.32-.62-3.73-.42-7.66-1.45-9.11A19.22,19.22,0,0,1,35,96c-.22-.77-.44-1.59-.65-2.41-.87-3.37-1.65-6.76-1.65-6.76l.21-24.22L21.5,61.12l-.29.64L20.63,63Z"/><path class="cls-2" d="M19.85,103.15s-1.66-1.66-2.49,0-1.66,8.07-3.1,9.52-3.32,8.7-1.25,9.11,4.35-.62,4.56-1.86,4.55-7.66,4.55-8.28-2.9-2.9-2.9-2.9Z"/><path class="cls-2" d="M45.31,52S42.62,76.23,42,78.51s-3.94,11-5,12.42-7.66,13.25-8.49,13.87-2.48,2.28-2.48,2.28-3.11,3.11-3.52,3.73-3.94-1.25-4.14-2.49a12.62,12.62,0,0,1,.41-4.14c.21-.83-.41-2.07.21-2.69s3.72-3.73,3.72-5.18,5.39-9.93,7.46-11.8,1.65-5,1.65-5V66.92L20.47,63.4s.62-9.94,2.07-9.94S43,50.15,45.31,52Z"/><circle class="cls-3" cx="28.54" cy="10.6" r="6.83"/><path class="cls-3" d="M30.82,16s.83,3.11,1.86,3.94S30,24.27,30,24.27l-7,.41-1.24-3.93s2.28-4.56,1.65-7.46S30.82,16,30.82,16Z"/><path class="cls-4" d="M33.72,19.5s-1.87.21-2.28.83-3.31,2.49-5.59,2.07-3.73-1-4.14-.83-1.24,4.56-1.24,4.56l2.27,6.62L22.33,51l-.62,5s-1.24-1.65,3.73-.62,11.38-.83,13.45-1,5.59-.83,5.8-2.07-.62-5.8-.62-5.8L40.76,32.55l-2.07-7.46Z"/><path class="cls-5" d="M31.76,18.57s1.75-.93,2.37-.1,8.49,2.07,8.49,2.69S44.28,38.55,43.86,40a4.25,4.25,0,0,0,.83,3.11l1.45,6.21s3.93,11.8,2.28,12.21a10.65,10.65,0,0,1-3.73,0c-.62,0-.41-7.86-2.07-9.94s-3.93-7.24-4.35-8.28-5.59-15.32-5.38-17S31.76,18.57,31.76,18.57Z"/><path class="cls-5" d="M23.16,19.5s-1.66,0-1.87.42a22.26,22.26,0,0,1-3.1,3.72c-.83.63-3.73,3.32-3.73,3.94s6,5.17,6,5.17S23,45,21.71,49.11s-3.11,14.08-2.28,14.7,2.69.83,2.69,0,1.24-9.73,2.28-11.59,4.14-13.67,2.9-17S23.16,19.5,23.16,19.5Z"/><path class="cls-3" d="M50.49,40s.2,6.42-2.07,9.73a39.19,39.19,0,0,0-3.73,7s-3.73-1-4.35-2.28-4.55-.2-4.55-.62S40.55,51.39,41,51s1.87-.41,2.69-1.24a5.49,5.49,0,0,0,1-2.69l.83-5.38Z"/><path class="cls-2" d="M33.25,6.39A4,4,0,0,0,34.78,6a2,2,0,0,0,.52-3,4,4,0,0,0-.72-.58L33,1.34A7.63,7.63,0,0,0,30.78.17,6.65,6.65,0,0,0,28.51,0a15.32,15.32,0,0,0-4.35.79A7.29,7.29,0,0,0,20.64,3.4,7.76,7.76,0,0,0,20,10.15a22.92,22.92,0,0,0,3.51,6.07l.71-3.48a1.24,1.24,0,0,1,.4-.83c.64-.46,1.42.48,2.21.47A1.31,1.31,0,0,0,28,11.49,5.22,5.22,0,0,0,28.22,10c.09-1.07.47-2.55,1.47-3.14S32.19,6.49,33.25,6.39Z"/><path class="cls-6" d="M32.86,63.56s-.7,20.23-1.11,20.85,0-20.91,0-20.91Z"/><path class="cls-5" d="M41,21.16h1.66s7,9.52,6.21,10.15,0,2.27,0,2.27l1.66,3.11s2.07,1.86,1.45,2.28A7.32,7.32,0,0,0,50.49,41s-4.14-.63-5.39,1.86l-2.68-3.39Z"/><rect class="cls-2" x="37.82" y="24.96" width="6.15" height="11.46" transform="translate(-8.62 17.93) rotate(-22.44)"/><ellipse class="cls-4" cx="40.45" cy="29.39" rx="1.23" ry="1.13" transform="translate(-8.16 17.66) rotate(-22.44)"/><path class="cls-3" d="M36.82,37.72s-14.9,12.43-17.39,8.49S22.12,39,22.12,39a18.28,18.28,0,0,0,9.73-3.11L37,33.58s4.72-6.74,6.33-4.17S40.62,36.45,36.82,37.72Z"/><path class="cls-5" d="M16.74,26.75l-2.28.83v6.21L13.63,35s.21,2.49.83,3.11,1.87.41,1.45,1.86a7.88,7.88,0,0,0-.21,2.9s3.73,4.76,3.94,4.14,3.1-8.28,3.52-8.28-4.14-12-4.14-12Z"/><path class="cls-2" d="M44,58.12s2.15-2.07,1.08-2.18-4.8-2.17-5.42-1.14S44,58.12,44,58.12Z"/><ellipse class="cls-1" cx="103.51" cy="98.19" rx="40.23" ry="6.44"/><path class="cls-2" d="M94.57,36.32s.34,1.14-1.6,2.17-2.51,4.91-.23,6,3,2.62,1.83,3.65-3.2,3.77-.46,4.46,3.09,2.05,2.29,2.62,1.82-1,1.82-1,.46,2.74,2.86,2.06,9.13-13.7,5.71-15.53S94.57,36.32,94.57,36.32Z"/><path class="cls-7" d="M98.71,47.34s1.18,4.15-.89,4.44a8.09,8.09,0,0,0-3.55,1.48l3.85,5h7.1l4.44-4.44s-5.92-4.44-4.73-7.11S98.71,47.34,98.71,47.34Z"/><path class="cls-6" d="M98.71,47.34s1.18,4.15-.89,4.44a8.09,8.09,0,0,0-3.55,1.48l3.85,5h7.1l4.44-4.44s-5.92-4.44-4.73-7.11S98.71,47.34,98.71,47.34Z"/><polygon class="cls-7" points="100.48 98.86 107.3 101.23 112.03 101.53 111.74 97.38 101.97 94.49 100.48 98.86"/><path class="cls-8" d="M109.22,98s0,4.15.59,4.15,8.59-.89,11,0,5.92-2.37,4.14-4.15-4.67-4.44-6.48-3.85-9.21,2.08-9.21,2.08Z"/><path class="cls-8" d="M87.46,94.12s-3.56,7.11-1.19,7.7a8.2,8.2,0,0,0,5.33-.59c.3-.3,4.44-1.48,5-.89s.59-2.37.59-2.37Z"/><path class="cls-2" d="M90.42,84.35s-5.63,7.7-1.48,9.77,24,2.08,25.46,0,2.07-8.58,0-9.18S90.42,84.35,90.42,84.35Z"/><path class="cls-9" d="M90.42,84.35s-5.63,7.7-1.48,9.77,24,2.08,25.46,0,2.07-8.58,0-9.18S90.42,84.35,90.42,84.35Z"/><circle class="cls-7" cx="101.08" cy="42.61" r="6.81"/><path class="cls-4" d="M90.42,53.26l5.92-1.18s1.48,4.74,6.22,3.85,5.92-3.85,5.92-3.85,3.55,1.48,3.85,1.48,4.14,1.48,4.14,2.37S112,65.7,112,65.7l.59,16L90.71,81.1l1.48-15.7Z"/><path class="cls-7" d="M87.16,61s-1.78,15.69-.59,16.88,5.92,4.44,5.92,4.44V78.73l-2.37-4.44,2.37-10.37Z"/><path class="cls-7" d="M117.81,60.52s-1,16.13-1,16.73-2.67,2.66-3.55,2.66-1.48-1.48-1.48-1.48l2.07-2.37-1.48-12.14Z"/><path class="cls-2" d="M115,83.17s13.33-7.4,13.62,0-6.81,10.36-6.81,10.36S103.45,99,102.71,97s-2.23-5.27-1-5.56,2.66-.89,3.26-.3,8-4.44,8-4.44Z"/><path class="cls-10" d="M121.21,82.28a16.76,16.76,0,0,0-3.55,2.07c-.89.89-4.74,2.37-4.74,2.37"/><path class="cls-4" d="M92.19,53.86l-1.77-.6S83.9,60.07,86,61.85s3.25,2.37,3.85,3,3.55.89,3.55.89Z"/><path class="cls-4" d="M113.81,55.34l2.66.59a43.77,43.77,0,0,0,2.67,5c.59.59-.89.3-1.78,1.48s-1.78,3.26-3.55,3.26-4.15-3-4.15-3Z"/><path class="cls-2" d="M91,85.83s-11.25-8-15.1-2.07,16.58,13.92,19.54,15.1,5.63,2.37,5.63,2.37,2.66-6.51,2.66-7.7-2.07-1.18-2.66-1.18-3.26-.6-3.85-1.48S91,85.83,91,85.83Z"/><path class="cls-10" d="M84.79,83.76a17.08,17.08,0,0,0,5.63,3A5.5,5.5,0,0,1,94,88.79"/><path class="cls-8" d="M89,72.63l.23,12.53a1.57,1.57,0,0,0,1.59,1.54l23.33-.26A1.57,1.57,0,0,0,115.67,85l.71-12.27A1.57,1.57,0,0,0,114.9,71H90.54A1.57,1.57,0,0,0,89,72.6Z"/><path class="cls-2" d="M101.44,34.05s.38,1.27-1.77,2.4-2.78,5.44-.25,6.71,3.29,2.91,2,4.05-3.54,4.17-.51,4.93,3.42,2.27,2.53,2.91,2-1.14,2-1.14.5,3,3.16,2.28S114,41.63,111,38.08C108.24,34.78,101.44,34.05,101.44,34.05Z"/><path class="cls-2" d="M100.63,32.75c0-1.85,5.55-.52,7.92,2.06,1.65,1.8,4.15,4.49,2,6.39s3.6,4.39,5.12,5.15,4.54,3.06,1.82,4.61-2.68,3.11-1.65,3.48-2.26-.55-2.26-.55.33,3.06-2.43,3-10.69-15.2-8.79-19.42C104.17,33.6,100.63,32.75,100.63,32.75Z"/><path class="cls-2" d="M101.83,32.34c-7.41-.44-8.15,5.14-8.15,5.14,0,3.23,5.18,1.65,6.6,2.13,1.72-1.23,5-3.57,7.4-5.24A11.29,11.29,0,0,0,101.83,32.34Z"/></g></g></svg>