<svg xmlns="http://www.w3.org/2000/svg" viewBox="0 0 152.55 129.33"><defs><style>.cls-1{fill:#3d3a57;}.cls-2{fill:#060000;opacity:0.1;isolation:isolate;}.cls-3{fill:#fbc700;}.cls-4{fill:#605078;}.cls-5{fill:#d9a9a5;}.cls-6{fill:#f7c6c5;}.cls-7{fill:#fff;}.cls-8{fill:#e4b2af;}</style></defs><title>Asset 24</title><g id="Layer_2" data-name="Layer 2"><g id="Layer_6" data-name="Layer 6"><rect class="cls-1" x="13.22" y="92.03" width="17.12" height="35.52"/><rect class="cls-2" x="13.22" y="92.03" width="17.12" height="35.52"/><path class="cls-3" d="M109.85,42.7h0a42.7,42.7,0,0,0-85.4.7v77.52A7.55,7.55,0,0,0,32,128.46h77.85c23.58,0,42.7-19.48,42.7-43.07A42.69,42.69,0,0,0,109.85,42.7Z"/><path class="cls-4" d="M24.28,100.84H43.83v27.6h-12a7.54,7.54,0,0,1-7.55-7.54V100.84Z"/><rect class="cls-5" x="30.34" y="87.09" width="20.93" height="20.93"/><rect class="cls-2" x="30.34" y="89.12" width="20.93" height="20.93"/><path class="cls-4" d="M68,86.71s20.3,9.33,19.67,14a6,6,0,0,1-4.78,5.3L70.7,100.08l-8.58-6.81Z"/><path class="cls-6" d="M48.47,96.65a5.37,5.37,0,0,1-.11,2.76c-.37,1-1.19,1.66-1.63,2.58a4.8,4.8,0,0,0,.32,4.38,11.7,11.7,0,0,0,3.11,3.32,18.52,18.52,0,0,0,5.89,3.3,23.93,23.93,0,0,0,8.06.53,3.73,3.73,0,0,0,1.32-.21,4.16,4.16,0,0,0,.83-.5,14.33,14.33,0,0,0,3.8-3.56,7.51,7.51,0,0,0,.66-6.83c-.89-2.16-2.79-3.85-3.43-6.1a18.64,18.64,0,0,1-.23-5.07,1.59,1.59,0,0,0-.16-.83,1.67,1.67,0,0,0-1.3-.59,60.44,60.44,0,0,0-10.06-.65,30.86,30.86,0,0,0-5.07.57c-.9.19-3.08.35-3.31,1.51-.14.7.48,1.74.66,2.4A23.42,23.42,0,0,1,48.47,96.65Z"/><path class="cls-2" d="M48.47,96.65a5.37,5.37,0,0,1-.11,2.76c-.37,1-1.19,1.66-1.63,2.58a4.8,4.8,0,0,0,.32,4.38,11.7,11.7,0,0,0,3.11,3.32,18.52,18.52,0,0,0,5.89,3.3,23.93,23.93,0,0,0,8.06.53,3.73,3.73,0,0,0,1.32-.21,4.16,4.16,0,0,0,.83-.5,14.33,14.33,0,0,0,3.8-3.56,7.51,7.51,0,0,0,.66-6.83c-.89-2.16-2.79-3.85-3.43-6.1a18.64,18.64,0,0,1-.23-5.07,1.59,1.59,0,0,0-.16-.83,1.67,1.67,0,0,0-1.3-.59,60.44,60.44,0,0,0-10.06-.65,30.86,30.86,0,0,0-5.07.57c-.9.19-3.08.35-3.31,1.51-.14.7.48,1.74.66,2.4A23.42,23.42,0,0,1,48.47,96.65Z"/><circle class="cls-5" cx="33.99" cy="79.4" r="15.89"/><circle class="cls-6" cx="57.51" cy="81.61" r="15.89"/><path class="cls-7" d="M66.58,72.8c-.69.3-1.27.78-1.94,1.12-1.92,1-4.22.66-6.32.2-1.11-.25-2.42-.74-2.63-1.86s1-2.15,1.33-3.3a7.37,7.37,0,0,0-5.17,1c-1.94,1.18-3.35,3.28-5.54,3.85a2.05,2.05,0,0,1-1.25,0,1.93,1.93,0,0,1-.93-1c-1-2.08.37-4.46.72-6.74.28-1.91-.1-4.11,1.18-5.54s3.65-1.26,5.59-1.69A7.73,7.73,0,0,0,55.18,57a7.06,7.06,0,0,1,.88-.76,3.78,3.78,0,0,1,1.34-.44,7.88,7.88,0,0,1,5.28,1.06,14.55,14.55,0,0,0,3.29,2,13.87,13.87,0,0,0,2,.3,7.77,7.77,0,0,1,6.17,5.21,6.14,6.14,0,0,0,.57,1.48c.58.87,1.7,1.2,2.49,1.89a6.29,6.29,0,0,1,1.54,2.72,30.26,30.26,0,0,1,1.54,8.32,6.31,6.31,0,0,1-1,4.4c-.23.25-.45.51-.66.77-.68,1-.32,2.4-.46,3.61a4.2,4.2,0,0,1-1.32,2.55.93.93,0,0,1-.66.32.94.94,0,0,1-.68-.51A17.87,17.87,0,0,1,74.41,87C74,86,73.1,85.12,72.07,85.27c-.26,0-.51.14-.77.18a2.17,2.17,0,0,1-2-.89,4.94,4.94,0,0,1-.83-2.07,22.23,22.23,0,0,1-.26-6.36c.07-.82.54-2.28.32-3.06S67.22,72.51,66.58,72.8Z"/><path class="cls-1" d="M59.39,110.49a12.13,12.13,0,0,1-6-5.15c-1-1.72-1.58-3.68-2.73-5.32-1.66-2.39-4.8-1.19-7.71-1.2-3.73,0-6.78-.51-9.84,1.61-2,1.42-4.23,3-4.78,5.47-.49,2.09.38,4.33-.11,6.42-.33,1.42.09,2.72-.15,4.15-.33,2-.6,3.92.43,5.68l3.58,6.11,38.84.15s-.08.07-.1.07H98.63a13.42,13.42,0,0,0-.55-3.85,27.69,27.69,0,0,0-1.71-3.71l-7-13.4c-1.34-2.56-2.8-5.26-5.31-6.7a36.1,36.1,0,0,0-4.39-1.74c-1.91-.78-2.42-.23-4.41-.77s-5.67-1.92-6.76-.18c-.85,1.38-.6,3.14-.92,4.73a10.56,10.56,0,0,1-1.9,4,11.89,11.89,0,0,1-2.76,2.94A3.55,3.55,0,0,1,59.39,110.49Z"/><path class="cls-6" d="M59.28,118.18s-13.12,1-13,3.78c0,0,12.48,3.4,12.48,3.28S59.28,118.18,59.28,118.18Z"/><path class="cls-1" d="M43.14,112.25s1,7.94,4.66,9.46,15.26,1.76,15.26,1.76l7.82,5.05H32.29s-1.76-20.8,0-20.8S43.14,112.25,43.14,112.25Z"/><path class="cls-1" d="M73.78,109.22l9.08,7.57-24.71.63s-3.59,4.42-2.11,5.68,8.41,2.14,8.41,2.14l6.43,3.28,27,0-9-16.23Z"/><path class="cls-2" d="M73.78,109.22l9.08,7.57-24.71.63s-3.59,4.42-2.11,5.68,8.41,2.14,8.41,2.14l6.43,3.28,27,0-9-16.23Z"/><polygon class="cls-4" points="78.63 97.56 63 110.42 74.47 119.5 87.46 102.48 78.63 97.56"/><path class="cls-8" d="M70.25,111.49s10.46-1.89,12.35-2.77,9.47-4.16,7.44-1.64-2.9,2.65-2.9,2.65,7.82.63,7.57,2.14-1.14,1.76-1.14,1.76,3.28,1.9,2.52,2.4-.25,2.27-.37,2.65.88,2.39-.13,2.64a94.23,94.23,0,0,1-14-.75c-2.26-.51-12.48.12-12.48.12Z"/><path class="cls-4" d="M21.64,94.53a9.11,9.11,0,0,0,0,10.85c4,5.92,12.35,12.73,16.89,13.87s34.68,1.64,34.68,1.64,1.39-13.62,0-14.13-26,1.14-29.38-1.38S30.21,95.54,27.18,95.29A54.23,54.23,0,0,1,21.64,94.53Z"/><path class="cls-1" d="M44.33,68.16a19.75,19.75,0,0,0-3.43-1.07c-5.79-1.22-11.36,5.59-10,11.24.55,2.28,2.11,4.4,1.86,6.73s-2.05,4-2.42,6.21a2.38,2.38,0,0,0,.14,1.49c.35.71,1.16,1.07,1.58,1.75.69,1.13-.08,2.69-1.24,3.35a9.22,9.22,0,0,1-3.87.79,27.08,27.08,0,0,0-4.89.86,6.74,6.74,0,0,0-2.56,1.14c-1.74,1.39-2,4-1.34,6.14s1.95,4,2.9,6,1.52,4.42.58,6.43-3.51,3.62-3.4,6a14.71,14.71,0,0,1,.21,1.86,2.81,2.81,0,0,1-3.15,2.29,5.72,5.72,0,0,1-3.6-2.26A12.13,12.13,0,0,1,9,120.51c-.23-2.33.23-4.73-.32-7-.51-2.11-1.83-3.92-3-5.77A38.78,38.78,0,0,1,0,87.91a16.78,16.78,0,0,1,.63-5.24c.67-2.11,2-4,2.94-5.94s3.44-8.25,5.61-14a14,14,0,0,1,14.15-9,9.32,9.32,0,0,0,2.36-.06c1.41-.27,2.69-1,4.08-1.33a9.48,9.48,0,0,1,10.34,4.25,33.67,33.67,0,0,0,1.68,3.07A25.33,25.33,0,0,0,43.93,62,11.6,11.6,0,0,1,45,63.35"/><path class="cls-2" d="M109.85,42.33h0A42.61,42.61,0,0,0,35.06,14.68a42.61,42.61,0,0,1,68.53,33.54h0a42.7,42.7,0,0,1,32.25,70.69,42.7,42.7,0,0,0-26-76.58Z"/></g></g></svg>