<svg xmlns="http://www.w3.org/2000/svg" viewBox="0 0 94.1 136.93"><defs><style>.cls-1{fill:#3d3a57;}.cls-2{fill:#d5d4d2;}.cls-3{fill:#f8f9f9;}.cls-4{fill:#eb634c;}.cls-5{fill:#fbc700;}</style></defs><title>Asset 8</title><g id="Layer_2" data-name="Layer 2"><g id="Layer_6" data-name="Layer 6"><polygon class="cls-1" points="3.83 41.29 0 38.23 21.42 19.11 75.74 19.11 75.74 35.94 40.55 59.66 3.83 41.29"/><polygon class="cls-2" points="85.64 29.84 85.64 19.49 78.43 19.49 78.43 22.02 75.74 19.11 58.14 38.23 51.26 42.82 40.58 120.83 56.68 136.93 94.1 136.93 94.1 39 85.64 29.84"/><rect class="cls-3" y="38.23" width="58.14" height="98.69"/><rect class="cls-2" x="22.57" y="112.83" width="10.71" height="24.1"/><polygon class="cls-1" points="11.09 119.71 11.09 115.89 6.5 115.89 6.5 119.71 10.71 119.71 11.09 119.71"/><polygon class="cls-1" points="10.71 122.77 6.5 122.77 6.5 126.6 11.09 126.6 11.09 122.77 10.71 122.77"/><rect class="cls-1" x="14.15" y="115.89" width="4.59" height="3.83"/><rect class="cls-1" x="14.15" y="122.77" width="4.59" height="3.83"/><polygon class="cls-1" points="42.46 119.71 42.46 115.89 37.87 115.89 37.87 119.71 42.08 119.71 42.46 119.71"/><polygon class="cls-1" points="42.08 122.77 37.87 122.77 37.87 126.6 42.46 126.6 42.46 122.77 42.08 122.77"/><rect class="cls-1" x="45.52" y="115.89" width="4.59" height="3.83"/><rect class="cls-1" x="45.52" y="122.77" width="4.59" height="3.83"/><polygon class="cls-1" points="74.59 43.21 74.59 39.38 70 39.38 70 43.21 74.21 43.21 74.59 43.21"/><polygon class="cls-1" points="74.21 46.27 70 46.27 70 50.09 74.59 50.09 74.59 46.27 74.21 46.27"/><rect class="cls-1" x="77.65" y="39.38" width="4.59" height="3.83"/><rect class="cls-1" x="77.65" y="46.27" width="4.59" height="3.83"/><polygon class="cls-1" points="74.59 64.63 74.59 60.8 70 60.8 70 64.63 74.21 64.63 74.59 64.63"/><polygon class="cls-1" points="74.21 67.69 70 67.69 70 71.51 74.59 71.51 74.59 67.69 74.21 67.69"/><rect class="cls-1" x="77.65" y="60.8" width="4.59" height="3.83"/><rect class="cls-1" x="77.65" y="67.69" width="4.59" height="3.83"/><polygon class="cls-1" points="74.59 86.05 74.59 82.22 70 82.22 70 86.05 74.21 86.05 74.59 86.05"/><polygon class="cls-1" points="74.21 89.11 70 89.11 70 92.94 74.59 92.94 74.59 89.11 74.21 89.11"/><rect class="cls-1" x="77.65" y="82.22" width="4.59" height="3.83"/><rect class="cls-1" x="77.65" y="89.11" width="4.59" height="3.83"/><polygon class="cls-1" points="74.59 107.47 74.59 103.65 70 103.65 70 107.47 74.21 107.47 74.59 107.47"/><polygon class="cls-1" points="74.21 110.53 70 110.53 70 114.36 74.59 114.36 74.59 110.53 74.21 110.53"/><rect class="cls-1" x="77.65" y="103.65" width="4.59" height="3.83"/><rect class="cls-1" x="77.65" y="110.53" width="4.59" height="3.83"/><rect class="cls-1" x="6.5" y="43.21" width="44.37" height="9.18"/><rect class="cls-1" x="6.5" y="61.57" width="44.37" height="9.18"/><rect class="cls-1" x="6.5" y="79.93" width="44.37" height="9.18"/><rect class="cls-1" x="6.5" y="98.29" width="44.37" height="9.18"/><path class="cls-4" d="M94,27.7C94.05,43,82.72,42.22,82.72,42.22s-10.35.9-10.42-14.42S83,0,83,0,93.91,12.37,94,27.7Z"/><path class="cls-5" d="M90.32,32.9c.05,10.16-7.46,9.62-7.46,9.62S76,43.12,76,33s7.1-18.43,7.1-18.43S90.28,22.73,90.32,32.9Z"/></g></g></svg>