<svg xmlns="http://www.w3.org/2000/svg" viewBox="0 0 46 147.38"><defs><style>.cls-1{fill:#2d2c42;}.cls-2{fill:#a76167;}.cls-3{fill:#f8f9f9;}.cls-4{fill:#060000;opacity:0.1;isolation:isolate;}.cls-5{fill:#f6bebe;}.cls-6{fill:#fbc700;}.cls-7{fill:#555587;}.cls-8{fill:#8e88ab;}</style></defs><title>Asset 7</title><g id="Layer_2" data-name="Layer 2"><g id="Layer_6" data-name="Layer 6"><path class="cls-1" d="M19.25,5.15s.52.6-.37,1.75-.17,3.66,1.52,3.72,2.51.77,2.11,1.7-.9,3.16.94,2.82,2.42.39,2.1,1,.82-1.12.82-1.12,1,1.53,2.29.46S30.42,4.66,27.85,4.5A65,65,0,0,0,19.25,5.15Z"/><polygon class="cls-2" points="32.27 51.31 32.86 55.41 35.49 55.41 34.62 50.72 32.27 51.31"/><path class="cls-3" d="M35.79,52.92s3.51,3.22,2.63,3.51-4.1,3.8-4.68,4.1-6.15,2-5.27,0a7.7,7.7,0,0,1,2.93-3.22L32,53.8Z"/><path class="cls-4" d="M35.79,52.92s3.51,3.22,2.63,3.51-4.1,3.8-4.68,4.1-6.15,2-5.27,0a7.7,7.7,0,0,1,2.93-3.22L32,53.8Z"/><polygon class="cls-2" points="35.79 48.23 36.37 52.33 39.01 52.33 38.13 47.65 35.79 48.23"/><path class="cls-5" d="M24.78,37.36l3.84-12.69s-6.44-5.85-2.05-7.61,5.56,7,5.56,7L30.66,39.31H24.81Z"/><path class="cls-6" d="M33.74,28s-7.57,9.7-6.42,11.14,3.2,10.23,3.2,10.23-.29,3.51.88,3.51,4.09-.59,4.09-1.47-2.63-12-2.63-12l7.61-10Z"/><path class="cls-6" d="M34.32,28.62l7.61-4.09s5.27,2.63,3.81,5S37.54,38,37.54,38s2.05,9.95,1.76,10.24-3.51,1.47-4.39,1.18-5.56-11.71-4.39-12.3,5-6.73,5-6.73Z"/><path class="cls-1" d="M13.54,136s5.27,3.22,5.86,3.22,8.48,2.05,5,3.51-17-.58-16.68-1.46,0-6.15.58-6.15S13.54,136,13.54,136Z"/><path class="cls-1" d="M19.4,140.14s5.26,3.22,5.85,3.22,8.49,2,5,3.51-17-.58-16.69-1.46,0-6.15.59-6.15S19.4,140.14,19.4,140.14Z"/><path class="cls-7" d="M13.84,78.09a41.14,41.14,0,0,0,2.34,7.61c1.46,3.22-.3,18.44-1.17,20.78s-9.37,30.15-6.74,30.44a67.47,67.47,0,0,0,7.91,0l8.48-26.63L23.2,74.58Z"/><path class="cls-4" d="M13.84,78.09a41.14,41.14,0,0,0,2.34,7.61c1.46,3.22-.3,18.44-1.17,20.78s-9.37,30.15-6.74,30.44a67.47,67.47,0,0,0,7.91,0l8.48-26.63L23.2,74.58Z"/><path class="cls-7" d="M15.59,78.38s1.17,7.9,3.81,9.66,1.75,3.51,1.75,3.51L20,107.07s-11.41,28.09-7.9,31.61,6.73,2,8.19,1.75,4.1-6.44,2.64-8.19,2.93-12.3,4.1-14.05,0-4.1,1.46-4.69,4.68-4.39,4.68-7S37.25,75.75,34.62,74,15.1,77.62,15.1,77.62Z"/><circle class="cls-5" cx="10.03" cy="30.97" r="6.44"/><circle class="cls-2" cx="24.66" cy="7.55" r="5.27"/><path class="cls-5" d="M14.42,31s3.51,6.43,5.27,6.43-7,6.74-7,6.74-2.92-8.49-3.51-8.78S14.42,31,14.42,31Z"/><path class="cls-8" d="M15.59,36.82S8,39.45,8.27,40.33s-2,2.93-2,3.81-.59,8.78,2.92,15.22,9.08,11.12,6.44,14-6.73,7.9-2.34,7.9,11.41-6.44,17.85-4.1,5-6.44,5-6.44S37,64,35.2,62s-7.9-16.68-7.9-18.44S21.45,35.06,20,35.06,15.59,36.82,15.59,36.82Z"/><path class="cls-2" d="M26.13,10.77a50.67,50.67,0,0,1,2.51,5.34c.12.81,4.22-5.34,4.22-5.34L28.18,7.55Z"/><path class="cls-3" d="M27,14.28,32,9l5.86,2.64s5.46,12,5.8,12.88-8.73,5-9.61,5-7-9.07-7-9.07S25.54,16,27,14.28Z"/><polygon class="cls-2" points="24.66 21.31 24.66 26.57 28.18 26.57 27.02 21.31 24.66 21.31"/><path class="cls-2" d="M26.67,25.26a2.18,2.18,0,0,0-2.06,1.38c-.23.62-.15,1.27.93,1.55,2.34.58,2.64,0,2.64,0s4.06-.59,3.2-1.76-3.2-1.17-3.2-1.17Z"/><path class="cls-3" d="M39.3,50.58s3.51,3.22,2.63,3.51-4.09,3.8-4.68,4.1-6.15,2-5.27,0A7.7,7.7,0,0,1,34.91,55l.58-3.52Z"/><path class="cls-1" d="M7.74,26c.4-.24.87-.53.89-1a.89.89,0,0,0-.58-.77,2.69,2.69,0,0,0-1-.14,1.33,1.33,0,0,0-.4,0c-.33.1-.52.44-.78.67a3.39,3.39,0,0,1-1.4.56,9,9,0,0,0-2.34,1,1.09,1.09,0,0,0-.37.3,1.44,1.44,0,0,0-.15.76A7.52,7.52,0,0,1,.49,30.15,3,3,0,0,0,.28,33a9.34,9.34,0,0,1,.58.82c.37.77-.09,1.72.17,2.53a2.18,2.18,0,0,0,.56.84,4.52,4.52,0,0,0,1.85,1.12c.66.2,1.49.34,1.75,1a5.71,5.71,0,0,0,.24.86,1.36,1.36,0,0,0,1,.48,3.68,3.68,0,0,0,1.24.09,1.55,1.55,0,0,0,1.08-.57,3.12,3.12,0,0,1,.43-.64c.43-.36,1.07-.08,1.61-.17a1.21,1.21,0,0,0,.93-.87,1.53,1.53,0,0,1,.19-.66c.33-.43,1.22-.13,1.45-.63.14-.33-.16-.67-.46-.87a14,14,0,0,1-1.44-1,1.69,1.69,0,0,1-.61-1.55c.2-.85,1.31-1.31,1.35-2.19a1.58,1.58,0,0,0-.74-1.23,11.76,11.76,0,0,1-1.23-.86c-.26-.25-.46-.57-.74-.8a3.58,3.58,0,0,0-1.88-.53c-.36,0-1.76-.2-1.71-.74S7.38,26.22,7.74,26Z"/><path class="cls-3" d="M27,14s-3.22,1.17-3.22,2.63-1.47,6.15,0,6.15a18,18,0,0,0,4.39-1.12Z"/><path class="cls-5" d="M26.13,35.06s8.49-2.92,8.78-2.92,4.39-2.35,4.1-3.22L37.84,21.6s-4.69-9.66-1.47-9.66,5,7.61,5,7.61,7,13.17,3.22,16.1S25,43.84,24.08,43,26.13,35.06,26.13,35.06Z"/><path class="cls-2" d="M34.32,16l2,1.9-2.56,2.49s-3.51-1.46-3.22-.59,2.05,3.52,3.22,3.52,7.26-3.81,7.29-5-3.78-5.27-4.66-5.56S34.32,16,34.32,16Z"/><path class="cls-3" d="M30.61,14s4.3,3.79,4.88,3.79,1.65-5.7,1.65-5.7-3.47-2.26-4.75-1.64S30.61,14,30.61,14Z"/><path class="cls-8" d="M15.59,38.58s0-4.1,8.78-4.1h3.81l-1.76,9.66-5.85,1.75Z"/><path class="cls-1" d="M34.77,5.42a24.45,24.45,0,0,1-2.57-.16,7.13,7.13,0,0,0-2.45-3.49A9.3,9.3,0,0,0,27.28.41c-2-.82-5.19-.31-5.38.64C18.06,2.88,19,6.1,19,6.1c.6,1.26,1.93.7,3.07.13A2.25,2.25,0,0,0,24.05,8c1.88.07,2.79.85,2.33,1.89s-1,3.49,1.05,3.11,2.69.44,2.32,1.07.91-1.25.91-1.25,1.14,1.7,2.54.51a1.05,1.05,0,0,0,.29-.5,2.1,2.1,0,0,0,1.45.26c1.68-.75.64-2.51.64-2.51s2.23-.34,1.51-.28-1.17-.88,0-2.56S35.9,5.45,34.77,5.42Z"/><rect class="cls-6" x="21.3" y="4.77" width="2.63" height="0.88" transform="translate(10.53 25.02) rotate(-71.59)"/></g></g></svg>