<svg xmlns="http://www.w3.org/2000/svg" xmlns:xlink="http://www.w3.org/1999/xlink" viewBox="0 0 42.72 124.46"><defs><style>.cls-1,.cls-9{fill:#060000;}.cls-1,.cls-8{opacity:0.1;}.cls-1{isolation:isolate;}.cls-2{fill:#fff;}.cls-3{fill:#3d3a57;}.cls-4{fill:#675f7e;}.cls-5{fill:#645ea8;}.cls-6{fill:#f7c5c4;}.cls-7{fill:#855e5a;}.cls-10{fill:url(#linear-gradient);}</style><linearGradient id="linear-gradient" x1="-138.92" y1="1350.73" x2="-96.2" y2="1350.73" gradientTransform="translate(138.92 -1288.51)" gradientUnits="userSpaceOnUse"><stop offset="0" stop-color="#868581" stop-opacity="0.25"/><stop offset="0.54" stop-color="#868581" stop-opacity="0.12"/><stop offset="1" stop-color="#868581" stop-opacity="0.1"/></linearGradient></defs><title>Asset 11</title><g id="Layer_2" data-name="Layer 2"><g id="Layer_6" data-name="Layer 6"><path class="cls-1" d="M20.41,122.05a3.06,3.06,0,0,1-1,1.77c-.77.65-8.17.89-9.68.33s-6.29-.78-7.49-.83S.54,122.17.28,121.63a1.56,1.56,0,0,1,.1-.9,26.09,26.09,0,0,1,3.12,1c1.5.59,4.63,1.43,5.18,1.18C8.67,122.86,16.08,124.93,20.41,122.05Z"/><circle class="cls-2" cx="12" cy="119.35" r="0.18"/><circle class="cls-2" cx="12.9" cy="119.96" r="0.18"/><path class="cls-3" d="M20.41,122.05a3.06,3.06,0,0,1-1,1.77c-.77.65-8.17.89-9.68.33s-6.29-.78-7.49-.83S.54,122.17.28,121.63a1.56,1.56,0,0,1,.1-.9,11.89,11.89,0,0,1,1.15-2.58,2.73,2.73,0,0,0,.29-1l.11-.65C5.14,118.71,9.37,115,9.37,115a.85.85,0,0,1,.52-.09,2.35,2.35,0,0,1,1.69,1.63c0,.57,2.23,1.64,2.23,1.64a18.21,18.21,0,0,0,3.46,2.1A5.49,5.49,0,0,1,20,121,1.12,1.12,0,0,1,20.41,122.05Z"/><path class="cls-1" d="M20.41,122.05a3.06,3.06,0,0,1-1,1.77c-.77.65-8.17.89-9.68.33s-6.29-.78-7.49-.83S.54,122.17.28,121.63a1.56,1.56,0,0,1,.1-.9,26.09,26.09,0,0,1,3.12,1c1.5.59,4.63,1.43,5.18,1.18C8.67,122.86,16.08,124.93,20.41,122.05Z"/><circle class="cls-2" cx="12" cy="119.35" r="0.18"/><circle class="cls-2" cx="12.9" cy="119.96" r="0.18"/><path class="cls-3" d="M35.24,119.69a28.22,28.22,0,0,0-4.39,1.54,13.24,13.24,0,0,1-4.18,1.08c-2,.28-2.23-.67-2.17-1.36a2.53,2.53,0,0,1,.15-.66v-4.17s6.11-3.74,6.58-4a.43.43,0,0,1,.19,0,9.84,9.84,0,0,1,4.09,1.56,3.57,3.57,0,0,0,2.94.36s3.19-2.57,4-.69a2,2,0,0,1,.12.34C43.21,116.16,35.92,119.71,35.24,119.69Z"/><path class="cls-1" d="M24.65,117.12v-1s6.11-3.74,6.58-4a.43.43,0,0,1,.19,0c.28.29.53.55.69.7C32.55,113.26,28.49,118.35,24.65,117.12Z"/><path class="cls-4" d="M23.71,116.4l-.57-2.53h0s0-2.19-.77-2.61-2.89-15.1-2.89-15.1.07-3.24-.5-3.66a.54.54,0,0,1,0-.89,3.78,3.78,0,0,0-.25-1.37,6.85,6.85,0,0,1-.38-1.48s.28-1.06,0-1.34,0-.56-.41-1.3A5.66,5.66,0,0,0,16.87,85c-1.6-1.35,0-16.65.41-20.58l.11-.92h3.76l.47,1.7.75,3.12s.5.33.5.75,3,9.38,3,9.38a9.13,9.13,0,0,1,.56,1.13c.07.28.71.77.71.77a2,2,0,0,0,0,1.69c.42.85,1.62,4.37,1.2,6.07s-.92,1.83-.92,1.83-.42,1.25.28,1.72.21,1.31.21,1.31l.92,7.9s-.07,3.53,1,4.79,1.19,4.3,1.19,4.3l-.79.34-.15.06,0,0s1.62,1.69,2.12,2.19S27.79,118.94,23.71,116.4Z"/><path class="cls-1" d="M32.1,112.53c-.43,1.27-4.71,5.88-8.39,3.59l-.57-2.53c1-.82,4.15-3.2,6.89-3.55l-.05,0,.19.19-.14.07-.05,0S31.6,112,32.1,112.53Z"/><path class="cls-4" d="M23.71,116.4l-.57-2.53c1-.82,4.15-3.2,6.89-3.55l-.05,0s1.62,1.69,2.12,2.18S27.79,118.94,23.71,116.4Z"/><circle class="cls-2" cx="34.33" cy="114.2" r="0.18"/><circle class="cls-2" cx="33.18" cy="114.03" r="0.18"/><circle class="cls-2" cx="35.31" cy="114.38" r="0.18"/><circle class="cls-2" cx="31.95" cy="113.85" r="0.18"/><path class="cls-1" d="M35.24,119.69a28.22,28.22,0,0,0-4.39,1.54,13.24,13.24,0,0,1-4.18,1.08c-2,.28-2.23-.67-2.17-1.36a2.21,2.21,0,0,0,1.58.11c1.34-.35,6-1.09,6-1.09s3.06-1.11,3.15-1.75l7.28-4.88a2,2,0,0,1,.12.34C43.21,116.16,35.92,119.71,35.24,119.69Z"/><rect class="cls-5" x="30.11" y="64.36" width="1.69" height="54.35"/><path class="cls-5" d="M31.68,65a2.29,2.29,0,0,1,4.52-.23,4.71,4.71,0,0,1,.56.44.59.59,0,0,0,1-.51v0a3.84,3.84,0,1,0-7.61,1.08,3.52,3.52,0,0,0,.32,1.06A3.87,3.87,0,0,1,31.68,65Z"/><rect class="cls-5" x="29.59" y="116.77" width="2.85" height="3.98"/><path class="cls-6" d="M17.48,16.23a9.86,9.86,0,0,0-1.41,2.51,8.38,8.38,0,0,0-.28,5.34S5.59,21.82,6.58,20.7C7.17,20,7.67,17.38,8,15.41c.19-1.28.3-2.28.3-2.28S20.53,12.24,17.48,16.23Z"/><path class="cls-3" d="M20.41,122.05a3.06,3.06,0,0,1-1,1.77c-.77.65-8.17.89-9.68.33s-6.29-.78-7.49-.83S.54,122.17.28,121.63a1.56,1.56,0,0,1,.1-.9,11.89,11.89,0,0,1,1.15-2.58,2.73,2.73,0,0,0,.29-1l.11-.65C5.14,118.71,9.37,115,9.37,115a.85.85,0,0,1,.52-.09,2.35,2.35,0,0,1,1.69,1.63c0,.57,2.23,1.64,2.23,1.64a18.21,18.21,0,0,0,3.46,2.1A5.49,5.49,0,0,1,20,121,1.12,1.12,0,0,1,20.41,122.05Z"/><path class="cls-1" d="M17.94,86.12A5.61,5.61,0,0,0,16.87,85c-1.6-1.35,0-16.65.41-20.58,1.85-.1,3.14-.07,3.25.21C20.91,65.54,18.45,82.68,17.94,86.12Z"/><path class="cls-1" d="M9.89,114.9v.79c-5.18,5.31-7.25,3.5-8.07,1.49l.11-.66C5.14,118.71,9.37,115,9.37,115A.79.79,0,0,1,9.89,114.9Z"/><path class="cls-4" d="M20.13,65.83c-.31,4.73-2.69,20.89-2.69,20.89a62.6,62.6,0,0,1-1.62,6.14c-.28.21-2,1.41-2,1.41S13.7,97,13.14,97.8a7.73,7.73,0,0,0-.78,2.75s-.91,3.94-1.19,5.92a29.36,29.36,0,0,1-1.27,4.65v4.3c-6.51,6.68-8.11,2.09-8.49,0a8.27,8.27,0,0,1-.11-.87L5,92.3s.78-1.06.64-1.62a2,2,0,0,1,.28-1.27V88.14s.86-1.13,0-1.76,0-5.43,0-5.43-1-2.75-.47-3.53,0-2,.35-2.75,0,0-1.27-1.9a16.14,16.14,0,0,1-1.62-4.29C2.5,67.11,2.29,66,2.29,66s17.41-2.47,17.84-1.41A5.14,5.14,0,0,1,20.13,65.83Z"/><path class="cls-1" d="M17.48,16.23a9.86,9.86,0,0,0-1.41,2.51,6.63,6.63,0,0,1-2.07.32c-2.51,0-3.9-1.84-5.08-3.86-.05-.09-.91.31-1,.21.19-1.28.3-2.28.3-2.28S20.53,12.24,17.48,16.23Z"/><path class="cls-6" d="M20.82,12.11A6.84,6.84,0,1,1,19,7.45,6.82,6.82,0,0,1,20.82,12.11Z"/><path class="cls-1" d="M20.13,65.83c-2.31.41-6.49,1.2-6.83,1.67-.47.66-4,.85-6.12,1.13a18.8,18.8,0,0,1-4.34-.15C2.48,67.11,2.27,66,2.27,66s17.42-2.47,17.84-1.41A5.15,5.15,0,0,1,20.13,65.83Z"/><path class="cls-5" d="M21.62,65.15s-7.85,1.27-8.32,1.93-4,.85-6.12,1.13A19.94,19.94,0,0,1,1,67.69c-1.65-1.1-.85-14-.14-15.6S1.31,41.56.65,38A24.06,24.06,0,0,1,1,30s1-3.14.8-3.8.94-2.07.94-2.07,1.74-2.87,2.63-3.29A1.31,1.31,0,0,0,6,20a7.64,7.64,0,0,0,.17-1.73,1,1,0,0,1,1-.94c2.68.42,9,4.37,9,4.37-.23.89,1.27,3.43,1.27,3.43a.54.54,0,0,1,.07.13c1.65,3.1,2.85,12.6,2.85,12.6s.08,4.54.07,7.88a28.07,28.07,0,0,1-.12,3.4,46.35,46.35,0,0,0,.41,6.44c.19,2,.38,3.84.44,4.84C21.3,62.85,21.62,65.15,21.62,65.15Z"/><path class="cls-1" d="M14.75,52.18S12.64,57.26,13.2,58,14.75,52.18,14.75,52.18Z"/><path class="cls-1" d="M17.38,54.63s-2.39,3.76-1.5,4.51S17.38,54.63,17.38,54.63Z"/><path class="cls-1" d="M9.89,114v1.26c-6.51,6.68-8.11,2.09-8.49,0C2.59,116.31,5.3,117.57,9.89,114Z"/><path class="cls-4" d="M9.89,114.15v1.26c-6.51,6.68-8.11,2.09-8.49,0C2.59,116.45,5.3,117.72,9.89,114.15Z"/><circle class="cls-2" cx="9.12" cy="117.58" r="0.18"/><circle class="cls-2" cx="10.9" cy="118.62" r="0.18"/><circle class="cls-2" cx="10.07" cy="118.09" r="0.18"/><path class="cls-1" d="M11.23,72.58S9.53,76.84,7.52,77,11.23,72.58,11.23,72.58Z"/><path class="cls-1" d="M11.51,79.06S8.83,83.62,8,83.67,11.51,79.06,11.51,79.06Z"/><path class="cls-1" d="M12.9,94.38s-3.33,1.74-2.57,1.89S12.9,94.38,12.9,94.38Z"/><path class="cls-1" d="M6.29,94.38A29.61,29.61,0,0,1,10.22,93C10.81,93,6.29,94.38,6.29,94.38Z"/><path class="cls-1" d="M24.49,88.84s2.3-.57,2.39,0S24.49,88.84,24.49,88.84Z"/><path class="cls-1" d="M26.69,91.62s-2,0-1.74.7S26.69,91.62,26.69,91.62Z"/><path class="cls-1" d="M17.5,25.52c-1.73-.68-4.76-2-6.13-3.32S7.49,20.42,6,20.26a7.55,7.55,0,0,0,.17-1.72,1,1,0,0,1,1-.95c2.68.43,9,4.37,9,4.37-.23.9,1.27,3.43,1.27,3.43Z"/><path class="cls-5" d="M17.5,25.24c-1.73-.68-4.76-2-6.13-3.32S7.49,20.14,6,20a7.58,7.58,0,0,0,.17-1.73,1,1,0,0,1,1-.94c2.68.42,9,4.37,9,4.37-.23.89,1.27,3.43,1.27,3.43A.83.83,0,0,1,17.5,25.24Z"/><path class="cls-1" d="M20.71,55.57A55.35,55.35,0,0,1,14,50.49a14.79,14.79,0,0,0-1.6-2L9.25,42.8l-1-2.36,2.82-3,6.16,4,1.65,3a11.1,11.1,0,0,1,1.52,1.3,31.51,31.51,0,0,1-.11,3.4A44.18,44.18,0,0,0,20.71,55.57Z"/><path class="cls-6" d="M8.41,39.87l.84,2.93L12.55,48a14.31,14.31,0,0,1,1.6,2A56,56,0,0,0,22.51,56c2.48,1.27,5.65,2.31,5.88,3.22S30,66.94,34,64.73s-1.13-7.19-1.13-7.19l-3.29-2.91s-7-5.5-7.63-7.33-2.94-3.43-2.94-3.43l-1.65-3-6.16-4Z"/><path class="cls-1" d="M7.23,24.36S1.5,27,3.29,31.19,9,43.09,9,43.09s-.47-2.7.57-2.93,8,.92,8,.92S15.6,38,15.93,36.16,13.44,22.81,7.23,24.36Z"/><path class="cls-1" d="M7.8,23.94s-5.73,2.63-3.95,6.81S9.54,42.66,9.54,42.66s-.47-2.7.56-2.93,7.57,1,7.57,1-1.51-3.19-1.18-5S14,22.39,7.8,23.94Z"/><path class="cls-5" d="M7.52,24.08S1.78,26.71,3.57,30.9,9.25,42.81,9.25,42.81s-.47-2.7.57-2.93,7.56,1,7.56,1-1.5-3.2-1.17-5S13.72,22.53,7.52,24.08Z"/><path class="cls-1" d="M19,7.45a2.87,2.87,0,0,1-2.35,0c-.49-.27-.86-.78-1.41-.88a1.45,1.45,0,0,0-1.34.58,5.51,5.51,0,0,0-.71,1.36A13.74,13.74,0,0,1,11.86,11a1.86,1.86,0,0,1-1.29,1c-.78,0-1.3-.82-2.05-1-1.83-.51-.77,1.5-.5,2.26a5.34,5.34,0,0,1,.27,2.35l-.18,0A6.82,6.82,0,0,1,19,7.45Z"/><path class="cls-7" d="M8.39,10.77c.75.21,1.27,1.07,2,1,.56,0,1-.52,1.29-1A13.74,13.74,0,0,0,13,8.39,5.28,5.28,0,0,1,13.74,7a1.45,1.45,0,0,1,1.34-.59c.54.1.91.61,1.41.88a3.52,3.52,0,0,0,2.94-.23c.47-.18,1-.44,1.07-.93.06-.34-.14-.68-.09-1a2.11,2.11,0,0,1,.47-.87c.17-.28.27-.69,0-.92s-.45-.15-.67-.23c-.57-.22-.71-1-1.21-1.32s-1.26-.12-1.92-.09A6.63,6.63,0,0,1,14.41,1,3.68,3.68,0,0,0,11.68.74a5.9,5.9,0,0,0-1.35,1A6.09,6.09,0,0,1,7.37,3a3.12,3.12,0,0,0-1.53.42,2,2,0,0,0-.51,1.86,8.44,8.44,0,0,1,.28,2c-.08,1.07-.88,1.94-1.14,3a1.14,1.14,0,0,0,.12,1,1.83,1.83,0,0,0,.53.38A2.08,2.08,0,0,1,6,13.06c0,.3,0,.61,0,.91a1.79,1.79,0,0,0,2.08,1.41A5.47,5.47,0,0,0,7.9,13C7.62,12.28,6.57,10.28,8.39,10.77Z"/><g class="cls-8"><path class="cls-9" d="M19.37,2.16l0,0Z"/><path class="cls-9" d="M20.85,4.24a.75.75,0,0,0,0-.92l-.14-.09a1.12,1.12,0,0,1-.17.59,2.21,2.21,0,0,0-.47.86c0,.33.14.69.09,1-.08.49-.61.74-1.07.92a3.56,3.56,0,0,1-2.94.24c-.49-.28-.86-.78-1.4-.89a1.47,1.47,0,0,0-1.34.59,5.34,5.34,0,0,0-.71,1.36,15.2,15.2,0,0,1-1.29,2.42c-.32.47-.74,1-1.3,1-.78,0-1.3-.82-2.05-1-1.83-.51-.77,1.5-.5,2.26a5.36,5.36,0,0,1,.27,2.35,1.79,1.79,0,0,1-1.67-.58,1.81,1.81,0,0,0,2,1A5.23,5.23,0,0,0,7.87,13c-.27-.76-1.32-2.77.5-2.26.75.21,1.28,1.06,2.05,1a1.9,1.9,0,0,0,1.3-1A15.19,15.19,0,0,0,13,8.36,5.48,5.48,0,0,1,13.72,7a1.45,1.45,0,0,1,1.34-.58c.55.1.91.61,1.4.88a3.51,3.51,0,0,0,2.95-.24c.47-.17,1-.43,1.06-.92.06-.34-.14-.68-.09-1A2.15,2.15,0,0,1,20.85,4.24Z"/><path class="cls-9" d="M4.81,11.1a3.22,3.22,0,0,1-.39-.25.71.71,0,0,0,.14.29,2.2,2.2,0,0,0,.53.39,2.11,2.11,0,0,1,.45.39A2.21,2.21,0,0,0,4.81,11.1Z"/></g><path class="cls-1" d="M21.38,10.89s-1.92-1.34-3.06.11h-.69C17,9,13.55,9.94,13.55,9.94l-4.64.76L9,11l4.55-.37a5,5,0,0,0,.72,2.45c.62.6,1.95.26,1.95.26.81-.1,1.2-1.37,1.35-2l.66,0c-.12.64-.2,1.88.88,2.31a1.39,1.39,0,0,0,2-.74A6.2,6.2,0,0,0,21.38,10.89Z"/><path class="cls-3" d="M21.38,10.75s-1.92-1.35-3.06.1h-.69c-.68-2-4.08-1.06-4.08-1.06l-4.64.76.09.3,4.55-.37a5,5,0,0,0,.72,2.45c.62.6,1.95.27,1.95.27.81-.11,1.2-1.38,1.35-2l.66,0c-.12.64-.2,1.89.88,2.32a1.37,1.37,0,0,0,1.94-.74A6.19,6.19,0,0,0,21.38,10.75Z"/><path class="cls-10" d="M42.68,113.62a1.28,1.28,0,0,0-.11-.33c-.59-1.31-2.31-.48-3.31.17l-.13.08a7,7,0,0,0-.61.44h0a3.54,3.54,0,0,1-2.9-.37,10.9,10.9,0,0,0-3.71-1.54V64.78a2.75,2.75,0,0,0,2.22-.33,3,3,0,0,0,1.2-1.1,1.34,1.34,0,0,0,.12-.24l0,0a2.3,2.3,0,0,1,.83,1.34,3.45,3.45,0,0,1,.56.45.61.61,0,0,0,.85,0,.71.71,0,0,0,.1-.14.59.59,0,0,0,.07-.37v0a3.86,3.86,0,0,0-2.3-3A10.27,10.27,0,0,0,33,57.23l-3.3-2.92s-7-5.52-7.64-7.37a6.1,6.1,0,0,0-1.57-2.28c0-3.25-.06-7.21-.06-7.21S19.2,27.9,17.54,24.78a.75.75,0,0,1-.07-.12,11.2,11.2,0,0,1-1.29-3.08.13.13,0,0,1,0-.09h0a1.24,1.24,0,0,1,0-.27l-.65-.39h0a8.68,8.68,0,0,1,.38-2,.88.88,0,0,1,.05-.15c0-.13.08-.25.13-.38l.06-.17.22-.07a6.86,6.86,0,0,0,4.17-4.41,1.21,1.21,0,0,0,.05-.18c0-.14.08-.29.11-.43l.05,0a1.46,1.46,0,0,0,.34-.52h0a12.26,12.26,0,0,0,.31-1.32h0v0a2.32,2.32,0,0,0,0-.53.74.74,0,0,0,0-.33,4,4,0,0,0-.8-.4,6.86,6.86,0,0,0-1.39-2.66l0,0c-.06-.08-.13-.15-.2-.23l-.14-.14.59-.21a1.82,1.82,0,0,0,1-.73v0a1.21,1.21,0,0,0,.05-.18,2,2,0,0,0-.08-.69V4.88h0a1.31,1.31,0,0,1,0-.28,2.38,2.38,0,0,1,.47-.87,1.14,1.14,0,0,0,.1-.19h0a.7.7,0,0,0,0-.63.38.38,0,0,0-.09-.13.42.42,0,0,0-.14-.09v0c-.16-.07-.35-.08-.52-.15-.57-.21-.71-1-1.21-1.32s-1.27-.12-1.92-.09a6.68,6.68,0,0,1-2.7-.73A3.71,3.71,0,0,0,11.68.17a5.94,5.94,0,0,0-1.35,1,6.14,6.14,0,0,1-3,1.25,3,3,0,0,0-1.54.42,1.85,1.85,0,0,0-.53,1.6,2.06,2.06,0,0,0,0,.26,8.53,8.53,0,0,1,.28,2,.41.41,0,0,1,0,.11,3,3,0,0,1-.24.82,19.6,19.6,0,0,0-.9,2.05,1.58,1.58,0,0,0,0,.65v0h0a.36.36,0,0,0,0,.09v0a.08.08,0,0,0,0,0,.51.51,0,0,0,.09.16,2.07,2.07,0,0,0,.54.39A2.06,2.06,0,0,1,6,12.56c0,.3,0,.61,0,.91a1,1,0,0,0,.11.38h0a1.87,1.87,0,0,0,1.58,1.07H8a2.87,2.87,0,0,0,0,.31,1.1,1.1,0,0,1,0,.16v0c-.08.48-.16,1-.26,1.5a3.93,3.93,0,0,0-.44-.1,1,1,0,0,0-1,.94A7.09,7.09,0,0,1,6,19.51a1.28,1.28,0,0,1-.68.81c-.89.42-2.63,3.3-2.63,3.3S1.59,25,1.78,25.7v0a1.85,1.85,0,0,1,0,.47h0A25.47,25.47,0,0,1,1,29.53a27,27,0,0,0-.55,5.53A15.46,15.46,0,0,0,.64,37.6a59.42,59.42,0,0,1,.61,9.46v.54a15.06,15.06,0,0,1-.42,4.16c-.4.92-.84,5.57-.83,9.58,0,3,.27,5.63,1,6.1a8.08,8.08,0,0,0,1.68.34h.07a2.68,2.68,0,0,1,.07.27,1.22,1.22,0,0,0,0,.17,2.18,2.18,0,0,0,.07.27,15.14,15.14,0,0,0,1.55,4C5.6,74.25,6,73.85,5.81,74.27l-.08.17a1.56,1.56,0,0,0-.14.71h0c0,.41,0,.88,0,1.3a1.6,1.6,0,0,1-.22.74,1.21,1.21,0,0,0-.14.67h0a11.25,11.25,0,0,0,.62,2.86l0,.16c-.07.43-.25,1.65-.33,2.8v0c-.06,1.12,0,2.18.36,2.46a.88.88,0,0,1,.37.9,2.17,2.17,0,0,1-.37.87v1.3a2.39,2.39,0,0,0-.3,1h0a1.24,1.24,0,0,0,0,.27.81.81,0,0,1,0,.31h0a4,4,0,0,1-.64,1.32L4.2,96.65,1.3,114.52v0a8.24,8.24,0,0,0,.11.85v0a7.82,7.82,0,0,0,.44,1.5v0h0a1,1,0,0,1,0,.17,2.69,2.69,0,0,1-.3,1,12.9,12.9,0,0,0-1.15,2.59c0,.11-.06.21-.08.31h0a2.34,2.34,0,0,0,0,.26.61.61,0,0,0,0,.19.32.32,0,0,0,0,.14c.26.55.73,1.65,1.93,1.7s6,.26,7.51.83a3.18,3.18,0,0,0,.51.13l.16,0h0l.18,0,.25,0,.47,0,.69,0h.34c1,0,2.17,0,3.26,0a24.48,24.48,0,0,0,2.82-.28,2.63,2.63,0,0,0,1-.31,3.07,3.07,0,0,0,1-1.78,1.11,1.11,0,0,0-.37-1,3.42,3.42,0,0,0-1.48-.62,8,8,0,0,0-1.29-.16,18,18,0,0,1-3.47-2.09s-2.23-1.08-2.23-1.65a2.33,2.33,0,0,0-1.7-1.63v-3.79l0,0a.14.14,0,0,1,0-.07,2.08,2.08,0,0,0,.08-.24v0a1.89,1.89,0,0,0,.06-.18l.06-.19c0-.06.05-.13.07-.2.11-.34.24-.75.36-1.18l.09-.31a.25.25,0,0,1,0-.07,17.68,17.68,0,0,0,.47-2.16c.16-1.14.54-3,.82-4.27h0c0-.14.06-.28.09-.41h0a1.06,1.06,0,0,0,0-.19l0-.09c0-.07,0-.15,0-.22.09-.4.15-.64.15-.64v0a.66.66,0,0,1,0-.09,10.7,10.7,0,0,1,.18-1.07.31.31,0,0,1,0-.13,4.36,4.36,0,0,1,.57-1.57,2.61,2.61,0,0,0,.34-.89.18.18,0,0,1,0-.1v-.05a14.56,14.56,0,0,0,.26-2.37v-.13s1.77-1.2,2.05-1.41,1.4-5.18,1.6-6h0l0-.13s0-.32.12-.88a1.48,1.48,0,0,1,0-.19A3.1,3.1,0,0,1,18,86h0c.47.74.21,1.11.41,1.31s0,1.18,0,1.32v0h0a6.7,6.7,0,0,0,.38,1.48A4,4,0,0,1,19,91.46l0,0a.71.71,0,0,0-.21.39h0a.5.5,0,0,0,.24.46c.57.42.49,3.68.49,3.68s0,.24.1.64.09.63.16,1h0c.58,3.89,2,13.13,2.64,13.46s.74,1.78.77,2.35v.28l.56,2.54a4.22,4.22,0,0,0,.89.41l.05,0v3.46a2.16,2.16,0,0,0-.14.67v0c-.05.69.23,1.6,2.17,1.33l.28,0,1.18-.21a10.15,10.15,0,0,0,2.74-.84l1.09-.44,0,0h.47v-.18c.57-.23,1.2-.46,1.73-.64l.39-.12a2.64,2.64,0,0,1,.69-.14.75.75,0,0,0,.26,0s.07,0,.12,0C37.35,119,43.24,115.88,42.68,113.62ZM26.45,79.33a8.66,8.66,0,0,0-.57-1.14s-3-9-3-9.41-.5-.75-.5-.75l-.75-3.14s-.33-2.32-.47-4.77c-.06-1-.25-2.9-.44-4.87,0-.11,0-.22,0-.33a3.5,3.5,0,0,1,0-.37,21.27,21.27,0,0,0,1.88,1.13c2.5,1.27,5.65,2.32,5.89,3.24a13.28,13.28,0,0,0,1.95,4.75,2.58,2.58,0,0,0-.08.26.94.94,0,0,0,0,.16h-.1v42l-.06-.11a3.07,3.07,0,0,0-.28-.42c-1.06-1.28-1-4.82-1-4.82l-.92-7.9v0l0-.1h0a.93.93,0,0,0-.26-1.21c-.55-.36-.42-1.22-.33-1.57,0-.05,0-.1,0-.15s.35-.1.71-1.11a.09.09,0,0,1,0,0c.07-.19.14-.42.21-.68.42-1.7-.78-5.25-1.21-6.1A1.92,1.92,0,0,1,27,80.54q0-.14.06-.24c0-.12.07-.19.07-.19s-.65-.5-.72-.78Zm3.59,31,.05,0h.09v.2l-.07-.07,0,0Z"/><path class="cls-3" d="M35.24,119.69a28.22,28.22,0,0,0-4.39,1.54,13.24,13.24,0,0,1-4.18,1.08c-2,.28-2.23-.67-2.17-1.36a2.53,2.53,0,0,1,.15-.66v-4.17s6.11-3.74,6.58-4a.43.43,0,0,1,.19,0,9.84,9.84,0,0,1,4.09,1.56,3.57,3.57,0,0,0,2.94.36s3.19-2.57,4-.69a2,2,0,0,1,.12.34C43.21,116.16,35.92,119.71,35.24,119.69Z"/><path class="cls-1" d="M24.65,117.12v-1s6.11-3.74,6.58-4a.43.43,0,0,1,.19,0c.28.29.53.55.69.7C32.55,113.26,28.49,118.35,24.65,117.12Z"/><path class="cls-4" d="M23.71,116.4l-.57-2.53h0s0-2.19-.77-2.61-2.89-15.1-2.89-15.1.07-3.24-.5-3.66a.54.54,0,0,1,0-.89,3.78,3.78,0,0,0-.25-1.37,6.85,6.85,0,0,1-.38-1.48s.28-1.06,0-1.34,0-.56-.41-1.3A5.66,5.66,0,0,0,16.87,85c-1.6-1.35,0-16.65.41-20.58l.11-.92h3.76l.47,1.7.75,3.12s.5.33.5.75,3,9.38,3,9.38a9.13,9.13,0,0,1,.56,1.13c.07.28.71.77.71.77a2,2,0,0,0,0,1.69c.42.85,1.62,4.37,1.2,6.07s-.92,1.83-.92,1.83-.42,1.25.28,1.72.21,1.31.21,1.31l.92,7.9s-.07,3.53,1,4.79,1.19,4.3,1.19,4.3l-.79.34-.15.06,0,0s1.62,1.69,2.12,2.19S27.79,118.94,23.71,116.4Z"/><path class="cls-1" d="M32.1,112.53c-.43,1.27-4.71,5.88-8.39,3.59l-.57-2.53c1-.82,4.15-3.2,6.89-3.55l-.05,0,.19.19-.14.07-.05,0S31.6,112,32.1,112.53Z"/><path class="cls-4" d="M23.71,116.4l-.57-2.53c1-.82,4.15-3.2,6.89-3.55l-.05,0s1.62,1.69,2.12,2.18S27.79,118.94,23.71,116.4Z"/><circle class="cls-2" cx="34.33" cy="114.2" r="0.18"/><circle class="cls-2" cx="33.18" cy="114.03" r="0.18"/><circle class="cls-2" cx="35.31" cy="114.38" r="0.18"/><circle class="cls-2" cx="31.95" cy="113.85" r="0.18"/><path class="cls-1" d="M35.24,119.69a28.22,28.22,0,0,0-4.39,1.54,13.24,13.24,0,0,1-4.18,1.08c-2,.28-2.23-.67-2.17-1.36a2.21,2.21,0,0,0,1.58.11c1.34-.35,6-1.09,6-1.09s3.06-1.11,3.15-1.75l7.28-4.88a2,2,0,0,1,.12.34C43.21,116.16,35.92,119.71,35.24,119.69Z"/><rect class="cls-5" x="30.11" y="64.36" width="1.69" height="54.35"/><path class="cls-5" d="M31.68,65a2.29,2.29,0,0,1,4.52-.23,4.71,4.71,0,0,1,.56.44.59.59,0,0,0,1-.51v0a3.84,3.84,0,1,0-7.61,1.08,3.52,3.52,0,0,0,.32,1.06A3.87,3.87,0,0,1,31.68,65Z"/><rect class="cls-5" x="29.59" y="116.77" width="2.85" height="3.98"/><path class="cls-6" d="M17.48,16.23a9.86,9.86,0,0,0-1.41,2.51,8.38,8.38,0,0,0-.28,5.34S5.59,21.82,6.58,20.7C7.17,20,7.67,17.38,8,15.41c.19-1.28.3-2.28.3-2.28S20.53,12.24,17.48,16.23Z"/><path class="cls-1" d="M17.94,86.12A5.61,5.61,0,0,0,16.87,85c-1.6-1.35,0-16.65.41-20.58,1.85-.1,3.14-.07,3.25.21C20.91,65.54,18.45,82.68,17.94,86.12Z"/><path class="cls-1" d="M9.89,114.9v.79c-5.18,5.31-7.25,3.5-8.07,1.49l.11-.66C5.14,118.71,9.37,115,9.37,115A.79.79,0,0,1,9.89,114.9Z"/><path class="cls-4" d="M20.13,65.83c-.31,4.73-2.69,20.89-2.69,20.89a62.6,62.6,0,0,1-1.62,6.14c-.28.21-2,1.41-2,1.41S13.7,97,13.14,97.8a7.73,7.73,0,0,0-.78,2.75s-.91,3.94-1.19,5.92a29.36,29.36,0,0,1-1.27,4.65v4.3c-6.51,6.68-8.11,2.09-8.49,0a8.27,8.27,0,0,1-.11-.87L5,92.3s.78-1.06.64-1.62a2,2,0,0,1,.28-1.27V88.14s.86-1.13,0-1.76,0-5.43,0-5.43-1-2.75-.47-3.53,0-2,.35-2.75,0,0-1.27-1.9a16.14,16.14,0,0,1-1.62-4.29C2.5,67.11,2.29,66,2.29,66s17.41-2.47,17.84-1.41A5.14,5.14,0,0,1,20.13,65.83Z"/><path class="cls-1" d="M17.48,16.23a9.86,9.86,0,0,0-1.41,2.51,6.63,6.63,0,0,1-2.07.32c-2.51,0-3.9-1.84-5.08-3.86-.05-.09-.91.31-1,.21.19-1.28.3-2.28.3-2.28S20.53,12.24,17.48,16.23Z"/><path class="cls-6" d="M20.82,12.11A6.84,6.84,0,1,1,19,7.45,6.82,6.82,0,0,1,20.82,12.11Z"/><path class="cls-1" d="M20.13,65.83c-2.31.41-6.49,1.2-6.83,1.67-.47.66-4,.85-6.12,1.13a18.8,18.8,0,0,1-4.34-.15C2.48,67.11,2.27,66,2.27,66s17.42-2.47,17.84-1.41A5.15,5.15,0,0,1,20.13,65.83Z"/><path class="cls-5" d="M21.62,65.15s-7.85,1.27-8.32,1.93-4,.85-6.12,1.13A19.94,19.94,0,0,1,1,67.69c-1.65-1.1-.85-14-.14-15.6S1.31,41.56.65,38A24.06,24.06,0,0,1,1,30s1-3.14.8-3.8.94-2.07.94-2.07,1.74-2.87,2.63-3.29A1.31,1.31,0,0,0,6,20a7.64,7.64,0,0,0,.17-1.73,1,1,0,0,1,1-.94c2.68.42,9,4.37,9,4.37-.23.89,1.27,3.43,1.27,3.43a.54.54,0,0,1,.07.13c1.65,3.1,2.85,12.6,2.85,12.6s.08,4.54.07,7.88a28.07,28.07,0,0,1-.12,3.4,46.35,46.35,0,0,0,.41,6.44c.19,2,.38,3.84.44,4.84C21.3,62.85,21.62,65.15,21.62,65.15Z"/><path class="cls-1" d="M14.75,52.18S12.64,57.26,13.2,58,14.75,52.18,14.75,52.18Z"/><path class="cls-1" d="M17.38,54.63s-2.39,3.76-1.5,4.51S17.38,54.63,17.38,54.63Z"/><path class="cls-1" d="M9.89,114v1.26c-6.51,6.68-8.11,2.09-8.49,0C2.59,116.31,5.3,117.57,9.89,114Z"/><path class="cls-4" d="M9.89,114.15v1.26c-6.51,6.68-8.11,2.09-8.49,0C2.59,116.45,5.3,117.72,9.89,114.15Z"/><circle class="cls-2" cx="9.12" cy="117.58" r="0.18"/><circle class="cls-2" cx="10.9" cy="118.62" r="0.18"/><circle class="cls-2" cx="10.07" cy="118.09" r="0.18"/><path class="cls-1" d="M11.23,72.58S9.53,76.84,7.52,77,11.23,72.58,11.23,72.58Z"/><path class="cls-1" d="M11.51,79.06S8.83,83.62,8,83.67,11.51,79.06,11.51,79.06Z"/><path class="cls-1" d="M12.9,94.38s-3.33,1.74-2.57,1.89S12.9,94.38,12.9,94.38Z"/><path class="cls-1" d="M6.29,94.38A29.61,29.61,0,0,1,10.22,93C10.81,93,6.29,94.38,6.29,94.38Z"/><path class="cls-1" d="M24.49,88.84s2.3-.57,2.39,0S24.49,88.84,24.49,88.84Z"/><path class="cls-1" d="M26.69,91.62s-2,0-1.74.7S26.69,91.62,26.69,91.62Z"/><path class="cls-1" d="M17.5,25.52c-1.73-.68-4.76-2-6.13-3.32S7.49,20.42,6,20.26a7.55,7.55,0,0,0,.17-1.72,1,1,0,0,1,1-.95c2.68.43,9,4.37,9,4.37-.23.9,1.27,3.43,1.27,3.43Z"/><path class="cls-5" d="M17.5,25.24c-1.73-.68-4.76-2-6.13-3.32S7.49,20.14,6,20a7.58,7.58,0,0,0,.17-1.73,1,1,0,0,1,1-.94c2.68.42,9,4.37,9,4.37-.23.89,1.27,3.43,1.27,3.43A.83.83,0,0,1,17.5,25.24Z"/><path class="cls-1" d="M20.71,55.57A55.35,55.35,0,0,1,14,50.49a14.79,14.79,0,0,0-1.6-2L9.25,42.8l-1-2.36,2.82-3,6.16,4,1.65,3a11.1,11.1,0,0,1,1.52,1.3,31.51,31.51,0,0,1-.11,3.4A44.18,44.18,0,0,0,20.71,55.57Z"/><path class="cls-6" d="M8.41,39.87l.84,2.93L12.55,48a14.31,14.31,0,0,1,1.6,2A56,56,0,0,0,22.51,56c2.48,1.27,5.65,2.31,5.88,3.22S30,66.94,34,64.73s-1.13-7.19-1.13-7.19l-3.29-2.91s-7-5.5-7.63-7.33-2.94-3.43-2.94-3.43l-1.65-3-6.16-4Z"/><path class="cls-1" d="M7.23,24.36S1.5,27,3.29,31.19,9,43.09,9,43.09s-.47-2.7.57-2.93,8,.92,8,.92S15.6,38,15.93,36.16,13.44,22.81,7.23,24.36Z"/><path class="cls-1" d="M7.8,23.94s-5.73,2.63-3.95,6.81S9.54,42.66,9.54,42.66s-.47-2.7.56-2.93,7.57,1,7.57,1-1.51-3.19-1.18-5S14,22.39,7.8,23.94Z"/><path class="cls-5" d="M7.52,24.08S1.78,26.71,3.57,30.9,9.25,42.81,9.25,42.81s-.47-2.7.57-2.93,7.56,1,7.56,1-1.5-3.2-1.17-5S13.72,22.53,7.52,24.08Z"/><path class="cls-1" d="M19,7.45a2.87,2.87,0,0,1-2.35,0c-.49-.27-.86-.78-1.41-.88a1.45,1.45,0,0,0-1.34.58,5.51,5.51,0,0,0-.71,1.36A13.74,13.74,0,0,1,11.86,11a1.86,1.86,0,0,1-1.29,1c-.78,0-1.3-.82-2.05-1-1.83-.51-.77,1.5-.5,2.26a5.34,5.34,0,0,1,.27,2.35l-.18,0A6.82,6.82,0,0,1,19,7.45Z"/><path class="cls-7" d="M8.39,10.77c.75.21,1.27,1.07,2,1,.56,0,1-.52,1.29-1A13.74,13.74,0,0,0,13,8.39,5.28,5.28,0,0,1,13.74,7a1.45,1.45,0,0,1,1.34-.59c.54.1.91.61,1.41.88a3.52,3.52,0,0,0,2.94-.23c.47-.18,1-.44,1.07-.93.06-.34-.14-.68-.09-1a2.11,2.11,0,0,1,.47-.87c.17-.28.27-.69,0-.92s-.45-.15-.67-.23c-.57-.22-.71-1-1.21-1.32s-1.26-.12-1.92-.09A6.63,6.63,0,0,1,14.41,1,3.68,3.68,0,0,0,11.68.74a5.9,5.9,0,0,0-1.35,1A6.09,6.09,0,0,1,7.37,3a3.12,3.12,0,0,0-1.53.42,2,2,0,0,0-.51,1.86,8.44,8.44,0,0,1,.28,2c-.08,1.07-.88,1.94-1.14,3a1.14,1.14,0,0,0,.12,1,1.83,1.83,0,0,0,.53.38A2.08,2.08,0,0,1,6,13.06c0,.3,0,.61,0,.91a1.79,1.79,0,0,0,2.08,1.41A5.47,5.47,0,0,0,7.9,13C7.62,12.28,6.57,10.28,8.39,10.77Z"/><g class="cls-8"><path class="cls-9" d="M19.37,2.16l0,0Z"/><path class="cls-9" d="M20.85,4.24a.75.75,0,0,0,0-.92l-.14-.09a1.12,1.12,0,0,1-.17.59,2.21,2.21,0,0,0-.47.86c0,.33.14.69.09,1-.08.49-.61.74-1.07.92a3.56,3.56,0,0,1-2.94.24c-.49-.28-.86-.78-1.4-.89a1.47,1.47,0,0,0-1.34.59,5.34,5.34,0,0,0-.71,1.36,15.2,15.2,0,0,1-1.29,2.42c-.32.47-.74,1-1.3,1-.78,0-1.3-.82-2.05-1-1.83-.51-.77,1.5-.5,2.26a5.36,5.36,0,0,1,.27,2.35,1.79,1.79,0,0,1-1.67-.58,1.81,1.81,0,0,0,2,1A5.23,5.23,0,0,0,7.87,13c-.27-.76-1.32-2.77.5-2.26.75.21,1.28,1.06,2.05,1a1.9,1.9,0,0,0,1.3-1A15.19,15.19,0,0,0,13,8.36,5.48,5.48,0,0,1,13.72,7a1.45,1.45,0,0,1,1.34-.58c.55.1.91.61,1.4.88a3.51,3.51,0,0,0,2.95-.24c.47-.17,1-.43,1.06-.92.06-.34-.14-.68-.09-1A2.15,2.15,0,0,1,20.85,4.24Z"/><path class="cls-9" d="M4.81,11.1a3.22,3.22,0,0,1-.39-.25.71.71,0,0,0,.14.29,2.2,2.2,0,0,0,.53.39,2.11,2.11,0,0,1,.45.39A2.21,2.21,0,0,0,4.81,11.1Z"/></g><path class="cls-1" d="M21.38,10.89s-1.92-1.34-3.06.11h-.69C17,9,13.55,9.94,13.55,9.94l-4.64.76L9,11l4.55-.37a5,5,0,0,0,.72,2.45c.62.6,1.95.26,1.95.26.81-.1,1.2-1.37,1.35-2l.66,0c-.12.64-.2,1.88.88,2.31a1.39,1.39,0,0,0,2-.74A6.2,6.2,0,0,0,21.38,10.89Z"/><path class="cls-3" d="M21.38,10.75s-1.92-1.35-3.06.1h-.69c-.68-2-4.08-1.06-4.08-1.06l-4.64.76.09.3,4.55-.37a5,5,0,0,0,.72,2.45c.62.6,1.95.27,1.95.27.81-.11,1.2-1.38,1.35-2l.66,0c-.12.64-.2,1.89.88,2.32a1.37,1.37,0,0,0,1.94-.74A6.19,6.19,0,0,0,21.38,10.75Z"/></g></g></svg>