<svg xmlns="http://www.w3.org/2000/svg" viewBox="0 0 115.05 124.12"><defs><style>.cls-1{fill:#645ea8;}.cls-2{fill:#f8f9f9;}.cls-3{fill:#3d3a57;}.cls-4,.cls-7{fill:#060000;opacity:0.1;isolation:isolate;}.cls-4{stroke:#f7f8f8;stroke-miterlimit:10;stroke-width:2px;}.cls-5{fill:#2d2c42;}.cls-6{fill:#f6bfbf;}</style></defs><title>Asset 16</title><g id="Layer_2" data-name="Layer 2"><g id="Layer_6" data-name="Layer 6"><ellipse class="cls-1" cx="6.78" cy="115.38" rx="5.72" ry="1.29"/><path class="cls-1" d="M13.25,97.39c0,3.65-6.62,14-6.62,14S0,101,0,97.39a6.63,6.63,0,1,1,13.25,0Z"/><circle class="cls-2" cx="6.63" cy="97.39" r="3.76"/><ellipse class="cls-3" cx="67.06" cy="117.63" rx="47.99" ry="6.49"/><ellipse class="cls-4" cx="67.06" cy="117.63" rx="37.56" ry="5.08"/><circle class="cls-5" cx="60.27" cy="15.02" r="10.19"/><circle class="cls-6" cx="63.06" cy="18.44" r="5.71"/><path class="cls-6" d="M59.87,21.44s1.45,3.48-.78,4.45-1.35,6.67-1.35,6.67l8.7-1.84a4.41,4.41,0,0,0-1.74-3.48C63,26.18,67,21.44,67,21.44Z"/><polygon class="cls-6" points="57.06 47.16 57.35 50.35 70.41 52.58 69.15 46.68 57.06 47.16"/><path class="cls-6" d="M56.87,72.79l.48,13.54S55,91.84,56.87,102s.48,13,.48,13l6.58.87-.39-3.77L62,108.76,62.67,90s3-7,3.1-8.31-.2-11.22-.2-11.22Z"/><path class="cls-7" d="M56.87,72.79l.48,13.54S55,91.84,56.87,102s.48,13,.48,13l6.58.87-.39-3.77L62,108.76,62.67,90s3-7,3.1-8.31-.2-11.22-.2-11.22Z"/><path class="cls-5" d="M58.9,110.31s0-1.26-.58-1.35S57,108.57,57,109a21.6,21.6,0,0,1-.29,3.48,3.94,3.94,0,0,0-.29,2.41s-.87,2.23-.2,2.42a40.19,40.19,0,0,0,4.55.2l.19-1.07s8.61,2.71,10.44.29c0,0,.87-1.74-.67-2.13,0,0-3.48.1-4.74-1.35s-3.68-4.83-3.68-4.83-1.93.29-1.74,1.54v.39Z"/><path class="cls-6" d="M62.19,73.08s1,6.77,4.35,11.7c0,0,1.74,4.06,1.45,5.32s-.29,8.12,2.61,14.21l2.71,8.9,1.35,3.19,2.32,1,3.77.29-2.12-4.45-1.07-2.32a20.39,20.39,0,0,1-1.93-7.45c0-3.48-1.26-11.7-1.26-11.7s0-18.56-2-19.72S62.19,73.08,62.19,73.08Z"/><path class="cls-5" d="M57.84,49.39l-1-.2v4.36s-.39,3.38-1.26,4.06-4.25,14-3.09,14.79,16.73,4.84,20.5.68L70.41,60.41s.19-8.7,0-8.7S57.84,49.39,57.84,49.39Z"/><path class="cls-1" d="M67,29.85a8,8,0,0,0-9.67,1s-1.74,7.16-2,8.9-2.13,8.89-.77,9.57,1.35-1.64,4.83-1.16,10.93.29,10.93-.29-1.74-5.22-1.06-6,1.83-4.44.67-6.28A63.67,63.67,0,0,1,67,29.85Z"/><path class="cls-6" d="M60.74,49.39l9.67,4.54s3.87,4.93,4.74,2.13-2.91-4.84-2.91-4.84l-6.47-3.67-5,1.64Z"/><path class="cls-7" d="M61.41,30.82s-5.51,17-.48,19.73,5.8-2.42,5.8-2.42S63.35,46,64.41,43.39s2-12.57,2-12.57Z"/><path class="cls-1" d="M61.12,30.24s-5.51,17-.48,19.73,5.8-2.42,5.8-2.42-3.38-2.13-2.32-4.74,2-12.57,2-12.57Z"/><path class="cls-5" d="M74.41,112.3s-.09-1.32-.71-1.38-1.45-.3-1.42.11a22.51,22.51,0,0,1,0,3.67,4.22,4.22,0,0,0-.12,2.55s-.74,2.4,0,2.55a43.47,43.47,0,0,0,4.77-.15l.12-1.13s9.22,2.17,11-.5c0,0,.78-1.89-.87-2.18,0,0-3.64.37-5.07-1S77.81,110,77.81,110s-2,.45-1.7,1.75l0,.41Z"/><ellipse class="cls-5" cx="63.05" cy="14.75" rx="6.89" ry="3.67"/><ellipse class="cls-6" cx="57.32" cy="19.4" rx="0.98" ry="1.52"/><circle class="cls-5" cx="54.01" cy="4.83" r="4.83"/></g></g></svg>