<svg xmlns="http://www.w3.org/2000/svg" viewBox="0 0 154.66 116.59"><defs><style>.cls-1{fill:#060000;opacity:0.1;isolation:isolate;}.cls-2{fill:#f6bfbf;}.cls-3{fill:#2d2c42;}.cls-4{fill:#ea5e7f;}.cls-5{fill:#3d3a57;}.cls-6{fill:#eb5f3d;}.cls-7{fill:#f8f9f9;}</style></defs><title>Asset 21</title><g id="Layer_2" data-name="Layer 2"><g id="Layer_6" data-name="Layer 6"><ellipse class="cls-1" cx="79.6" cy="114" rx="24.36" ry="2.59"/><path class="cls-2" d="M82.42,28.53s-.38,3.06-1.71,3.25-6.49.38-7.06,1.9a15,15,0,0,0-.77,2.87l8.21,1.9L89.67,40l5.54-.38s.19-5.15-2.68-5.92-5-1.14-5.15-2.48S87,28.92,87,28.92Z"/><circle class="cls-3" cx="84.14" cy="23.39" r="6.58"/><path class="cls-2" d="M69.26,47.8,62.39,59.06s-5.91,5-3.24,5.72,5.34-5,5.34-5l8.39-9.54Z"/><path class="cls-2" d="M97.5,52.76l2.86,10.88S106.94,68,104.27,68s-5.82-3.8-5.82-3.8L93.68,53.53Z"/><path class="cls-2" d="M73.07,71.27s-.19,12.4-1.14,13.35-1.53,14.12-1.34,16.79a21.8,21.8,0,0,1-.38,5.16c0,.38,3.06.57,3.06.57L77.65,77Z"/><path class="cls-3" d="M71.17,105.23l-1.34.38s-.38,3-.57,3.63-1.53,4.77.95,5.15a4.05,4.05,0,0,0,4-1.72c0-.19-.76-3.62-.57-4a32,32,0,0,0,.57-3.43Z"/><path class="cls-1" d="M71.17,105.23l-1.34.38s-.38,3-.57,3.63-1.53,4.77.95,5.15a4.05,4.05,0,0,0,4-1.72c0-.19-.76-3.62-.57-4a32,32,0,0,0,.57-3.43Z"/><path class="cls-3" d="M90.44,105.8l1.33.38s.38,3.06.57,3.63,1.53,4.77-1,5.15a4.05,4.05,0,0,1-4-1.72c0-.19.77-3.62.58-4a32.87,32.87,0,0,1-.58-3.44Z"/><path class="cls-1" d="M90.44,105.8l1.33.38s.38,3.06.57,3.63,1.53,4.77-1,5.15a4.05,4.05,0,0,1-4-1.72c0-.19.77-3.62.58-4a32.87,32.87,0,0,1-.58-3.44Z"/><circle class="cls-2" cx="85.09" cy="25.67" r="4.58"/><path class="cls-3" d="M77.08,48.76l-.76,3.81s-5.15,7.25-4.2,16.22.76,18.31.95,20.8,1.15,13.35-.57,17.17.57,4,.77,4,.76-1,2.09.57,5.16.39,5.16.39,7,1.52,9.73.19,8.2-3.44,7.82-4.77-4.2-7.82-3-11.64-1.53-41-4.58-42.55l-.77-3.62Z"/><ellipse class="cls-3" cx="84.14" cy="21.57" rx="4.54" ry="2.72"/><circle class="cls-3" cx="84.59" cy="16.81" r="2.72"/><path class="cls-3" d="M81,15.33a2.71,2.71,0,0,1,2.44-2.71l-.28,0a2.73,2.73,0,1,0,0,5.45h.28A2.73,2.73,0,0,1,81,15.33Z"/><path class="cls-4" d="M72.5,35.78l.38.77a2.71,2.71,0,0,1-.38.76c-.19.19-6.68,6.68-4.77,8s2.48,1.34,2.48,1.34S68.3,48,68.69,48.18s4.19,3.25,4.58,2.68A6.3,6.3,0,0,0,73.84,49s.76,1.14,1.52.76a1.18,1.18,0,0,0,.77-1l.57.76,13,.57s1,.57,1-.19.57,2.86,2.29,2.86c0,0,.19,1.91.76,1.91s5-1.52,4.58-1.91a4.37,4.37,0,0,1-.57-1.71s3.24-1.72,0-5.35c0,0-.58-3.43-2.48-4.19,0,0-.19-.58,0-.77a.36.36,0,0,0,.07-.5l-.07-.07c-.19-.19.38-.19.38-.76s-1-.76-1-.76S84.33,34.07,76.51,35Z"/><path class="cls-5" d="M37.7,21.77s-1.18-2.13-2.63-1.1.49,2.28.49,2.28L37.75,22"/><path class="cls-6" d="M22.26,54.29l.26,4.49s5.37-5,11.73-3.26c0,0,8.64-9.76,16.81-9.62,0,0,2.22-7.41,15.35-11.93,0,0,1-7.4,7.35-10.21l-4.34-2.4-7.79.49-10.57,4.2-13,9.75L23.32,45.93Z"/><path class="cls-1" d="M22.26,54.29l.26,4.49s5.37-5,11.73-3.26c0,0,8.64-9.76,16.81-9.62,0,0,2.22-7.41,15.35-11.93,0,0,1-7.4,7.35-10.21l-4.34-2.4-7.79.49-10.57,4.2-13,9.75L23.32,45.93Z"/><path class="cls-5" d="M43.58,36.76,60.65,63.68s2.86,4.4,6.07,1.55a3.83,3.83,0,0,0,.8-5,1.3,1.3,0,0,0-2.4.95l0,.08s.12,3.21-2,1.65a4.54,4.54,0,0,1-1.23-1.35L46,35.76Z"/><path class="cls-1" d="M31.29,45.16s.86,8.43,3,10.36"/><path class="cls-1" d="M58.31,26.4s6.87,5.2,8.1,7.57"/><path class="cls-6" d="M36.19,22a18.91,18.91,0,0,1-4.3,3.32s-15.6,14.14-9.28,33.34c0,0,1.49-9.65,7.73-9.56,0,0,3.57-8.91,15.73-11.3,0,0,3.77-8,16.79-10.82,0,0,3-6.14,11-3.33,0,0-10.18-11.67-32.35-4.71C41.5,18.92,37.56,21.68,36.19,22Z"/><path class="cls-1" d="M31.8,25.44s-6.15,11.38-1.55,23.78"/><path class="cls-1" d="M46,37.92a43.63,43.63,0,0,1-9.88-15.8"/><path class="cls-1" d="M62.77,27.1s-8.25-9.36-21.32-7.89"/><path class="cls-7" d="M113,3c-.28,1.16-.63,1.44-1,1.36s-.52-.49-.24-1.65A9.58,9.58,0,0,1,113,.13,9.5,9.5,0,0,1,113,3Z"/><path class="cls-7" d="M154.52,13.33c-.28,1.16-.63,1.44-1,1.36s-.52-.48-.24-1.65a9.58,9.58,0,0,1,1.25-2.56A9.51,9.51,0,0,1,154.52,13.33Z"/><path class="cls-7" d="M41.07,14.42c-.46,1.9-1,2.35-1.58,2.22s-.85-.79-.39-2.69a15.41,15.41,0,0,1,2-4.2A15.72,15.72,0,0,1,41.07,14.42Z"/><path class="cls-7" d="M24.32,22.33c-.46,1.91-1,2.36-1.58,2.23s-.85-.79-.39-2.7a15.58,15.58,0,0,1,2-4.2A15.73,15.73,0,0,1,24.32,22.33Z"/><path class="cls-7" d="M9.24,51.57c-.45,1.91-1,2.36-1.57,2.23s-.85-.8-.4-2.7a15.63,15.63,0,0,1,2.05-4.2A15.5,15.5,0,0,1,9.24,51.57Z"/><path class="cls-7" d="M8,84.76C7.57,86.67,7,87.12,6.45,87s-.85-.79-.4-2.7a15.8,15.8,0,0,1,2.05-4.2A15.73,15.73,0,0,1,8,84.76Z"/><path class="cls-7" d="M123.45,20.2c-.46,1.91-1,2.36-1.58,2.23s-.85-.79-.4-2.7a15.8,15.8,0,0,1,2-4.2A15.73,15.73,0,0,1,123.45,20.2Z"/><path class="cls-7" d="M73.81,11.68c-.46,1.9-1,2.35-1.58,2.22s-.85-.79-.4-2.7a15.8,15.8,0,0,1,2-4.2A15.79,15.79,0,0,1,73.81,11.68Z"/><path class="cls-7" d="M121.47,36c-.46,1.9-1,2.36-1.58,2.23s-.85-.8-.4-2.7a15.63,15.63,0,0,1,2.05-4.2A15.72,15.72,0,0,1,121.47,36Z"/><path class="cls-7" d="M142,4.67c-.45,1.91-1,2.36-1.57,2.23s-.85-.79-.4-2.7a15.63,15.63,0,0,1,2-4.2A15.51,15.51,0,0,1,142,4.67Z"/><path class="cls-7" d="M142.8,25.82c-.28,1.16-.63,1.44-1,1.36s-.52-.49-.25-1.65A9.58,9.58,0,0,1,142.84,23,9.72,9.72,0,0,1,142.8,25.82Z"/><path class="cls-7" d="M95.74,25.82c-.27,1.16-.62,1.44-1,1.36s-.52-.49-.24-1.65A9.58,9.58,0,0,1,95.79,23,9.5,9.5,0,0,1,95.74,25.82Z"/><path class="cls-7" d="M73.51,89.47c-.27,1.16-.63,1.44-1,1.36s-.52-.49-.24-1.65a9.58,9.58,0,0,1,1.25-2.56A9.5,9.5,0,0,1,73.51,89.47Z"/><path class="cls-7" d="M123,50c-.28,1.16-.63,1.44-1,1.36s-.52-.49-.24-1.65a9.58,9.58,0,0,1,1.25-2.56A9.51,9.51,0,0,1,123,50Z"/><path class="cls-7" d="M27.53,4.19c-.28,1.17-.63,1.44-1,1.36s-.52-.48-.25-1.64a9.54,9.54,0,0,1,1.25-2.57A9.37,9.37,0,0,1,27.53,4.19Z"/><path class="cls-7" d="M17,44.39c-.28,1.17-.63,1.44-1,1.36s-.52-.48-.24-1.64a9.54,9.54,0,0,1,1.25-2.57A9.51,9.51,0,0,1,17,44.39Z"/><path class="cls-7" d="M25.24,35.56c-.27,1.16-.62,1.44-1,1.36s-.52-.48-.24-1.64a9.54,9.54,0,0,1,1.25-2.57A9.51,9.51,0,0,1,25.24,35.56Z"/><path class="cls-7" d="M44.43,20.94c-.28,1.17-.63,1.44-1,1.36s-.52-.48-.24-1.64a9.32,9.32,0,0,1,1.24-2.57A9.37,9.37,0,0,1,44.43,20.94Z"/><path class="cls-7" d="M10,71.19c-.28,1.17-.63,1.44-1,1.36s-.52-.48-.25-1.64a9.54,9.54,0,0,1,1.25-2.57A9.73,9.73,0,0,1,10,71.19Z"/><path class="cls-7" d="M1.34,76.83c-.28,1.16-.63,1.44-1,1.36s-.52-.49-.25-1.65A9.58,9.58,0,0,1,1.38,74,9.72,9.72,0,0,1,1.34,76.83Z"/><path class="cls-7" d="M91,66.47c-.27,1.17-.62,1.44-1,1.36s-.52-.48-.24-1.64a9.54,9.54,0,0,1,1.25-2.57A9.51,9.51,0,0,1,91,66.47Z"/><path class="cls-7" d="M88.74,40.74c-.28,1.16-.63,1.44-1,1.36s-.52-.49-.24-1.65a9.36,9.36,0,0,1,1.24-2.56A9.37,9.37,0,0,1,88.74,40.74Z"/><path class="cls-7" d="M134.42,69.06c-.28,1.16-.63,1.44-1,1.36s-.52-.48-.24-1.65a9.58,9.58,0,0,1,1.25-2.56A9.51,9.51,0,0,1,134.42,69.06Z"/><path class="cls-7" d="M121.47,84.76c-.46,1.91-1,2.36-1.58,2.23s-.85-.79-.4-2.7a15.8,15.8,0,0,1,2.05-4.2A15.73,15.73,0,0,1,121.47,84.76Z"/><path class="cls-7" d="M104.11,78.83c-.46,1.9-1,2.35-1.58,2.22s-.85-.79-.39-2.69a15.41,15.41,0,0,1,2-4.2A15.72,15.72,0,0,1,104.11,78.83Z"/><path class="cls-7" d="M146.9,54c-.46,1.9-1,2.35-1.58,2.22s-.85-.79-.4-2.69a15.63,15.63,0,0,1,2.05-4.2A15.72,15.72,0,0,1,146.9,54Z"/><path class="cls-7" d="M148.43,71.5c-.28,1.16-.63,1.44-1,1.36s-.52-.49-.24-1.65a9.36,9.36,0,0,1,1.24-2.56A9.37,9.37,0,0,1,148.43,71.5Z"/><path class="cls-7" d="M88,88.55c-.28,1.16-.63,1.44-1,1.36s-.52-.48-.24-1.65A9.36,9.36,0,0,1,88,85.7,9.37,9.37,0,0,1,88,88.55Z"/><path class="cls-7" d="M103.66,64.34c-.28,1.16-.63,1.44-1,1.36s-.52-.48-.24-1.65a9.58,9.58,0,0,1,1.25-2.56A9.51,9.51,0,0,1,103.66,64.34Z"/><path class="cls-7" d="M90.26,20.34c-.27,1.16-.63,1.43-1,1.36s-.52-.49-.24-1.65a9.58,9.58,0,0,1,1.25-2.56A9.5,9.5,0,0,1,90.26,20.34Z"/><path class="cls-7" d="M108.69,100.89c-.28,1.16-.63,1.44-1,1.36s-.52-.49-.25-1.65A9.58,9.58,0,0,1,108.73,98,9.35,9.35,0,0,1,108.69,100.89Z"/><path class="cls-7" d="M87.22,5.11c-.28,1.16-.63,1.44-1,1.36S85.74,6,86,4.82a9.58,9.58,0,0,1,1.25-2.56A9.37,9.37,0,0,1,87.22,5.11Z"/><path class="cls-7" d="M107.93,45.46c-.28,1.16-.63,1.44-1,1.36s-.52-.48-.25-1.65A9.58,9.58,0,0,1,108,42.61,9.73,9.73,0,0,1,107.93,45.46Z"/></g></g></svg>