<svg xmlns="http://www.w3.org/2000/svg" viewBox="0 0 159.73 76.41"><defs><style>.cls-1{fill:#f8f9f9;}.cls-2,.cls-4{fill:#060000;isolation:isolate;}.cls-2{opacity:0.03;}.cls-3{fill:#3d3a57;}.cls-4{opacity:0.1;}.cls-5{fill:#a86167;}.cls-6{fill:#545589;}.cls-7{fill:#3c334d;}.cls-8{fill:#eb5f3d;}.cls-9{fill:#ea5e7f;}.cls-10{fill:#555462;}</style></defs><title>Asset 1</title><g id="Layer_2" data-name="Layer 2"><g id="Layer_6" data-name="Layer 6"><path class="cls-1" d="M159.57,2.56V73.85a2.67,2.67,0,0,1-.06.56,2.51,2.51,0,0,1-2.44,2H2.49a2.48,2.48,0,0,1-2.3-1.6,2.42,2.42,0,0,1-.19-1V2.56A2.53,2.53,0,0,1,2.49,0H157.08a2.52,2.52,0,0,1,2.49,2.56Z"/><rect class="cls-2" x="49.94" y="7.32" width="59.53" height="67.02"/><rect class="cls-2" x="57.74" y="16.27" width="18.54" height="34.81" rx="2.38"/><rect class="cls-2" x="83.12" y="16.27" width="18.54" height="34.81" rx="2.38"/><rect class="cls-2" x="4.23" y="8.46" width="42.62" height="42.62" rx="3.19"/><rect class="cls-2" x="112.56" y="8.46" width="42.62" height="42.62" rx="3.19"/><polygon class="cls-1" points="68.18 16.27 57.74 27.69 57.74 31.21 70.7 16.27 68.18 16.27"/><polygon class="cls-1" points="76.29 28.03 57.74 46.14 57.83 49.37 76.37 31.21 76.29 28.03"/><polygon class="cls-1" points="93.56 16.27 83.12 27.69 83.12 31.21 96.07 16.27 93.56 16.27"/><polygon class="cls-1" points="101.66 28.03 83.12 46.14 83.2 49.37 101.74 31.21 101.66 28.03"/><polygon class="cls-1" points="18.38 8.46 4.23 24.67 4.23 35.07 25.54 8.46 18.38 8.46"/><polygon class="cls-1" points="37.16 8.46 4.23 40.83 4.23 43.29 41.52 8.46 37.16 8.46"/><polygon class="cls-1" points="126.95 8.54 112.81 24.75 112.81 35.15 134.11 8.54 126.95 8.54"/><polygon class="cls-1" points="145.73 8.54 112.81 40.91 112.81 43.37 150.09 8.54 145.73 8.54"/><path class="cls-1" d="M46.85,46.41v1.47a3.2,3.2,0,0,1-3.2,3.2H38.24l-.46-.47A8.48,8.48,0,0,1,36,48.25a9.46,9.46,0,0,1-.54-4.13c0-.12,0-.23,0-.35a4.74,4.74,0,1,1-7.3-5.87l1.72,1.66-.84-2.3a4.75,4.75,0,0,1,6.45,1.8c0,.09.09.17.13.26.05-1.18.11-2.35.17-3.52h0l-.29-.06-.16,0-.27-.08-.16-.06-.26-.11-.14-.06-.3-.16-.07,0a2.71,2.71,0,0,1-.35-.24l-.11-.08-.22-.18-.12-.12c-.06-.06-.13-.12-.18-.18l-.12-.13-.17-.19-.1-.14a1.88,1.88,0,0,1-.16-.23l-.08-.12c-.07-.12-.14-.23-.2-.36l-.06-.14c0-.08-.07-.16-.11-.25l-.06-.17c0-.06,0-.16-.07-.24s0-.12,0-.18,0-.07,0-.1h0A4.7,4.7,0,0,1,34.24,27l1.06,2.1,0-2.54A4.72,4.72,0,0,1,40.83,29h0l0,0,.06.13c0,.08.07.16.11.26s0,.07,0,.11.08.24.12.36l0,.12c0,.11,0,.23.07.34a.13.13,0,0,0,0,.06c0,.14,0,.28,0,.41v.11c0,.14,0,.28,0,.43a4.72,4.72,0,0,1-4.21,4.48c-.16,2.78-.27,5.57-.34,8.33a8.11,8.11,0,0,0,.42,3.56,5.91,5.91,0,0,0,.94,1.38v-.27a4.74,4.74,0,0,1,5-4.51h0l1.07,2.12,0-2A4.78,4.78,0,0,1,46.85,46.41Z"/><rect class="cls-2" x="78.73" y="7.32" width="1.95" height="67.02"/><path class="cls-3" d="M159.51,74.41a2.51,2.51,0,0,1-2.44,2H2.49a2.48,2.48,0,0,1-2.3-1.6c7-1.77,25.62-3.21,49.75-3.89l4.08-.1h.25l1,0,4.44-.09h.51l1.78,0h.63l3.77,0c4,0,8.13-.08,12.32-.09h7.13l3.45,0c7,0,13.77.16,20.16.32l2.52.07,3.58.11C135.94,71.7,151.91,72.91,159.51,74.41Z"/><path class="cls-3" d="M46.93,55.71h0a1.7,1.7,0,0,1-1.6,1.79H5.91a1.7,1.7,0,0,1-1.6-1.79h0a1.7,1.7,0,0,1,1.6-1.79H45.33A1.7,1.7,0,0,1,46.93,55.71Z"/><rect class="cls-3" x="83.9" y="17.79" width="5.67" height="9.78"/><rect class="cls-4" x="83.9" y="17.79" width="5.67" height="9.78"/><path class="cls-5" d="M111.78,25.79a2,2,0,0,1,1.15-.16,1.39,1.39,0,0,1,.69.15c.4.24.46.8.48,1.27a2.33,2.33,0,0,1-.35,1.63,2,2,0,0,1-1.22.54,3.14,3.14,0,0,0-.9.23,3.62,3.62,0,0,0-.79.61,4.26,4.26,0,0,1-1.93,1,2.2,2.2,0,0,1,.14-2.65c.4-.44.92-.79,1.36-1.2A10.2,10.2,0,0,1,111.78,25.79Z"/><path class="cls-6" d="M85.07,73.39A1.41,1.41,0,0,0,85,74c0,.49.53.8,1,1a1.84,1.84,0,0,0,1.88.07c.58-.45.49-1.33.71-2,.13-.41.39-.77.55-1.16a6,6,0,0,0,0-3.48l-.36-1.68a.57.57,0,0,0-.16-.35,2.48,2.48,0,0,0-1.8-.1c-.5.35-.38,1.52-.46,2.07A29.4,29.4,0,0,1,85.07,73.39Z"/><path class="cls-6" d="M83.18,73.39a1.58,1.58,0,0,1,.12.61c0,.49-.53.8-1,1a1.83,1.83,0,0,1-1.87.07c-.58-.45-.49-1.33-.72-2-.13-.41-.38-.77-.54-1.16a5.82,5.82,0,0,1,0-3.48l.35-1.68a.64.64,0,0,1,.17-.35,2.48,2.48,0,0,1,1.8-.1c.5.35.38,1.52.46,2.07A29.38,29.38,0,0,0,83.18,73.39Z"/><path class="cls-5" d="M87.31,23.08a.84.84,0,0,1,.19.33c.06.31-.23.58-.52.69a5.06,5.06,0,0,0-.88.3,1.56,1.56,0,0,0-.56.82,3.58,3.58,0,0,0,1.53,4.27,6.23,6.23,0,0,0,3.35.35,1.52,1.52,0,0,0,.47-.1,1.24,1.24,0,0,0,.38-.34,6.64,6.64,0,0,0,1.21-5.8.65.65,0,0,0-.09-.23c-.3-.41-1,.09-1.42-.18a1,1,0,0,1-.27-.39,8.52,8.52,0,0,1-.59-2.1,14.33,14.33,0,0,0-2,.7c-.63.33-.67,0-1.13.56C87.47,22.1,86.89,22.6,87.31,23.08Z"/><path class="cls-4" d="M87.31,23.08a.84.84,0,0,1,.19.33c.06.31-.23.58-.52.69a5.06,5.06,0,0,0-.88.3,1.56,1.56,0,0,0-.56.82,3.58,3.58,0,0,0,1.53,4.27,6.23,6.23,0,0,0,3.35.35,1.52,1.52,0,0,0,.47-.1,1.24,1.24,0,0,0,.38-.34,6.64,6.64,0,0,0,1.21-5.8.65.65,0,0,0-.09-.23c-.3-.41-1,.09-1.42-.18a1,1,0,0,1-.27-.39,8.52,8.52,0,0,1-.59-2.1,14.33,14.33,0,0,0-2,.7c-.63.33-.67,0-1.13.56C87.47,22.1,86.89,22.6,87.31,23.08Z"/><path class="cls-7" d="M80.82,42.47c.11,1.05.18,2.1.23,3.15a9,9,0,0,1-.24,3c-.17.54-.44,1-.59,1.59a7.68,7.68,0,0,0-.15,2,4.4,4.4,0,0,0,.1,1.14,10.28,10.28,0,0,0,.38,1,7.83,7.83,0,0,1,.19,3.7c-.29,2.33-.73,4.63-1.17,6.93l-.81,4.17a13,13,0,0,0,2.72.79c.57.11,1.32.09,1.55-.45a1.51,1.51,0,0,0,0-.76,7.73,7.73,0,0,1,.39-3.44c.32-.89.79-1.72,1-2.64a10.51,10.51,0,0,0,.25-1.76c.07-1,.1-2.08.09-3.13a13,13,0,0,1,.32-4.19c.55-1.76,2-3.33,1.8-5.17,0,2,.06,4-.07,6.07a19.31,19.31,0,0,0-.1,2.52A13.41,13.41,0,0,1,87,60.63a14.33,14.33,0,0,0-.36,1.47,10.83,10.83,0,0,1,0,2.35c-.23.65-.86,1.16-.84,1.85a1.39,1.39,0,0,0,.88,1.16,4,4,0,0,0,1.5.29c.55,0,1.22,0,1.5-.47s-.2-1.27-.3-1.94a3.24,3.24,0,0,1,.57-1.92,24.68,24.68,0,0,0,2.89-11c0-1.15,0-2.31,0-3.47a33.71,33.71,0,0,1,1-7.87C89.34,41,84.93,41,80.82,42.47Z"/><circle class="cls-5" cx="87.8" cy="19.79" r="3.28"/><path class="cls-8" d="M90.3,24.58a3.66,3.66,0,0,1-1.45,1.61,1.59,1.59,0,0,1-2-.36c-.31-.46-.32-1.16-.8-1.43a1,1,0,0,0-1.17.34A2.53,2.53,0,0,0,84.5,26a26.1,26.1,0,0,0-.12,3.31c.07,5.37.5,10.74.43,16.12a21.28,21.28,0,0,1-.14,2.52,31.68,31.68,0,0,1,6-1.13c1-.06,2,0,3-.17a17.18,17.18,0,0,0,2-.42.44.44,0,0,0,.24-.11.44.44,0,0,0,.08-.25c.2-1.9-.47-3.77-.76-5.66s-.23-3.56-.46-5.33c-.33-2.48-1.23-4.9-1.21-7.4a11.77,11.77,0,0,0-.07-2.72C93.3,24,92.74,23,91.92,22.9S90.64,24,90.3,24.58Z"/><path class="cls-6" d="M89.94,25.77A20.74,20.74,0,0,0,87.59,32c-.3,2,0,4-.26,6-.31,2.58-1.47,5.2-.68,7.67.17.55.44,1.06.63,1.61.81,2.4,0,5.08.52,7.56a.4.4,0,0,0,.19.31c.14.06.29,0,.44-.08.62-.2,1,.59,1.55,1a1.68,1.68,0,0,0,1.82.22c.93-.48,1.18-1.67,1.3-2.71a148.86,148.86,0,0,0,1.14-14.93,17.54,17.54,0,0,0-.14-3.4c-.23-1.37-.75-2.66-1-4a26.32,26.32,0,0,1-.14-6.64c0-.65-.14-2.52-1.25-1.91C90.83,23.26,90.35,25,89.94,25.77Z"/><path class="cls-4" d="M84.9,31.39a7,7,0,0,1-.24,2.1,11.88,11.88,0,0,1-1,1.91,11.41,11.41,0,0,0-1.15,5.06c0,1.74.17,3.48.3,5.22a66.06,66.06,0,0,1,.14,8,5.82,5.82,0,0,1,3.38-.15c.65.17,1.43.43,1.94,0a1.8,1.8,0,0,0,.42-1.33q.26-7.34.16-14.68a17.59,17.59,0,0,1,0-1.92,12.42,12.42,0,0,0,.17-1.48A7.64,7.64,0,0,0,88.71,32L87,25.93a2.7,2.7,0,0,0-.51-1.13c-.27-.31-1.12-.72-1.44-.32S85,26,85,26.46Z"/><path class="cls-6" d="M84.68,31.28a7.36,7.36,0,0,1-.24,2.1,11.88,11.88,0,0,1-1,1.91,11.41,11.41,0,0,0-1.15,5.06,50.74,50.74,0,0,0,.3,5.22,68,68,0,0,1,.14,8,5.81,5.81,0,0,1,3.38-.14c.65.17,1.42.43,1.93,0A1.78,1.78,0,0,0,88.49,52c.17-4.88.22-9.78.16-14.67a15.39,15.39,0,0,1,0-1.92A12.39,12.39,0,0,0,88.86,34a7.63,7.63,0,0,0-.37-2.06l-1.72-6.08a2.7,2.7,0,0,0-.51-1.13c-.28-.31-1.12-.72-1.45-.32s-.07,1.56-.07,2Z"/><path class="cls-9" d="M85.37,23.83a2.55,2.55,0,0,0-1.92,1.67c-.34.82-.44,1.72-.71,2.57-.46,1.47-1.41,2.8-1.57,4.33s.45,2.92.17,4.34A8.7,8.7,0,0,1,81,37.87a35.48,35.48,0,0,0-1.18,5l-.47,2.5A15.61,15.61,0,0,0,79,50.71a1.68,1.68,0,0,1,2.12.13c.16.15.29.35.51.38s.59-.39.68-.74A21.28,21.28,0,0,0,83,46.59a10.64,10.64,0,0,1,.31-2.11c.13-.43.32-.83.47-1.26a17.08,17.08,0,0,0,.41-3.13c.12-.9.37-1.79.51-2.69a21.48,21.48,0,0,0,.19-3.31l.07-6.37a2.9,2.9,0,0,1,.69-2.29c.32-.27,1.17-.52,1.09-1S85.73,23.79,85.37,23.83Z"/><path class="cls-9" d="M90.61,23.24A5.49,5.49,0,0,1,93.8,21.8,5.77,5.77,0,0,1,95,22l2.69.67a2.68,2.68,0,0,1-1.15,1.06,2,2,0,0,1,2.14,1.17,4.09,4.09,0,0,1-.56,3,12.51,12.51,0,0,0-1.36,5.19c0,.92-.63,1.82-.7,2.74a5.7,5.7,0,0,0,.14,1.7,10.92,10.92,0,0,0,.62,1.59,28.55,28.55,0,0,1,1.84,12.37H94.94a1.77,1.77,0,0,0-.6.08,3.49,3.49,0,0,0-.61.42,1.59,1.59,0,0,1-1.2.25c-.39-1.79.23-3.61.53-5.41a26.91,26.91,0,0,0,.3-3c.08-1.58.13-3.16.13-4.75a10.62,10.62,0,0,0-.43-3.55c-.19-.55-.48-1.08-.66-1.65a10,10,0,0,1-.34-1.73C91.65,29.2,91,26.26,90.61,23.24Z"/><path class="cls-9" d="M82.76,25.77a1.76,1.76,0,0,0-.48.89,18.45,18.45,0,0,1-1.38,2.17,8.54,8.54,0,0,0-.61,1.43,11.25,11.25,0,0,0-.93,5,1.71,1.71,0,0,0,.41,1,1.46,1.46,0,0,0,2.12-.47,5.3,5.3,0,0,0,.57-2.4,40.69,40.69,0,0,1,1-4.64,18.78,18.78,0,0,0,.41-2.36c0-.24.16-.78-.07-.94S82.89,25.68,82.76,25.77Z"/><path class="cls-9" d="M100.7,30.11a2.11,2.11,0,0,0,1.52,1,2.3,2.3,0,0,0,.88-.3,42.08,42.08,0,0,1,6.56-2.61,3,3,0,0,0,.72,3.44,22.59,22.59,0,0,0-5.45,2.18,4.67,4.67,0,0,0-1,.7,6.25,6.25,0,0,1-.62.64,3,3,0,0,1-1.8.41,2.6,2.6,0,0,1-2.07-.63l-4.5-3.21a.49.49,0,0,1-.25-.63.4.4,0,0,1,.1-.15l1.43-2.54c.32-.57.69-1.52,1.45-1.63s1,.72,1.4,1.26A23.41,23.41,0,0,0,100.7,30.11Z"/><rect class="cls-3" x="79.68" y="24.69" width="3" height="6.23" rx="0.67" transform="translate(-4.54 31.79) rotate(-21.57)"/><rect class="cls-4" x="79.68" y="24.69" width="3" height="6.23" rx="0.67" transform="translate(-4.54 31.79) rotate(-21.57)"/><rect class="cls-3" x="79.45" y="24.8" width="3" height="6.23" rx="0.67" transform="translate(-4.59 31.72) rotate(-21.57)"/><circle class="cls-8" cx="80.73" cy="26.85" r="0.39"/><path class="cls-5" d="M79.63,30.66c-.2-.25-.45-.45-.63-.72a2.87,2.87,0,0,1-.37-1.17,12.26,12.26,0,0,1-.11-1.36.4.4,0,0,1,.39-.4H79a3.15,3.15,0,0,1,1.67,1,4.28,4.28,0,0,1,1,2.22,10.86,10.86,0,0,1,.1,1.27l0,1.75a6.3,6.3,0,0,1-1.44,0c-.59-.17-.35-.06-.29-.64A2.61,2.61,0,0,0,79.63,30.66Z"/><path class="cls-9" d="M80.78,32.53a1.49,1.49,0,0,1-.69-.1,2.1,2.1,0,0,1-.92-1.08,15.42,15.42,0,0,1-.14,2.8,7.44,7.44,0,0,0-.21,1.48,2.6,2.6,0,0,0,.7,1.69,1.13,1.13,0,0,0,.43.32A1.22,1.22,0,0,0,81,37.45a2.71,2.71,0,0,0,1.07-1.2A5.74,5.74,0,0,0,82.41,34c0-.72.25-1.48.24-2.18C82.09,31.72,81.46,32.49,80.78,32.53Z"/><path class="cls-3" d="M84.05,18.64a4.49,4.49,0,0,0,3.74.21,5.2,5.2,0,0,0,.47,2.48,7.06,7.06,0,0,1-1.79,6.23,4.55,4.55,0,0,0,3.7-1.34,9.51,9.51,0,0,1-1.83,3.05c2.82-.88,4.83-3.49,5.73-6.3A9.23,9.23,0,0,0,94,16.36a5.69,5.69,0,0,0-5.35-3.44,5.27,5.27,0,0,0-4,2.61,6.71,6.71,0,0,0-.69,4.78Z"/><path class="cls-4" d="M88.26,21.33a5.9,5.9,0,0,1-.2,3.55,6.14,6.14,0,0,0,.43-4.1A5.23,5.23,0,0,1,88,18.29a4.49,4.49,0,0,1-3.74-.2l0,.65a4.54,4.54,0,0,0,3.58.12A5,5,0,0,0,88.26,21.33Z"/><path class="cls-4" d="M84.36,16a7,7,0,0,0-.43,4.27l.1-1.39A7,7,0,0,1,84.36,16Z"/><path class="cls-4" d="M90.4,25.66A4.57,4.57,0,0,1,86.91,27c-.14.19-.29.37-.43.54a4.55,4.55,0,0,0,3.69-1.33C90.25,26,90.33,25.85,90.4,25.66Z"/><path class="cls-4" d="M88.89,28.61q-.26.34-.54.66a9.24,9.24,0,0,0,5.56-5.8A9.25,9.25,0,0,1,88.89,28.61Z"/><path class="cls-3" d="M115.57,6.91V.08H112V72a1.79,1.79,0,1,0,3.58,0V10.49h8.78v5.07c-3.12.19-5.53,1.49-5.53,3.06s2.05,2.67,4.82,3a13,13,0,0,0,1.53.1c3.5,0,6.34-1.39,6.34-3.1,0-1.17-1.33-2.18-3.3-2.71a11.26,11.26,0,0,0-2.23-.35V10.49h17.89v5.07a10.65,10.65,0,0,0-1.49.19c-2.37.45-4,1.57-4,2.87a1.55,1.55,0,0,0,.18.73c.67,1.35,3.18,2.37,6.17,2.37,3.5,0,6.34-1.39,6.34-3.1s-2.41-2.87-5.53-3.06V10.49h14.23V6.91Zm34.16,11.71c0,1.36-2.26,2.46-5,2.46s-5.05-1.1-5.05-2.46a1.22,1.22,0,0,1,.07-.38,2.59,2.59,0,0,1,1.48-1.38,7.94,7.94,0,0,1,2.92-.68h1.16C147.78,16.32,149.73,17.36,149.73,18.62Zm-22-2.11c1.49.43,2.48,1.22,2.48,2.11,0,1.36-2.26,2.46-5,2.46-.35,0-.71,0-1.06,0-2.27-.24-4-1.22-4-2.41s2-2.3,4.47-2.44h1.16a9.53,9.53,0,0,1,2,.33Z"/><rect class="cls-6" x="62.01" y="37.8" width="0.57" height="17.48"/><rect class="cls-6" x="63.79" y="37.8" width="0.57" height="17.48"/><circle class="cls-6" cx="60.74" cy="72.29" r="0.98"/><path class="cls-8" d="M57.27,54.47A2.36,2.36,0,0,1,59.11,54c.85.28,3.09.55,3.48,1.95s0,16.83,0,16.83a6.42,6.42,0,0,1-2.41.24c-.52-.24-.46-2.56-.46-2.56l-.15-13.68Z"/><path class="cls-4" d="M57.27,54.47A2.36,2.36,0,0,1,59.11,54c.85.28,3.09.55,3.48,1.95s0,16.83,0,16.83a6.42,6.42,0,0,1-2.41.24c-.52-.24-.46-2.56-.46-2.56l-.15-13.68Z"/><path class="cls-8" d="M66.16,71.94l-4.11.91,0-.73,0-14.39a4.4,4.4,0,0,0-1.72-3.48h0A10.5,10.5,0,0,1,64,55c.35.16.7.31,1.06.44a1.48,1.48,0,0,1,1.08,1.21c0,.89.22,9.79.29,13a8.16,8.16,0,0,1-.29,2.3Z"/><rect class="cls-10" x="61.74" y="36.5" width="0.95" height="1.5"/><rect class="cls-4" x="61.74" y="36.5" width="0.95" height="1.5"/><rect class="cls-10" x="63.54" y="36.74" width="0.95" height="1.5"/><path class="cls-10" d="M64.49,36.74h-.95a1,1,0,0,0-.84.56.36.36,0,0,0,0,.09l-.21-.2L62,36.76l-.27-.26S63.5,35.6,64.49,36.74Z"/><circle class="cls-6" cx="64.91" cy="72.98" r="0.98"/><circle class="cls-6" cx="54.79" cy="71.64" r="0.98"/><path class="cls-8" d="M56.63,54.26S53.86,55,53.71,62s-.19,7.73-.19,7.73.06,2,4.15,3.27h2.51l.39-16.07S60.11,54.47,56.63,54.26Z"/><path class="cls-4" d="M56.39,65.1s-.71-9.78,3.13-9.82l.36.35S56.51,54.41,56.39,65.1Z"/><circle class="cls-6" cx="58.12" cy="73.83" r="0.98"/><path class="cls-4" d="M63.55,36.73h0a1,1,0,0,0-.84.56.36.36,0,0,0,0,.09l-.21-.2v-.06a.54.54,0,0,1,.21-.36.81.81,0,0,1,.79-.14S63.56,36.68,63.55,36.73Z"/></g></g></svg>