<svg xmlns="http://www.w3.org/2000/svg" viewBox="0 0 123.5 133.41"><defs><style>.cls-1{fill:#a56167;}.cls-2{fill:#f6f6f6;}.cls-3{fill:#2d2c42;}.cls-4{fill:#645ea8;}.cls-5{fill:#d3d2d0;}.cls-6{fill:#fff;}</style></defs><title>Asset 2</title><g id="Layer_2" data-name="Layer 2"><g id="Layer_6" data-name="Layer 6"><polygon class="cls-1" points="52.5 102.72 51.97 113.22 57.48 114.27 59.06 104.3 52.5 102.72"/><polygon class="cls-1" points="79.78 106.14 81.1 114.79 86.08 114.79 85.03 105.61 79.78 106.14"/><path class="cls-2" d="M53.55,82.52l-1,12.07-1,10.23a9,9,0,0,1,7.61.79s2.36-.52,1.83-10.76l2.37-10.76Z"/><path class="cls-2" d="M74.8,86.46s1.57,9.44,2.36,10.23c0,0,1.3,8.45,1.93,10.58a2.35,2.35,0,0,0,.17.44c.53.79,6.3,2.62,6.56-.53s1.05-8.39-1.57-12.33l-1.58-10Z"/><path class="cls-2" d="M90.67,85.28c-.26,2.88-14.69,2.36-17.31,2.36a2.26,2.26,0,0,1-2.43-1.56,37.5,37.5,0,0,1-1.57-7.43A13.76,13.76,0,0,1,67.2,85.1c-.91,1.23-2.42,1-4.08.7-2.75-.47-8.21-2.17-9.7-1.84-2.37.53-5.21.58-5.25,0a7.37,7.37,0,0,1,0-.94c.35-5.43,5.38-20.14,5.38-21.23,0-1.31,2.36-6.82,2.36-6.82l24.14-2.89s9.56,25.8,10.87,32.15C91,84.77,90.7,85.05,90.67,85.28Z"/><path class="cls-2" d="M58.27,113l-6.82-1.31.65,10.88,5.38,3.81S57,115.84,58.27,113Z"/><path class="cls-2" d="M86.08,112.17s-3.41,2.1-6.29,0l2.36,9.71,3.93-.53S87.92,115.58,86.08,112.17Z"/><path class="cls-3" d="M86.87,120.3s-5.51.27-5.51.79v8.66c0,.79,1,1.84.79,2.36s1.57,1.84,5.77,1,2.62-3.41,2.62-3.41S86.35,122.4,86.87,120.3Z"/><path class="cls-3" d="M51.32,120.44s6.29.13,6.29.65v8.66c0,.79-1,1.84-.78,2.36s-1.58,1.84-5.78,1-2.62-3.41-2.62-3.41S51.84,122.53,51.32,120.44Z"/><path class="cls-4" d="M91.07,85.41c-.26,2.88-15.48,3.15-18.11,3.15-.83,0-1.5-1-2-2.48,2.82-.56,14.93-2.84,20-1.85A4.66,4.66,0,0,1,91.07,85.41Z"/><path class="cls-4" d="M67.2,85.1a3.8,3.8,0,0,1-3.81,1.75c-2.75-.47-8.48-1.64-10-1.31-2.37.52-5.21-1-5.25-1.58a7.37,7.37,0,0,1,0-.94C53.7,82.87,63.48,82.93,67.2,85.1Z"/><path class="cls-1" d="M57,20.33S52.23,18.76,48,23.48l-.79,1.58s-6,1.83-7.87,3.15a32.13,32.13,0,0,0-12.33,0l-6.83-1.58S7.1,17.45,5.79,23.22s12.33,7.87,12.33,7.87l11.29,3.15s8.66,2.1,12.07.53c0,0,9.71-.53,11.54-4.2L57,32.4Z"/><path class="cls-1" d="M73.23,19S82.93,18,86.61,23l7.61,2.1s8.39-1.58,11.54-.79l6.82-1.84s6.56-10.49,10.24-7.61-8.66,12.07-8.66,12.07L97.63,32.4s-12.86,1.05-15.48-3.67l-2.89,6.56-11-2.62Z"/><circle class="cls-1" cx="64.04" cy="10.63" r="7.08"/><path class="cls-1" d="M60.37,14.82V20.6L63,29.78l7.87-9.18s-2.09-6.3-2.09-7.35S60.37,14.82,60.37,14.82Z"/><path class="cls-2" d="M81.23,52.74a1.3,1.3,0,0,1-1.32,1,43.65,43.65,0,0,0-9,1.46c-3.93,1.31-15.74,1.31-15.74,1.31l-.77-23.76L54.73,31c-.26-2.1,1.83-10.49,1.83-10.49l1.54-1.13L59.53,19l.45.39c0,3.49,3.41,6.82,3.41,6.82a15.75,15.75,0,0,0,7.08-7.61L72,18.41l1.54.17,1.4.16-.48.41-.27.53s0,0,0,0c-3.82,8.1.8,11.77,3.68,13.38,1.19.67,1.31,1.31,1.31,1.31s1.08-.32,1.05.79c-.09,3.59-.74,11.7.26,13.91C81.75,52,81.23,52.74,81.23,52.74Z"/><path class="cls-3" d="M56.56,5.84a17.5,17.5,0,0,1,.6-1.72c.3-.69,0-2.75.3-2.75h1.2L60.15,0l.9.69L62.25,0l1.49.69L65.24,0l2.39,1.72.6-.35.6,1h.3l1.19,1.72h.6V5.84h.6V10.3l-.79,3.08-.26-1.51a.1.1,0,0,0-.09-.1.11.11,0,0,0-.09.05l-.56.88-.37-1.39a9.37,9.37,0,0,0-3.49-5.23c-2.22-1.61-5.42-2.37-8.71,2.16Z"/><path class="cls-4" d="M58.1,19.34c-.5,3-2,11.41-3.75,13.44l0-.64c-.26-2.1,1.58-12.33,1.58-12.33Z"/><path class="cls-4" d="M72,18.41c-1.32,2.49-5.09,8.91-8.69,8.48S59.49,21.3,59.53,19l.84-.19c0,3.5,3.15,6.48,3.15,6.48a13.34,13.34,0,0,0,6.57-7.12Z"/><path class="cls-4" d="M80.57,33.45s0,.71-.06,1.82a10.56,10.56,0,0,1-2.16-.34c-8.1-2.14-5.73-13.14-4.86-16.35l1.4.16h0l.13.12c-3.82,8.1.54,12,3.42,13.65A10.38,10.38,0,0,0,80.57,33.45Z"/><path class="cls-4" d="M81.88,53.66s-.78,0-2,.11a62.82,62.82,0,0,1-1.44-6.67,105.93,105.93,0,0,1-.12-12.17c0-1,.06-1.83.09-2.42a10.38,10.38,0,0,0,2.13.94s0,.71-.06,1.82c-.08,3.59-.15,11.46.85,13.67C82.67,51.82,81.88,53.66,81.88,53.66Z"/><path class="cls-4" d="M57.35,35.66s8.4-4,16.53,0"/><path class="cls-5" d="M55.58,56.62A59.93,59.93,0,0,1,64.1,57c6.06.57,16.1-3.22,16.1-3.22"/><path class="cls-4" d="M22.44,14.3v.32A11.13,11.13,0,0,1,20,21.37l-.24.29c-.13.15-.25.29-.39.43l0,0h0l0,.05c-.24.24-.48.47-.74.69l-.16.13a11.13,11.13,0,0,1-7,2.57H11a11.11,11.11,0,0,1-7-2.69l-.15-.14a7.81,7.81,0,0,1-.59-.56l0,0h0l0,0c-.15-.16-.31-.33-.46-.51l-.23-.3A11.11,11.11,0,0,1,.09,14.62v-.38A11.14,11.14,0,0,1,2.42,7.56l.24-.3c.15-.18.31-.36.47-.53l0,0h0l.05-.05c.21-.22.42-.43.65-.63L4,5.87a11.17,11.17,0,0,1,7.14-2.65h.18a11.14,11.14,0,0,1,7,2.53l.16.14c.27.23.54.48.79.74l.05,0h0l0,0c.14.15.27.3.4.46l.25.29a11.16,11.16,0,0,1,2.39,6.77Z"/><rect class="cls-6" x="10.98" y="3.26" width="0.38" height="22.35"/><rect class="cls-6" y="14.24" width="22.44" height="0.38"/><path class="cls-6" d="M6.44,14.24a8.73,8.73,0,0,0-3.78-7l-.24.3a8.31,8.31,0,0,1,3.64,6.68v.38a8.32,8.32,0,0,1-3.59,6.66l.23.3a8.72,8.72,0,0,0,3.74-7v-.38Z"/><path class="cls-6" d="M16.29,14.62v-.38a8.34,8.34,0,0,1,3.76-6.77l-.25-.29a8.7,8.7,0,0,0-3.89,7.06v.38a8.7,8.7,0,0,0,3.85,7l.24-.29A8.35,8.35,0,0,1,16.29,14.62Z"/></g></g></svg>