<svg xmlns="http://www.w3.org/2000/svg" xmlns:xlink="http://www.w3.org/1999/xlink" viewBox="0 0 110.26 143.44"><defs><style>.cls-1,.cls-11{fill:#645ea8;}.cls-1,.cls-3,.cls-4,.cls-7{opacity:0.1;}.cls-1,.cls-3,.cls-4,.cls-9{isolation:isolate;}.cls-2{fill:#b1afac;}.cls-12,.cls-3{fill:#fff;}.cls-4,.cls-8,.cls-9{fill:#060000;}.cls-5{fill:url(#linear-gradient);}.cls-6{fill:#484254;}.cls-9{opacity:0.06;}.cls-10{fill:#f7c6c5;}.cls-13{fill:#fed843;}.cls-14{fill:url(#linear-gradient-2);}.cls-15{fill:#dfe0e8;}.cls-16{fill:#eb6869;}</style><linearGradient id="linear-gradient" x1="95.49" y1="3463.05" x2="186.88" y2="3463.05" gradientTransform="matrix(1, 0, 0, -1, -83.88, 3528.77)" gradientUnits="userSpaceOnUse"><stop offset="0" stop-color="#868581" stop-opacity="0.25"/><stop offset="0.54" stop-color="#868581" stop-opacity="0.12"/><stop offset="1" stop-color="#868581" stop-opacity="0.1"/></linearGradient><linearGradient id="linear-gradient-2" x1="2793.47" y1="3491.67" x2="2863.41" y2="3491.67" gradientTransform="translate(2875.02 3528.77) rotate(180)" xlink:href="#linear-gradient"/></defs><title>Asset 3</title><g id="Layer_2" data-name="Layer 2"><g id="Layer_6" data-name="Layer 6"><ellipse class="cls-1" cx="60.49" cy="125.24" rx="49.76" ry="7.71"/><path class="cls-2" d="M24.34,101.29a18.27,18.27,0,0,0,.95,18.34,4.5,4.5,0,0,0,1.54,1.65c2,.81,6.12,2.78,6.12,2.78l9.84-3.87s1.59-8.45,3.1-15.7h0a86.69,86.69,0,0,1,2.44-10.11c1-1.89,0-22.52,0-22.52s-9.84-.66-12.54,6.92L34.6,81.09Z"/><path class="cls-3" d="M37.4,103.57c6,6.85,8.5.92,8.5.92h0a89.46,89.46,0,0,1,2.43-10.1c1-1.9,0-22.53,0-22.53s-9.83-.66-12.54,6.92L34.61,81.1C33.85,87.16,33.1,98.63,37.4,103.57Z"/><path class="cls-2" d="M38.71,122.67l34.72-4L79.62,77.9,74.94,67.31a43.08,43.08,0,0,0-8.1-12.22A24.91,24.91,0,0,0,58.63,49a10.84,10.84,0,0,0-1.25-.43,3.24,3.24,0,0,0-2.89.51c-4.28,3-5.81,15.94-6.31,22.15a69.89,69.89,0,0,1-1,7.61Z"/><path class="cls-3" d="M61.82,77.46,54.59,95.25C58.38,92.48,64,77.39,64,77.39L69,94.6,65,76.46a56.42,56.42,0,0,0,.51-11.9C65.21,60,60.94,52.7,58.62,49q-.61-.24-1.26-.42a3.25,3.25,0,0,0-2.89.51c1.82,3.66,6.38,12.81,7.77,15.53C64,68.06,61.82,77.46,61.82,77.46Z"/><path class="cls-2" d="M67.73,124.06H86.57a5.72,5.72,0,0,0,5.71-5.72v-.29c-.42-8.08-1.48-22.48-4-31.62-1.36-4.93-2.93-7.52-4.38-8.8a4.26,4.26,0,0,0-2.49-1.17,3.26,3.26,0,0,0-2,.49c-3.5,3.35-7.59,21-7.59,21Z"/><path class="cls-3" d="M85.12,108.41a9.22,9.22,0,0,1,0,7l-4.2,2.08S69.64,112.74,71,102.94c0,0,.37-2,4.26-1.87A11,11,0,0,1,85.12,108.41Z"/><path class="cls-3" d="M80.64,82.64c-.13-3.44,1.73-4.63,3.27-5a4.23,4.23,0,0,0-2.49-1.17,6.63,6.63,0,0,0-2.17,3.47L75.32,99.11S80.86,88.4,80.64,82.64Z"/><path class="cls-2" d="M62.77,97.81l9.33,12.75,1.62,10.54-6,3L59.08,126a8.33,8.33,0,0,1-2.54.16L33,124.06l3.21-7.44,11.08-15.56Z"/><path class="cls-3" d="M59.16,93.43s6.37.43,4,11.37-27,11.81-27,11.81a64.42,64.42,0,0,1,13.26-15.89c.9-.74,1.78-1.52,2.61-2.35C53.87,96.52,57.41,93.28,59.16,93.43Z"/><path class="cls-4" d="M64.89,101.67s8.62,7.85,7.81,19.93"/><path class="cls-4" d="M79.4,77a60.31,60.31,0,0,0-10.07,30.56"/><path class="cls-4" d="M48.34,71.85s4.38,19.89-6.56,34.88"/><path class="cls-5" d="M102.19,123.36a3.18,3.18,0,0,0-.67-.32c-.77-.29-1.6-.37-2.38-.64a3.59,3.59,0,0,1-1.19-.71l-.17-.18.84-.53a9.83,9.83,0,0,0-3.49-3.47c.47-.69,1.52-.64,2.13-1.19a2,2,0,0,0,.58-1.13,7.76,7.76,0,0,0-.34-3.44,42.81,42.81,0,0,0-2-6.47,24,24,0,0,1-1.08-2.62c-.75-2.49-.23-5.2-.8-7.75a5.58,5.58,0,0,1-.27-2.48c.32-1.25,1.72-2,2-3.25,1.11-4.47,1.31-9.11,1.94-13.67a17.84,17.84,0,0,0,.23-2.63c0-.92-.16-1.83-.23-2.75a50.43,50.43,0,0,1,.56-7.75,8.12,8.12,0,0,1,1,2.59A10,10,0,0,1,99,67.54a12.24,12.24,0,0,1-.18,1.71c-.14.67-.39,1.31-.56,2a6.21,6.21,0,0,0,.28,4c.39.86,1.26,1.67,2.16,1.41A2.31,2.31,0,0,0,102,75.24a8.47,8.47,0,0,0,.77-5.93c-.38-1.3-1.23-2.48-1.31-3.84a9.83,9.83,0,0,1,.13-1.62c.36-3.14-.42-6.3-.59-9.46a18.71,18.71,0,0,0-.16-2.76c0-.11,0-.21-.08-.31a.52.52,0,0,1,.2.09,1.84,1.84,0,0,0,0-1.62,4.11,4.11,0,0,1-.27-.51c-.11-.29-.09-.62-.22-.9l-.29-.42a3.24,3.24,0,0,1-.4-1.9q-.08-5.13-.29-10.26a16.78,16.78,0,0,0-.79-5.14,7.62,7.62,0,0,0-2.72-3.61,4.78,4.78,0,0,0-.61-.38,2.11,2.11,0,0,0,.18-.78v-.26l0-.14h0a6.25,6.25,0,0,0-.58-1.74,4.85,4.85,0,0,1-.55-1.9,2.17,2.17,0,0,1,0-.36h0c.1-.83.53-1.61.68-2.44a4.15,4.15,0,0,0,.07-.79V18h0a7.87,7.87,0,0,0-.93-2.92c-.15-.29-.29-.58-.45-.87-.08-.54-.16-1.08-.25-1.62,0-.31-.09-.63-.16-.94,0-.15-.07-.3-.11-.45.45-.42.19-1-.1-1.61-.55-1.09-.44-2.39-.67-3.59a10.71,10.71,0,0,0-.85-2.4,5.24,5.24,0,0,0-.92-1.52,5.75,5.75,0,0,0-1.2-.87A3.87,3.87,0,0,0,88.27.67C88,.61,87.74.62,87.48.56A2.5,2.5,0,0,1,87,.38,3.62,3.62,0,0,0,86,0a2.41,2.41,0,0,0-1,.19,3.76,3.76,0,0,1-1.08.29h-.41a1,1,0,0,0-.55.13,1.88,1.88,0,0,0-.24.25,3.1,3.1,0,0,1-.7.48,6.87,6.87,0,0,0-3.37,5.87,2.76,2.76,0,0,1-.08,1c-.09.24-.25.45-.32.7a1.84,1.84,0,0,0,0,.66q0,.51.09,1h0a2.13,2.13,0,0,0-.42.93h0l0,.18v0h0a5.37,5.37,0,0,0,.44,1.74,6.05,6.05,0,0,1-.08,3.4,13.81,13.81,0,0,0-.58,2.32h0v.05a2.85,2.85,0,0,0,.13,1.16c.1.26.24.51.33.77a3.21,3.21,0,0,1-.73,2.76h0c-.1.13-.19.26-.29.38h0l.6.43-.53.29a5.45,5.45,0,0,0-2,.72,8.23,8.23,0,0,0-1.6,1.06A6.93,6.93,0,0,0,72.3,28.5a24.15,24.15,0,0,0-1.07,2.24,7.34,7.34,0,0,0-.54,1.95c-.25.53-.45,1.1-.68,1.61l-.34.79-10-24.38-1.55.64.12.29-.32.14.44,1.06-.19.13-.08.07-.16.13-.08.06-.17.14-.06.05-.2.19h0c-.22.2-.44.41-.64.62l-.53.55-.1.11-.18.18-.1.1-.25.25,0,0-.15.15-.1.09-.13.12-.12.11-.2.17,0,.05-.27.21a8.22,8.22,0,0,1-1.16.75c-1.58.81-3.26,1.5-4.8,2.38a14.08,14.08,0,0,0-2.38,1.66,19,19,0,0,1-3.07,2.69l-.13.06c-2.09,1.08-4.56.44-6.94.39-.36,0-.71,0-1.06,0a13.38,13.38,0,0,0-5.41,1.89c-1.2.68-2.38,1.43-3.56,2.12-.74.43-1.49.9-2.24,1.38A51.62,51.62,0,0,1,18,33.08a12.31,12.31,0,0,1-5.78,1.29h0a5.67,5.67,0,0,1-.58,0c-.18,1.52,1,2.74,1.84,4.08a4.2,4.2,0,0,1,.69,1.93,3.42,3.42,0,0,1-.06.78,9.8,9.8,0,0,0-.48,2.8,3.18,3.18,0,0,0,.62,1.52c.51.74,1.23,1.39,1.71,2.16a11.51,11.51,0,0,1,1.22,3.92,8.07,8.07,0,0,0,.95,2.73,12,12,0,0,0,2.47,2.51l.49.43a3.43,3.43,0,0,1,.33.33c1.05,1.07,1.83,2.72,1.2,4.07l-.07.13.16.09c.81.4,1.82-.23,2.49-.9.32-.33.63-.68.93-1,.81-.9,1.55-1.87,2.32-2.8.21-.25.41-.5.63-.74A10.88,10.88,0,0,1,31.93,54a11.06,11.06,0,0,1,1.75-.71c.9-.29,1.82-.5,2.72-.78A22.17,22.17,0,0,0,40,51a53,53,0,0,0,5.78-3.59l.29-.18a10,10,0,0,0,1.72-1.38,2.61,2.61,0,0,0,.27-.31c.45-.58.74-1.27,1.16-1.87a5.87,5.87,0,0,1,1.62-1.56c1.79-1.2,4.16-1.66,6.28-2.32h0A24.39,24.39,0,0,0,67,33.93l1.58,3.89c-.16.45-.32.92-.47,1.39a11.22,11.22,0,0,1-1.33,3.32,2.42,2.42,0,0,0-.5.9,3,3,0,0,1-.12.72c-.1.19-.3.32-.39.53s0,.66-.12.93a1.28,1.28,0,0,1-.28.29,1.94,1.94,0,0,0-.52,1.47,5.36,5.36,0,0,1-.13,1.6c.12-.07.24-.14.37-.2a1.5,1.5,0,0,0,0,.29,3.23,3.23,0,0,0,.1.82A6.39,6.39,0,0,0,66,51.57a11.57,11.57,0,0,0,.9,1.3,12,12,0,0,0,1.92,1.71l2.91,2.25-.29,1.22a34.32,34.32,0,0,0-1.31,7.77,33.21,33.21,0,0,0,.24,3.73l.25,2.54c.2,2,.4,4.09.63,6.13A15.93,15.93,0,0,0,72,82.05c.69,1.85-.07,4,.22,5.91.23,1.54.69,3.12.23,4.61-.18.58-.51,1.13-.74,1.71A12.63,12.63,0,0,0,71,98.82a19.57,19.57,0,0,0,.15,4.05,16.53,16.53,0,0,1,.69,4.15c-.15,2-1.61,3.7-1.78,5.69a8.34,8.34,0,0,0,1.29,4.53c.55,1-.22,2.38-.51,3.53-.58,2.24.39,4.58,1.56,6.57a.36.36,0,0,0,.14.16c.14,0,.26-.09.35-.2l.17-.21a2.48,2.48,0,0,0,0,.27c0,.19,0,.38,0,.58a6,6,0,0,0,.39,2.14,3.29,3.29,0,0,0,.17.39,1.67,1.67,0,0,0,.28.46,1.81,1.81,0,0,0,1.16.49,15.75,15.75,0,0,0,2.9-.18c1-.09,2-.05,3.06-.07a.54.54,0,0,0,.22,0,.39.39,0,0,0,.13-.21,2.21,2.21,0,0,0,0-1.14,7.06,7.06,0,0,0-.21-.91c-.14-.47-.26-1-.38-1.44a2.68,2.68,0,0,1-.07-.27l.05,0,1.87-4.2a3.73,3.73,0,0,0,.48-2.24,6.8,6.8,0,0,0-.7-1.5,8.81,8.81,0,0,1-.61-3.86l0-7.44a16.2,16.2,0,0,0,2.89-6.32,20.48,20.48,0,0,1,.18,9.84,8.44,8.44,0,0,0-.28,1.5c-.11,2.06,1.49,3.81,1.92,5.83a1.23,1.23,0,0,1,0,.47,1.57,1.57,0,0,1-.23.55,8.56,8.56,0,0,0-.58,4.72l.34,0a.81.81,0,0,0,.36.35h0a1.54,1.54,0,0,0,.44.19,12.11,12.11,0,0,0,1.69.26c.82.08,1.63.16,2.45.21l1,0a6.59,6.59,0,0,1,2.8.51c2.11.71,4.47,1.11,6.51.23a3,3,0,0,0,1.19-.84,1.4,1.4,0,0,0-.07-2,1.79,1.79,0,0,0-.28-.2Zm-28-82.47c.3.61.61,1.21.87,1.85a6.36,6.36,0,0,1,.48,3.88c-.09.38-.7.66-.69,1.05a.41.41,0,0,0-.05.09l-1.89-4.63A16,16,0,0,1,74.21,40.89Zm-2.08,9.83a8,8,0,0,1-1-1.77c0-.07-.07-.15-.11-.23a.69.69,0,0,0,.28-.2c.29-.37.13-.9.17-1.37A3.07,3.07,0,0,1,71.91,46l1.78,4.34c-.18.47-.35,1-.51,1.43A11.45,11.45,0,0,1,72.13,50.72Z"/><path class="cls-6" d="M78.38,11.66a5.13,5.13,0,0,0,.44,1.74,6.14,6.14,0,0,1-.08,3.4c-.33,1.15-.87,2.38-.46,3.51.1.26.24.51.33.77.36,1.1-.31,2.26-1,3.16l2.86,2a3.33,3.33,0,0,0,1.44.69,1.14,1.14,0,0,0,1.27-.75c0-.18,0-.37,0-.55a1.49,1.49,0,0,1,.8-1.11,2.64,2.64,0,0,1,1.38-.26c1.76.09,3.25,1.25,4.85,2a18.6,18.6,0,0,0,3.26,1.08,2.57,2.57,0,0,0,1.91,0,1.82,1.82,0,0,0,.79-1.71,5.46,5.46,0,0,0-.61-1.88,4.85,4.85,0,0,1-.55-1.9A15.85,15.85,0,0,1,95.73,19a6.39,6.39,0,0,0-.89-4,16.84,16.84,0,0,1-1.68-3.76,6.15,6.15,0,0,0-.32-1.19,2.56,2.56,0,0,0-.58-.77,6.42,6.42,0,0,0-4.1-1.68,19,19,0,0,0-4.5.39,10.42,10.42,0,0,0-1.67.4,10.88,10.88,0,0,0-2.2,1.19A2.85,2.85,0,0,0,78.38,11.66Z"/><g class="cls-7"><path class="cls-8" d="M95,21.26a2.26,2.26,0,0,0,0,.26c.09-.85.54-1.65.7-2.49a4,4,0,0,0,0-1,3.64,3.64,0,0,1,0,.45A14.84,14.84,0,0,0,95,21.26Z"/><path class="cls-8" d="M79,14.56a5.36,5.36,0,0,0-.2-1.74,10.55,10.55,0,0,1-.42-1.35c0,.06,0,.12,0,.18a5.13,5.13,0,0,0,.44,1.74A5.12,5.12,0,0,1,79,14.56Z"/><path class="cls-8" d="M96.16,25.47a1.68,1.68,0,0,1-.78,1.28,2.67,2.67,0,0,1-1.91,0,18.63,18.63,0,0,1-3.26-1.09c-1.6-.73-3.09-1.89-4.85-2a2.54,2.54,0,0,0-1.38.25,1.51,1.51,0,0,0-.8,1.11,4.74,4.74,0,0,1,0,.55,1.12,1.12,0,0,1-1.27.75,3.16,3.16,0,0,1-1.44-.69l-2.57-1.8-.29.37,2.86,2a3.27,3.27,0,0,0,1.44.69,1.12,1.12,0,0,0,1.27-.75c0-.18,0-.36,0-.55a1.51,1.51,0,0,1,.8-1.11,2.64,2.64,0,0,1,1.38-.26c1.76.1,3.25,1.25,4.85,2a19.5,19.5,0,0,0,3.26,1.09,2.67,2.67,0,0,0,1.91,0,1.81,1.81,0,0,0,.79-1.71C96.17,25.57,96.16,25.52,96.16,25.47Z"/><path class="cls-8" d="M78.61,21.07a2.09,2.09,0,0,1,.08.36,2.13,2.13,0,0,0-.08-.94c-.09-.27-.23-.51-.33-.77a2.58,2.58,0,0,1-.13-.6,2.73,2.73,0,0,0,.13,1.17C78.38,20.56,78.52,20.81,78.61,21.07Z"/></g><path class="cls-6" d="M82,130.85a.38.38,0,0,1-.14.21.42.42,0,0,1-.22.05c-1,0-2.06,0-3.09.07a14.33,14.33,0,0,1-2.92.18,1.5,1.5,0,0,1-1.44-1A3.29,3.29,0,0,1,74,130a5.8,5.8,0,0,1-.39-2.14v-.58a4.55,4.55,0,0,0-.09-.63,1,1,0,0,1,0-.73,2.57,2.57,0,0,1,2.17-1,18,18,0,0,1,5.28.39q.21,1,.45,2c.12.49.25,1,.38,1.45a7.09,7.09,0,0,1,.22.91A2.32,2.32,0,0,1,82,130.85Z"/><path class="cls-9" d="M82,130.85a.38.38,0,0,1-.14.21.42.42,0,0,1-.22.05c-1,0-2.06,0-3.09.07a14.33,14.33,0,0,1-2.92.18,1.5,1.5,0,0,1-1.44-1A3.29,3.29,0,0,1,74,130h.37c1.22,0,2.44,0,3.66,0a10,10,0,0,0,1.1-.06l1-.15a12.54,12.54,0,0,1,1.5-.06h.41A2.44,2.44,0,0,1,82,130.85Z"/><path class="cls-6" d="M103.32,125.48a3,3,0,0,1-1.2.84c-2.06.87-4.44.48-6.57-.23a11.68,11.68,0,0,0-1.46-.42,10.39,10.39,0,0,0-1.37-.09c-.33,0-.65,0-1,0-.83,0-1.65-.13-2.47-.21a10.73,10.73,0,0,1-1.7-.26,1.54,1.54,0,0,1-.46-.19h0a.69.69,0,0,1-.42-.62c0-.36.41-.58.75-.74a36.45,36.45,0,0,1,9.42-2.29,3.42,3.42,0,0,0,.94-.29c.37-.14.4.09.58.36a2.37,2.37,0,0,0,.29.34,3.36,3.36,0,0,0,1.21.71c.78.29,1.61.36,2.39.64a3.26,3.26,0,0,1,.68.32,1.41,1.41,0,0,1,.56,1.9,1.86,1.86,0,0,1-.21.28Z"/><path class="cls-9" d="M103.32,125.48a3,3,0,0,1-1.2.84c-2.06.87-4.44.48-6.57-.23a11.68,11.68,0,0,0-1.46-.42,10.39,10.39,0,0,0-1.37-.09c-.33,0-.65,0-1,0,.27-.25.54-.5.82-.73a2.37,2.37,0,0,1,.68-.45,1.92,1.92,0,0,1,1-.07c1.65.23,3.14,1.39,4.81,1.29a5.93,5.93,0,0,0,2.21-.72,3.82,3.82,0,0,0,1.45-1,1.61,1.61,0,0,0,.27-.52,1.42,1.42,0,0,1,.56,1.9,1.86,1.86,0,0,1-.21.28Z"/><path class="cls-10" d="M102.73,75.2a2.36,2.36,0,0,1-1.28,1.38c-.91.26-1.78-.55-2.18-1.41a6.11,6.11,0,0,1-.29-4c.17-.67.42-1.31.56-2a14.2,14.2,0,0,0,.19-1.71,10.52,10.52,0,0,0-.07-2.57c-.46-2.48-2.6-4.34-3.31-6.78A12.67,12.67,0,0,1,96,54.36a3.38,3.38,0,0,1,.1-1,1.83,1.83,0,0,1,.08-.25c.48-1.06,1.9-1.2,2.88-1.82.54-.34,1.78-1.43,2.24-.43a4,4,0,0,1,.22.69,18.53,18.53,0,0,1,.15,2.76c.18,3.16,1,6.31.6,9.45a9.82,9.82,0,0,0-.12,1.62c.07,1.36.92,2.54,1.32,3.84A8.31,8.31,0,0,1,102.73,75.2Z"/><path class="cls-4" d="M101.56,51.6a1.1,1.1,0,0,0-.67,0l-2,.58a12.56,12.56,0,0,0-2,.73,5,5,0,0,0-.8.49,1.17,1.17,0,0,1,.09-.24c.48-1.06,1.89-1.21,2.87-1.82.55-.34,1.78-1.43,2.24-.44A3.55,3.55,0,0,1,101.56,51.6Z"/><path class="cls-6" d="M101.69,51.38a.94.94,0,0,0-.8-.06l-2,.58a11.66,11.66,0,0,0-2,.73,4.59,4.59,0,0,0-1,.61A12.91,12.91,0,0,1,94.66,48c-.09-1.06-.16-2.13-.2-3.18a14.47,14.47,0,0,1,0-2.28c.11-.87.37-1.72.52-2.58a12.79,12.79,0,0,0,.18-1.53A15,15,0,0,0,95.05,35a20.57,20.57,0,0,0-.81-3.47c-.18-.52-.4-1-.61-1.53l-.07-.18A21.68,21.68,0,0,1,92.67,27c-.09-.4-.1-.82-.41-1.09a6.33,6.33,0,0,1,.87,0h.18A6.42,6.42,0,0,1,96.62,27a7.75,7.75,0,0,1,2.74,3.62,16.78,16.78,0,0,1,.79,5.14q.22,5.13.29,10.26a3.32,3.32,0,0,0,.4,1.9,3.13,3.13,0,0,1,.29.42c.14.29.12.61.23.9a4.11,4.11,0,0,0,.27.51A1.89,1.89,0,0,1,101.69,51.38Z"/><path class="cls-10" d="M82.43,17.42l-.87-.29.6.05A1.55,1.55,0,0,1,82.43,17.42Z"/><path class="cls-10" d="M94.28,27.87c-.06.19-.12.39-.18.57a11.89,11.89,0,0,1-.54,1.4,6.28,6.28,0,0,1-1.37,2,1.72,1.72,0,0,1-.68.45,2.15,2.15,0,0,1-.67.07c-.77,0-1.54,0-2.31,0a7.72,7.72,0,0,1-1.79-.18,6.1,6.1,0,0,1-1.82-.82,10.75,10.75,0,0,1-4.7-5.78.93.93,0,0,1,0-.92,1.08,1.08,0,0,1,.73-.25h0a4.78,4.78,0,0,0,1.76-.6,1.79,1.79,0,0,0,.8-.83,2.2,2.2,0,0,0,0-1.27l-.64-2.92a3.07,3.07,0,0,0-.52-1.3,5.58,5.58,0,0,0,.58.18c1.79.48,3.75.19,5.5.82A2.34,2.34,0,0,1,90,19.81c.34,1.16-.79,2.36-.46,3.52.21.78,1,1.24,1.73,1.6l.49.25,1.33.68.19.09,0,0a1.78,1.78,0,0,1,1,.93A1.69,1.69,0,0,1,94.28,27.87Z"/><path class="cls-4" d="M97.81,34.66a6.35,6.35,0,0,1-.53,2.14,8.62,8.62,0,0,0-.92,3.76c-.22,3.91-1.7,8.56.42,11.84.06.08.11.16.16.24a5.08,5.08,0,0,0-1,.62A13,13,0,0,1,94.66,48c-.09-1.06-.16-2.13-.2-3.18a14.45,14.45,0,0,1,0-2.28c.11-.87.37-1.72.52-2.58a13.29,13.29,0,0,0,.18-1.53,15,15,0,0,0-.15-3.35,20.91,20.91,0,0,0-.81-3.48c-.18-.51-.4-1-.61-1.52l-.07-.18a6.28,6.28,0,0,1-1.37,2,1.72,1.72,0,0,1-.68.45,2.15,2.15,0,0,1-.67.07c-.77,0-1.54,0-2.31,0a8.29,8.29,0,0,1-1.79-.17,6.38,6.38,0,0,1-1.82-.83,10.75,10.75,0,0,1-4.7-5.78.93.93,0,0,1,0-.92,1.13,1.13,0,0,1,.73-.25h0l2.6,3.22a5,5,0,0,1,.75,1.13.67.67,0,0,0,.24.34.58.58,0,0,0,.29.05h8.14a2,2,0,0,0-.36-1.21c-.07,0-.17,0,0,0a8.22,8.22,0,0,0-.89-2.68L91.7,25a2.92,2.92,0,0,1-.43-.93,1.54,1.54,0,0,1,1,0,1.58,1.58,0,0,1,.7.89c.13.29.26.6.38.9,0,0,0,.07,0,.1a6.75,6.75,0,0,1,.48,1.88c0,.24.08.54.27.61a.19.19,0,0,0,.1,0,1.08,1.08,0,0,1,1.18.29A2.48,2.48,0,0,1,96,29.94a6.48,6.48,0,0,0,.41,1.22c.38.72-.19,1,.48,1.47a2.25,2.25,0,0,1,.79.71A2.22,2.22,0,0,1,97.81,34.66Z"/><path class="cls-4" d="M81,125.38c.14.67.29,1.33.46,2l0,0a13.21,13.21,0,0,0-4.12-1.31,4.56,4.56,0,0,0-3.71,1.21,4.52,4.52,0,0,0-.08-.63.93.93,0,0,1,0-.73,2.55,2.55,0,0,1,2.16-1A18,18,0,0,1,81,125.38Z"/><path class="cls-4" d="M92.4,28.44c.14,0,.09,0,0,0S92.24,28.48,92.4,28.44Z"/><path class="cls-4" d="M98.69,121.63a25.25,25.25,0,0,0-3.63,2.8,3.63,3.63,0,0,1-1.14.84,3.38,3.38,0,0,1-1.38.14,45,45,0,0,1-5.43-.54h0a.69.69,0,0,1-.42-.62c0-.36.41-.58.75-.74a36.45,36.45,0,0,1,9.42-2.29,3.42,3.42,0,0,0,.94-.29c.37-.14.4.09.58.36A2,2,0,0,0,98.69,121.63Z"/><path class="cls-11" d="M77.46,25.08c.42.38.91.69,1.34,1.05a12.11,12.11,0,0,1,2.61,3.69,2.33,2.33,0,0,1-1.33.09,9.53,9.53,0,0,0,.11,3.87,3.52,3.52,0,0,0-1.29,1.61,9.8,9.8,0,0,0-.42,2l-1.26,9a1.43,1.43,0,0,1-.29.82,1.45,1.45,0,0,0-.22.21,1.21,1.21,0,0,0-.1.62c0,.22-.16.47-.37.44a.5.5,0,0,1-.26-.17,5,5,0,0,1-.57-.72A46.93,46.93,0,0,0,72,58a33.7,33.7,0,0,0-1.32,7.77,33,33,0,0,0,.24,3.72l.25,2.54c.21,2,.41,4.09.63,6.13A15.49,15.49,0,0,0,72.53,82c.69,1.85-.08,3.94.22,5.91.23,1.53.69,3.12.23,4.6-.19.59-.51,1.14-.75,1.71a12.65,12.65,0,0,0-.71,4.55,18.3,18.3,0,0,0,.15,4,16.45,16.45,0,0,1,.69,4.14c-.15,2-1.62,3.7-1.8,5.69a8.36,8.36,0,0,0,1.31,4.53c.55,1-.22,2.38-.51,3.52-.58,2.24.38,4.59,1.56,6.57a.33.33,0,0,0,.15.16c.14,0,.26-.08.35-.2a4.44,4.44,0,0,1,3.91-1.44,13,13,0,0,1,4.12,1.31l1.87-4.18a3.74,3.74,0,0,0,.49-2.24,7.33,7.33,0,0,0-.71-1.5,8.82,8.82,0,0,1-.62-3.86l0-7.44a16.21,16.21,0,0,0,2.92-6.31,20.23,20.23,0,0,1,.17,9.84,9.46,9.46,0,0,0-.29,1.5c-.11,2.06,1.51,3.8,1.94,5.82a1.3,1.3,0,0,1,0,.48,1.68,1.68,0,0,1-.24.55,8.44,8.44,0,0,0-.57,4.71,48.27,48.27,0,0,0,6.13.66,3.58,3.58,0,0,0,1.38-.15,3.76,3.76,0,0,0,1.14-.83,25.62,25.62,0,0,1,4.3-3.26,10,10,0,0,0-3.51-3.47c.46-.69,1.53-.63,2.15-1.18a2,2,0,0,0,.57-1.14,7.57,7.57,0,0,0-.34-3.43,40.75,40.75,0,0,0-2-6.47,24.78,24.78,0,0,1-1.09-2.61c-.76-2.5-.23-5.21-.8-7.76A5.4,5.4,0,0,1,94,92.38c.32-1.25,1.74-2,2-3.25,1.12-4.47,1.32-9.11,2-13.67a17.84,17.84,0,0,0,.23-2.63c0-.93-.17-1.84-.24-2.76-.26-3.68.92-7.36.62-11a13.88,13.88,0,0,0-2.17-6.36c-2.13-3.29-.65-7.93-.42-11.84a8.6,8.6,0,0,1,.9-3.76,6.14,6.14,0,0,0,.54-2.14,2.23,2.23,0,0,0-.16-1.35,2.33,2.33,0,0,0-.79-.71c-.68-.44-.11-.76-.48-1.47a6.13,6.13,0,0,1-.41-1.23A2.63,2.63,0,0,0,95.09,29a1.09,1.09,0,0,0-1.18-.29c-.28,0-.35-.36-.38-.64a8.85,8.85,0,0,0-.9-2.88A1.19,1.19,0,0,0,91,24.33a3.21,3.21,0,0,0,.43.94,8.27,8.27,0,0,1,1,2.85c-.29.08.29,0,0,0a2,2,0,0,1,.38,1.24H84.63a.58.58,0,0,1-.29-.05.7.7,0,0,1-.23-.35,5.22,5.22,0,0,0-.75-1.12l-2.87-3.53a.75.75,0,0,0-.24-.23.77.77,0,0,0-.37,0A6.65,6.65,0,0,0,77.46,25.08Z"/><path class="cls-4" d="M87.74,72.94a2.8,2.8,0,0,1,1.41.37,1.42,1.42,0,0,1,.7,1.22A3.18,3.18,0,0,1,89.09,76a4.25,4.25,0,0,0-.44.91.39.39,0,0,0,0,.24c0,.11.16.16.26.21a2.16,2.16,0,0,1,1.27,1.9c0,1.13-1.12,2-1.06,3.18a5.85,5.85,0,0,0,.12.71A5.39,5.39,0,0,1,88.82,86c-.35.91-.83,1.76-1.21,2.66a18.91,18.91,0,0,0-1.15,7.81,15,15,0,0,1-1.16,5.24,75.38,75.38,0,0,0,.26-10.41c0-1-.16-1.84-.12-2.78.07-1.5.91-2.87,1.13-4.34a21.66,21.66,0,0,0,.06-2.55c0-1.74.51-3.45.54-5.19C87.21,75.2,87.1,73.93,87.74,72.94Z"/><path class="cls-6" d="M75.67,25.7a7.87,7.87,0,0,0-1.61,1.06,6.68,6.68,0,0,0-1.26,1.73,23.23,23.23,0,0,0-1.08,2.25,5,5,0,0,0-.46,3.13,10.26,10.26,0,0,0,1.47,2.51,20.9,20.9,0,0,1,1.17,2.74c.51,1.22,1.21,2.36,1.71,3.59a6.36,6.36,0,0,1,.49,3.88c-.09.37-.7.67-.7,1,0,.64.92,1.33,1.53,1.51a2.27,2.27,0,0,0,2-.57,7.56,7.56,0,0,0,2.18-3.36,33.78,33.78,0,0,0,1.53-6.31c.27-1.56.52-3.13.66-4.71a12.15,12.15,0,0,0-.2-4.26,7.24,7.24,0,0,0-2-3.29,5.51,5.51,0,0,0-3.08-1.72A5.08,5.08,0,0,0,75.67,25.7Z"/><path class="cls-10" d="M83.89,60.58a1.37,1.37,0,0,1-.64,1,3.81,3.81,0,0,1-1.11.45,4.62,4.62,0,0,1-2.38.24,5,5,0,0,1-1.67-1l-8.76-6.7a12.12,12.12,0,0,1-1.93-1.72,11.54,11.54,0,0,1-.91-1.29,6.1,6.1,0,0,1-.85-1.69,2.85,2.85,0,0,1-.11-.82,1.48,1.48,0,0,1,.19-.74,1.52,1.52,0,0,1,1-.52,10.63,10.63,0,0,1,3.81-.29.5.5,0,0,1,.51.35c.2.35.37.72.54,1.09a8,8,0,0,0,1,1.77A16.75,16.75,0,0,0,73.93,52c.93.87,1.68,1.91,2.67,2.71a21.76,21.76,0,0,0,3.83,2.15,7.06,7.06,0,0,1,3.24,2.88A1.64,1.64,0,0,1,83.89,60.58Z"/><path class="cls-4" d="M94,13.79a7.16,7.16,0,1,1-.2-1.68A7.28,7.28,0,0,1,94,13.79Z"/><path class="cls-10" d="M94,13.5a7.16,7.16,0,1,1-.2-1.68A7.28,7.28,0,0,1,94,13.5Z"/><path class="cls-4" d="M71.61,48.93a1.72,1.72,0,0,1-1.23,0,7.65,7.65,0,0,0-4.85.07,1.48,1.48,0,0,1,.19-.74,1.52,1.52,0,0,1,1-.52,10.63,10.63,0,0,1,3.81-.29.5.5,0,0,1,.51.35C71.27,48.19,71.44,48.56,71.61,48.93Z"/><path class="cls-6" d="M68.59,39.19a11.32,11.32,0,0,1-1.35,3.33,2.46,2.46,0,0,0-.51.89,3,3,0,0,1-.12.72c-.1.19-.3.32-.39.52s0,.67-.12.94a1.28,1.28,0,0,1-.28.29,2,2,0,0,0-.5,1.48,5.34,5.34,0,0,1-.13,1.6c1.52-.91,3.47-.64,5.2-.25.49.1,1.09.18,1.4-.2s.13-.9.18-1.37a5.2,5.2,0,0,1,.73-1.66,18.73,18.73,0,0,0,.61-2,32.19,32.19,0,0,1,2.08-3.76,3.74,3.74,0,0,0,.41-1.43,4.16,4.16,0,0,0-.5-1.85,24.69,24.69,0,0,0-2.14-3.82c-.36-.54-1-1.54-1.57-.68a16.7,16.7,0,0,0-1.09,2.35A40.63,40.63,0,0,0,68.59,39.19Z"/><path class="cls-6" d="M94.69,28A5.85,5.85,0,0,1,90,26.11a.75.75,0,0,1-.21-.34.66.66,0,0,1,.14-.47c.34-.54.94-.89,1.22-1.47A4.67,4.67,0,0,0,91.37,22c0-1.13.49-2.25.53-3.36a3.45,3.45,0,0,0-.07-.85,5.66,5.66,0,0,1-.24-1.28c0-.85.8-1.51.93-2.35.16-1.06-.72-2-1.61-2.6a9.4,9.4,0,0,0-2.18-1.13A7.51,7.51,0,0,0,87.26,10a5.79,5.79,0,0,0-2.77.31,4.43,4.43,0,0,0-1,.55,1.32,1.32,0,0,0-.46.48,1.37,1.37,0,0,0-.12.69,7.46,7.46,0,0,1-.45,3.47,18.69,18.69,0,0,0-1,1.59,2.83,2.83,0,0,0-.19.76,7.32,7.32,0,0,0,0,.81A8.44,8.44,0,0,0,82,23.15a12.07,12.07,0,0,1,.74,1.25,1.41,1.41,0,0,1-.07,1.38,1.66,1.66,0,0,1-.58.44,4.67,4.67,0,0,1-3.7.13,4.69,4.69,0,0,0,1.09-5.23A3.2,3.2,0,0,1,79,20a3,3,0,0,1,.29-1.06,5.77,5.77,0,0,0,.18-3.39A11.58,11.58,0,0,1,79,13.45a6.12,6.12,0,0,1,.07-1.6,5.21,5.21,0,0,1,3.57-4.11l.45-.14a9.6,9.6,0,0,1,2.14-.22A16,16,0,0,1,90,7.7,6.51,6.51,0,0,1,92.46,9a4.4,4.4,0,0,1,1.19,1.58,5.2,5.2,0,0,1,.34,1.1c.07.31.12.62.17.93a20.83,20.83,0,0,1,.32,6.72c-.14.86-.4,1.73-.52,2.62A15.91,15.91,0,0,0,94.69,28Z"/><circle class="cls-12" cx="84.41" cy="30.28" r="0.54"/><circle class="cls-12" cx="93.49" cy="30.02" r="0.54"/><path class="cls-4" d="M84.41,3.08,83.25.9a2.72,2.72,0,0,1,.24-.24.94.94,0,0,1,.56-.14Z"/><path class="cls-4" d="M87.6.42,86.29,2.36,85.55.23a2.46,2.46,0,0,1,1-.19A3.51,3.51,0,0,1,87.6.42Z"/><g class="cls-7"><path class="cls-8" d="M82.63,25.21a1.52,1.52,0,0,1-.58.43,4.68,4.68,0,0,1-3.29.28c-.13.15-.27.3-.41.44a4.63,4.63,0,0,0,3.7-.14,1.63,1.63,0,0,0,.58-.43,1.22,1.22,0,0,0,.18-1A1.12,1.12,0,0,1,82.63,25.21Z"/><path class="cls-8" d="M79.49,15.52a5.68,5.68,0,0,1,.16,1.16,5.65,5.65,0,0,0-.16-1.74A11.58,11.58,0,0,1,79,12.88a2.44,2.44,0,0,0,0-.27,6,6,0,0,0,0,.85A11.58,11.58,0,0,0,79.49,15.52Z"/><path class="cls-8" d="M94.46,19.3A11.92,11.92,0,0,0,94.62,17a11.37,11.37,0,0,1-.16,1.74c-.14.86-.4,1.73-.52,2.62a8.51,8.51,0,0,0-.06,1.43,7.91,7.91,0,0,1,.06-.85C94.06,21,94.32,20.18,94.46,19.3Z"/><path class="cls-8" d="M79.43,20.55a5,5,0,0,1-.36-.9A1.17,1.17,0,0,0,79,20a3.2,3.2,0,0,0,.4,1.16,4.45,4.45,0,0,1,.36,1.53A4.49,4.49,0,0,0,79.43,20.55Z"/><path class="cls-8" d="M91.83,17.74a2.57,2.57,0,0,1,.06.4V18a3.45,3.45,0,0,0-.07-.85c-.06-.31-.16-.61-.21-.91a.69.69,0,0,0,0,.2A5.66,5.66,0,0,0,91.83,17.74Z"/><path class="cls-8" d="M90,25.52a1.58,1.58,0,0,1-.12-.15.6.6,0,0,0-.09.39.75.75,0,0,0,.21.34A5.85,5.85,0,0,0,94.69,28c0-.19-.1-.38-.14-.58A5.85,5.85,0,0,1,90,25.52Z"/><path class="cls-8" d="M92.51,13.57v0c.17-1.06-.71-2-1.6-2.6a9.67,9.67,0,0,0-2.19-1.13,7.51,7.51,0,0,0-1.47-.36,5.68,5.68,0,0,0-2.77.31,4.64,4.64,0,0,0-1,.55,1.32,1.32,0,0,0-.46.48,1.62,1.62,0,0,0-.12.69v.58a1.6,1.6,0,0,1,.12-.69,1.32,1.32,0,0,1,.46-.48,4.64,4.64,0,0,1,1-.55A5.68,5.68,0,0,1,87.25,10a7.49,7.49,0,0,1,1.47.35,10.14,10.14,0,0,1,2.19,1.14A3.44,3.44,0,0,1,92.51,13.57Z"/><path class="cls-8" d="M82.43,15c-.29.55-.78,1-1,1.58a2.9,2.9,0,0,0-.19.77,7.32,7.32,0,0,0,0,.81v.58a7.63,7.63,0,0,1,0-.82,2.92,2.92,0,0,1,.19-.76,17.69,17.69,0,0,1,1-1.58,6,6,0,0,0,.45-2.86A5,5,0,0,1,82.43,15Z"/></g><path class="cls-4" d="M94,11.67l-.14.15a1.27,1.27,0,0,1-.34.2c-.84.37-.8-.82-1.24-1.23a1.51,1.51,0,0,0-1-.29l-2.54-.11c-1.42-.05-2.83-.08-4.24-.05-.68,0-1.35,0-2,.09a5.44,5.44,0,0,0-2.28.52,2.2,2.2,0,0,0-.61.48c-.16.17-.33.39-.55.43a5.18,5.18,0,0,1,3.57-4.1A7.15,7.15,0,0,1,92.42,9a4.44,4.44,0,0,1,1.2,1.59A5.22,5.22,0,0,1,94,11.67Z"/><path class="cls-13" d="M93.49,11.44c-.84.37-.8-.82-1.24-1.23a1.51,1.51,0,0,0-1-.29,76.15,76.15,0,0,0-8.81-.07,4.13,4.13,0,0,0-2.89,1c-.18.19-.37.45-.64.44-.09-.58-.15-1.18-.19-1.77a1.88,1.88,0,0,1,0-.67c.07-.25.24-.46.32-.7a3,3,0,0,0,.09-1,6.83,6.83,0,0,1,3.37-5.83,3.1,3.1,0,0,0,.7-.48c.08-.08.16-.17.24-.24a.93.93,0,0,1,.56-.13h.41A3.74,3.74,0,0,0,85.55.23a2.19,2.19,0,0,1,1-.19,3.08,3.08,0,0,1,1,.38,2.74,2.74,0,0,0,.48.17c.27.06.54.06.8.11a4,4,0,0,1,1.2.53,5.75,5.75,0,0,1,1.2.87,5.3,5.3,0,0,1,.94,1.52A10.74,10.74,0,0,1,93.09,6c.24,1.2.12,2.5.68,3.59C94.11,10.29,94.42,11.05,93.49,11.44Z"/><path class="cls-4" d="M78.83,10.54s6-5.46,14.93-.94C93.76,9.6,83.67,7.31,78.83,10.54Z"/><path class="cls-14" d="M13.48,38.42c-.82-1.34-2.05-2.56-1.86-4.08a11.94,11.94,0,0,0,6.44-1.24A54.12,54.12,0,0,0,24,29.7c.76-.48,1.51-.95,2.27-1.38,1.19-.68,2.37-1.45,3.58-2.12a13.63,13.63,0,0,1,5.46-1.88,9.38,9.38,0,0,1,1.06,0c2.4.05,4.89.69,7-.38l.13-.07a19.18,19.18,0,0,0,3.1-2.68A13.73,13.73,0,0,1,49,19.49c1.56-.87,3.25-1.56,4.84-2.38A7.36,7.36,0,0,0,55,16.37l.27-.22.06,0,.2-.17.12-.11.13-.11.1-.09.16-.15v0l.26-.25.1-.1.17-.19.11-.1.53-.55c.18-.18.42-.42.64-.62h0l.21-.19.06,0,.17-.14.07-.06.17-.13.08-.06.25-.18.24-.14-.54-1.31,1.56-.64L81.54,62.83,80,63.47,67.71,33.67l-.09.09a24.7,24.7,0,0,1-10.15,6h0c-2.13.64-4.53,1.1-6.33,2.3a6,6,0,0,0-1.63,1.56c-.42.6-.72,1.29-1.16,1.87a2.61,2.61,0,0,1-.27.31,10.48,10.48,0,0,1-1.73,1.38L46,47.4A55,55,0,0,1,40.23,51a23.39,23.39,0,0,1-3.62,1.5c-.9.29-1.84.5-2.74.79A10.39,10.39,0,0,0,32.1,54a12.9,12.9,0,0,0-3.82,3.4c-1,1.17-1.91,2.42-3,3.49-.67.66-1.69,1.29-2.5.9l-.16-.09.07-.14c.64-1.34-.15-3-1.21-4.06a3.51,3.51,0,0,0-.34-.33l-.49-.43a11.85,11.85,0,0,1-2.49-2.51,8.28,8.28,0,0,1-1-2.72A11.35,11.35,0,0,0,16,47.57c-.49-.77-1.21-1.42-1.74-2.15a3.29,3.29,0,0,1-.63-1.49,9.8,9.8,0,0,1,.48-2.8,3.29,3.29,0,0,0,.06-.77A4,4,0,0,0,13.48,38.42Z"/><rect class="cls-15" x="68.82" y="9.4" width="1.66" height="55.4" transform="translate(-8.88 29.34) rotate(-22.4)"/><path class="cls-16" d="M16.51,47.39a11.45,11.45,0,0,1,1.2,3.86,8,8,0,0,0,.95,2.68,11.43,11.43,0,0,0,2.45,2.46l.48.43.33.32c1,1,1.82,2.68,1.19,4a.83.83,0,0,1-.07.13l.16.09c.8.39,1.8-.23,2.46-.89A43.65,43.65,0,0,0,28.58,57a12.77,12.77,0,0,1,3.77-3.34,10.44,10.44,0,0,1,1.73-.7c.89-.29,1.81-.49,2.7-.77a22.53,22.53,0,0,0,3.55-1.48,55.05,55.05,0,0,0,5.73-3.53l.27-.18A10.16,10.16,0,0,0,48,45.69l.27-.31c.44-.58.74-1.24,1.16-1.83A6,6,0,0,1,51.07,42c1.77-1.18,4.12-1.63,6.23-2.26h0a24.45,24.45,0,0,0,10-5.94,1.63,1.63,0,0,0,.5-.74,1.69,1.69,0,0,0-.34-1.17c-.25-.42-.49-.85-.72-1.27a58.8,58.8,0,0,1-2.86-6c-.18-.45-.35-.9-.52-1.36-.44-1.15-.84-2.33-1.2-3.52-.12-.39-.24-.79-.35-1.18l-.06-.25c-.48-1.93-1.12-6.44-3.1-5.09A11.69,11.69,0,0,0,57,14.65c-.38.39-.76.79-1.15,1.18a10.76,10.76,0,0,1-1,.89,7,7,0,0,1-1.15.73c-1.57.81-3.23,1.48-4.76,2.34a13.35,13.35,0,0,0-2.37,1.64,18.52,18.52,0,0,1-3,2.64l-.13.07c-2.07,1.05-4.52.42-6.88.37a9,9,0,0,0-1,0,13.09,13.09,0,0,0-5.37,1.85c-1.19.66-2.36,1.41-3.53,2.08-.74.43-1.48.89-2.23,1.36a51.08,51.08,0,0,1-5.78,3.34,11.93,11.93,0,0,1-6.33,1.22c-.18,1.49,1,2.7,1.82,4a3.93,3.93,0,0,1,.68,1.9,3.21,3.21,0,0,1-.05.76,10.19,10.19,0,0,0-.48,2.76,3.21,3.21,0,0,0,.63,1.45C15.32,46,16,46.64,16.51,47.39Z"/><path class="cls-10" d="M75.33,53.42a24.9,24.9,0,0,0,5.1,3.38c2.57,1.18.87,5.41.87,5.41a4.67,4.67,0,0,1-4.63-2C74.77,57.53,75.33,53.42,75.33,53.42Z"/><ellipse class="cls-1" cx="31.48" cy="138.11" rx="31.48" ry="5.33"/><path class="cls-6" d="M8.6,138H55.8a2.65,2.65,0,0,0,2.63-2.66,2.68,2.68,0,0,0-.31-1.24L34.53,90.27A2.65,2.65,0,0,0,31,89.2a2.57,2.57,0,0,0-1.07,1.07L6.28,134.1A2.65,2.65,0,0,0,8.6,138Zm26.6-8h-6v-6h6Zm0-10h-6V108h6Z"/><path class="cls-4" d="M8.6,138H55.8a2.65,2.65,0,0,0,2.63-2.66,2.68,2.68,0,0,0-.31-1.24L34.53,90.27A2.65,2.65,0,0,0,31,89.2a2.57,2.57,0,0,0-1.07,1.07L6.28,134.1A2.65,2.65,0,0,0,8.6,138Zm26.6-8h-6v-6h6Zm0-10h-6V108h6Z"/><path class="cls-6" d="M8.6,139.44H55.8a2.65,2.65,0,0,0,2.32-3.89L34.53,91.72A2.64,2.64,0,0,0,31,90.65a2.51,2.51,0,0,0-1.07,1.07L6.28,135.55a2.64,2.64,0,0,0,1.07,3.58A2.75,2.75,0,0,0,8.6,139.44Zm26.6-8h-6v-6h6Zm0-10h-6v-12h6Z"/></g></g></svg>