<svg xmlns="http://www.w3.org/2000/svg" xmlns:xlink="http://www.w3.org/1999/xlink" viewBox="0 0 77.87 150.92"><defs><style>.cls-1{fill:#eb634c;}.cls-1,.cls-12,.cls-4{opacity:0.1;}.cls-1,.cls-4,.cls-6{isolation:isolate;}.cls-2{fill:url(#linear-gradient);}.cls-3{fill:#2e293d;}.cls-4,.cls-6,.cls-8{fill:#010100;}.cls-5{fill:#575988;}.cls-6,.cls-7{opacity:0.05;}.cls-9{fill:#f8ccd3;}.cls-10{fill:#dce6f2;}.cls-11{fill:#656691;}</style><linearGradient id="linear-gradient" x1="112.01" y1="697.12" x2="112.01" y2="846.4" gradientTransform="matrix(1, 0, 0, -1, -76.87, 846.43)" gradientUnits="userSpaceOnUse"><stop offset="0" stop-color="#808181" stop-opacity="0.25"/><stop offset="0.54" stop-color="#808181" stop-opacity="0.12"/><stop offset="1" stop-color="#808181" stop-opacity="0.1"/></linearGradient></defs><title>Asset 20</title><g id="Layer_2" data-name="Layer 2"><g id="Layer_6" data-name="Layer 6"><ellipse class="cls-1" cx="53.97" cy="146.92" rx="23.9" ry="4"/><path class="cls-2" d="M70.26,146.2c-.4-1.7-.65-3.19-.65-3.19a6.63,6.63,0,0,0-.74-3.25v-.46h0v-3.42a11.83,11.83,0,0,1,.87-1.79c.61-1.08,0-5,0-5S67.45,123.51,68,120s-4.69-15.66-4.69-15.66a15,15,0,0,1,.49-3.46,3,3,0,0,0,.07-.73v-.06C63.8,97.76,62,93.4,62,93.4l.25-8.31a24.46,24.46,0,0,0-.74-11.47c-.67-2.29-1.1-4.13-1.37-5.55L60,67.61C64,67,67,66.51,67,66.51s-2.29-9.57-3.83-11.24-2.78-6.93-2.78-6.93-.8-6.75.5-8.71a13.07,13.07,0,0,0,1.48-5.38s3-2.15,3.33-3.11a15.73,15.73,0,0,0,1-4.24c0-1.14-.37-2.16-.25-2.75s-.86-2.87-.37-3.95a2.82,2.82,0,0,0,.2-1v-.05a14.59,14.59,0,0,0-.26-2.8A8,8,0,0,0,63,14.75L63,14.5l-.16-.67-.3-.18v-.24l0-1L63,10.26c.91-3.8-4.15-4.36-4.15-4.36a2.66,2.66,0,0,0-1.43-1.27c-1-.36-.17,5.71.3,6.1a22.3,22.3,0,0,1,2,3.12h0l.09.16a1.75,1.75,0,0,0-.23.24l.2,1.32,0,.2A5.32,5.32,0,0,0,59,17.15a2.91,2.91,0,0,1,.74,2.15A6.35,6.35,0,0,0,60,21.93c-.06-.07-.71-.77-1.36-.6s-2.46.72-2.46.72-1.36.24-1.23.54S54,24.2,54,24.2l-3.65-3.46-.1-.31A7.91,7.91,0,0,1,50,18.91a8,8,0,0,0,1.17-.37,2.48,2.48,0,0,0,1-.65,3.93,3.93,0,0,0,.58-1.56,22,22,0,0,1,1.36-3,9.88,9.88,0,0,0,.73-5.42,3.61,3.61,0,0,0-.56-1.59c-.6-.82-1.68-1.15-2.46-1.81s-1.29-1.65-2.21-2.14a4.36,4.36,0,0,0-2.77-.24A14.89,14.89,0,0,0,41.63,4a2.71,2.71,0,0,1-1.73.57,2.27,2.27,0,0,1-1.25-.91s0,0,0-.06l0,0a6.4,6.4,0,0,0-.57,2.73,3.31,3.31,0,0,0,0,.44V7h0a.69.69,0,0,1,0,.2,1.49,1.49,0,0,1-.34.49,3.79,3.79,0,0,0-.3.4s0-.09.05-.14a2.22,2.22,0,0,0-.38,1.15,1.13,1.13,0,0,0,.28.82,3.87,3.87,0,0,0,.59.48,7,7,0,0,0,3.33,7.24l.13.31a9.06,9.06,0,0,1,.67,4c0,.1,0,.19,0,.29l-.13.15h0s-6,.06-7.44-1.23-3.58,3.13-3.58,3.13-2.16.42-2.59,0-3-.06-3-.06a5.44,5.44,0,0,0-3.76-1.37,11.21,11.21,0,0,0-2.77-1.54h0l-.06,0h0a3,3,0,0,0-1.36-.17,27.88,27.88,0,0,1-3.83-3.77c-.86-1.3-5-6.19-5-6.21v-.22l0-.71-.37,0L8,10a13.31,13.31,0,0,0-.88-2s0-.89.26-1.12-.1-3.51-.1-3.51S4.63-2.9,2.24,1.76c0,0-4.52,3-.72,6.52,0,0,1.51.74,1.72,1.32.15.38.66,1.43,1,2.13,0,.12.11.23.15.32l0,0,0,.59,0,.22c-.72.41-1.2.81-1.09,1.12a6.52,6.52,0,0,1,.44,1.61S9,22.19,9.71,25c0,0,14.08,8.36,18.71,9l-.8,4.18a34,34,0,0,0-.19,3.41c.06.9-.56,5-.56,5s-.8,6-1.48,6.81-.55,4.42-.55,4.42a31.11,31.11,0,0,1-.93,5.08,13.08,13.08,0,0,0-.18,5.08S21.38,73.29,27,69.65c0,0,2.76-.18,5.93-.28v.31c0,.41,0,.85,0,1.32,0,3.08-.06,7.32.08,10.53.25,5.68,2,16.92,2,16.92v5.64a7.27,7.27,0,0,0-.16,1.61,10.41,10.41,0,0,0,1.52,5.65l.38,3.73a14.78,14.78,0,0,1,1,4,2.2,2.2,0,0,1,0,.36,2.78,2.78,0,0,0-.05.58,32.15,32.15,0,0,0,1,5.79s.06,4.13.67,4.37-.7,2.37-1.07,3c0,0,0-.08,0-.12l-.08.12a2.86,2.86,0,0,0-.19,1,1.49,1.49,0,0,0,.68,1.45c1.18.72,1.81,1.32.81,1.57a10.52,10.52,0,0,0-1.09.22.78.78,0,0,0,0-.14.68.68,0,0,0-.4.73,3,3,0,0,0,.36,1.39,14.88,14.88,0,0,0,1.68,3l.47,0a2.49,2.49,0,0,1-.27.51,2.18,2.18,0,0,1-.7.62,2.32,2.32,0,0,1-.85.29,2.4,2.4,0,0,0-1.75.85,1.81,1.81,0,0,0,.23,2.83L41.46,149s7.6,1,7.19-.72-.64-3.2-.64-3.2a6.8,6.8,0,0,0-.62-3q-.12-.22-.27-.45l.27,0s.55-3.76,1.3-4.47c.17-.16.2-.29.16-.39s-.11-.32-.36-.39l-.05.15a3.11,3.11,0,0,0-.74-.08s-.25-2,.55-2.69a.75.75,0,0,0,.16-.58,3.06,3.06,0,0,0-.08-.8l0,0a29.26,29.26,0,0,0-1.78-4.63,5.63,5.63,0,0,1,.44-2.51c.49-.72-.06-9.74-.06-9.74a29.43,29.43,0,0,0-.38-6.39,7.22,7.22,0,0,1,.68-4.43.69.69,0,0,0,0-.13l0,0s0-.27-.07-.68a.05.05,0,0,0,0,0c-.12-1.16-.36-3.25-.53-4.22-.25-1.37.06-7.94.06-7.94l1.12-2.81,2,4.84,2.1,6.45A5.59,5.59,0,0,1,52.9,103a.71.71,0,0,1,0,.2c0,.14,0,.29,0,.43a3.84,3.84,0,0,0,.64,2.3s.55,3,1.42,3.82a3.46,3.46,0,0,1,.86,2.27,37.75,37.75,0,0,0,1.55,5.2,7.76,7.76,0,0,1,.43,3h0v.16s.14,1.58.14,2.9a3.7,3.7,0,0,1,0,.48v0a5,5,0,0,1-.12,1.08.14.14,0,0,0,0,.06.9.9,0,0,1,0-.23,11.18,11.18,0,0,0-.31,2.76A7.16,7.16,0,0,0,58.62,132c1.67,1.91,2.72,1.67,2.72,1.67s-.8,2.39-1.79,2.87l-.1.06a.61.61,0,0,0,0-.13,1.18,1.18,0,0,0-.28.89,6.3,6.3,0,0,0,1.22,3.54,2,2,0,0,0,.83.49l-.15.1a2.52,2.52,0,0,1-.34.15,1.49,1.49,0,0,1-.51.14,2.33,2.33,0,0,0-1.75.84,1.81,1.81,0,0,0,.22,2.83l4.42,1.52S70.66,147.91,70.26,146.2Z"/><path class="cls-3" d="M41.26,149,37,147.5a1.85,1.85,0,0,1-.21-2.83,2.24,2.24,0,0,1,1.69-.85,2.18,2.18,0,0,0,.82-.29,1.9,1.9,0,0,0,.67-.62,3.14,3.14,0,0,0,.48-1.65s4.7-1.38,6,0a3.6,3.6,0,0,1,.57.83,7.13,7.13,0,0,1,.6,3s.24,1.49.62,3.2S41.26,149,41.26,149Z"/><path class="cls-3" d="M62.17,146.92,57.9,145.4a1.86,1.86,0,0,1-.21-2.84,2.31,2.31,0,0,1,1.69-.85,1.37,1.37,0,0,0,.49-.13,2.49,2.49,0,0,0,.33-.16,2.67,2.67,0,0,0,1.16-2.27s4.7-1.37,6,0a3.84,3.84,0,0,1,.45.61A6.82,6.82,0,0,1,68.5,143s.24,1.49.63,3.19S62.17,146.92,62.17,146.92Z"/><path class="cls-4" d="M46.43,141.26a3.28,3.28,0,0,1,.56.83h0l-7,.82a3.15,3.15,0,0,0,.49-1.66S45.14,139.88,46.43,141.26Z"/><path class="cls-4" d="M67.79,139.76v1.32c-1.09,1.8-6.38,1.41-7.92.5a2.49,2.49,0,0,0,.33-.16,2.67,2.67,0,0,0,1.16-2.27s4.7-1.37,6,0A3.84,3.84,0,0,1,67.79,139.76Z"/><path class="cls-5" d="M68.63,134.09a11.68,11.68,0,0,0-.84,1.79v4.72c-1.2,2-7.41,1.31-8.25.24s-1.73-3.89-.77-4.36,1.72-2.87,1.72-2.87-1,.24-2.63-1.67-1.13-6.16-.83-7.17a21.21,21.21,0,0,0,0-4.43,8.78,8.78,0,0,0-.42-3.16,38.73,38.73,0,0,1-1.48-5.2,3.51,3.51,0,0,0-.84-2.27c-.83-.78-1.37-3.83-1.37-3.83a3.93,3.93,0,0,1-.6-2.56,5.21,5.21,0,0,0-1-3.11l-2-6.46-1.91-4.84-1.07,2.81s-.3,6.58-.06,8,.59,5,.59,5a7.37,7.37,0,0,0-.65,4.42,31.08,31.08,0,0,1,.36,6.39s.53,9,.06,9.74a5.83,5.83,0,0,0-.42,2.51s2.46,5.26,1.67,6-.54,2.68-.54,2.68,1.68,0,1,.72S47,141.6,47,141.6l-7.22.83a14.39,14.39,0,0,1-1.62-3c-.95-2.21.18-2,1.14-2.21s.35-.84-.78-1.57-.48-2.33-.48-2.33,1.73-2.93,1.14-3.17-.66-4.36-.66-4.36-1.2-4.9-.89-6.21-1-4.46-1-4.46l-.42-3.77a10.34,10.34,0,0,1-1.31-7.11V98.41S33.25,87.18,33,81.51c-.15-3.64-.11-8.6-.06-11.7,0-1.73.06-2.88.06-2.88l25.82-2.69a21.24,21.24,0,0,0,.46,3.84c.27,1.42.68,3.25,1.33,5.55a25.26,25.26,0,0,1,.72,11.47l-.24,8.3s2.27,5.56,1.78,7.47a16.19,16.19,0,0,0-.47,3.46S67.49,116.46,67,120s1.68,9.09,1.68,9.09S69.22,133,68.63,134.09Z"/><path class="cls-6" d="M53.87,103l7.85-1S57.27,106.45,53.87,103Z"/><path class="cls-4" d="M60.59,94.23s.27,2.78-1.44,3.83C59.15,98.06,62.2,97.58,60.59,94.23Z"/><path class="cls-4" d="M60.11,85.39s-6.57,5.41-9,5S60.11,85.39,60.11,85.39Z"/><path class="cls-4" d="M44.13,105.5s-5,1.13-5.14,3.13S44.13,105.5,44.13,105.5Z"/><path class="cls-6" d="M45.22,130.41s-7,1.32-5,2.21a34,34,0,0,0,5.28,1.62S47.73,134.36,45.22,130.41Z"/><g class="cls-7"><path class="cls-8" d="M38.75,134.05a1.39,1.39,0,0,1-.64-1l-.08.13s-.65,1.61.48,2.33l.37.24c.21,0,.44-.07.65-.12C40.5,135.36,39.89,134.76,38.75,134.05Z"/><path class="cls-8" d="M47.83,133.57c.2-.18.19-.64.07-1.23a3.32,3.32,0,0,0-.4,1.73A1.56,1.56,0,0,1,47.83,133.57Z"/><path class="cls-8" d="M46.75,103.84a8.33,8.33,0,0,0-.48,2.2,8.78,8.78,0,0,1,.55-1.51S46.79,104.26,46.75,103.84Z"/><path class="cls-8" d="M62.89,100.7a2.81,2.81,0,0,0,.07-.65c-.09.45-.15.86-.2,1.22C62.8,101.09,62.84,100.9,62.89,100.7Z"/><path class="cls-8" d="M46.58,125.08a3.82,3.82,0,0,0,.18-1.32,4.53,4.53,0,0,0-.35,1.67A1.62,1.62,0,0,1,46.58,125.08Z"/><path class="cls-8" d="M48.06,136.35a23.36,23.36,0,0,0-.82,3.67l-7.23.84a14.72,14.72,0,0,1-1.62-3.05c-.08-.19-.15-.37-.2-.53-.43.2-.6.65,0,2a15.38,15.38,0,0,0,1.62,3l7.23-.84s.53-3.76,1.25-4.47C48.61,136.62,48.38,136.44,48.06,136.35Z"/><path class="cls-8" d="M38.51,125.62s.06,4.12.66,4.36h0c.3-.68.5-1.34.22-1.43-.59-.24-.65-4.37-.65-4.37s-1.2-4.9-.9-6.21-1-4.48-1-4.48l-.42-3.76a10.41,10.41,0,0,1-1.32-7.12V96.82s-1.67-11.23-1.91-16.91c-.15-3.63-.11-8.6-.06-11.69,0-.56,0-1.06,0-1.48l-.21,0s0,1.16-.06,2.89c0,3.1-.09,8,.06,11.69.24,5.68,1.91,16.91,1.91,16.91v5.8a10.38,10.38,0,0,0,1.32,7.11l.42,3.77s1.25,3.16,1,4.47S38.51,125.62,38.51,125.62Z"/><path class="cls-8" d="M59.78,139.24a7.13,7.13,0,0,1-1.14-2.83c-.74.67.11,3.25.89,4.27s7,1.73,8.25-.24V139.3C66.18,140.9,60.58,140.26,59.78,139.24Z"/><path class="cls-8" d="M68.87,132.49a11.68,11.68,0,0,0-.84,1.79v.84c.14-.31.33-.72.6-1.2a3.7,3.7,0,0,0,.26-1.48A.17.17,0,0,0,68.87,132.49Z"/><path class="cls-8" d="M60.15,133.43a10.36,10.36,0,0,0,.59-1.42s-1,.24-2.63-1.67c-1.17-1.39-1.24-4-1.07-5.74-.3,1-.78,5.26.83,7.17A4.21,4.21,0,0,0,60.15,133.43Z"/><path class="cls-8" d="M57,120.18a32.2,32.2,0,0,1,.11,3.54,5.47,5.47,0,0,1,.13-.55,21.13,21.13,0,0,0,0-4.42,8.85,8.85,0,0,0-.42-3.17,39.16,39.16,0,0,1-1.51-5.2,3.54,3.54,0,0,0-.83-2.27c-.84-.77-1.38-3.82-1.38-3.82a3.94,3.94,0,0,1-.59-2.57,5.22,5.22,0,0,0-1-3.11l-2-6.45-1.91-4.84-1.08,2.81s0,.35,0,.91l.87-2.29,1.91,4.84,2,6.46a5.18,5.18,0,0,1,1,3.1,3.94,3.94,0,0,0,.6,2.57s.53,3,1.37,3.83a3.53,3.53,0,0,1,.85,2.27,39.3,39.3,0,0,0,1.5,5.2A9,9,0,0,1,57,120.18Z"/></g><path class="cls-9" d="M62.06,10.26l-.45,2.18,0,1,0,.72-2.51.25-.28-.52h0a22.24,22.24,0,0,0-1.93-3.13c-.46-.39-1.28-6.45-.3-6.09A2.58,2.58,0,0,1,58,5.89S62.94,6.46,62.06,10.26Z"/><path class="cls-4" d="M61.65,14.12l-2.5.26-.28-.52h0a2.2,2.2,0,0,1,2.76-.45Z"/><path class="cls-10" d="M62.28,15.3,59,16.07l-.07-.49-.18-1.31a2.25,2.25,0,0,1,3.18-.44l.16.67Z"/><path class="cls-9" d="M9,10.49l-3.5,1.88s-.14-.27-.32-.67c-.34-.7-.83-1.75-1-2.13C4,9,2.56,8.26,2.56,8.26c-3.67-3.52.7-6.53.7-6.53,2.32-4.66,4.9,1.58,4.9,1.58s.36,3.29.11,3.51S8,7.94,8,7.94a13.6,13.6,0,0,1,.85,2Z"/><path class="cls-4" d="M9,10.49l-3.5,1.88s-.14-.27-.32-.67C5.69,11.29,7.45,9.86,8,9.93a4.58,4.58,0,0,0,.83,0Z"/><path class="cls-10" d="M9.38,11.55,5.44,13.49l-.08-.85-.07-.59s2.29-2,3-1.88a3.56,3.56,0,0,0,1,0l.05.71Z"/><path class="cls-9" d="M52.49,24.74s-17.19,1.94-14,.9a4.3,4.3,0,0,0,3.31-3.73,9,9,0,0,0-.64-4,16.94,16.94,0,0,0-1.53-3.11s13.14-7.23,10.5-.67a10.23,10.23,0,0,0-.74,3.12,8.82,8.82,0,0,0,.33,3.15A9.39,9.39,0,0,0,52.49,24.74Z"/><path class="cls-4" d="M50.16,14.16a10.53,10.53,0,0,0-.74,3.12c-1.24,1-2.6,1-4.34,1-1.34,0-2.83.33-3.9-.32a17.26,17.26,0,0,0-1.53-3.11S52.79,7.59,50.16,14.16Z"/><circle class="cls-9" cx="44.84" cy="11.6" r="7.11"/><path class="cls-4" d="M52.49,24.74s-17.19,1.94-14,.9a4.3,4.3,0,0,0,3.31-3.73A9.37,9.37,0,0,1,45.5,20a5.15,5.15,0,0,1,3.13-.06,4.38,4.38,0,0,1,1.14.53A9.35,9.35,0,0,0,52.49,24.74Z"/><path class="cls-4" d="M62.28,15.3,59,16.07l-.07-.49a2.91,2.91,0,0,1,3.16-1.08Z"/><path class="cls-4" d="M9.38,11.55,5.44,13.49l-.08-.85a29.68,29.68,0,0,1,4-1.76Z"/><path class="cls-4" d="M59.29,68.07c-6.66,1.05-16.13,2.42-17.64,2-1.24-.38-5.23-.34-8.7-.22,0-1.74.06-2.89.06-2.89l25.82-2.68A21.1,21.1,0,0,0,59.29,68.07Z"/><path class="cls-11" d="M65.94,66.51s-21.93,3.76-24.29,3-14.43.06-14.43.06c-5.44,3.64-3.17-1.74-3.17-1.74a13.31,13.31,0,0,1,.18-5.08,30,30,0,0,0,.89-5.08s-.11-3.57.54-4.42,1.43-6.81,1.43-6.81.6-4.06.54-5,.18-3.4.18-3.4L28.59,34c-4.47-.59-18.1-9-18.1-9-.66-2.81-5.74-9.39-5.74-9.39A6.92,6.92,0,0,0,4.34,14c-.36-1,5-2.87,5-2.87s4,4.9,4.84,6.22A27.59,27.59,0,0,0,17.9,21.1a2.93,2.93,0,0,1,1.31.17l.07,0h0A10.9,10.9,0,0,1,22,22.83a5.19,5.19,0,0,1,3.65,1.37s2.46-.35,2.87.06,2.51,0,2.51,0,2.09-4.42,3.46-3.12,7.21,1.22,7.21,1.22c.78-1,2.67-1.77,3.85-2.15a5.15,5.15,0,0,1,3.13-.06,4.13,4.13,0,0,1,1.23.6l3.53,3.46s1-1.31.9-1.61,1.19-.54,1.19-.54,1.74-.54,2.39-.71,1.26.53,1.32.59a6.67,6.67,0,0,1-.3-2.63,3.12,3.12,0,0,0-.72-2.15C60.27,12,65,16.33,65,16.33s.54,2.81.06,3.88.48,3.35.36,3.94.24,1.62.24,2.75a16.26,16.26,0,0,1-1,4.25c-.36,1-3.23,3.09-3.23,3.09A13.64,13.64,0,0,1,60,39.62c-1.25,2-.48,8.72-.48,8.72s1.2,5.25,2.68,6.92S65.94,66.51,65.94,66.51Z"/><path class="cls-4" d="M34,27.19s-.66-2-1.25-2.15A13.58,13.58,0,0,1,31,24.26l.39-.73s2.24.61,2.6,1.27A5.14,5.14,0,0,1,34,27.19Z"/><path class="cls-4" d="M22,22.83c-.12.6-5.44,1.13-5.44,1.13l2.68-2.69h0l.07,0h0A10.62,10.62,0,0,1,22,22.83Z"/><circle class="cls-5" cx="6.57" cy="14.63" r="0.48"/><circle class="cls-5" cx="7.18" cy="15.58" r="0.48"/><circle class="cls-5" cx="7.78" cy="16.47" r="0.48"/><circle class="cls-5" cx="8.41" cy="17.42" r="0.48"/><circle class="cls-5" cx="64.73" cy="17.37" r="0.39"/><circle class="cls-5" cx="64.79" cy="18.25" r="0.39"/><circle class="cls-5" cx="64.85" cy="19.13" r="0.39"/><path class="cls-4" d="M34,43.38c-.06-.07,13.41,16.94,23.87,7.11C57.87,50.49,41.35,52.74,34,43.38Z"/><path class="cls-4" d="M26.26,52.23s8.06.22,8.91,2.54v2.41a1.54,1.54,0,0,1-1.5,0c-.82-.45-5.69-2.91-7.41-1.73Z"/><path class="cls-11" d="M26.41,52.23s7.71.21,8.52,2.42V57a1.48,1.48,0,0,1-1.44,0c-.77-.42-5.44-2.78-7.08-1.65Z"/><path class="cls-4" d="M30.66,34.73a25.77,25.77,0,0,0,3.13,5.36,21.07,21.07,0,0,0,4.89,4.72S30.8,35.83,30.66,34.73Z"/><path class="cls-4" d="M28,25.36s1.35,5.81,4.81,7.78Z"/><path class="cls-4" d="M26,26c0-.11-1.19,4.59,4.47,7.19C30.43,33.14,28,32.32,26,26Z"/><path class="cls-4" d="M61.17,22.05a41.16,41.16,0,0,1,3.57,2.69S62.86,21.93,61.17,22.05Z"/><path class="cls-3" d="M42.92,18a1.48,1.48,0,0,0,.56,1,1.53,1.53,0,0,0,.67.15,14.37,14.37,0,0,0,6.43-.6,2.48,2.48,0,0,0,1-.65,3.9,3.9,0,0,0,.57-1.57,21.14,21.14,0,0,1,1.32-3,10.29,10.29,0,0,0,.7-5.43A3.81,3.81,0,0,0,53.6,6.3C53,5.48,52,5.15,51.21,4.5S50,2.85,49.07,2.36a4,4,0,0,0-2.68-.24,14,14,0,0,0-5,1.88,2.56,2.56,0,0,1-1.68.57,2.33,2.33,0,0,1-1.23-1A6.73,6.73,0,0,0,38,6.72a1.24,1.24,0,0,1,0,.47,1.33,1.33,0,0,1-.33.49,1.81,1.81,0,0,0-.34,2.23c.23.28.59.43.81.7a2.84,2.84,0,0,1,.26,1.86.93.93,0,0,0,.15.63.94.94,0,0,0,.88.21,2.51,2.51,0,0,1,.94-.09,1.53,1.53,0,0,1,.81.63A11,11,0,0,1,42.92,18Z"/><g class="cls-12"><path class="cls-8" d="M51.79,17.35a2.45,2.45,0,0,1-1,.65,14.24,14.24,0,0,1-6.43.6,1.37,1.37,0,0,1-.67-.14,1.57,1.57,0,0,1-.56-1,11.09,11.09,0,0,0-1.81-4.2,1.53,1.53,0,0,0-.81-.63,2.51,2.51,0,0,0-.94.09.9.9,0,0,1-.88-.21.93.93,0,0,1-.15-.63c0-.64.14-1.36-.26-1.86-.22-.27-.58-.42-.81-.69a1.43,1.43,0,0,1-.14-1.43,1.63,1.63,0,0,0-.1,1.9c.23.28.59.42.81.7a2.84,2.84,0,0,1,.26,1.86.93.93,0,0,0,.15.63.94.94,0,0,0,.88.21,2.51,2.51,0,0,1,.94-.09,1.53,1.53,0,0,1,.81.63A11.16,11.16,0,0,1,42.92,18a1.48,1.48,0,0,0,.56,1,1.43,1.43,0,0,0,.67.15,14.52,14.52,0,0,0,6.43-.6,2.48,2.48,0,0,0,1-.65,1.8,1.8,0,0,0,.31-.58A.36.36,0,0,1,51.79,17.35Z"/><path class="cls-8" d="M38,7a1,1,0,0,0,.22-.36,1.47,1.47,0,0,0,0-.47,6.6,6.6,0,0,1,.33-2.57l0,0A6.61,6.61,0,0,0,38,6.64,2,2,0,0,1,38,7Z"/></g><path class="cls-4" d="M41.65,22.35s8.89,1.18,9.68-.16"/><path class="cls-4" d="M58.93,18.68s4.94,0,6,1.85"/></g></g></svg>