<svg xmlns="http://www.w3.org/2000/svg" xmlns:xlink="http://www.w3.org/1999/xlink" viewBox="0 0 114.08 123.25"><defs><style>.cls-1{fill:#36313f;}.cls-2{fill:#484254;}.cls-14,.cls-3{fill:#060000;}.cls-13,.cls-3{opacity:0.1;}.cls-3{isolation:isolate;}.cls-4{fill:url(#linear-gradient);}.cls-5{fill:#f1bfbf;}.cls-6{fill:#6a637f;}.cls-7{fill:#545387;}.cls-8{fill:#453e54;}.cls-9{fill:#f9fafd;}.cls-10{fill:#645ea8;}.cls-11{fill:#fff;}.cls-12{fill:none;}</style><linearGradient id="linear-gradient" x1="-79.08" y1="1288.51" x2="-79.08" y2="1404.32" gradientTransform="translate(138.92 -1288.51)" gradientUnits="userSpaceOnUse"><stop offset="0" stop-color="#868581" stop-opacity="0.25"/><stop offset="0.54" stop-color="#868581" stop-opacity="0.12"/><stop offset="1" stop-color="#868581" stop-opacity="0.1"/></linearGradient></defs><title>Asset 13</title><g id="Layer_2" data-name="Layer 2"><g id="Layer_6" data-name="Layer 6"><path class="cls-1" d="M65.91,63.13c-11.6,0-21,13.14-21,29.34s9.4,29.33,21,29.33,21-13.13,21-29.33S77.51,63.13,65.91,63.13ZM67,117.77c-10.2,0-18.47-11.5-18.47-25.69S56.8,66.41,67,66.41,85.47,77.9,85.47,92.08,77.2,117.77,67,117.77Z"/><path class="cls-2" d="M68.45,28.36,67,53H38.54a9.83,9.83,0,0,0-6.69,2.54A8.86,8.86,0,0,0,29,61.31v37h3.61l0-2.53H68.45V92.1H32.53l-.31-29.63a4.61,4.61,0,0,1,.12-1.11,5.81,5.81,0,0,1,2.52-3.76A4.63,4.63,0,0,1,37.27,57H69.53l1.81-25.72H82.21V28.36Z"/><path class="cls-3" d="M68.45,28.36,67,53H38.54a9.83,9.83,0,0,0-6.69,2.54A8.86,8.86,0,0,0,29,61.31v37h3.61l0-2.53H68.45V92.1H32.53l-.31-29.63a4.61,4.61,0,0,1,.12-1.11,5.81,5.81,0,0,1,2.52-3.76A4.63,4.63,0,0,1,37.27,57H69.53l1.81-25.72H82.21V28.36Z"/><polygon class="cls-1" points="69.35 41.59 96.69 40.68 95.24 78.71 29.7 79.43 31.32 64.04 67 70.02 69.35 41.59"/><rect class="cls-2" x="57.94" y="92.11" width="36.21" height="3.62"/><path class="cls-2" d="M69.53,89.36V78.7H66.64V89.36a5.48,5.48,0,0,0-1.82,4.37c0,2.7,1.46,4.89,3.26,4.89s3.26-2.19,3.26-4.89A5.5,5.5,0,0,0,69.53,89.36Z"/><path class="cls-2" d="M55.3,98.42a3.4,3.4,0,0,1,4.45-.16h0s4.35,2.9.36,15.21c0,0-2.89,1.81-1.44-4s.72-9.42-.73-9.42-3.25,4-3.25,4L52.15,103A15.34,15.34,0,0,1,55.3,98.42Z"/><path class="cls-2" d="M28.14,98.42a3.4,3.4,0,0,1,4.45-.16h0s4.35,2.9.37,15.21c0,0-2.9,1.81-1.45-4s.72-9.42-.73-9.42-3.26,4-3.26,4L25,103A15.34,15.34,0,0,1,28.14,98.42Z"/><ellipse class="cls-1" cx="28.43" cy="112.39" rx="8.15" ry="10.86"/><ellipse class="cls-1" cx="55.59" cy="112.39" rx="8.15" ry="10.86"/><path class="cls-4" d="M7.05,114.68c2.65,1.77,6.65.93,6.65.93s6.06-2.87,7.85-2.87S27.69,111,27.69,111l-.15-1.19-.44-3.6c2.75,2.16,5.82,1.41,7.33,1.24s10.27-5.32,11.1-5.65a2.24,2.24,0,0,0,.76-.77h0a19.24,19.24,0,0,0,1.47-2.67h0a4.41,4.41,0,0,0,.92-.94A9.63,9.63,0,0,1,49.21,96,7,7,0,0,0,51.84,95a2.53,2.53,0,0,0,.36-.37,2.34,2.34,0,0,0,.49-1.49S61.13,84.67,60,81.12s2.72-3.62,2.72-3.62,5.89-2.53,6.71-4c.5-.93,4.91-3,8.23-4.43l.41-.17c1.29,2.82,7.84.65,9.13-.55s5.37-1.85,5.37-1.85.17-16.53,1.45-18.63c.62-1,.75-4.27.74-7.42v-.33c1.79-.35,6-1.16,8-1.35a7.78,7.78,0,0,0,3.57-1.67l.11.15a2.58,2.58,0,0,0,1.1.18,1.73,1.73,0,0,0,1-.18c.77-.42,3.58-1.27,4.61-1.69s-.17-3.46-.93-4-1.28-1.35-.85-1.68-1-1.18-1.88-1.35a28.11,28.11,0,0,1-3.41-1.35s-.92-1.94-2.46-1.94A7.88,7.88,0,0,1,100,23.62c-.08-.67-1.7-.76-1.7-.76s-6.14-4.72-7.17-4.13-3.83-.93-3.83-.93-3.46.39-4.27-.24h0a.9.9,0,0,0-.2-.57,6.06,6.06,0,0,0-1.94-2,8.25,8.25,0,0,0,.1-1.22,4.78,4.78,0,0,0,0-.53v-.08L81.11,12a2.44,2.44,0,0,1,.31-1.12c.14-.22.35-.4.51-.62l.11-.16,0,0s0-.08.07-.13v0a1.5,1.5,0,0,0,.11-.36v0s0-.11,0-.17v0a3.77,3.77,0,0,0-.19-1.45,9.53,9.53,0,0,1-.7-2.4,8.43,8.43,0,0,0,0-1.23A3.17,3.17,0,0,0,79.28,2.3,11.67,11.67,0,0,1,76.37.41C75.51-.26,74.09.08,73,.15a29.15,29.15,0,0,0-7.25,1.67,7.58,7.58,0,0,0-2.53,1.25,2.81,2.81,0,0,0-.92,1.57h0a1.49,1.49,0,0,0,0,.42v0a.78.78,0,0,0,0,.16v.06a1.33,1.33,0,0,0,.05.19h0c.1.31.28.6.38.9a.83.83,0,0,1,.06.21v0c0,.06,0,.13,0,.2h0a8.66,8.66,0,0,1-.3,2.35c0,.11,0,.22,0,.34h0a3.77,3.77,0,0,0,.12,1.34h0a.43.43,0,0,0,0,.16.24.24,0,0,0,0,.08.35.35,0,0,0,0,.13s0,.06,0,.08l.05.12,0,.1.06.1.06.1.06.09.08.1.07.08.09.09.07.08.1.09.08.06.13.09.06,0,.22.11c.49.23,1.1.31,1.4.73a1.14,1.14,0,0,1,.15.34v.16a6.12,6.12,0,0,0,0,.74,2.68,2.68,0,0,0,0,.4,1.38,1.38,0,0,0,.08.29,7.66,7.66,0,0,0,2.59,4.34c0,.13,0,.29.09.46a8.85,8.85,0,0,1-2.47,1.3c-2.05.6-5,3.36-5,3.36s-1.44,10.37-1.78,11.64a56.18,56.18,0,0,0-.62,6.16,14.15,14.15,0,0,1-.85,3,8.76,8.76,0,0,0,.71,5.64,4.41,4.41,0,0,1-.62,1c-2,2.37-8.18,2.28-10.23,2.28A2.54,2.54,0,0,0,45,55.81C41.21,56.87,29.07,60.33,27.63,61c-1.7.75-2.64,8.11-2.64,8.11S21.41,81.3,21.58,82.91,20.35,89,20.35,89s0,5-.58,5.39h0c-.6.25-.51,2.7-.51,2.7s.43.13,1.12.31A19.39,19.39,0,0,1,19,101.56c-.27-.33-.53-.48-.68-.08-.43,1.07-6.82,8.66-8.44,8.66A4.87,4.87,0,0,0,7,111.63C6.06,112.57,5.67,113.76,7.05,114.68ZM36.38,70.76a71.27,71.27,0,0,0,15-.52,17.33,17.33,0,0,1-1.11,3,30,30,0,0,0-2,6.66c0,1-2.3,9.7-3,10.13a2.52,2.52,0,0,0-.74,1.07,9.85,9.85,0,0,0-.45,1.29,3.71,3.71,0,0,0,.06.61c-.51.47-1.05,1-1.54,1.39h0A32.92,32.92,0,0,0,38.59,97c-1,.92-5.8,2.06-5.8,2.06a29.72,29.72,0,0,0-3.41,1.77c-1.48.89-3,2-3.35,3.14.16-1.88.44-4.15.61-5.59h.28c2.39-.15,2-2.43,1.9-3a.4.4,0,0,0,0-.12c1.71-1.85,5.55-15.69,5-17.21a2.74,2.74,0,0,1,.62-2.87,3.46,3.46,0,0,0,.05-2.61C34.07,71.63,36.38,70.76,36.38,70.76ZM95,33.55l-.45.11v-.1ZM70.22,20.82l-.21.25-.09.09v-.47ZM61.68,37.19l0,.47s-.05.29-.13.78Zm39.19-4.72-1.49.26.61-.26a1.37,1.37,0,0,1,.48-.13,2.57,2.57,0,0,1,.55.12Z"/><path class="cls-5" d="M50.56,93.36a33.11,33.11,0,0,0-1.63,3.8c.09.25-3.68,3.26-3.68,3.26l-4.1-2.92.42-2s4.6-4.15,4.93-4.63S50.56,93.36,50.56,93.36Z"/><path class="cls-6" d="M27.16,105.36c2.84,2.78,6.19,1.93,7.78,1.76s10.09-5.27,10.9-5.61a2.27,2.27,0,0,0,.75-.76h0A20.5,20.5,0,0,0,48,98.1c-.05,0-2.84.8-3.54,0,0,0-1.17-1.44-1.42-1.44s0-2.52,0-2.52a32.74,32.74,0,0,0-4,2.6c-1,.92-5.69,2.05-5.69,2.05A29.79,29.79,0,0,0,30,100.53C27.76,101.88,25.54,103.79,27.16,105.36Z"/><path class="cls-3" d="M27.16,105.36c2.84,2.78,6.19,1.93,7.78,1.76s10.09-5.27,10.9-5.61a2.27,2.27,0,0,0,.75-.76c-1-.59-7.47,3.53-9.27,4.28s-6.4.33-9-.75c-1.3-.55,0-2.22,1.65-3.75C27.76,101.88,25.54,103.79,27.16,105.36Z"/><path class="cls-5" d="M27.49,96.66s-1.19,9-.89,10.13-7.48-4-7.48-4,2.73-5.61,1.93-6.9S27.49,96.66,27.49,96.66Z"/><path class="cls-7" d="M20,96.83s4.85,1.42,7.53,1.25c2.35-.15,2-2.41,1.87-3a.58.58,0,0,0,0-.13c1.68-1.85,5.44-15.56,4.94-17.07A2.73,2.73,0,0,1,35,75.06,3.44,3.44,0,0,0,35,72.47c-.42-.92,1.84-1.76,1.84-1.76A69.1,69.1,0,0,0,51.6,70.2a17.59,17.59,0,0,1-1.09,2.94,30.22,30.22,0,0,0-1.93,6.61c0,1-2.26,9.62-2.93,10a2.63,2.63,0,0,0-.73,1.07,11.36,11.36,0,0,0-.44,1.28c.25,5.61,6.61,3.43,7.54,2.68a2.47,2.47,0,0,0,.35-.37A2.36,2.36,0,0,0,52.85,93s8.29-8.46,7.2-12,2.68-3.6,2.68-3.6,5.77-2.51,6.58-4c.49-.93,4.82-3,8.08-4.39,2-.9,3.67-1.54,3.67-1.54L79.7,62.58l-1.08-3.84-2-.75-6.43-2.43L58.6,54l-1.06.14L46.31,55.56S29.91,60.25,28.23,61s-2.58,8.06-2.58,8.06S22.13,81.19,22.3,82.79s-1.17,6-1.17,6,0,5-.57,5.35h0C20,94.4,20,96.83,20,96.83Z"/><path class="cls-3" d="M36.86,70.71A69.1,69.1,0,0,0,51.6,70.2c.5-1.58,7.53-5.93,7.53-5.93C53.36,62.84,36.86,70.71,36.86,70.71Z"/><path class="cls-8" d="M44.48,92.14c.25,5.61,6.61,3.43,7.54,2.68a2.47,2.47,0,0,0,.35-.37c-2.22.82-6.17,1.45-7.45-3.59A11.36,11.36,0,0,0,44.48,92.14Z"/><path class="cls-8" d="M20,96.83s4.85,1.42,7.53,1.25c2.35-.15,2-2.41,1.87-3a44,44,0,0,1-8.88-1h0C20,94.4,20,96.83,20,96.83Z"/><path class="cls-3" d="M44.48,92.14c.25,5.61,6.61,3.43,7.54,2.68a2.47,2.47,0,0,0,.35-.37c-2.22.82-6.17,1.45-7.45-3.59A11.36,11.36,0,0,0,44.48,92.14Z"/><path class="cls-3" d="M20,96.83s4.85,1.42,7.53,1.25c2.35-.15,2-2.41,1.87-3a44,44,0,0,1-8.88-1h0C20,94.4,20,96.83,20,96.83Z"/><path class="cls-6" d="M8.07,114.32c2.6,1.75,6.53.92,6.53.92s6-2.84,7.71-2.84,6-1.76,6-1.76l-.14-1.19-.69-5.67s-6.52-.17-6.78-.76c0,0-1.18-2.88-1.6-1.82s-6.69,8.6-8.28,8.6A4.77,4.77,0,0,0,8,111.28C7.09,112.22,6.72,113.4,8.07,114.32Z"/><path class="cls-3" d="M30.59,64.85s5.44,3.43,3.94,4.2S30.59,64.85,30.59,64.85Z"/><path class="cls-3" d="M28.33,71.46S33,75.91,31.26,76,28.33,71.46,28.33,71.46Z"/><path class="cls-3" d="M23.31,85.61s2.38,4.47,1.48,5.24S23.31,85.61,23.31,85.61Z"/><path class="cls-3" d="M49.5,90.13c-.83.84,8-2.77,6-2.93S49.5,90.13,49.5,90.13Z"/><path class="cls-5" d="M67.08,27.36l.28-.05c1-.16,4.81-.75,8.2-1.48.82-.18,1.62-.37,2.36-.56,2.59-.68,4.31-1.41,3.22-2a5.9,5.9,0,0,1-2.65-3.49c0-.12-.07-.24-.11-.35a9.07,9.07,0,0,1-.33-1.93s-9.46-3.35-7.62,0a3.16,3.16,0,0,1-.56,3.92,7.11,7.11,0,0,1-2,1.52Z"/><path class="cls-3" d="M77.21,24.76s-3.39,2.43-6.84.42-8,17.74-8,17.74L57.71,54.47s-3,2.52.74,3.6S70.61,57,72.74,60.17a9.35,9.35,0,0,0,6.57,3.69c.4,0,2-12,2-12l.42-17.33Z"/><path class="cls-9" d="M58.62,57.4c3.77,1.09,12.16-1.09,14.28,2.1a8.22,8.22,0,0,0,3.6,2.89,9.34,9.34,0,0,0,3,.79c.06,0,.14-.22.23-.6.59-2.42,1.78-11.37,1.78-11.37l.41-17.33-4-8.61-.53-1.18a7.1,7.1,0,0,1-1.73.84,6,6,0,0,1-5.11-.42c-1-.59-2.12.7-3.18,2.8-2.54,5.08-4.8,15-4.8,15L57.89,53.8l-.31.31C56.89,54.81,55.64,56.55,58.62,57.4Z"/><path class="cls-3" d="M76.62,58a21.57,21.57,0,0,0-.12,4.4,52.26,52.26,0,0,0,.79,6.23,2.66,2.66,0,0,0,.1.38c2-.9,3.67-1.54,3.67-1.54L79.7,62.58c.59-2.42,1.78-11.37,1.78-11.37l.41-17.33-4-8.61c2.59-.68,4.31-1.41,3.22-2a6.17,6.17,0,0,1-2.76-3.85A14,14,0,0,1,76,22L76,22l-.31,2.92-.09.9-.19,1.85S76.29,49.69,77,51s.33,3.68-.25,6.53C76.67,57.65,76.64,57.81,76.62,58Z"/><path class="cls-10" d="M77,57.15c-.58,2.85-.08,7.53.59,11.13s7.78,1.26,9.12,0S92,66.43,92,66.43s.17-16.4,1.43-18.5c.59-1,.74-4.23.72-7.36,0-2.81-.15-5.53-.2-6.45a2.22,2.22,0,0,0,0-.33s5.44-9.21,5.35-9.87-1.67-.75-1.67-.75-6-4.69-7-4.1-3.77-.93-3.77-.93-3.5.4-4.22-.28a.35.35,0,0,1-.13-.3c.08-1.07-3.57-3.36-3.68-3.43,3.08,2.77-1.9,7-2.46,7.5l-.06,0-.58,5.68s.92,22,1.59,23.27S77.63,54.31,77,57.15Z"/><circle class="cls-8" cx="77.36" cy="33.24" r="0.42"/><path class="cls-3" d="M76.51,22l2.54,2.46,3.73-6.22a.36.36,0,0,1-.13-.31c.08-1.07-3.57-3.36-3.68-3.42C82.05,17.24,77.08,21.5,76.51,22Z"/><circle class="cls-3" cx="78.2" cy="46.63" r="0.42"/><circle class="cls-8" cx="78.2" cy="46.47" r="0.42"/><path class="cls-10" d="M76.34,21.63l2.54,2.47,3.73-6.23a.35.35,0,0,1-.13-.3c.08-1.07-3.57-3.36-3.68-3.43C81.88,16.9,76.9,21.16,76.34,21.63Z"/><rect class="cls-2" x="70.64" y="36.32" width="12.31" height="5.82" rx="0.52" transform="translate(35.82 115.11) rotate(-88.69)"/><circle class="cls-11" cx="76.94" cy="36.7" r="0.92"/><path class="cls-3" d="M45.4,56.41c2.1.93,15.82-1.5,17.83-2.09s4.93-5.11,3.52-8.37a7.62,7.62,0,0,1,.5-6.44s3-6.45,3.68-7.71,2.07-4.91,2.26-5.52a.51.51,0,0,0-.12-.39,14.34,14.34,0,0,0-2.64-2.29c-.59.21-.67-1.48-.64-2.73,0-.69,0-1.25,0-1.25s-.28.29-.73.67l-.56.45a8.59,8.59,0,0,1-2.64,1.44c-2,.6-4.85,3.34-4.85,3.34l.83,12.86S60,50.46,58,52.81s-8,2.26-10.05,2.26A2.51,2.51,0,0,0,45.4,56.41Z"/><path class="cls-10" d="M45.24,55.9c2.09.92,15.82-1.51,17.82-2.1s4.94-5.1,3.52-8.37a7.63,7.63,0,0,1,.5-6.44s3-6.44,3.68-7.71A59.37,59.37,0,0,0,73,25.76a.47.47,0,0,0-.12-.38,14.5,14.5,0,0,0-2.64-2.3c-.59.22-.66-1.48-.64-2.72,0-.7.06-1.25.06-1.25s-.28.28-.74.67l-.56.45a8.59,8.59,0,0,1-2.64,1.44c-2,.59-4.85,3.34-4.85,3.34l.83,12.85S59.8,50,57.79,52.29s-8,2.27-10,2.27A2.5,2.5,0,0,0,45.24,55.9Z"/><path class="cls-3" d="M68,19.45s.08.44.21,1.12c.45,2.3,1.54,7.31,2.3,7.12a7,7,0,0,0,2.23-2,14.82,14.82,0,0,0-2.65-2.3c-.59.22-.66-1.48-.64-2.72l-.67-.58Z"/><path class="cls-10" d="M68.17,19.11s.08.44.21,1.12c.45,2.3,1.52,7.32,2.3,7.12a6.94,6.94,0,0,0,2.22-2,14.5,14.5,0,0,0-2.64-2.3c-.59.22-.66-1.48-.64-2.72l-.68-.58Z"/><path class="cls-5" d="M62.81,43.77s4.19-.83,5.36-2.67,9.14-3.44,8.17-1.51-8.17,8.22-8.17,8.22l-3.12,4.46-4.16-1.06L59.14,47.8Z"/><path class="cls-3" d="M72.71,48.54s-4,1.5-4.66,3.51S72.71,48.54,72.71,48.54Z"/><path class="cls-3" d="M75.2,50.86s.37,2.09-4.71,1.93Z"/><path class="cls-3" d="M97.12,24.09,99,23.93s2,1.5,3.51,1.5,2.43,1.93,2.43,1.93a27.32,27.32,0,0,0,3.35,1.34c.84.16,2.26,1,1.85,1.33s.08,1.09.84,1.68,1.92,3.6.92,4-3.77,1.25-4.52,1.67a2.06,2.06,0,0,1-1.67,0s-4.44-5.77-6.7-4.69a14.45,14.45,0,0,1-5.35,1.09l-2.43-5.1Z"/><path class="cls-10" d="M58.62,51.63a2.21,2.21,0,0,0,1.56,1.09,11.79,11.79,0,0,0,4.87-.45s-8.43-2.68-.3-9.19H62.57l-.73-.28.34-1.73.47-15.64L60.89,25s-1.41,10.3-1.75,11.55a56.41,56.41,0,0,0-.59,6.11,14.22,14.22,0,0,1-.83,3A8.61,8.61,0,0,0,58.62,51.63Z"/><path class="cls-3" d="M59,51.63a2.24,2.24,0,0,0,1.56,1.09,11.79,11.79,0,0,0,4.87-.45s-8.43-2.68-.3-9.19H62.9l-.73-.28C61,44.91,59.1,48.67,59,51.63Z"/><path class="cls-12" d="M58.62,51.63a2.21,2.21,0,0,0,1.56,1.09,11.79,11.79,0,0,0,4.87-.45s-8.43-2.68-.3-9.19H62.57l-.73-.28C60.65,44.91,58.77,48.67,58.62,51.63Z"/><path class="cls-10" d="M58.62,51.63a2.21,2.21,0,0,0,1.56,1.09,11.79,11.79,0,0,0,4.87-.45s-8.43-2.68-.3-9.19H62.57l-.73-.28C60.65,44.91,58.77,48.67,58.62,51.63Z"/><path class="cls-3" d="M69.87,21.4a7.6,7.6,0,0,0,8.63-1.64,3.58,3.58,0,0,0-.11-.35,9.07,9.07,0,0,1-.33-1.93s-9.46-3.35-7.62,0A3.2,3.2,0,0,1,69.87,21.4Z"/><path class="cls-5" d="M65.41,14.13v.07a6,6,0,0,0,0,.74c0,.24.06.46.1.68a7.62,7.62,0,0,0,14.68,1c0-.15.09-.31.13-.45a7.31,7.31,0,0,0,.28-2,4.52,4.52,0,0,0,0-.52,7.61,7.61,0,0,0-15.21.52Z"/><path class="cls-3" d="M65.41,14.2a3.68,3.68,0,0,1,0,.74,2.75,2.75,0,0,0,0,.4,1.29,1.29,0,0,0,.08.28,1.43,1.43,0,0,0,2,.73,2.15,2.15,0,0,0,.59-.78c.7-1.31,1.69-2.81,3.22-2.84a7.88,7.88,0,0,1,1.91.43,2,2,0,0,0,1.85-.25c.37-.33.54-.9,1-1s.92.33,1.16.77.4,1,.85,1.18c.2.1.44.13.64.24.92.5.49,2.25,1.44,2.53l.09,0,0-.47c.09-.85.17-1.7.26-2.55a7.62,7.62,0,0,0-15.22.52Z"/><path class="cls-2" d="M78.93,2.77a3.1,3.1,0,0,1,2,1.87,7.24,7.24,0,0,1,0,1.23,9.51,9.51,0,0,0,.68,2.38,2.64,2.64,0,0,1-.16,2.39,7.37,7.37,0,0,0-.5.61,2.46,2.46,0,0,0-.3,1.11l-.41,4.12c-1.06-.19-.59-2-1.54-2.55-.2-.1-.43-.14-.64-.23-.45-.23-.61-.75-.85-1.18s-.67-.89-1.16-.77-.66.68-1,1a2,2,0,0,1-1.85.25,6.87,6.87,0,0,0-1.91-.42c-1.54,0-2.51,1.54-3.22,2.83a2.07,2.07,0,0,1-.59.78,1.43,1.43,0,0,1-2.06-1c-.07-.49.08-1-.2-1.46s-.9-.5-1.38-.72a3.08,3.08,0,0,1-1.4-3.37,5.89,5.89,0,0,0,.22-2.78c-.11-.31-.29-.58-.38-.89a2.42,2.42,0,0,1,.86-2.43,7.08,7.08,0,0,1,2.48-1.25A28.85,28.85,0,0,1,72.77.63c1.06-.06,2.47-.4,3.3.27A12,12,0,0,0,78.93,2.77Z"/><circle class="cls-3" cx="76.95" cy="26.63" r="0.42"/><circle class="cls-8" cx="76.95" cy="26.46" r="0.42"/><circle class="cls-3" cx="79.62" cy="52.91" r="0.42"/><circle class="cls-8" cx="79.62" cy="52.74" r="0.42"/><circle class="cls-3" cx="78.2" cy="59.86" r="0.42"/><circle class="cls-8" cx="78.2" cy="59.69" r="0.42"/><path class="cls-3" d="M63.82,33.24s-.92,6.25,0,7.34S63.82,33.24,63.82,33.24Z"/><path class="cls-3" d="M91.19,44.85a9.49,9.49,0,0,1,0,7.42c-1.76,3.63-2.85,5.1-2.26,7.42S91.19,44.85,91.19,44.85Z"/><path class="cls-3" d="M8.07,114.32c2.6,1.75,6.53.92,6.53.92s6-2.84,7.71-2.84,6-1.76,6-1.76l-.14-1.19c-1.73.34-5.68,1.13-6.13,1.52s-7.79,2.93-7.79,2.93-4.9-.61-6.26-2.62C7.09,112.22,6.72,113.4,8.07,114.32Z"/><g class="cls-13"><path class="cls-14" d="M81,5.2v0A0,0,0,0,1,81,5.2Z"/><path class="cls-14" d="M63.89,12.32c.48.23,1.09.31,1.38.73s.13,1,.2,1.46a1.43,1.43,0,0,0,2.06,1,2.15,2.15,0,0,0,.59-.78c.7-1.31,1.69-2.81,3.22-2.84a7.88,7.88,0,0,1,1.91.43,2,2,0,0,0,1.85-.25c.37-.33.54-.9,1-1s.92.33,1.16.76.4,1,.85,1.18c.21.1.44.13.64.24.94.51.46,2.35,1.54,2.55.13-1.37.27-2.74.41-4.12A2.51,2.51,0,0,1,81,10.57c.15-.22.35-.39.51-.61a1.8,1.8,0,0,0,.34-.89,2.1,2.1,0,0,1-.34,1.54c-.16.22-.36.39-.51.62a2.51,2.51,0,0,0-.29,1.11c-.14,1.37-.28,2.75-.41,4.12-1.07-.2-.59-2-1.54-2.55-.2-.11-.43-.14-.64-.24-.45-.22-.61-.74-.85-1.18s-.67-.89-1.16-.77-.66.69-1,1a2,2,0,0,1-1.85.25,6.88,6.88,0,0,0-1.91-.43c-1.54,0-2.52,1.54-3.22,2.84a2.15,2.15,0,0,1-.59.78,1.43,1.43,0,0,1-2.06-1c-.07-.49.08-1-.2-1.45s-.9-.51-1.38-.73a3,3,0,0,1-1.44-3A2.76,2.76,0,0,0,63.89,12.32Z"/><path class="cls-14" d="M62.33,5.29c.09.31.27.58.37.89a2.42,2.42,0,0,1,.1,1.1,2.23,2.23,0,0,0-.1-.43c-.1-.31-.28-.58-.37-.89a1.72,1.72,0,0,1,0-.87A.49.49,0,0,0,62.33,5.29Z"/></g><path class="cls-3" d="M86.92,42.5c1.92-.42,6.44-1.75,6.44-1.75l.81-.17c0-2.8-.15-5.52-.2-6.45h0a31.2,31.2,0,0,0-4.77,1.93c-.93.67-3.77.5-3.77.5a12.91,12.91,0,0,0-8.12,4.35C73.61,45,85,42.92,86.92,42.5Z"/><path class="cls-5" d="M105.73,35a1.12,1.12,0,0,1,.55,1.49,1.14,1.14,0,0,1-.3.39,8.29,8.29,0,0,1-3.93,2c-2.37.23-8.08,1.38-8.63,1.5l-.09,0c-.47.14-4.59,1.34-6.4,1.74s-13.31,2.51-9.63-1.59a13.08,13.08,0,0,1,8-4.35h.15c.43,0,2.86.11,3.7-.5A7.41,7.41,0,0,1,90.57,35a26.56,26.56,0,0,1,5.66-1.63l3.94-.69a1.08,1.08,0,0,1,.66.09Z"/><path class="cls-10" d="M97.46,24.09l1.85-.16a7.76,7.76,0,0,0,3.52,1.5c1.51,0,2.42,1.93,2.42,1.93a28,28,0,0,0,3.35,1.34c.84.16,2.26,1,1.85,1.33s.09,1.09.84,1.68,1.93,3.6.93,4-3.77,1.25-4.52,1.67a2.06,2.06,0,0,1-1.67,0s-4.44-5.77-6.7-4.69A14.49,14.49,0,0,1,94,33.79l-2.43-5.1Z"/><path class="cls-2" d="M93.43,54.8V76.53H58.67v3.62h34.4V95.73h3.62V54.8Z"/><path class="cls-2" d="M109.37,28.36H95.61L94.16,53H65.7A9.87,9.87,0,0,0,59,55.52a9,9,0,0,0-2.87,5.79v37h3.62L59.4,62.47a4.63,4.63,0,0,1,.1-1.12A5.87,5.87,0,0,1,62,57.59,4.71,4.71,0,0,1,64.44,57H96.69L98.5,31.26h10.86Z"/><path class="cls-1" d="M93.07,63.13c-11.6,0-21,13.14-21,29.34s9.4,29.33,21,29.33,21-13.13,21-29.33S104.67,63.13,93.07,63.13Zm1.09,54.64c-10.2,0-18.47-11.5-18.47-25.69S84,66.41,94.16,66.41s18.47,11.49,18.47,25.67S104.36,117.77,94.16,117.77Z"/><ellipse class="cls-1" cx="95.24" cy="93.37" rx="3.26" ry="4.89"/><ellipse class="cls-2" cx="95.97" cy="93.56" rx="0.72" ry="1.45"/><path class="cls-2" d="M56.86,86.32v4a3.64,3.64,0,0,0-3.49,0,6.58,6.58,0,0,0-3.62,4.24c-.88,3-2.58,9-4.12,14.63-2.16,8-6.17,6.17-6.17,6.17l-27.7,2L0,111.29v-3.61H29.7s6.88,2.53,9.76,3.61,1.81-1.09,5.64-14.75S56.86,86.32,56.86,86.32Z"/><polygon class="cls-3" points="39.47 115.28 11.77 117.27 0 111.3 28.97 110.94 39.47 115.28"/></g></g></svg>