<svg xmlns="http://www.w3.org/2000/svg" xmlns:xlink="http://www.w3.org/1999/xlink" viewBox="0 0 56.1 116.93"><defs><style>.cls-1{fill:url(#linear-gradient);}.cls-2{fill:#f7c5c4;}.cls-3{fill:#3d3a57;}.cls-4{fill:#060000;opacity:0.1;isolation:isolate;}.cls-5{fill:#eb5f3d;}</style><linearGradient id="linear-gradient" x1="-138.92" y1="1346.97" x2="-82.82" y2="1346.97" gradientTransform="translate(138.92 -1288.51)" gradientUnits="userSpaceOnUse"><stop offset="0" stop-color="#868581" stop-opacity="0.25"/><stop offset="0.54" stop-color="#868581" stop-opacity="0.12"/><stop offset="1" stop-color="#868581" stop-opacity="0.1"/></linearGradient></defs><title>Asset 14</title><g id="Layer_2" data-name="Layer 2"><g id="Layer_6" data-name="Layer 6"><path class="cls-1" d="M55.63,89.1c-.74-1.44-2.38-2.16-3.92-2.72s-3.16-1.1-4.77-1.58a29,29,0,0,0,4.92-6.16,14.84,14.84,0,0,0,2-4,5.76,5.76,0,0,0-.42-4.37,5.94,5.94,0,0,0-4.49-2.61,17,17,0,0,0-5.36.46c-1.26.26-2.53.52-3.79.8.74-.36,1.46-.76,2.16-1.19A41.13,41.13,0,0,0,49,61.85a3.65,3.65,0,0,0,1.4-2.45,2.35,2.35,0,0,0-1.55-2,4.72,4.72,0,0,0-2.66-.11,9,9,0,0,0-5.77,4.09A10.8,10.8,0,0,1,39,63.5a1.91,1.91,0,0,1-2.65.27,2.66,2.66,0,0,1-.59-1.08l0,0a8.67,8.67,0,0,0,.66-8,20.62,20.62,0,0,0-3.55-5.29,16.91,16.91,0,0,1,4-2.08,4.17,4.17,0,0,0,1.11-.52,2.89,2.89,0,0,0,.89-2.28A12.89,12.89,0,0,1,39,42a8.69,8.69,0,0,0,10.53-4.72A8.92,8.92,0,0,0,53.75,35c1.39-1.4,2.24-4.14.76-5.78a8.33,8.33,0,0,0-1.84-1.17,9,9,0,0,1-2.24-2.31c-2.94-4-7.15-4.69-11.89-4.16a20.8,20.8,0,0,0-6.23,1.5,25.11,25.11,0,0,0-4.25,2.56l-.64.46c-.38-1.17-.89-2.33-1.2-3.26A2.75,2.75,0,0,1,26,21.66,2.81,2.81,0,0,1,27.3,20l8-6.3A20.05,20.05,0,0,1,38,11.85c2.77-1.5,6.27-1.68,8.59-3.79a6.49,6.49,0,0,0,2.1-4.85c0-1.3-.63-2.77-1.9-3.13S44.2.68,43.17,1.6a98.3,98.3,0,0,1-10.46,8.53c-3.55,2.37-7.46,4.25-10.62,7.11a7,7,0,0,0-1.46,1.69,8.58,8.58,0,0,0-.8,2.45l-.65,3.08c-.53,2.48-.95,5.36.55,7.35a3.69,3.69,0,0,0-.23.58c-.23.77.19,1.58,0,2.25s-1.36,1.58-1.87,2.18c-.71.82-1.39,1.67-2,2.53A61.82,61.82,0,0,0,9.14,50.27,166.81,166.81,0,0,0,2.35,68.15a10.74,10.74,0,0,0-.73,3.29,5.28,5.28,0,0,0,.86,2.88c-.54,3.2-1.92,6.27-2,9.54l-.5.23c-.21,3,1.27,6.08,2.53,8.85.73,1.58,1.61,3.29,3.24,3.94a7.1,7.1,0,0,0,2.64.31c1,0,2,0,3,0h-.12a3.51,3.51,0,0,0-2.85,1.68,3.79,3.79,0,0,0-.13,1.77q.56,6.24,1.1,12.47a4.23,4.23,0,0,0,.82,2.59,3.76,3.76,0,0,0,2.31,1,16.64,16.64,0,0,0,4.78,0,4,4,0,0,0,1.87-.64,1.55,1.55,0,0,0,.59-1.74c-.36-.87-1.6-1-2.21-1.71-.8-.92-.27-2.34.29-3.43l.29-.52a11.46,11.46,0,0,0,2,2.25,2,2,0,0,0,2.21.55q2.63-1.37,5.29-2.69l.41.06a65.51,65.51,0,0,0,10.38.58,4.51,4.51,0,0,0,1.92-.34,1.61,1.61,0,0,0,1-1.55c-.11-.79-.94-1.24-1.68-1.52a15.61,15.61,0,0,0-4.38-.91l5.83-2.75a32.37,32.37,0,0,1,6-2.37c2.69-.67,5.84-.84,7.59-3a8.26,8.26,0,0,0,1.41-4.7A6.27,6.27,0,0,0,55.63,89.1ZM28.31,71.63c-.95.25-2,.51-3.11.83-.1-.82-.26-1.65-.36-2.47a1.31,1.31,0,0,1,.07-.76,1.37,1.37,0,0,1,.65-.51L29.17,67a2.37,2.37,0,0,0-.75-1.77,5.81,5.81,0,0,0,1.09.28,11.55,11.55,0,0,0,2,4.38,2,2,0,0,0,.84.71l.06,0C31.06,70.91,29.68,71.26,28.31,71.63Z"/><path class="cls-2" d="M31.76,36.48a6.94,6.94,0,0,1-5.39-.86,3.31,3.31,0,0,0-1-.49,2.14,2.14,0,0,0-1.78.73,5.71,5.71,0,0,0-.92,6.07,13,13,0,0,0,4.07,5A36.35,36.35,0,0,0,31,50a8,8,0,0,1,4.39-4.26c1.76-.68,3-2.51,4-4.11.75-1.18,1.42-1.13.74-2.35A17.79,17.79,0,0,0,37.49,36a10.29,10.29,0,0,1-1.44-1.91c-.45-.81-.35-1.33-1-.69-.46.42-.66,1.34-1.17,1.84A4.93,4.93,0,0,1,31.76,36.48Z"/><path class="cls-2" d="M26.25,24a2.7,2.7,0,0,1-.18-1.19,2.73,2.73,0,0,1,1.22-1.61L35.14,15a19.48,19.48,0,0,1,2.63-1.86c2.71-1.48,6.13-1.66,8.4-3.75a6.44,6.44,0,0,0,2-4.78c0-1.29-.63-2.73-1.86-3.09S43.79,2.06,42.79,3a94.42,94.42,0,0,1-10.22,8.42c-3.48,2.33-7.28,4.2-10.37,7a7.2,7.2,0,0,0-1.43,1.68A8.24,8.24,0,0,0,20,22.49l-.63,3c-.55,2.56-1,5.55.74,7.51a2.77,2.77,0,0,0,2.09,1,4.16,4.16,0,0,0,1.62-.55c1.28-.66,3.6-1.3,4-2.88C28.3,28.63,26.86,25.83,26.25,24Z"/><path class="cls-2" d="M38.77,64.07A10.1,10.1,0,0,0,40.12,62a8.76,8.76,0,0,1,5.64-4,4.48,4.48,0,0,1,2.59.1,2.34,2.34,0,0,1,1.52,2,3.67,3.67,0,0,1-1.37,2.42,39.65,39.65,0,0,1-6.9,5.77,18.41,18.41,0,0,1-8.42,2.93,1.65,1.65,0,0,1-1.73-.78c-1.58-2-2.14-4.69-2.57-7.24.16.92,5.32-1.23,5.91-1,.85.4.77,1.61,1.39,2.18A1.87,1.87,0,0,0,38.77,64.07Z"/><path class="cls-2" d="M1.13,84.23a1.77,1.77,0,0,0,.19.93c.35.55,1.15.56,1.79.46a33.59,33.59,0,0,0,4.43-1.06l13.17-3.8a1.21,1.21,0,0,0,.57-.27,1.39,1.39,0,0,0,.26-.58,15.52,15.52,0,0,0,.29-5.8,1.56,1.56,0,0,0-.27-.78,1.54,1.54,0,0,0-1.09-.41,55.88,55.88,0,0,0-6.21-.28,30.13,30.13,0,0,1-4-.09c-1.74-.21-3.73-1.2-5.47-1-1.5.13-1.44,1.31-1.6,2.55C2.73,77.49,1.17,80.73,1.13,84.23Z"/><path class="cls-3" d="M43.2,68.6a16.21,16.21,0,0,1,5.23-.46A5.17,5.17,0,0,1,53.22,75a14.8,14.8,0,0,1-1.91,4,26.5,26.5,0,0,1-5.63,6.77c-1.12.89-2.36,1.63-3.44,2.57-2.3,2-3.72,4.81-5.09,7.54a31.31,31.31,0,0,0-3.11,8,.87.87,0,0,1-.28.57.75.75,0,0,1-.57,0l-6.33-1.17a1.23,1.23,0,0,1-.77-.31,1.33,1.33,0,0,1-.11-1.17,44.25,44.25,0,0,1,7.53-16.31,14.49,14.49,0,0,1-12.72,3.69,5,5,0,0,1-2.41-1c-1.41-1.26-1.34-3.48-1-5.34a37.83,37.83,0,0,1,1.17-4.92c1.21-3.87,6.31-4.91,9.78-5.86Q35.69,70.1,43.2,68.6Z"/><path class="cls-4" d="M38.52,82.23a7.11,7.11,0,0,0-2.4,1.58c1.13-1.31,4.38-1.92,6-2.53a21.56,21.56,0,0,0,5.8-2.79A70.09,70.09,0,0,0,38.52,82.23Z"/><path class="cls-5" d="M18.05,109.28c-.55,1.07-1.07,2.47-.28,3.39.61.71,1.81.83,2.17,1.69a1.53,1.53,0,0,1-.58,1.71,3.8,3.8,0,0,1-1.83.64,16.24,16.24,0,0,1-4.67,0,3.71,3.71,0,0,1-2.25-1,4.17,4.17,0,0,1-.8-2.56Q9.27,107,8.74,100.83a3.71,3.71,0,0,1,.12-1.75,3.4,3.4,0,0,1,2.77-1.66,15.44,15.44,0,0,1,3.78-.16,4,4,0,0,1,2.38.82,4.53,4.53,0,0,1,1.12,2.59c.28,1.46,1.09,3.48.92,5C19.69,106.84,18.59,108.2,18.05,109.28Z"/><path class="cls-5" d="M32.22,105.3a15,15,0,0,1,7.12.8c.73.27,1.53.72,1.64,1.5a1.58,1.58,0,0,1-.95,1.53,4.42,4.42,0,0,1-1.9.34A63.78,63.78,0,0,1,28,108.93a5.44,5.44,0,0,1-2.48-.78,1.93,1.93,0,0,1-.77-2.28c.4-.84,1.51-1.11,2-1.87.39-.56.48-1.37,1.09-1.66a1.83,1.83,0,0,1,1.37.11c.64.22,2.18.45,2.63,1A6.89,6.89,0,0,1,32.22,105.3Z"/><circle class="cls-2" cx="41.3" cy="34.79" r="8.42"/><path class="cls-5" d="M21.31,31.07A11.37,11.37,0,0,1,26,29.43a2.45,2.45,0,0,1,1.69.09,2.48,2.48,0,0,1,.81,1,9.2,9.2,0,0,1,1.13,2.66A3.12,3.12,0,0,1,29,35.89c-.5.52-1.22.78-1.73,1.27a3.16,3.16,0,0,0-.76,2.76,8.48,8.48,0,0,0,1.12,2.75,47.45,47.45,0,0,0,4.22,6.21c1.64,2,3.48,4,4.43,6.41a8.63,8.63,0,0,1-.63,7.91,6.4,6.4,0,0,1-7.24,2.51,2.45,2.45,0,0,1,.74,1.75l-3.53,1.77a1.44,1.44,0,0,0-.64.5,1.37,1.37,0,0,0-.06.75,22.5,22.5,0,0,1,.43,4.31,4.23,4.23,0,0,1-2.06,3.6,6.24,6.24,0,0,1-3.94,0,49.15,49.15,0,0,0-9.29-1,11.8,11.8,0,0,1-4.59-.57,5.44,5.44,0,0,1-3.25-4.94,10.47,10.47,0,0,1,.71-3.24A164.28,164.28,0,0,1,9.57,51a61.5,61.5,0,0,1,6.3-10.78c.64-.86,1.3-1.69,2-2.51.5-.58,1.62-1.41,1.82-2.15s-.22-1.46,0-2.21A4.49,4.49,0,0,1,21.31,31.07Z"/><path class="cls-3" d="M.65,84.41C4.34,82.71,8,81,11.89,79.67c2.84-1,6-1.74,8.76-.63.83.31,1.58.81,2.39,1.2,2.69,1.31,5.77,1.5,8.75,1.83a82.19,82.19,0,0,1,19.37,4.59c1.5.55,3.11,1.26,3.83,2.68a6.11,6.11,0,0,1,.41,3.23A8.19,8.19,0,0,1,54,97.21c-1.69,2.12-4.77,2.27-7.4,2.94a33.12,33.12,0,0,0-5.86,2.33c-6.15,2.94-12.3,5.87-18.34,9a2,2,0,0,1-2.17-.54,13.35,13.35,0,0,1-3.79-6.23,26.82,26.82,0,0,1-1-7.3c-2.36,0-4.28-.11-6.64-.1A7,7,0,0,1,6.27,97c-1.58-.63-2.45-2.33-3.17-3.88C1.88,90.4.44,87.4.65,84.41Z"/><path class="cls-4" d="M43.57,93.17a12.24,12.24,0,0,0-5.45-.81,18.09,18.09,0,0,0-3.37.25,25.83,25.83,0,0,0-4.94,1.86,31.35,31.35,0,0,1-12.43,2.44"/><path class="cls-3" d="M53.15,36a9.15,9.15,0,0,1-4.54,2.27c-1.68.38-3.4.54-5.06.91-2.07.45-4.33,1.55-4.8,3.61a12.26,12.26,0,0,0-.06,2.5,2.82,2.82,0,0,1-.87,2.25,3.57,3.57,0,0,1-1.08.51A18,18,0,0,0,25.21,64.61a8.15,8.15,0,0,1-4-5.85c0,2.23-1.89,4.51-.83,6.48a10.23,10.23,0,0,1-3-14.15,8.15,8.15,0,0,1,.55-.76c.85-1.08,1.89-2,2.81-3a14,14,0,0,0,3.31-10.66c-.18-1.63-.66-3.27-.32-4.86.5-2.22,2.45-3.76,4.3-5.06a24.1,24.1,0,0,1,4.15-2.53,19.91,19.91,0,0,1,6.09-1.49c4.63-.52,8.74.2,11.6,4.11a8.57,8.57,0,0,0,2.2,2.29,8.81,8.81,0,0,1,1.79,1.15C55.34,31.89,54.51,34.59,53.15,36Z"/></g></g></svg>