<svg xmlns="http://www.w3.org/2000/svg" viewBox="0 0 161.32 116.48"><defs><style>.cls-1{fill:#3d3a57;}.cls-2{fill:#2d2c42;}.cls-3{fill:#f7c6c5;}.cls-4{fill:#545589;}.cls-5{fill:#060000;opacity:0.4;isolation:isolate;}.cls-6{fill:#fbc700;}.cls-7{fill:#f8f9f9;}.cls-8{fill:#edeeed;}</style></defs><title>Asset 22</title><g id="Layer_2" data-name="Layer 2"><g id="Layer_6" data-name="Layer 6"><ellipse class="cls-1" cx="127.36" cy="113.42" rx="20.01" ry="3.07"/><path class="cls-2" d="M129,41.93a6.61,6.61,0,0,0-5-3s-3.27-.42-5.37,4c-2,4.06-4.65,8-.43,8.94l.76-2.37.47,2.55c.6,0,1.21,0,1.81,0,4.51-.15,8.82,0,8.68-1.58C129.69,48.3,130.64,44.69,129,41.93Z"/><path class="cls-3" d="M122.9,47.33s2.19,3.06.88,5.55S126.85,58,126.85,58l3.21-7s-3.8-2.49-2.77-4.82Z"/><circle class="cls-3" cx="124.36" cy="44.84" r="3.8"/><path class="cls-3" d="M111.22,49.23l3.18-4.09s1.11-4.29,2.73-4.08-.64,5.15-.64,5.15l-3.15,4.53Z"/><polygon class="cls-3" points="127.28 103.7 128.31 109.11 130.5 109.69 129.91 103.27 127.28 103.7"/><polygon class="cls-3" points="149.34 97.86 153.28 103.27 154.89 104 156.21 101.81 152.26 96.69 149.34 97.86"/><path class="cls-4" d="M126.41,55.65,124,52.44s-4.72.87-5.16,1.31S120,62.22,120,62.22a6.19,6.19,0,0,0,1.61,3.36l1.31.88,10.81-2.19.41-4.81a12.61,12.61,0,0,0-3.33-9.65h0l-1.88.26Z"/><path class="cls-4" d="M119.4,54l-.73-.29-3.36-.29s-1.17-.29-.88-.88.59-.73,0-.87-.73-.3-.58-.73a5.67,5.67,0,0,1,1-1.32l-2.48-2a3.57,3.57,0,0,0-.35.27c-1.24,1-5.14,4.6-2.28,8.2,3.36,4.23,7.3,6.72,10.51,5.84Z"/><path class="cls-2" d="M122.61,65.73v2a8.56,8.56,0,0,0-.87,4.82c.43,2.34.58,3.51.58,3.51a20,20,0,0,0,1,5.84c1,2.92-2.34,22.06,1.9,22.35s6.57.58,7.89-.88-2.19-26.58-2.19-26.58,12,25,14.46,24,8.76-3.36,8-4.67S134.3,65.58,134.3,65.58l-.59-1.31Z"/><path class="cls-2" d="M129.62,108.09s-2.33-.15-2.33.58a15.26,15.26,0,0,1-1.17,3.21s-.88,2.92,1.46,2.63,3.79-2.92,3.79-2.92l-.58-2.77Z"/><path class="cls-2" d="M154,103s-2-1.31-1.89-.43.29,3.21,1.31,3.35a16.54,16.54,0,0,1,4.24,1.32c.14.29,3.65,1.46,3.65-.44s-2.19-3.36-2.19-3.36l-2.49-1.9s-1.6-.14-1.9.88S154,103,154,103Z"/><circle class="cls-2" cx="124.37" cy="38.95" r="2.43"/><path class="cls-2" d="M121.69,38.31a2.43,2.43,0,0,1,2.17-2.41l-.26,0a2.43,2.43,0,0,0,0,4.85h.26A2.43,2.43,0,0,1,121.69,38.31Z"/><polygon class="cls-2" points="128.26 41.66 124.95 39.92 120.37 40.63 119.42 44.81 121.78 44.72 122.44 43.18 122.44 44.69 123.53 44.65 124.16 42.21 124.55 44.81 128.42 44.73 128.26 41.66"/><path class="cls-3" d="M128.06,66.07l-5.11.14s-4.36.84-4.12-.92,4.5-1.14,4.5-1.14l4.66-.71Z"/><path class="cls-4" d="M132.1,49.56a1.11,1.11,0,0,1,1.21.75c1,3.15,4.08,13.7,1,15.15a15.2,15.2,0,0,1-6.24,1.63l-1.41-3.47,1.28-1.2,1.37-8.81.66-3.73Z"/><polygon class="cls-5" points="131.16 55.43 130.57 61.27 125.46 63.47 131.16 62.15 131.16 55.43"/><path class="cls-1" d="M103.59,36.14h0a6.87,6.87,0,0,1,4,2.91l.48.74,0,0,8.39,2.45a.61.61,0,0,1,.41.75l-.65,2.38a.61.61,0,0,1-.75.43h0l-8.39-2.34h0l-.84.31a7.5,7.5,0,0,1-4.84.17h0Z"/><ellipse class="cls-4" cx="111.49" cy="42.79" rx="0.51" ry="0.96" transform="translate(39.11 137.78) rotate(-73.69)"/><circle class="cls-1" cx="111.99" cy="42.96" r="0.35"/><ellipse class="cls-6" cx="102.52" cy="40.09" rx="4.1" ry="1.86" transform="translate(32.76 125.25) rotate(-72.03)"/><path class="cls-5" d="M104,40.59c.67-2.08.49-4-.4-4.44l.16,0c1,.31,1.2,2.32.5,4.47s-2.06,3.65-3,3.33l-.11,0C102.11,44.07,103.36,42.63,104,40.59Z"/><path class="cls-6" d="M103.7,36.15l-19-14.75A126.33,126.33,0,0,1,75,13,48.5,48.5,0,0,0,53.65,1.51c-20.82-5.34-37.32,4.14-44.82,18C-2.64,40.83-11.42,75.34,39.41,57c11.12-4,22.37-4.44,30.91-6.56L101.21,44Z"/><circle class="cls-7" cx="46.59" cy="10.3" r="1.02"/><polygon class="cls-7" points="66.45 12.66 66.18 12.66 66.18 12.4 66.13 12.4 66.13 12.66 65.86 12.66 65.86 12.71 66.13 12.71 66.13 12.98 66.18 12.98 66.18 12.71 66.45 12.71 66.45 12.66"/><polygon class="cls-7" points="93.18 34.86 92.91 34.86 92.91 34.6 92.86 34.6 92.86 34.86 92.59 34.86 92.59 34.91 92.86 34.91 92.86 35.18 92.91 35.18 92.91 34.91 93.18 34.91 93.18 34.86"/><polygon class="cls-7" points="91.28 41.73 91.01 41.73 91.01 41.46 90.96 41.46 90.96 41.73 90.69 41.73 90.69 41.78 90.96 41.78 90.96 42.05 91.01 42.05 91.01 41.78 91.28 41.78 91.28 41.73"/><polygon class="cls-7" points="9.63 47.57 9.37 47.57 9.37 47.3 9.31 47.3 9.31 47.57 9.05 47.57 9.05 47.62 9.31 47.62 9.31 47.89 9.37 47.89 9.37 47.62 9.63 47.62 9.63 47.57"/><polygon class="cls-7" points="21.32 15.73 21.05 15.73 21.05 15.46 21 15.46 21 15.73 20.73 15.73 20.73 15.78 21 15.78 21 16.05 21.05 16.05 21.05 15.78 21.32 15.78 21.32 15.73"/><polygon class="cls-7" points="66.74 42.9 66.47 42.9 66.47 42.63 66.42 42.63 66.42 42.9 66.16 42.9 66.16 42.95 66.42 42.95 66.42 43.22 66.47 43.22 66.47 42.95 66.74 42.95 66.74 42.9"/><polygon class="cls-7" points="38.84 6.38 38.58 6.38 38.58 6.12 38.53 6.12 38.53 6.38 38.26 6.38 38.26 6.43 38.53 6.43 38.53 6.7 38.58 6.7 38.58 6.43 38.84 6.43 38.84 6.38"/><path class="cls-8" d="M39,27.41l-.34.05c.11.67.19,1.34.25,2l.33,0C39.13,28.77,39.05,28.08,39,27.41Z"/><path class="cls-8" d="M38,23.42l-.32.1c.19.64.37,1.3.51,1.95l.33-.07C38.41,24.74,38.24,24.07,38,23.42Z"/><path class="cls-8" d="M36.59,19.59l-.3.14c.28.61.54,1.24.78,1.87l.31-.12C37.14,20.84,36.88,20.21,36.59,19.59Z"/><path class="cls-8" d="M34.63,16l-.28.18c.36.56.71,1.15,1,1.74l.29-.16C35.35,17.16,35,16.57,34.63,16Z"/><path class="cls-8" d="M32.2,12.71l-.25.22c.43.51.85,1,1.25,1.58l.27-.2C33.07,13.76,32.64,13.22,32.2,12.71Z"/><path class="cls-8" d="M29.34,9.78l-.22.25c.5.45,1,.92,1.46,1.4l.24-.24C30.35,10.71,29.85,10.23,29.34,9.78Z"/><path class="cls-8" d="M26.11,7.26l-.19.28c.56.38,1.11.78,1.64,1.19l.21-.27C27.23,8.05,26.67,7.64,26.11,7.26Z"/><path class="cls-8" d="M23.17,5.52V5.9c.35.18.7.37,1,.56l.17-.29C24,6,23.58,5.73,23.17,5.52Z"/><path class="cls-8" d="M39,31.55h.33c0,.34,0,.68,0,1H39C39,32.22,39,31.88,39,31.55Z"/><path class="cls-8" d="M19.23,56.18l-.33.06c.1.66.18,1.34.24,2l.34,0C19.42,57.54,19.33,56.86,19.23,56.18Z"/><path class="cls-8" d="M18.32,52.19l-.32.1c.19.64.37,1.3.52,2l.32-.08C18.69,53.51,18.52,52.84,18.32,52.19Z"/><path class="cls-8" d="M16.87,48.36l-.3.14c.28.61.54,1.24.78,1.87l.31-.12C17.42,49.62,17.16,49,16.87,48.36Z"/><path class="cls-8" d="M14.92,44.77l-.29.18c.36.57.71,1.16,1,1.74l.3-.16C15.63,45.94,15.28,45.34,14.92,44.77Z"/><path class="cls-8" d="M12.48,41.48l-.25.22c.43.51.86,1,1.26,1.58l.27-.2C13.35,42.54,12.92,42,12.48,41.48Z"/><path class="cls-8" d="M9.62,38.55l-.22.25c.5.45,1,.92,1.46,1.4L11.1,40C10.63,39.48,10.13,39,9.62,38.55Z"/><path class="cls-8" d="M6.39,36l-.19.27c.56.38,1.11.78,1.64,1.19l.21-.26C7.51,36.82,7,36.42,6.39,36Z"/><path class="cls-8" d="M3.45,34.29v.38c.35.18.7.37,1,.57L4.65,35Q4.06,34.6,3.45,34.29Z"/><path class="cls-8" d="M19.25,60.32h.34v1h-.34C19.26,61,19.26,60.65,19.25,60.32Z"/><path class="cls-8" d="M86.71,41.72l-.33.06c.1.66.18,1.34.24,2l.34,0C86.9,43.08,86.81,42.4,86.71,41.72Z"/><path class="cls-8" d="M85.8,37.73l-.32.1c.19.64.37,1.3.51,2l.33-.08C86.17,39.05,86,38.38,85.8,37.73Z"/><path class="cls-8" d="M84.35,33.9l-.3.14c.28.61.54,1.24.78,1.87l.31-.12C84.9,35.16,84.64,34.52,84.35,33.9Z"/><path class="cls-8" d="M82.4,30.31l-.29.18c.36.57.71,1.16,1,1.74l.3-.16C83.11,31.48,82.76,30.88,82.4,30.31Z"/><path class="cls-8" d="M80,27l-.25.22c.43.51.86,1,1.26,1.59l.26-.21C80.83,28.08,80.4,27.54,80,27Z"/><path class="cls-8" d="M77.1,24.09l-.22.25c.5.45,1,.92,1.46,1.4l.24-.23C78.11,25,77.61,24.54,77.1,24.09Z"/><path class="cls-8" d="M73.87,21.58l-.19.27c.56.38,1.11.78,1.64,1.19l.21-.26C75,22.36,74.44,22,73.87,21.58Z"/><path class="cls-8" d="M70.93,19.83v.38c.35.18.7.37,1,.57l.16-.29Q71.54,20.15,70.93,19.83Z"/><path class="cls-8" d="M86.73,45.86h.34v1h-.34C86.74,46.53,86.74,46.19,86.73,45.86Z"/><polygon class="cls-7" points="21.81 29.2 21.56 29.2 21.56 28.95 21.51 28.95 21.51 29.2 21.26 29.2 21.26 29.25 21.51 29.25 21.51 29.49 21.56 29.49 21.56 29.25 21.81 29.25 21.81 29.2"/><polygon class="cls-7" points="18.95 44.15 18.7 44.15 18.7 43.9 18.66 43.9 18.66 44.15 18.41 44.15 18.41 44.2 18.66 44.2 18.66 44.44 18.7 44.44 18.7 44.2 18.95 44.2 18.95 44.15"/><polygon class="cls-7" points="10.58 57.25 10.33 57.25 10.33 57 10.28 57 10.28 57.25 10.03 57.25 10.03 57.3 10.28 57.3 10.28 57.55 10.33 57.55 10.33 57.3 10.58 57.3 10.58 57.25"/><path class="cls-1" d="M33.87,40.63a18,18,0,1,1,8.33,6.68,5.8,5.8,0,1,1-8.33-6.68Z"/><path class="cls-6" d="M48.66,20.37c4.11,0,6.94,2.28,6.94,5.56,0,2.17-1.06,3.67-3.08,4.86S50,32.71,50,34.12h0a.86.86,0,0,1-.87.86H47a.86.86,0,0,1-.86-.83V34a4.57,4.57,0,0,1,2.59-4.82c1.85-1.11,2.63-1.81,2.63-3.17s-1.31-2.36-3-2.36a2.8,2.8,0,0,0-2.67,1.59A2,2,0,0,1,44,26.39h0a1.9,1.9,0,0,1-1.7-2.78C43.3,21.62,45.53,20.37,48.66,20.37ZM45.77,39.16a2.36,2.36,0,1,1,2.35,2.26A2.3,2.3,0,0,1,45.77,39.16Z"/></g></g></svg>