<svg xmlns="http://www.w3.org/2000/svg" viewBox="0 0 62 149.2"><defs><style>.cls-1{fill:#2d2c42;}.cls-2{fill:#3d3a57;}.cls-3{fill:#060000;opacity:0.1;isolation:isolate;}.cls-4{fill:#a86167;}.cls-5{fill:#645ea8;}</style></defs><title>Asset 10</title><g id="Layer_2" data-name="Layer 2"><g id="Layer_6" data-name="Layer 6"><ellipse class="cls-1" cx="48.39" cy="33.02" rx="13.6" ry="16.61"/><path class="cls-2" d="M37,139l-7.84.78s-2.62,4.71-7.33,4.71-3.14,5.23,3.66,4.71,14.13-2.36,14.39-2.88S39.11,138.7,37,139Z"/><path class="cls-3" d="M37,139l-7.84.78s-2.62,4.71-7.33,4.71-3.14,5.23,3.66,4.71,14.13-2.36,14.39-2.88S39.11,138.7,37,139Z"/><path class="cls-2" d="M26,93.19s8.89,1.31,12.29,5.49,1-16,1-16l-1-9.15-7.06.52L25.5,85.86Z"/><path class="cls-3" d="M26,93.19s8.89,1.31,12.29,5.49,1-16,1-16l-1-9.15-7.06.52L25.5,85.86Z"/><path class="cls-4" d="M55.33,40.87s4.18-11.51,0-11.77-3.67,11.25-3.67,11.25Z"/><path class="cls-5" d="M1.31,2.29h8.5a.65.65,0,0,1,.65.65h0V6.6a.66.66,0,0,1-.65.66H1.31v-5Z"/><path class="cls-1" d="M.69,2.29H9.28a.65.65,0,0,1,.66.65h0V6.6a.66.66,0,0,1-.66.66H.69A.69.69,0,0,1,0,6.56H0V3a.69.69,0,0,1,.69-.69Z"/><circle class="cls-5" cx="7.85" cy="4.64" r="0.52"/><path class="cls-4" d="M7.19,8.17S.65-4.38.13,1.63s3.4,11,3.4,11Z"/><path class="cls-2" d="M45.26,38.28s5.75.37,6.27,3.51S47.35,54.6,47.35,54.6l-6.28-.52-.79-6.28Z"/><path class="cls-4" d="M38.06,29.1s2.09,10.72-4.71,6.28S36,43.22,36,43.22s7.32,1.84,9.68-.52-3.53-2.75-.26-12C48.9,20.69,38.06,29.1,38.06,29.1Z"/><path class="cls-3" d="M38.06,29.1s2.09,10.72-4.71,6.28S36,43.22,36,43.22s7.32,1.84,9.68-.52-3.53-2.75-.26-12C48.9,20.69,38.06,29.1,38.06,29.1Z"/><path class="cls-1" d="M14.91,65.85s5.89,42.77,7.72,45.39,8.11,26.16,8.11,26.16l6.8-2.36a30.81,30.81,0,0,1-.26-8.63c.52-4.71-3.93-17.27-3.93-17.27L26.81,70.43Z"/><path class="cls-3" d="M14.91,65.85s5.89,42.77,7.72,45.39,8.11,26.16,8.11,26.16l6.8-2.36a30.81,30.81,0,0,1-.26-8.63c.52-4.71-3.93-17.27-3.93-17.27L26.81,70.43Z"/><path class="cls-1" d="M13.47,63.89l5.76,16.48s-12,21.71-2.1,28.77c0,0,11.51,12.56,12.56,23.55,0,0,6-.53,6.8-5.23,0,0-5.49-12-5.75-16.22s-6.28-9.16-6.28-9.16S36,83.51,38.58,80.37,41.46,65.2,34.92,65.2,13.47,63.89,13.47,63.89Z"/><path class="cls-2" d="M36,127.46s-4.45,5.49-5.76,4.7c0,0-1,11.25-3.4,14.39s5,2.88,7.59,0S42,132.69,42,131.38,37.54,126.67,36,127.46Z"/><circle class="cls-4" cx="42.51" cy="26.48" r="7.06"/><path class="cls-5" d="M34.92,34.85s.26,4.45,4.19,5.5a8.5,8.5,0,0,0,7.06-1.57l1,2.09-3.4,8.37-6.28,20.4S19,72.26,17.4,67.81s2.61-17,2.61-17l6-8.63,2.35-5.76L31,33.55Z"/><path class="cls-2" d="M36.49,35.9s-4.05-4-6.67-4A9,9,0,0,1,25,30.15,130,130,0,0,0,11.12,57.87C5.89,73.05-1.44,77.75,2.22,81.42s9.42,2.87,11.77,6.8,2.36,3.4,3.93-2.62S17.66,63.11,25.24,56,36.49,35.9,36.49,35.9Z"/><path class="cls-2" d="M25.77,30.93S15.3,21.51,14,17.59,7.72,6.34,6.67,7.39s-6.8,3.4-5.49,5.23S5.62,16.8,7.46,23.34,22.1,38.25,22.1,38.25Z"/><path class="cls-2" d="M44.86,38.25s-4.44.27-7.06,14.13-2.35,46.3,0,48.92c0,0,2.35,2.87,2.62-2.36s4.18-29.56,3.13-35.83,1.31-19.89,4.71-22.24S44.86,38.25,44.86,38.25Z"/><path class="cls-2" d="M42.51,49.76s8.63,3.93,8.37,6.81-.52,8.63-11.25-.79Z"/><path class="cls-2" d="M45.65,49.76S42,58.4,46.69,60s6-7.33,6-7.33,3.66-9.94,3.4-12-5.49-2.36-6-1S45.65,49.76,45.65,49.76Z"/><ellipse class="cls-1" cx="48.39" cy="33.68" rx="3.14" ry="11.51"/><ellipse class="cls-1" cx="46.04" cy="20.73" rx="9.42" ry="4.58"/><path class="cls-3" d="M46.82,24.78c-5.2,0-9.41-2.05-9.41-4.58a3.14,3.14,0,0,1,1.43-2.42c-1.38.79-2.22,1.82-2.22,2.95,0,2.53,4.22,4.58,9.42,4.58C49.41,25.31,49.71,24.78,46.82,24.78Z"/></g></g></svg>