<svg xmlns="http://www.w3.org/2000/svg" viewBox="0 0 220.76 140.44"><defs><style>.cls-1{fill:#eb5f3d;}.cls-2{fill:#f8f9f9;}.cls-3{fill:#060000;opacity:0.1;isolation:isolate;}</style></defs><title>Asset 27</title><g id="Layer_2" data-name="Layer 2"><g id="Layer_6" data-name="Layer 6"><circle class="cls-1" cx="90.27" cy="29.46" r="26.68"/><polygon class="cls-2" points="211.87 140.44 0 140.44 26.21 112.02 74.64 55.22 77.91 51.39 121.72 0 152.03 48.01 152.82 49.27 191.39 110.34 211.87 140.44"/><polygon class="cls-3" points="152.03 48.01 147.4 56.14 137.03 45.27 125.67 56.14 119.25 43.79 108.87 56.14 105.91 48.24 98.99 56.14 86.64 48.24 77.91 51.39 121.72 0 152.03 48.01"/><path class="cls-2" d="M217.37,38.23a17.67,17.67,0,0,0-29.08,6.28L220.76,43A17.78,17.78,0,0,0,217.37,38.23Z"/></g></g></svg>