<svg xmlns="http://www.w3.org/2000/svg" xmlns:xlink="http://www.w3.org/1999/xlink" viewBox="0 0 159.51 75.64"><defs><style>.cls-1,.cls-8{fill:#645ea8;}.cls-1,.cls-4,.cls-9{opacity:0.1;}.cls-1,.cls-4{isolation:isolate;}.cls-2{opacity:0.7;}.cls-3{fill:#675f7e;}.cls-10,.cls-4{fill:#060000;}.cls-5{fill:#3d3a57;}.cls-6{fill:url(#linear-gradient);}.cls-7{fill:#f7c6c5;}</style><linearGradient id="linear-gradient" x1="157.61" y1="53.89" x2="157.61" y2="126.96" gradientTransform="matrix(1, 0, 0, -1, -28, 126.96)" gradientUnits="userSpaceOnUse"><stop offset="0" stop-color="#868581" stop-opacity="0.25"/><stop offset="0.54" stop-color="#868581" stop-opacity="0.12"/><stop offset="1" stop-color="#868581" stop-opacity="0.1"/></linearGradient></defs><title>Asset 23</title><g id="Layer_2" data-name="Layer 2"><g id="Layer_6" data-name="Layer 6"><ellipse class="cls-1" cx="59.29" cy="49.24" rx="59.29" ry="1.59"/><g class="cls-2"><rect class="cls-3" x="18.3" y="37.52" width="18.91" height="10.44"/><rect class="cls-4" x="24.96" y="39.33" width="5.75" height="1.21"/><rect class="cls-4" x="25.68" y="39.49" width="4.31" height="0.91"/><rect class="cls-3" x="37.51" y="37.52" width="18.91" height="10.44"/><rect class="cls-4" x="44.17" y="39.33" width="5.75" height="1.21"/><rect class="cls-4" x="44.89" y="39.49" width="4.31" height="0.91"/><rect class="cls-3" x="18.3" y="26.78" width="18.91" height="10.44"/><rect class="cls-4" x="24.96" y="28.6" width="5.75" height="1.21"/><rect class="cls-4" x="25.68" y="28.75" width="4.31" height="0.91"/><rect class="cls-3" x="37.51" y="26.78" width="18.91" height="10.44"/><rect class="cls-4" x="44.17" y="28.6" width="5.75" height="1.21"/><rect class="cls-4" x="44.89" y="28.75" width="4.31" height="0.91"/><rect class="cls-3" x="18.3" y="15.89" width="18.91" height="10.44"/><rect class="cls-4" x="24.96" y="17.7" width="5.75" height="1.21"/><rect class="cls-4" x="25.68" y="17.86" width="4.31" height="0.91"/><rect class="cls-3" x="37.51" y="15.89" width="18.91" height="10.44"/><rect class="cls-4" x="44.17" y="17.7" width="5.75" height="1.21"/><rect class="cls-4" x="44.89" y="17.86" width="4.31" height="0.91"/><rect class="cls-3" x="37.51" y="5" width="18.91" height="10.44"/><rect class="cls-4" x="44.17" y="6.81" width="5.75" height="1.21"/><rect class="cls-4" x="44.89" y="6.96" width="4.31" height="0.91"/></g><g class="cls-2"><rect class="cls-3" x="56.72" y="37.37" width="18.91" height="10.44"/><rect class="cls-4" x="63.38" y="39.18" width="5.75" height="1.21"/><rect class="cls-4" x="64.1" y="39.33" width="4.31" height="0.91"/><rect class="cls-3" x="75.93" y="37.37" width="18.91" height="10.44"/><rect class="cls-4" x="82.59" y="39.18" width="5.75" height="1.21"/><rect class="cls-4" x="83.31" y="39.33" width="4.31" height="0.91"/><rect class="cls-3" x="56.72" y="26.63" width="18.91" height="10.44"/><rect class="cls-4" x="63.38" y="28.44" width="5.75" height="1.21"/><rect class="cls-4" x="64.1" y="28.6" width="4.31" height="0.91"/><rect class="cls-3" x="75.93" y="26.63" width="18.91" height="10.44"/><rect class="cls-4" x="82.59" y="28.44" width="5.75" height="1.21"/><rect class="cls-4" x="83.31" y="28.6" width="4.31" height="0.91"/><rect class="cls-3" x="56.72" y="15.74" width="18.91" height="10.44"/><rect class="cls-4" x="63.38" y="17.55" width="5.75" height="1.21"/><rect class="cls-4" x="64.1" y="17.7" width="4.31" height="0.91"/><rect class="cls-3" x="75.93" y="15.74" width="18.91" height="10.44"/><rect class="cls-4" x="82.59" y="17.55" width="5.75" height="1.21"/><rect class="cls-4" x="83.31" y="17.7" width="4.31" height="0.91"/><rect class="cls-3" x="75.93" y="4.85" width="18.91" height="10.44"/><rect class="cls-4" x="82.59" y="6.66" width="5.75" height="1.21"/><rect class="cls-4" x="83.31" y="6.81" width="4.31" height="0.91"/></g><path class="cls-5" d="M105.33,28.86a.66.66,0,0,0-.37-.54.71.71,0,0,0-.93.37v0l-3.36,7.07-.75,27.83h1.21l.45-27.77,3.7-6.54A.67.67,0,0,0,105.33,28.86Z"/><path class="cls-1" d="M159.51,69.9a21.14,21.14,0,0,1-3.18,2.31l-.06.07a.88.88,0,0,1-.42.21h0a24.82,24.82,0,0,1-12.26,3.15H60.42c-9.53-1-15.34-2.28-15.34-3.7,0-1.11,3.49-2.14,9.5-3,.62-.09,1.27-.18,2-.26l1.28-.16.74-.08,1.69-.19h0l.61-.06L62.45,68l.39,0,1-.09,2-.16,1.7-.13c5.82-.44,12.52-.76,19.82-1l2.09-.07.7,0,1.48,0h1.66l2.09,0h1.29q3.81,0,7.75,0c5.2,0,10.25.06,15,.18h0c2.76.07,5.44.15,8,.26h0c7.47.29,14.16.72,19.69,1.26h.1c1.42.14,2.77.28,4,.44s2.3.29,3.33.44l1,.16.09,0C157.19,69.41,158.45,69.64,159.51,69.9Z"/><path class="cls-6" d="M156.33,72.21l-.06.07a.88.88,0,0,1-.42.21h0a3.69,3.69,0,0,1-.94.15h-.09a4.87,4.87,0,0,1-.54,0l-.4,0h0a3,3,0,0,0-.57.14,5.31,5.31,0,0,1-1.25.18h-.15c-.48,0-1,0-1.44,0h-.23c-.82,0-1.63.15-2.44.16h-.27a3.87,3.87,0,0,1-2.25-.67,1,1,0,0,1-.3-.34.9.9,0,0,1-.06-.46,1.06,1.06,0,0,1,.28-.75,1.15,1.15,0,0,1,.43-.21l.83-.26.9-.27,0,0,.17,0,.11,0a1.73,1.73,0,0,0,.37-.16,1.29,1.29,0,0,0,.38-.39.22.22,0,0,0,.05-.08s0-.05,0-.07a5.21,5.21,0,0,0-.08-.57,2.37,2.37,0,0,1-1.12-.63,3.71,3.71,0,0,1-.65-.88,19.1,19.1,0,0,1-.85-2.26,20.37,20.37,0,0,0-1.69-3.24c-.58-1-1.16-1.93-1.82-2.85-.43-.6-.9-1.18-1.34-1.78a15.94,15.94,0,0,1-2.58-5.65A7.38,7.38,0,0,0,138,50.3a11.38,11.38,0,0,0-1.11-1.74,5.77,5.77,0,0,1-.8-2.05c-.07-.41-.2-.86-.61-.91h0l-.05.09a19.76,19.76,0,0,1-3,4.72,4.92,4.92,0,0,0-.57.64c-.13.23-.25.46-.36.7a4.55,4.55,0,0,1-.8,1.18,2.69,2.69,0,0,1-.32.27,1.8,1.8,0,0,1-.5.25h0l-.21,0a129390076258.29,129390076258.29,0,0,1,0,.12,7.19,7.19,0,0,1-.28,3.62.42.42,0,0,1,0,.1c-.06.17-.13.34-.2.5-.18.4-.4.79-.58,1.19a1.8,1.8,0,0,1-.08.21A17.1,17.1,0,0,0,128,64.4a5.38,5.38,0,0,1-.14,1.13c-.1.42-.26.86-.35,1.29a2.07,2.07,0,0,0,0,1h0l-.49.17v0c.06.34.11.68.17,1a1.52,1.52,0,0,0,.31.81.75.75,0,0,1,.16.15c.12.19,0,.44,0,.66s.33.58.28.89a.57.57,0,0,1-.35.42,1.13,1.13,0,0,1-.24.08h0l-.27,0a12.35,12.35,0,0,1-3.38,0c-.22,0-.44-.09-.67-.11a4.73,4.73,0,0,0-.84,0,43.34,43.34,0,0,1-6.24.12,1.71,1.71,0,0,1-1.44-.58,1.68,1.68,0,0,1,0-1.32,1.25,1.25,0,0,1,.18-.45l0,0a1.52,1.52,0,0,1,1.26-.36l1.47,0a1.26,1.26,0,0,0,.43,0,5.93,5.93,0,0,0,.65-.36c.28-.14.63-.16.83-.39l0,0,.1-.15s0,0,0,0h0l0,0a2.33,2.33,0,0,1,.77-.48l.12-.08,0,0a2.89,2.89,0,0,1-.74-.74.75.75,0,0,1-.16-.29.43.43,0,0,1,0-.25l0,0v0c.1-.2.31-.39.43-.59,0,0,0,0,0,0a.94.94,0,0,0,0-1c.12-2,.67-3.93.79-5.93,0-.79,0-1.59.07-2.38s.12-1.56.21-2.34a35.55,35.55,0,0,0,.61-5.31,4.1,4.1,0,0,1,0-.5v0a3.23,3.23,0,0,1,.34-1,7.8,7.8,0,0,1,.74-1c.93-1.21,2-2.42,2.38-3.91A8.46,8.46,0,0,1,126,40.2a3.66,3.66,0,0,1,.81-1.13,3.3,3.3,0,0,0,.53-.46,4.3,4.3,0,0,0,.41-1.14c.07-.2.19-.38.25-.58,0,0,0,0,0-.07a4.21,4.21,0,0,0,0-.62,1.1,1.1,0,0,1,0-.18h0a6.17,6.17,0,0,1,.52-1.73l.09-.21a6.38,6.38,0,0,1-1.82-1.57,4.3,4.3,0,0,1-.44-.67,8.3,8.3,0,0,1-.53-2c-.35-1.61-1.15-3.13-1.26-4.79a5.41,5.41,0,0,0-.18-1.5,2.48,2.48,0,0,0-.17-.37l-.08-.15,0-.06-.08-.15-.12.1a90.72,90.72,0,0,1-9.73,6.64l-.29.17a1,1,0,0,0-.38.32l0,.05h0c-.07.15-.09.31-.16.46a1.2,1.2,0,0,1-.84.67,2.6,2.6,0,0,1-1.91-.25,1.55,1.55,0,0,1-.22-.12,2.78,2.78,0,0,1-.56.24,6.83,6.83,0,0,1-1.86.17,5.51,5.51,0,0,0-1.86.2,4.45,4.45,0,0,1-1.19.38h-.14a2.23,2.23,0,0,1-.68-.2l-.12-.06-.19-.1a.86.86,0,0,1-.18-.14.66.66,0,0,1-.17-.29.49.49,0,0,1,0-.24.11.11,0,0,1,0-.09.13.13,0,0,1,.09,0,2.19,2.19,0,0,1,.51,0l.31,0h.05a.7.7,0,0,0,.46-.26.21.21,0,0,0,0-.07h0a.32.32,0,0,0,0-.14v0l-.19-.09-.09-.06h0L104.5,30a.61.61,0,0,1-.07-.1.51.51,0,0,1-.09-.18h0a.7.7,0,0,0-.38,0c-.17,0-.33.14-.5.17a.39.39,0,0,1-.24,0c-.24-.08-.32-.37-.37-.62l0-.14h0a.66.66,0,0,1,0-.28,1,1,0,0,1,.4-.52l.49-.42,0,0s0-.08,0-.12a.66.66,0,0,1,0-.28,1.06,1.06,0,0,1,.39-.52l1.1-.92a1.28,1.28,0,0,1,.7-.38c.4,0,.72.31,1,.57a2.31,2.31,0,0,0,1.33.64,1.91,1.91,0,0,0,.71-.1l.13,0a.89.89,0,0,1-.08-.17,2.39,2.39,0,0,1-.13-.28,3,3,0,0,0,1.71-.81c.49-.43.91-.93,1.41-1.35s1.14-.79,1.68-1.22c1.25-1,2.09-2.52,3.43-3.41a4.51,4.51,0,0,0,1.32-1c.1-.15.18-.31.28-.46a4.65,4.65,0,0,1,1.33-1,7,7,0,0,0,1.22-1.22c.26-.32.53-.64.78-1s.42-.88.67-1.31a6.34,6.34,0,0,1,.71-1c.06-.12.13-.24.2-.36a2.16,2.16,0,0,1,.18-.3l.13-.2c-.13-.24-.27-.45-.33-.55l0,0a4.15,4.15,0,0,0-.43-.4,2.52,2.52,0,0,1-.46-.1,4.41,4.41,0,0,1-3.25-4.26h0a4.3,4.3,0,0,1,.48-2,2.12,2.12,0,0,1,.21-.36,1.21,1.21,0,0,1-.2-.09.73.73,0,0,1-.29-.23.61.61,0,0,1-.11-.29,1.41,1.41,0,0,1,.11-.73,2.33,2.33,0,0,1,.14-.33v0A4.21,4.21,0,0,1,123.35,0a6.45,6.45,0,0,1,4.29,1.71,5.92,5.92,0,0,1,1,1,6.16,6.16,0,0,1,1,3.15,4.61,4.61,0,0,1,0,1.05c0,.12-.05.25-.08.37s-.05.14-.07.21l-.07.15h0c0,.05,0,.09-.07.14l0,0,0,0,0,.09a.2.2,0,0,1,0,.08h0c.3,0,.58.07.89.09a2,2,0,0,1,.43.07,3,3,0,0,1,.79.49c.63.44,1.4.65,2,1.11a8,8,0,0,1,1.91,2.8c.73,1.34,1.91,2.48,2.43,3.92.24.65.47,1.31.71,2a31.52,31.52,0,0,0,1.56,3.75,54.55,54.55,0,0,1,2.77,4.94.82.82,0,0,0,.37.41,32.2,32.2,0,0,1,2.55,4.26,8.18,8.18,0,0,1,.87,2.47,6,6,0,0,1-.19,2.31,11.85,11.85,0,0,1-.44,1.31,2.6,2.6,0,0,0-.16.47v.05a4.41,4.41,0,0,0,.11.87,1.61,1.61,0,0,1-.07.69l0,.1a3,3,0,0,0-.24.55.2.2,0,0,0,0,.07,2.84,2.84,0,0,0,.15,1,13,13,0,0,1,.15,3.63,2.33,2.33,0,0,0,.86,1.54,15.87,15.87,0,0,1,1.92,2.79,9.09,9.09,0,0,1,.78,1.56,11.44,11.44,0,0,1,.42,1.93c.39,2,1.65,3.76,2,5.76a5.23,5.23,0,0,0,1.17,2.48,7.34,7.34,0,0,1,.51.6,3.43,3.43,0,0,1,.25.55,4.27,4.27,0,0,1,.2,1.38,2.16,2.16,0,0,0,0,.67c.14.47.65.72.86,1.16a5.55,5.55,0,0,1,.15,1.49,1.65,1.65,0,0,0,.61,1l-.38.3a1.62,1.62,0,0,1,.31.33,1.17,1.17,0,0,1,.15.27c.2.46.21,1,.37,1.51a1.09,1.09,0,0,1,.11.63.67.67,0,0,0,0,.19c0,.14.14.23.2.35A.36.36,0,0,1,156.33,72.21Z"/><path class="cls-7" d="M124.31,13.22a9.59,9.59,0,0,0,2.56-1.28l2.82-1.8a2.43,2.43,0,0,1-1.82-1.26,6.61,6.61,0,0,1-.69-2.18A11.29,11.29,0,0,0,124,8.82c-.39.33-1.21.84-1.33,1.36s.64.94.94,1.29C123.66,11.59,124.61,13.14,124.31,13.22Z"/><path class="cls-4" d="M124.31,13.22a9.59,9.59,0,0,0,2.56-1.28l2.82-1.8a2.43,2.43,0,0,1-1.82-1.26,6.61,6.61,0,0,1-.69-2.18A11.29,11.29,0,0,0,124,8.82c-.39.33-1.21.84-1.33,1.36s.64.94.94,1.29C123.66,11.59,124.61,13.14,124.31,13.22Z"/><path class="cls-7" d="M108.93,28a3.21,3.21,0,0,1-1.58.48,2.38,2.38,0,0,1-1.33-.64c-.3-.26-.61-.59-1-.56a1.33,1.33,0,0,0-.7.37l-1.09.92a1,1,0,0,0-.4.51,1,1,0,0,0,0,.43c.05.24.13.53.37.61s.49-.1.74-.16a.87.87,0,0,1,.86.25.56.56,0,0,1,.15.33c0,.27-.31.45-.58.47s-.55-.08-.82-.06a.12.12,0,0,0-.14.1h0a.56.56,0,0,0,.17.52,1.45,1.45,0,0,0,.5.31,2,2,0,0,0,.67.19,3.59,3.59,0,0,0,1.33-.37,5.78,5.78,0,0,1,1.86-.21,6.79,6.79,0,0,0,1.86-.16,2.15,2.15,0,0,0,1.41-1.15.32.32,0,0,0,0-.17.27.27,0,0,0-.13-.15c-.84-.63-1.18-1.39-2.13-1.84Z"/><path class="cls-4" d="M108.93,28a3.21,3.21,0,0,1-1.58.48,2.38,2.38,0,0,1-1.33-.64c-.3-.26-.61-.59-1-.56a1.33,1.33,0,0,0-.7.37l-1.09.92a1,1,0,0,0-.4.51,1,1,0,0,0,0,.43c.05.24.13.53.37.61s.49-.1.74-.16a.87.87,0,0,1,.86.25.56.56,0,0,1,.15.33c0,.27-.31.45-.58.47s-.55-.08-.82-.06a.12.12,0,0,0-.14.1h0a.56.56,0,0,0,.17.52,1.45,1.45,0,0,0,.5.31,2,2,0,0,0,.67.19,3.59,3.59,0,0,0,1.33-.37,5.78,5.78,0,0,1,1.86-.21,6.79,6.79,0,0,0,1.86-.16,2.15,2.15,0,0,0,1.41-1.15.32.32,0,0,0,0-.17.27.27,0,0,0-.13-.15c-.84-.63-1.18-1.39-2.13-1.84Z"/><path class="cls-8" d="M126.64,11.9a1.81,1.81,0,0,0-1.6-.19,3.36,3.36,0,0,0-1.37.92,6.12,6.12,0,0,0-1,1.28c-.25.46-.45.93-.71,1.38a13.77,13.77,0,0,1-1.64,2.23,6.35,6.35,0,0,1-1.22,1.21,4.78,4.78,0,0,0-1.33,1c-.1.14-.17.3-.27.44a4.58,4.58,0,0,1-1.32,1c-1.34.9-2.18,2.38-3.43,3.39-.54.44-1.15.78-1.68,1.22s-.91.91-1.4,1.34a3,3,0,0,1-1.72.81,8.86,8.86,0,0,0,1.68,2.64,3,3,0,0,0,2.85.93,1.21,1.21,0,0,0,.84-.66,3.2,3.2,0,0,1,.18-.52,1,1,0,0,1,.38-.31,91.25,91.25,0,0,0,11.52-8c1-.79,1.93-1.5,2.93-2.27a6.24,6.24,0,0,0,1-.86,3.3,3.3,0,0,0,.4-3.63,9.26,9.26,0,0,0-.92-1.24A10.48,10.48,0,0,0,126.64,11.9Z"/><path class="cls-4" d="M126.64,11.9a1.81,1.81,0,0,0-1.6-.19,3.36,3.36,0,0,0-1.37.92,6.12,6.12,0,0,0-1,1.28c-.25.46-.45.93-.71,1.38a13.77,13.77,0,0,1-1.64,2.23,6.35,6.35,0,0,1-1.22,1.21,4.78,4.78,0,0,0-1.33,1c-.1.14-.17.3-.27.44a4.58,4.58,0,0,1-1.32,1c-1.34.9-2.18,2.38-3.43,3.39-.54.44-1.15.78-1.68,1.22s-.91.91-1.4,1.34a3,3,0,0,1-1.72.81,8.86,8.86,0,0,0,1.68,2.64,3,3,0,0,0,2.85.93,1.21,1.21,0,0,0,.84-.66,3.2,3.2,0,0,1,.18-.52,1,1,0,0,1,.38-.31,91.25,91.25,0,0,0,11.52-8c1-.79,1.93-1.5,2.93-2.27a6.24,6.24,0,0,0,1-.86,3.3,3.3,0,0,0,.4-3.63,9.26,9.26,0,0,0-.92-1.24A10.48,10.48,0,0,0,126.64,11.9Z"/><path class="cls-5" d="M120.14,68a2.33,2.33,0,0,0-.77.48c-.06.08-.1.17-.17.25-.2.23-.56.24-.84.38a4,4,0,0,1-.64.36,1.26,1.26,0,0,1-.43,0l-1.47,0a1.48,1.48,0,0,0-1.29.39,1.52,1.52,0,0,0-.18.46,1.67,1.67,0,0,0,0,1.3,1.74,1.74,0,0,0,1.45.58,43.07,43.07,0,0,0,6.22-.12,4.73,4.73,0,0,1,.84,0c.23,0,.45.07.67.11a12.76,12.76,0,0,0,3.38,0,1.69,1.69,0,0,0,.55-.12.61.61,0,0,0,.36-.42c0-.31-.25-.58-.28-.89s.08-.47,0-.65a1.14,1.14,0,0,0-.15-.16,1.49,1.49,0,0,1-.31-.8l-.27-1.55a.47.47,0,0,0-.12-.3.64.64,0,0,0-.19-.08,9.93,9.93,0,0,0-3.48.13,10.62,10.62,0,0,1-1.78.09c-.26,0-.36-.05-.55.12A3.34,3.34,0,0,1,120.14,68Z"/><path class="cls-5" d="M148,69.88a2.43,2.43,0,0,1-.65.25l-1.77.54a1.19,1.19,0,0,0-.44.21,1.08,1.08,0,0,0-.27.76.75.75,0,0,0,.35.79,4,4,0,0,0,2.42.67c.85,0,1.69-.14,2.54-.17a12.08,12.08,0,0,0,3.07-.16,2.91,2.91,0,0,1,.58-.15,2.69,2.69,0,0,1,.4,0,4.37,4.37,0,0,0,1.57-.14,1,1,0,0,0,.42-.21.39.39,0,0,0,.11-.43c-.05-.12-.19-.21-.19-.35a.61.61,0,0,1,0-.18,1.07,1.07,0,0,0-.11-.63,6.39,6.39,0,0,0-.51-1.76,2.22,2.22,0,0,0-1.6-.8,4.65,4.65,0,0,0-1.49,0c-.55.12-1.07.37-1.61.53a5.3,5.3,0,0,1-1.94.18c-.43,0-.28,0-.43.39A1.26,1.26,0,0,1,148,69.88Z"/><circle class="cls-7" cx="123.81" cy="6.74" r="4.39"/><path class="cls-8" d="M155.61,68.31a7.78,7.78,0,0,1-5,1.7,4,4,0,0,1-2.19-.47c0-.24-.06-.51-.11-.76a2.75,2.75,0,0,1-1.76-1.51A18.69,18.69,0,0,1,145.7,65,19.05,19.05,0,0,0,144,61.81c-.58-1-1.16-1.92-1.82-2.82-.43-.61-.91-1.18-1.34-1.78a15.93,15.93,0,0,1-2.58-5.61,6.4,6.4,0,0,0-.31-1.14,12.52,12.52,0,0,0-1.1-1.72,5.54,5.54,0,0,1-.8-2c-.08-.41-.2-.86-.62-.9h0a19.81,19.81,0,0,1-3.06,4.77,5,5,0,0,0-.57.65,7.49,7.49,0,0,0-.36.69,4.5,4.5,0,0,1-.8,1.17,1.85,1.85,0,0,1-1,.56,7.12,7.12,0,0,1-.5,4.32c-.18.39-.4.78-.58,1.18-.7,1.66-.54,3.54-.61,5.35a6.11,6.11,0,0,1-.13,1.12,4.74,4.74,0,0,0-.38,2.26,11.88,11.88,0,0,1-6,.37,2.8,2.8,0,0,1-1.13-.34,3.16,3.16,0,0,1-.73-.73.66.66,0,0,1-.17-.29c-.08-.35.3-.61.48-.91a.92.92,0,0,0,0-1c.12-2,.66-3.91.79-5.9,0-.79,0-1.58.06-2.36s.12-1.56.21-2.33a35.16,35.16,0,0,0,.61-5.28,3.06,3.06,0,0,1,.37-1.57,8.62,8.62,0,0,1,.74-1A10.54,10.54,0,0,0,125,42.57a8.66,8.66,0,0,1,.92-2.15,3.66,3.66,0,0,1,.81-1.13,3.24,3.24,0,0,0,.53-.45,4.3,4.3,0,0,0,.41-1.14c.07-.2.19-.38.24-.58a3.08,3.08,0,0,0,.07-.68,6.34,6.34,0,0,1,.63-2.11,6.48,6.48,0,0,1-1.82-1.56,4.25,4.25,0,0,1-.43-.67,7.43,7.43,0,0,1-.53-2c-.35-1.61-1.16-3.12-1.27-4.76a5.29,5.29,0,0,0-.17-1.49,6.36,6.36,0,0,0-.28-.59,2.09,2.09,0,0,1-.24-.58,8.82,8.82,0,0,1,0-1.36,11.75,11.75,0,0,0-.29-1.17,5.31,5.31,0,0,1,0-1.54,12.59,12.59,0,0,0,.12-1.83,7.05,7.05,0,0,1,1.9-5.44l0,0c.29-.31.61-.57.87-.89s.6-.94,1-1.36c.16-.18.34-.35.51-.54a4.2,4.2,0,0,1,.49-.55.74.74,0,0,1,.68-.18,1.79,1.79,0,0,0,.21.64l.91.1a2.12,2.12,0,0,1,.43.06,2.92,2.92,0,0,1,.78.49c.63.44,1.4.65,2,1.1A8.06,8.06,0,0,1,135.37,13c.73,1.33,1.91,2.47,2.42,3.9l.71,1.94a29.06,29.06,0,0,0,1.56,3.73c.87,1.67,2.06,3.17,2.76,4.91a.76.76,0,0,0,.37.4,32,32,0,0,1,2.55,4.24,7.79,7.79,0,0,1,.86,2.45,7,7,0,0,1-.63,3.6,2.15,2.15,0,0,0-.15.51,4.13,4.13,0,0,0,.11.86,1.68,1.68,0,0,1-.11.8,2.87,2.87,0,0,0-.24.54,2.37,2.37,0,0,0,.14,1.05,12.83,12.83,0,0,1,.15,3.61c0,.61.46,1.09.86,1.53a16.09,16.09,0,0,1,1.92,2.77,9,9,0,0,1,.78,1.55,12.65,12.65,0,0,1,.42,1.92c.39,2,1.65,3.74,2,5.73A5.15,5.15,0,0,0,153,61.49a4.77,4.77,0,0,1,.51.6,2.65,2.65,0,0,1,.25.54A3.82,3.82,0,0,1,154,64a2.1,2.1,0,0,0,0,.66c.14.46.65.72.86,1.15a5.55,5.55,0,0,1,.15,1.49A1.64,1.64,0,0,0,155.61,68.31Z"/><path class="cls-7" d="M109.84,26.67a3.15,3.15,0,0,1-1.58.47,2.3,2.3,0,0,1-1.33-.63c-.3-.26-.61-.59-1-.56a1.2,1.2,0,0,0-.7.37l-1.09.91a1,1,0,0,0-.4.52,1.18,1.18,0,0,0,0,.42c0,.25.14.54.37.62s.5-.1.75-.16a.84.84,0,0,1,.85.25.46.46,0,0,1,.15.33c0,.27-.3.45-.58.47s-.54-.08-.82-.07a.13.13,0,0,0-.14.11h0a.59.59,0,0,0,.18.52,1.57,1.57,0,0,0,.49.31,2,2,0,0,0,.68.19,3.59,3.59,0,0,0,1.33-.37,5.78,5.78,0,0,1,1.86-.21,6.82,6.82,0,0,0,1.86-.16,2.11,2.11,0,0,0,1.4-1.15.25.25,0,0,0,0-.17.24.24,0,0,0-.13-.15c-.84-.63-1.18-1.39-2.13-1.84Z"/><path class="cls-5" d="M121.67,4a3.6,3.6,0,0,0-.73.32,1.27,1.27,0,0,1-1-.05,1.09,1.09,0,0,1-.29-.23,1.11,1.11,0,0,1,0-1,4.14,4.14,0,0,1,3.7-2.59,6.44,6.44,0,0,1,4.29,1.7,5.86,5.86,0,0,1,1,1,6.06,6.06,0,0,1,1,3.13,4.11,4.11,0,0,1-.09,1.4,1.75,1.75,0,0,1-.8,1.08,1.56,1.56,0,0,1-1.38-.06,6,6,0,0,1-1.19-.87,1.93,1.93,0,0,0-.59-.38.59.59,0,0,0-.64.16c-.21.24-.15.64-.34.9a1,1,0,0,1-.89.31,1,1,0,0,1-.85-.29,1.08,1.08,0,0,1-.08-.87,2.67,2.67,0,0,0,.15-.88c-.06-.61-.59-1-.76-1.53-.1-.37.13-.52.11-.85A.48.48,0,0,0,121.67,4Z"/><path class="cls-4" d="M135.46,45.76v0h0a19.85,19.85,0,0,1-3.07,4.77,5,5,0,0,0-.57.65,7.49,7.49,0,0,0-.36.69,4.26,4.26,0,0,1-.8,1.17l-1.09.55L133,35.48Z"/><path class="cls-4" d="M130.4,18.29a6.85,6.85,0,0,1-1,.87c-1,.75-2,1.47-2.94,2.27-.78.63-1.57,1.25-2.37,1.87a2.29,2.29,0,0,1-.24-.59,8.82,8.82,0,0,1,0-1.36,11.75,11.75,0,0,0-.29-1.17,5.31,5.31,0,0,1,0-1.54,12.59,12.59,0,0,0,.12-1.83,7,7,0,0,1,1.91-5.45l0,0a2.66,2.66,0,0,1,.52-.23,1.82,1.82,0,0,1,1.6.19,11.33,11.33,0,0,1,2.18,2.14,8.59,8.59,0,0,1,.91,1.24A3.29,3.29,0,0,1,130.4,18.29Z"/><path class="cls-8" d="M127.55,10.53a1.84,1.84,0,0,0-1.6-.18,3.39,3.39,0,0,0-1.38.92,6.44,6.44,0,0,0-1,1.28c-.26.45-.45.93-.71,1.38a14.39,14.39,0,0,1-1.64,2.23A6.35,6.35,0,0,1,120,17.37a4.76,4.76,0,0,0-1.33,1c-.1.15-.18.31-.28.45a4.32,4.32,0,0,1-1.32,1c-1.34.89-2.17,2.38-3.42,3.39-.54.44-1.15.78-1.68,1.22s-.91.91-1.4,1.33a3,3,0,0,1-1.72.82,8.92,8.92,0,0,0,1.68,2.64,3,3,0,0,0,2.85.93,1.24,1.24,0,0,0,.84-.67,2.38,2.38,0,0,1,.18-.51,1,1,0,0,1,.38-.31,90.43,90.43,0,0,0,11.51-8c1-.79,1.94-1.5,2.94-2.27a5.83,5.83,0,0,0,1-.87,3.28,3.28,0,0,0,.4-3.62,9.26,9.26,0,0,0-.92-1.24A11.05,11.05,0,0,0,127.55,10.53Z"/><g class="cls-9"><path class="cls-10" d="M124,8.25a1,1,0,0,1-.84-.29,1,1,0,0,1-.09-.87,2.67,2.67,0,0,0,.15-.88c-.06-.61-.59-1-.75-1.53-.11-.37.12-.52.1-.85a.48.48,0,0,0-.57-.39,4.21,4.21,0,0,0-.73.31,1.2,1.2,0,0,1-1,0,.7.7,0,0,1-.28-.23,1.08,1.08,0,0,1,0-1s0,0,0,0a3.44,3.44,0,0,0-.31.64,1.11,1.11,0,0,0,0,1,1,1,0,0,0,.29.23,1.27,1.27,0,0,0,1,.05,3.6,3.6,0,0,1,.73-.32.48.48,0,0,1,.57.39c0,.33-.21.49-.11.85.17.56.69.94.76,1.54a2.67,2.67,0,0,1-.15.88,1.09,1.09,0,0,0,.08.87,1.45,1.45,0,0,0,1.74,0,1.25,1.25,0,0,0,.16-.47A1.26,1.26,0,0,1,124,8.25Z"/><path class="cls-10" d="M129,8.19a1.58,1.58,0,0,1-1.39-.06,6.21,6.21,0,0,1-1.19-.86,1.62,1.62,0,0,0-.59-.38.61.61,0,0,0-.64.15,1.17,1.17,0,0,0-.19.51.62.62,0,0,1,.53-.06,1.93,1.93,0,0,1,.59.38,5.55,5.55,0,0,0,1.19.86,1.56,1.56,0,0,0,1.38.07,1.66,1.66,0,0,0,.78-1A1.42,1.42,0,0,1,129,8.19Z"/></g><circle class="cls-5" cx="91.36" cy="68.68" r="4.54"/><circle class="cls-4" cx="91.36" cy="68.68" r="4.54"/><circle class="cls-3" cx="91.36" cy="68.68" r="2.87"/><circle class="cls-4" cx="91.36" cy="68.68" r="2.87"/><path class="cls-5" d="M87.88,61.57l3,6.73a.58.58,0,0,0,.76.3.57.57,0,0,0,.29-.28l3.54-7.2Z"/><path class="cls-4" d="M87.88,61.57l3,6.73a.58.58,0,0,0,.76.3.57.57,0,0,0,.29-.28l3.54-7.2Z"/><circle class="cls-5" cx="63.08" cy="68.68" r="4.54"/><circle class="cls-4" cx="63.08" cy="68.68" r="4.54"/><circle class="cls-3" cx="63.08" cy="68.68" r="2.87"/><circle class="cls-4" cx="63.08" cy="68.68" r="2.87"/><path class="cls-5" d="M59.6,61.57l3,6.73a.57.57,0,0,0,1,0l3.54-7.2Z"/><path class="cls-4" d="M59.6,61.57l3,6.73a.57.57,0,0,0,1,0l3.54-7.2Z"/><path class="cls-5" d="M106.09,29.16a.71.71,0,0,0-.38-.54.7.7,0,0,0-.92.37v0l-2.6,6.47-.76,29h1.21l.46-29L106,29.6A.82.82,0,0,0,106.09,29.16Z"/><polygon class="cls-8" points="52.56 62.25 56.65 59.68 100.74 59.3 101.88 62.25 52.56 62.25"/><polygon class="cls-5" points="52.56 64.97 52.56 62.25 102.67 61.77 102.63 63.61 53.47 63.61 53.47 64.97 52.56 64.97"/><circle class="cls-5" cx="58.92" cy="70.27" r="4.54"/><circle class="cls-3" cx="58.92" cy="70.27" r="2.87"/><path class="cls-5" d="M55.44,63.16l3,6.73a.6.6,0,0,0,.77.3.63.63,0,0,0,.28-.28L63,62.7Z"/><circle class="cls-5" cx="94.16" cy="70.27" r="4.54"/><circle class="cls-3" cx="94.16" cy="70.27" r="2.87"/><path class="cls-5" d="M90.68,63.16l3,6.73a.59.59,0,0,0,.76.3.61.61,0,0,0,.29-.28l3.53-7.21Z"/><rect class="cls-3" x="58.24" y="50.38" width="18.91" height="10.44"/><rect class="cls-4" x="64.89" y="52.19" width="5.75" height="1.21"/><rect class="cls-4" x="65.61" y="52.34" width="4.31" height="0.91"/><rect class="cls-3" x="77.45" y="50.38" width="18.91" height="10.44"/><rect class="cls-4" x="84.1" y="52.19" width="5.75" height="1.21"/><rect class="cls-4" x="84.82" y="52.34" width="4.31" height="0.91"/><rect class="cls-3" x="58.24" y="39.64" width="18.91" height="10.44"/><rect class="cls-4" x="64.89" y="41.45" width="5.75" height="1.21"/><rect class="cls-4" x="65.61" y="41.6" width="4.31" height="0.91"/><rect class="cls-3" x="77.45" y="39.64" width="18.91" height="10.44"/><rect class="cls-4" x="84.1" y="41.45" width="5.75" height="1.21"/><rect class="cls-4" x="84.82" y="41.6" width="4.31" height="0.91"/><rect class="cls-3" x="58.24" y="28.75" width="18.91" height="10.44"/><rect class="cls-4" x="64.89" y="30.56" width="5.75" height="1.21"/><rect class="cls-4" x="65.61" y="30.71" width="4.31" height="0.91"/><rect class="cls-3" x="77.45" y="28.75" width="18.91" height="10.44"/><rect class="cls-4" x="84.1" y="30.56" width="5.75" height="1.21"/><rect class="cls-4" x="84.82" y="30.71" width="4.31" height="0.91"/><rect class="cls-3" x="77.45" y="17.86" width="18.91" height="10.44"/><rect class="cls-4" x="84.1" y="19.67" width="5.75" height="1.21"/><rect class="cls-4" x="84.82" y="19.82" width="4.31" height="0.91"/></g></g></svg>