<svg xmlns="http://www.w3.org/2000/svg" xmlns:xlink="http://www.w3.org/1999/xlink" viewBox="0 0 42.72 124.46"><defs><style>.cls-1,.cls-9{fill:#060000;}.cls-1,.cls-8{opacity:0.1;}.cls-1{isolation:isolate;}.cls-2{fill:#fff;}.cls-3{fill:#3d3a57;}.cls-4{fill:#675f7e;}.cls-5{fill:#645ea8;}.cls-6{fill:#f7c5c4;}.cls-7{fill:#855e5a;}.cls-10{fill:url(#linear-gradient);}</style><linearGradient id="linear-gradient" x1="-1106.46" y1="1350.73" x2="-1063.74" y2="1350.73" gradientTransform="matrix(-1, 0, 0, 1, -1063.74, -1288.51)" gradientUnits="userSpaceOnUse"><stop offset="0" stop-color="#868581" stop-opacity="0.25"/><stop offset="0.54" stop-color="#868581" stop-opacity="0.12"/><stop offset="1" stop-color="#868581" stop-opacity="0.1"/></linearGradient></defs><title>Asset 12</title><g id="Layer_2" data-name="Layer 2"><g id="レイヤー_4" data-name="レイヤー 4"><path class="cls-1" d="M34,122.86c.55.25,3.68-.59,5.18-1.18a26.09,26.09,0,0,1,3.12-1,1.65,1.65,0,0,1,.1.9c-.26.54-.73,1.65-1.93,1.69s-6,.26-7.49.83-8.91.32-9.68-.33a3.06,3.06,0,0,1-1-1.77C26.64,124.93,34.05,122.86,34,122.86Z"/><circle class="cls-2" cx="30.72" cy="119.35" r="0.18"/><circle class="cls-2" cx="29.82" cy="119.96" r="0.18"/><path class="cls-3" d="M22.68,121a5.47,5.47,0,0,1,2.77-.77,18.21,18.21,0,0,0,3.46-2.1s2.23-1.07,2.23-1.64a2.35,2.35,0,0,1,1.69-1.63.85.85,0,0,1,.52.09s4.23,3.73,7.44,1.54l.11.65a2.73,2.73,0,0,0,.29,1,11.89,11.89,0,0,1,1.15,2.58,1.65,1.65,0,0,1,.1.9c-.26.54-.73,1.65-1.93,1.69s-6,.26-7.49.83-8.91.32-9.68-.33a3.06,3.06,0,0,1-1-1.77A1.12,1.12,0,0,1,22.68,121Z"/><path class="cls-1" d="M34,122.86c.55.25,3.68-.59,5.18-1.18a26.09,26.09,0,0,1,3.12-1,1.65,1.65,0,0,1,.1.9c-.26.54-.73,1.65-1.93,1.69s-6,.26-7.49.83-8.91.32-9.68-.33a3.06,3.06,0,0,1-1-1.77C26.64,124.93,34.05,122.86,34,122.86Z"/><circle class="cls-2" cx="30.72" cy="119.35" r="0.18"/><circle class="cls-2" cx="29.82" cy="119.96" r="0.18"/><path class="cls-3" d="M.12,113.68a2,2,0,0,1,.12-.34c.84-1.88,4,.69,4,.69a3.56,3.56,0,0,0,2.94-.36,9.84,9.84,0,0,1,4.09-1.56.37.37,0,0,1,.18,0c.47.23,6.59,4,6.59,4v4.17a2.53,2.53,0,0,1,.15.66c.06.69-.21,1.64-2.17,1.36a13.24,13.24,0,0,1-4.18-1.08,28.22,28.22,0,0,0-4.39-1.54C6.79,119.71-.49,116.16.12,113.68Z"/><path class="cls-1" d="M10.61,112.81l.69-.7a.37.37,0,0,1,.18,0c.47.23,6.59,4,6.59,4v1C14.23,118.35,10.17,113.26,10.61,112.81Z"/><path class="cls-4" d="M10.61,112.52c.5-.5,2.12-2.19,2.12-2.19l-.05,0-.14-.06-.79-.34s.14-3,1.19-4.3,1-4.79,1-4.79l.92-7.9s-.49-.85.21-1.31.28-1.72.28-1.72-.49-.14-.92-1.83.78-5.22,1.2-6.07a2,2,0,0,0,0-1.69s.64-.49.71-.77a7.92,7.92,0,0,1,.56-1.13s3-9,3-9.38.5-.75.5-.75l.75-3.12.47-1.7h3.76l.11.92c.43,3.93,2,19.23.41,20.58a5.4,5.4,0,0,0-1.07,1.17c-.46.74-.21,1.11-.41,1.3s0,1.34,0,1.34A6.85,6.85,0,0,1,24,90.24a3.78,3.78,0,0,0-.25,1.37.54.54,0,0,1,0,.89c-.57.42-.5,3.66-.5,3.66s-2.11,14.68-2.89,15.1-.78,2.61-.78,2.61h0L19,116.4C14.92,118.94,10.12,113,10.61,112.52Z"/><path class="cls-1" d="M12.74,110.34l-.05,0-.14-.07.19-.19-.05,0c2.74.35,5.88,2.73,6.88,3.55L19,116.12c-3.68,2.29-8-2.32-8.39-3.59C11.12,112,12.74,110.34,12.74,110.34Z"/><path class="cls-4" d="M10.62,112.52c.5-.49,2.12-2.18,2.12-2.18l-.05,0c2.74.35,5.88,2.73,6.88,3.55L19,116.4C14.92,118.94,10.12,113,10.62,112.52Z"/><circle class="cls-2" cx="8.39" cy="114.2" r="0.18"/><circle class="cls-2" cx="9.54" cy="114.03" r="0.18"/><circle class="cls-2" cx="7.4" cy="114.38" r="0.18"/><circle class="cls-2" cx="10.76" cy="113.85" r="0.18"/><path class="cls-1" d="M.12,113.68a2,2,0,0,1,.12-.34l7.28,4.88c.09.64,3.15,1.75,3.15,1.75s4.63.74,6,1.09a2.21,2.21,0,0,0,1.58-.11c.06.69-.21,1.64-2.17,1.36a13.24,13.24,0,0,1-4.18-1.08,28.22,28.22,0,0,0-4.39-1.54C6.79,119.71-.49,116.16.12,113.68Z"/><rect class="cls-5" x="10.91" y="64.36" width="1.69" height="54.35"/><path class="cls-5" d="M12.25,66.78a3.52,3.52,0,0,0,.32-1.06A3.84,3.84,0,1,0,5,64.64v0a.59.59,0,0,0,1,.51,4,4,0,0,1,.56-.44A2.29,2.29,0,0,1,11,65,3.87,3.87,0,0,1,12.25,66.78Z"/><rect class="cls-5" x="10.28" y="116.77" width="2.85" height="3.98"/><path class="cls-6" d="M34.45,13.13s.11,1,.3,2.28c.3,2,.79,4.6,1.39,5.29,1,1.12-9.21,3.38-9.21,3.38a8.38,8.38,0,0,0-.28-5.34,9.86,9.86,0,0,0-1.41-2.51C22.19,12.24,34.45,13.13,34.45,13.13Z"/><path class="cls-3" d="M22.68,121a5.47,5.47,0,0,1,2.77-.77,18.21,18.21,0,0,0,3.46-2.1s2.23-1.07,2.23-1.64a2.35,2.35,0,0,1,1.69-1.63.85.85,0,0,1,.52.09s4.23,3.73,7.44,1.54l.11.65a2.73,2.73,0,0,0,.29,1,11.89,11.89,0,0,1,1.15,2.58,1.65,1.65,0,0,1,.1.9c-.26.54-.73,1.65-1.93,1.69s-6,.26-7.49.83-8.91.32-9.68-.33a3.06,3.06,0,0,1-1-1.77A1.12,1.12,0,0,1,22.68,121Z"/><path class="cls-1" d="M22.19,64.59c.11-.28,1.4-.31,3.25-.21.43,3.93,2,19.23.41,20.58a5.35,5.35,0,0,0-1.07,1.16C24.27,82.68,21.8,65.54,22.19,64.59Z"/><path class="cls-1" d="M33.35,115s4.23,3.72,7.44,1.53l.11.66c-.82,2-2.89,3.82-8.07-1.49v-.79A.79.79,0,0,1,33.35,115Z"/><path class="cls-4" d="M22.59,64.59C23,63.53,40.43,66,40.43,66s-.21,1.11-.57,2.48a16.49,16.49,0,0,1-1.62,4.29C37,74.67,36.62,74,37,74.67s-.15,2,.35,2.75S36.85,81,36.85,81s.86,4.79,0,5.43,0,1.76,0,1.76v1.27a2.05,2.05,0,0,1,.28,1.27c-.14.56.64,1.62.64,1.62l3.66,22.27a8.27,8.27,0,0,1-.11.87c-.38,2.07-2,6.66-8.49,0v-4.3a29.36,29.36,0,0,1-1.27-4.65c-.28-2-1.19-5.92-1.19-5.92a8,8,0,0,0-.78-2.75c-.57-.78-.64-3.53-.64-3.53s-1.76-1.2-2-1.41a62.6,62.6,0,0,1-1.62-6.14S22.9,70.56,22.59,65.83A5.14,5.14,0,0,1,22.59,64.59Z"/><path class="cls-1" d="M34.45,13.13s.11,1,.3,2.28c0,.1-.9-.3-1-.21-1.19,2-2.58,3.86-5.08,3.86a6.63,6.63,0,0,1-2.07-.32,9.86,9.86,0,0,0-1.41-2.51C22.19,12.24,34.45,13.13,34.45,13.13Z"/><path class="cls-6" d="M23.75,7.45a6.82,6.82,0,1,1-1.85,4.66A6.83,6.83,0,0,1,23.75,7.45Z"/><path class="cls-1" d="M22.61,64.59C23,63.53,40.45,66,40.45,66s-.21,1.11-.57,2.48a18.87,18.87,0,0,1-4.35.15c-2.11-.28-5.64-.47-6.11-1.13-.34-.47-4.53-1.26-6.83-1.67A4.68,4.68,0,0,1,22.61,64.59Z"/><path class="cls-5" d="M21.57,60.4c.06-1,.25-2.88.44-4.84a46.35,46.35,0,0,0,.41-6.44,28.07,28.07,0,0,1-.12-3.4c0-3.34.07-7.88.07-7.88s1.2-9.5,2.85-12.6a.54.54,0,0,1,.07-.13s1.5-2.54,1.27-3.43c0,0,6.29-3.95,9-4.37a1,1,0,0,1,1,.94A7.64,7.64,0,0,0,36.69,20a1.28,1.28,0,0,0,.68.81c.89.42,2.63,3.29,2.63,3.29s1.12,1.41.94,2.07.8,3.8.8,3.8a24.06,24.06,0,0,1,.33,8c-.66,3.57-.9,12.5-.19,14.1s1.5,14.5-.14,15.6a20,20,0,0,1-6.21.52c-2.11-.28-5.64-.47-6.11-1.13s-8.32-1.93-8.32-1.93S21.42,62.85,21.57,60.4Z"/><path class="cls-1" d="M29.52,58c.56-.75-1.55-5.83-1.55-5.83S29,58.76,29.52,58Z"/><path class="cls-1" d="M26.84,59.14c.89-.75-1.51-4.51-1.51-4.51S26,59.88,26.84,59.14Z"/><path class="cls-1" d="M41.32,115.29c-.38,2.07-2,6.66-8.49,0V114C37.42,117.57,40.13,116.31,41.32,115.29Z"/><path class="cls-4" d="M41.32,115.43c-.38,2.07-2,6.66-8.49,0v-1.26C37.42,117.72,40.13,116.45,41.32,115.43Z"/><circle class="cls-2" cx="33.6" cy="117.58" r="0.18"/><circle class="cls-2" cx="31.82" cy="118.62" r="0.18"/><circle class="cls-2" cx="32.65" cy="118.09" r="0.18"/><path class="cls-1" d="M35.2,77c-2-.16-3.71-4.42-3.71-4.42S37.22,77.16,35.2,77Z"/><path class="cls-1" d="M34.69,83.67c-.8,0-3.48-4.61-3.48-4.61S35.48,83.72,34.69,83.67Z"/><path class="cls-1" d="M32.39,96.27c.75-.15-2.57-1.89-2.57-1.89S31.63,96.41,32.39,96.27Z"/><path class="cls-1" d="M32.5,93a29.41,29.41,0,0,1,3.92,1.36S31.91,93,32.5,93Z"/><path class="cls-1" d="M15.84,88.84c.09-.57,2.39,0,2.39,0S15.75,89.4,15.84,88.84Z"/><path class="cls-1" d="M17.77,92.32c.28-.66-1.74-.7-1.74-.7S17.48,93,17.77,92.32Z"/><path class="cls-1" d="M25.29,25.39s1.5-2.53,1.27-3.43c0,0,6.29-3.94,9-4.37a1,1,0,0,1,1,.95,7.55,7.55,0,0,0,.17,1.72c-1.47.16-4,.6-5.34,1.94s-4.4,2.64-6.13,3.32Z"/><path class="cls-5" d="M25.29,25.11s1.5-2.54,1.27-3.43c0,0,6.29-3.95,9-4.37a1,1,0,0,1,1,.94A7.58,7.58,0,0,0,36.69,20c-1.47.16-4,.61-5.34,1.94s-4.4,2.64-6.13,3.32A.83.83,0,0,1,25.29,25.11Z"/><path class="cls-1" d="M22.41,49.14a28.07,28.07,0,0,1-.12-3.4,11.18,11.18,0,0,1,1.53-1.3l1.65-3,6.16-4,2.82,3-1,2.36-3.14,5.72a14.79,14.79,0,0,0-1.6,2A55.35,55.35,0,0,1,22,55.57,44.18,44.18,0,0,0,22.41,49.14Z"/><path class="cls-6" d="M31.48,36.91l-6.16,4-1.65,3s-2.35,1.6-3,3.43-7.62,7.33-7.62,7.33L9.8,57.54s-5.12,5-1.12,7.19,5.41-4.6,5.64-5.52,3.4-2,5.89-3.22a56,56,0,0,0,8.36-6.06,14.31,14.31,0,0,1,1.6-2l3.29-5.15.85-2.93Z"/><path class="cls-1" d="M26.79,36.16c.33,1.79-1.57,4.92-1.57,4.92s6.93-1.16,8-.92.57,2.93.57,2.93,3.9-7.71,5.68-11.9-3.94-6.83-3.94-6.83C29.28,22.81,26.46,34.38,26.79,36.16Z"/><path class="cls-1" d="M26.23,35.73c.33,1.79-1.18,5-1.18,5s6.53-1.22,7.57-1,.56,2.93.56,2.93,3.91-7.74,5.69-11.91-3.95-6.81-3.95-6.81C28.71,22.39,25.9,34,26.23,35.73Z"/><path class="cls-5" d="M26.51,35.88c.33,1.79-1.18,5-1.18,5s6.53-1.23,7.57-1,.56,2.93.56,2.93,3.9-7.72,5.69-11.91-3.95-6.82-3.95-6.82C29,22.53,26.18,34.1,26.51,35.88Z"/><path class="cls-1" d="M32.1,6.24a6.81,6.81,0,0,1,2.51,9.31l-.18,0a5.34,5.34,0,0,1,.27-2.35c.27-.76,1.33-2.77-.5-2.26-.75.21-1.27,1.06-2.05,1a1.9,1.9,0,0,1-1.3-1,14.38,14.38,0,0,1-1.29-2.42,5.51,5.51,0,0,0-.71-1.36,1.46,1.46,0,0,0-1.34-.58c-.55.1-.92.61-1.41.88a2.87,2.87,0,0,1-2.35,0A6.82,6.82,0,0,1,32.1,6.24Z"/><path class="cls-7" d="M34.82,13a5.32,5.32,0,0,0-.27,2.34A1.79,1.79,0,0,0,36.63,14c0-.3,0-.61,0-.91a2.08,2.08,0,0,1,.92-1.49,1.83,1.83,0,0,0,.53-.38,1.14,1.14,0,0,0,.12-1c-.27-1-1.06-1.9-1.14-3a8.44,8.44,0,0,1,.28-2,2,2,0,0,0-.51-1.86A3.16,3.16,0,0,0,35.35,3a6.09,6.09,0,0,1-3-1.24A5.9,5.9,0,0,0,31,.74,3.68,3.68,0,0,0,28.31,1a6.63,6.63,0,0,1-2.69.73c-.66,0-1.38-.27-1.92.09s-.65,1.1-1.21,1.32c-.22.08-.5.07-.68.23s-.14.64,0,.92a2.24,2.24,0,0,1,.47.87c.05.34-.15.68-.09,1,.08.49.59.75,1.06.93a3.54,3.54,0,0,0,2.95.23c.5-.27.87-.78,1.41-.88A1.46,1.46,0,0,1,29,7a5.28,5.28,0,0,1,.71,1.35A14.38,14.38,0,0,0,31,10.81c.32.47.74,1,1.3,1,.78,0,1.3-.82,2-1C36.15,10.28,35.1,12.28,34.82,13Z"/><g class="cls-8"><path class="cls-9" d="M23.33,2.19l0,0Z"/><path class="cls-9" d="M22.34,5.12c.05.34-.15.68-.09,1,.08.49.59.75,1.06.92a3.51,3.51,0,0,0,3,.24c.49-.27.85-.78,1.4-.88A1.45,1.45,0,0,1,29,7a5.48,5.48,0,0,1,.7,1.36A14.43,14.43,0,0,0,31,10.78a1.88,1.88,0,0,0,1.3,1c.77,0,1.3-.82,2-1,1.83-.51.78,1.5.51,2.26a5.23,5.23,0,0,0-.27,2.35,1.81,1.81,0,0,0,2-1,1.79,1.79,0,0,1-1.67.58,5.22,5.22,0,0,1,.27-2.35c.27-.76,1.32-2.77-.5-2.26-.75.2-1.27,1-2.05,1-.57,0-1-.52-1.3-1A16.11,16.11,0,0,1,30,7.93a5,5,0,0,0-.7-1.36A1.47,1.47,0,0,0,27.94,6c-.54.11-.91.61-1.4.89a3.56,3.56,0,0,1-2.94-.24c-.46-.18-1-.43-1.07-.92-.05-.34.13-.7.09-1a2.21,2.21,0,0,0-.47-.86A1.12,1.12,0,0,1,22,3.23l-.14.09a.75.75,0,0,0,0,.92A2.27,2.27,0,0,1,22.34,5.12Z"/><path class="cls-9" d="M37.18,11.92a2.32,2.32,0,0,1,.44-.39,2.07,2.07,0,0,0,.54-.39.71.71,0,0,0,.14-.29,3.22,3.22,0,0,1-.39.25A2.21,2.21,0,0,0,37.18,11.92Z"/></g><path class="cls-1" d="M21.65,13a1.38,1.38,0,0,0,2,.74c1.09-.43,1-1.67.89-2.31l.66,0c.15.63.54,1.9,1.34,2,0,0,1.34.34,2-.26a5,5,0,0,0,.72-2.45l4.55.37.09-.3-4.64-.76S25.77,9,25.09,11H24.4c-1.14-1.45-3.06-.11-3.06-.11A6.2,6.2,0,0,0,21.65,13Z"/><path class="cls-3" d="M21.67,12.81a1.36,1.36,0,0,0,1.93.74c1.09-.43,1-1.68.89-2.32l.66,0c.15.62.54,1.89,1.34,2,0,0,1.34.33,2-.27a5,5,0,0,0,.72-2.45l4.55.37.09-.3-4.64-.76s-3.4-.91-4.08,1.06H24.4c-1.14-1.45-3.06-.1-3.06-.1A6.19,6.19,0,0,0,21.67,12.81Z"/><path class="cls-10" d="M7,119.55a.56.56,0,0,0,.12,0,.75.75,0,0,0,.26,0,2.73,2.73,0,0,1,.69.14l.39.12c.53.18,1.16.41,1.73.64v.18h.47l0,0,1.09.44a10.15,10.15,0,0,0,2.74.84l1.18.21.28,0c1.94.27,2.22-.64,2.17-1.33v0a2.51,2.51,0,0,0-.15-.67v-3.46l.05,0a4.08,4.08,0,0,0,.9-.41l.56-2.54v-.28c0-.57.15-2,.77-2.35s2.06-9.57,2.64-13.46h0c.07-.42.12-.77.16-1s.09-.64.09-.64-.07-3.26.5-3.68a.55.55,0,0,0,.24-.46h0a.71.71,0,0,0-.21-.39l0,0A4,4,0,0,1,24,90.09a6.7,6.7,0,0,0,.38-1.48h0v0c0-.14-.26-1.06,0-1.32s-.06-.57.41-1.31h0a3.1,3.1,0,0,1,.35-.46,1.48,1.48,0,0,1,0,.19c.08.56.12.88.12.88l0,.13h0c.2.85,1.32,5.82,1.6,6s2.05,1.41,2.05,1.41v.13a14.56,14.56,0,0,0,.26,2.37v.05a.34.34,0,0,1,0,.1,2.85,2.85,0,0,0,.35.89,4.56,4.56,0,0,1,.57,1.57.61.61,0,0,1,0,.13,9,9,0,0,1,.17,1.07l0,.09v0s.06.24.15.64c0,.07,0,.15,0,.22l0,.09c0,.07,0,.13.05.19h0c0,.13.05.27.08.41h0c.29,1.32.67,3.13.83,4.27a17.68,17.68,0,0,0,.47,2.16.25.25,0,0,1,0,.07l.09.31c.12.43.25.84.36,1.18,0,.07.05.14.07.2a1.06,1.06,0,0,0,.06.19,1.89,1.89,0,0,0,.06.18v0a2.08,2.08,0,0,0,.08.24.14.14,0,0,1,0,.07l0,0v3.79a2.34,2.34,0,0,0-1.69,1.63c0,.57-2.24,1.65-2.24,1.65a17.74,17.74,0,0,1-3.46,2.09,8,8,0,0,0-1.29.16,3.51,3.51,0,0,0-1.49.62,1.13,1.13,0,0,0-.36,1,3.07,3.07,0,0,0,1,1.78,2.63,2.63,0,0,0,1,.31,24.26,24.26,0,0,0,2.82.28c1.09,0,2.24.07,3.26,0h.34l.69,0,.47,0,.25,0,.18,0h0l.16,0a2.83,2.83,0,0,0,.5-.13c1.51-.57,6.32-.77,7.52-.83s1.67-1.15,1.93-1.7a.32.32,0,0,0,0-.14v-.19a2.34,2.34,0,0,0,0-.26s0,0,0,0-.05-.2-.08-.31a13.52,13.52,0,0,0-1.15-2.59,2.69,2.69,0,0,1-.3-1,1,1,0,0,1,0-.17h0v0a7.85,7.85,0,0,0,.45-1.5v0a8.24,8.24,0,0,0,.11-.85v0l-2.9-17.87-.74-4.53a4,4,0,0,1-.64-1.32h0a.81.81,0,0,1,0-.31,1.24,1.24,0,0,0,0-.27h0a2.39,2.39,0,0,0-.3-1l0,0,0-1.12V88a2,2,0,0,1-.37-.87.88.88,0,0,1,.37-.9c.37-.28.42-1.34.35-2.46v0a27.13,27.13,0,0,0-.33-2.8l0-.16a11.25,11.25,0,0,0,.62-2.86h0a1.21,1.21,0,0,0-.14-.67,1.6,1.6,0,0,1-.22-.74c0-.42,0-.89,0-1.3h0a1.7,1.7,0,0,0-.14-.71l-.08-.17c-.19-.42.21,0,1.35-1.74a15.49,15.49,0,0,0,1.55-4,2.18,2.18,0,0,0,.07-.27c0-.06,0-.08,0-.17a2.68,2.68,0,0,1,.07-.27h.07a8.08,8.08,0,0,0,1.68-.34c.7-.47,1-3.11,1-6.1,0-4-.43-8.66-.83-9.58a15.35,15.35,0,0,1-.43-4.16v-.54a60.49,60.49,0,0,1,.62-9.46,15.46,15.46,0,0,0,.22-2.54,27,27,0,0,0-.55-5.53,25.47,25.47,0,0,1-.81-3.32h0a1.85,1.85,0,0,1,0-.47v0c.19-.67-.94-2.08-.94-2.08s-1.74-2.88-2.63-3.3a1.28,1.28,0,0,1-.68-.81,7.09,7.09,0,0,1-.17-1.74,1,1,0,0,0-1-.94,3.93,3.93,0,0,0-.44.1c-.1-.51-.19-1-.26-1.5v0a1.1,1.1,0,0,1,0-.16c0-.11,0-.21,0-.31H35a1.87,1.87,0,0,0,1.58-1.07h0a1.27,1.27,0,0,0,.11-.38c0-.3,0-.61,0-.91a2.06,2.06,0,0,1,.92-1.49,2.07,2.07,0,0,0,.54-.39.51.51,0,0,0,.09-.16.08.08,0,0,0,0,0v0a.16.16,0,0,0,0-.09h0a0,0,0,0,0,0,0,1.43,1.43,0,0,0,0-.65,19.6,19.6,0,0,0-.9-2,3,3,0,0,1-.24-.82.41.41,0,0,1,0-.11,8.53,8.53,0,0,1,.28-2,2.06,2.06,0,0,0,0-.26,1.83,1.83,0,0,0-.54-1.6,3,3,0,0,0-1.53-.42,6.14,6.14,0,0,1-3-1.25A5.94,5.94,0,0,0,31,.17,3.71,3.71,0,0,0,28.3.43a6.68,6.68,0,0,1-2.7.73c-.65,0-1.38-.27-1.92.09S23,2.36,22.47,2.57c-.17.07-.36.08-.52.15v0a.42.42,0,0,0-.14.09.38.38,0,0,0-.09.13.7.7,0,0,0,0,.63h0a1.14,1.14,0,0,0,.1.19,2.54,2.54,0,0,1,.47.87,1.31,1.31,0,0,1,0,.28h0v.06a2,2,0,0,0-.08.69,1.21,1.21,0,0,0,.05.18v0a1.82,1.82,0,0,0,1,.73l.59.21-.14.14c-.07.08-.14.15-.2.23l0,0A6.73,6.73,0,0,0,22.1,9.83a4,4,0,0,0-.8.4.74.74,0,0,0,0,.33,2.32,2.32,0,0,0,0,.53v0h0c.09.56.28,1.22.3,1.32h0A1.64,1.64,0,0,0,22,13s0,0,.05,0,.07.29.11.43a1.21,1.21,0,0,0,.05.18A6.86,6.86,0,0,0,26.34,18l.22.07.06.17c.05.13.09.25.13.38a.88.88,0,0,1,.05.15,8.68,8.68,0,0,1,.38,2h0l-.65.39a1.24,1.24,0,0,1,0,.27h0a.13.13,0,0,1,0,.09,11.2,11.2,0,0,1-1.29,3.08.75.75,0,0,1-.07.12c-1.66,3.12-2.87,12.67-2.87,12.67s-.06,4-.06,7.21a6.1,6.1,0,0,0-1.57,2.28c-.6,1.85-7.64,7.37-7.64,7.37l-3.3,2.92A10.27,10.27,0,0,0,7.17,61.4a3.84,3.84,0,0,0-2.3,3v0a.59.59,0,0,0,.07.37.71.71,0,0,0,.1.14.6.6,0,0,0,.84,0,4,4,0,0,1,.57-.45,2.3,2.3,0,0,1,.83-1.34l0,0a1.34,1.34,0,0,0,.12.24,3,3,0,0,0,1.2,1.1,2.75,2.75,0,0,0,2.22.33v47.29a10.9,10.9,0,0,0-3.71,1.54,3.56,3.56,0,0,1-2.91.37h0a7,7,0,0,0-.61-.44l-.13-.08c-1-.65-2.72-1.48-3.31-.17a1.28,1.28,0,0,0-.11.33C-.52,115.88,5.37,119,7,119.55Zm9.25-40.22c-.07.28-.72.78-.72.78s0,.07.07.19,0,.15.06.24a1.92,1.92,0,0,1-.13,1.27c-.43.85-1.63,4.4-1.21,6.1.07.26.14.49.21.68a.09.09,0,0,1,0,0c.36,1,.71,1.11.71,1.11s0,.1,0,.15c.09.35.22,1.21-.33,1.57a.93.93,0,0,0-.26,1.21h0l0,.1v0l-.92,7.9s.07,3.54-1,4.82a3.07,3.07,0,0,0-.28.42l-.06.11v-42h-.1a.94.94,0,0,0,0-.16,2.58,2.58,0,0,0-.08-.26,13.28,13.28,0,0,0,1.95-4.75c.24-.92,3.39-2,5.89-3.24A21.27,21.27,0,0,0,22,54.55c0,.13,0,.27,0,.37s0,.22,0,.33c-.19,2-.38,3.86-.44,4.87-.14,2.45-.47,4.77-.47,4.77L20.3,68s-.5.34-.5.75-3,9.41-3,9.41a8.66,8.66,0,0,0-.57,1.14Zm-3.63,31,0,0-.07.07v-.2h.09l0,0Z"/><path class="cls-3" d="M.12,113.68a2,2,0,0,1,.12-.34c.84-1.88,4,.69,4,.69a3.56,3.56,0,0,0,2.94-.36,9.84,9.84,0,0,1,4.09-1.56.37.37,0,0,1,.18,0c.47.23,6.59,4,6.59,4v4.17a2.53,2.53,0,0,1,.15.66c.06.69-.21,1.64-2.17,1.36a13.24,13.24,0,0,1-4.18-1.08,28.22,28.22,0,0,0-4.39-1.54C6.79,119.71-.49,116.16.12,113.68Z"/><path class="cls-1" d="M10.61,112.81l.69-.7a.37.37,0,0,1,.18,0c.47.23,6.59,4,6.59,4v1C14.23,118.35,10.17,113.26,10.61,112.81Z"/><path class="cls-4" d="M10.61,112.52c.5-.5,2.12-2.19,2.12-2.19l-.05,0-.14-.06-.79-.34s.14-3,1.19-4.3,1-4.79,1-4.79l.92-7.9s-.49-.85.21-1.31.28-1.72.28-1.72-.49-.14-.92-1.83.78-5.22,1.2-6.07a2,2,0,0,0,0-1.69s.64-.49.71-.77a7.92,7.92,0,0,1,.56-1.13s3-9,3-9.38.5-.75.5-.75l.75-3.12.47-1.7h3.76l.11.92c.43,3.93,2,19.23.41,20.58a5.4,5.4,0,0,0-1.07,1.17c-.46.74-.21,1.11-.41,1.3s0,1.34,0,1.34A6.85,6.85,0,0,1,24,90.24a3.78,3.78,0,0,0-.25,1.37.54.54,0,0,1,0,.89c-.57.42-.5,3.66-.5,3.66s-2.11,14.68-2.89,15.1-.78,2.61-.78,2.61h0L19,116.4C14.92,118.94,10.12,113,10.61,112.52Z"/><path class="cls-1" d="M12.74,110.34l-.05,0-.14-.07.19-.19-.05,0c2.74.35,5.88,2.73,6.88,3.55L19,116.12c-3.68,2.29-8-2.32-8.39-3.59C11.12,112,12.74,110.34,12.74,110.34Z"/><path class="cls-4" d="M10.62,112.52c.5-.49,2.12-2.18,2.12-2.18l-.05,0c2.74.35,5.88,2.73,6.88,3.55L19,116.4C14.92,118.94,10.12,113,10.62,112.52Z"/><circle class="cls-2" cx="8.39" cy="114.2" r="0.18"/><circle class="cls-2" cx="9.54" cy="114.03" r="0.18"/><circle class="cls-2" cx="7.4" cy="114.38" r="0.18"/><circle class="cls-2" cx="10.76" cy="113.85" r="0.18"/><path class="cls-1" d="M.12,113.68a2,2,0,0,1,.12-.34l7.28,4.88c.09.64,3.15,1.75,3.15,1.75s4.63.74,6,1.09a2.21,2.21,0,0,0,1.58-.11c.06.69-.21,1.64-2.17,1.36a13.24,13.24,0,0,1-4.18-1.08,28.22,28.22,0,0,0-4.39-1.54C6.79,119.71-.49,116.16.12,113.68Z"/><rect class="cls-5" x="10.91" y="64.36" width="1.69" height="54.35"/><path class="cls-5" d="M12.25,66.78a3.52,3.52,0,0,0,.32-1.06A3.84,3.84,0,1,0,5,64.64v0a.59.59,0,0,0,1,.51,4,4,0,0,1,.56-.44A2.29,2.29,0,0,1,11,65,3.87,3.87,0,0,1,12.25,66.78Z"/><rect class="cls-5" x="10.28" y="116.77" width="2.85" height="3.98"/><path class="cls-6" d="M34.45,13.13s.11,1,.3,2.28c.3,2,.79,4.6,1.39,5.29,1,1.12-9.21,3.38-9.21,3.38a8.38,8.38,0,0,0-.28-5.34,9.86,9.86,0,0,0-1.41-2.51C22.19,12.24,34.45,13.13,34.45,13.13Z"/><path class="cls-1" d="M22.19,64.59c.11-.28,1.4-.31,3.25-.21.43,3.93,2,19.23.41,20.58a5.35,5.35,0,0,0-1.07,1.16C24.27,82.68,21.8,65.54,22.19,64.59Z"/><path class="cls-1" d="M33.35,115s4.23,3.72,7.44,1.53l.11.66c-.82,2-2.89,3.82-8.07-1.49v-.79A.79.79,0,0,1,33.35,115Z"/><path class="cls-4" d="M22.59,64.59C23,63.53,40.43,66,40.43,66s-.21,1.11-.57,2.48a16.49,16.49,0,0,1-1.62,4.29C37,74.67,36.62,74,37,74.67s-.15,2,.35,2.75S36.85,81,36.85,81s.86,4.79,0,5.43,0,1.76,0,1.76v1.27a2.05,2.05,0,0,1,.28,1.27c-.14.56.64,1.62.64,1.62l3.66,22.27a8.27,8.27,0,0,1-.11.87c-.38,2.07-2,6.66-8.49,0v-4.3a29.36,29.36,0,0,1-1.27-4.65c-.28-2-1.19-5.92-1.19-5.92a8,8,0,0,0-.78-2.75c-.57-.78-.64-3.53-.64-3.53s-1.76-1.2-2-1.41a62.6,62.6,0,0,1-1.62-6.14S22.9,70.56,22.59,65.83A5.14,5.14,0,0,1,22.59,64.59Z"/><path class="cls-1" d="M34.45,13.13s.11,1,.3,2.28c0,.1-.9-.3-1-.21-1.19,2-2.58,3.86-5.08,3.86a6.63,6.63,0,0,1-2.07-.32,9.86,9.86,0,0,0-1.41-2.51C22.19,12.24,34.45,13.13,34.45,13.13Z"/><path class="cls-6" d="M23.75,7.45a6.82,6.82,0,1,1-1.85,4.66A6.83,6.83,0,0,1,23.75,7.45Z"/><path class="cls-1" d="M22.61,64.59C23,63.53,40.45,66,40.45,66s-.21,1.11-.57,2.48a18.87,18.87,0,0,1-4.35.15c-2.11-.28-5.64-.47-6.11-1.13-.34-.47-4.53-1.26-6.83-1.67A4.68,4.68,0,0,1,22.61,64.59Z"/><path class="cls-5" d="M21.57,60.4c.06-1,.25-2.88.44-4.84a46.35,46.35,0,0,0,.41-6.44,28.07,28.07,0,0,1-.12-3.4c0-3.34.07-7.88.07-7.88s1.2-9.5,2.85-12.6a.54.54,0,0,1,.07-.13s1.5-2.54,1.27-3.43c0,0,6.29-3.95,9-4.37a1,1,0,0,1,1,.94A7.64,7.64,0,0,0,36.69,20a1.28,1.28,0,0,0,.68.81c.89.42,2.63,3.29,2.63,3.29s1.12,1.41.94,2.07.8,3.8.8,3.8a24.06,24.06,0,0,1,.33,8c-.66,3.57-.9,12.5-.19,14.1s1.5,14.5-.14,15.6a20,20,0,0,1-6.21.52c-2.11-.28-5.64-.47-6.11-1.13s-8.32-1.93-8.32-1.93S21.42,62.85,21.57,60.4Z"/><path class="cls-1" d="M29.52,58c.56-.75-1.55-5.83-1.55-5.83S29,58.76,29.52,58Z"/><path class="cls-1" d="M26.84,59.14c.89-.75-1.51-4.51-1.51-4.51S26,59.88,26.84,59.14Z"/><path class="cls-1" d="M41.32,115.29c-.38,2.07-2,6.66-8.49,0V114C37.42,117.57,40.13,116.31,41.32,115.29Z"/><path class="cls-4" d="M41.32,115.43c-.38,2.07-2,6.66-8.49,0v-1.26C37.42,117.72,40.13,116.45,41.32,115.43Z"/><circle class="cls-2" cx="33.6" cy="117.58" r="0.18"/><circle class="cls-2" cx="31.82" cy="118.62" r="0.18"/><circle class="cls-2" cx="32.65" cy="118.09" r="0.18"/><path class="cls-1" d="M35.2,77c-2-.16-3.71-4.42-3.71-4.42S37.22,77.16,35.2,77Z"/><path class="cls-1" d="M34.69,83.67c-.8,0-3.48-4.61-3.48-4.61S35.48,83.72,34.69,83.67Z"/><path class="cls-1" d="M32.39,96.27c.75-.15-2.57-1.89-2.57-1.89S31.63,96.41,32.39,96.27Z"/><path class="cls-1" d="M32.5,93a29.41,29.41,0,0,1,3.92,1.36S31.91,93,32.5,93Z"/><path class="cls-1" d="M15.84,88.84c.09-.57,2.39,0,2.39,0S15.75,89.4,15.84,88.84Z"/><path class="cls-1" d="M17.77,92.32c.28-.66-1.74-.7-1.74-.7S17.48,93,17.77,92.32Z"/><path class="cls-1" d="M25.29,25.39s1.5-2.53,1.27-3.43c0,0,6.29-3.94,9-4.37a1,1,0,0,1,1,.95,7.55,7.55,0,0,0,.17,1.72c-1.47.16-4,.6-5.34,1.94s-4.4,2.64-6.13,3.32Z"/><path class="cls-5" d="M25.29,25.11s1.5-2.54,1.27-3.43c0,0,6.29-3.95,9-4.37a1,1,0,0,1,1,.94A7.58,7.58,0,0,0,36.69,20c-1.47.16-4,.61-5.34,1.94s-4.4,2.64-6.13,3.32A.83.83,0,0,1,25.29,25.11Z"/><path class="cls-1" d="M22.41,49.14a28.07,28.07,0,0,1-.12-3.4,11.18,11.18,0,0,1,1.53-1.3l1.65-3,6.16-4,2.82,3-1,2.36-3.14,5.72a14.79,14.79,0,0,0-1.6,2A55.35,55.35,0,0,1,22,55.57,44.18,44.18,0,0,0,22.41,49.14Z"/><path class="cls-6" d="M31.48,36.91l-6.16,4-1.65,3s-2.35,1.6-3,3.43-7.62,7.33-7.62,7.33L9.8,57.54s-5.12,5-1.12,7.19,5.41-4.6,5.64-5.52,3.4-2,5.89-3.22a56,56,0,0,0,8.36-6.06,14.31,14.31,0,0,1,1.6-2l3.29-5.15.85-2.93Z"/><path class="cls-1" d="M26.79,36.16c.33,1.79-1.57,4.92-1.57,4.92s6.93-1.16,8-.92.57,2.93.57,2.93,3.9-7.71,5.68-11.9-3.94-6.83-3.94-6.83C29.28,22.81,26.46,34.38,26.79,36.16Z"/><path class="cls-1" d="M26.23,35.73c.33,1.79-1.18,5-1.18,5s6.53-1.22,7.57-1,.56,2.93.56,2.93,3.91-7.74,5.69-11.91-3.95-6.81-3.95-6.81C28.71,22.39,25.9,34,26.23,35.73Z"/><path class="cls-5" d="M26.51,35.88c.33,1.79-1.18,5-1.18,5s6.53-1.23,7.57-1,.56,2.93.56,2.93,3.9-7.72,5.69-11.91-3.95-6.82-3.95-6.82C29,22.53,26.18,34.1,26.51,35.88Z"/><path class="cls-1" d="M32.1,6.24a6.81,6.81,0,0,1,2.51,9.31l-.18,0a5.34,5.34,0,0,1,.27-2.35c.27-.76,1.33-2.77-.5-2.26-.75.21-1.27,1.06-2.05,1a1.9,1.9,0,0,1-1.3-1,14.38,14.38,0,0,1-1.29-2.42,5.51,5.51,0,0,0-.71-1.36,1.46,1.46,0,0,0-1.34-.58c-.55.1-.92.61-1.41.88a2.87,2.87,0,0,1-2.35,0A6.82,6.82,0,0,1,32.1,6.24Z"/><path class="cls-7" d="M34.82,13a5.32,5.32,0,0,0-.27,2.34A1.79,1.79,0,0,0,36.63,14c0-.3,0-.61,0-.91a2.08,2.08,0,0,1,.92-1.49,1.83,1.83,0,0,0,.53-.38,1.14,1.14,0,0,0,.12-1c-.27-1-1.06-1.9-1.14-3a8.44,8.44,0,0,1,.28-2,2,2,0,0,0-.51-1.86A3.16,3.16,0,0,0,35.35,3a6.09,6.09,0,0,1-3-1.24A5.9,5.9,0,0,0,31,.74,3.68,3.68,0,0,0,28.31,1a6.63,6.63,0,0,1-2.69.73c-.66,0-1.38-.27-1.92.09s-.65,1.1-1.21,1.32c-.22.08-.5.07-.68.23s-.14.64,0,.92a2.24,2.24,0,0,1,.47.87c.05.34-.15.68-.09,1,.08.49.59.75,1.06.93a3.54,3.54,0,0,0,2.95.23c.5-.27.87-.78,1.41-.88A1.46,1.46,0,0,1,29,7a5.28,5.28,0,0,1,.71,1.35A14.38,14.38,0,0,0,31,10.81c.32.47.74,1,1.3,1,.78,0,1.3-.82,2-1C36.15,10.28,35.1,12.28,34.82,13Z"/><g class="cls-8"><path class="cls-9" d="M23.33,2.19l0,0Z"/><path class="cls-9" d="M22.34,5.12c.05.34-.15.68-.09,1,.08.49.59.75,1.06.92a3.51,3.51,0,0,0,3,.24c.49-.27.85-.78,1.4-.88A1.45,1.45,0,0,1,29,7a5.48,5.48,0,0,1,.7,1.36A14.43,14.43,0,0,0,31,10.78a1.88,1.88,0,0,0,1.3,1c.77,0,1.3-.82,2-1,1.83-.51.78,1.5.51,2.26a5.23,5.23,0,0,0-.27,2.35,1.81,1.81,0,0,0,2-1,1.79,1.79,0,0,1-1.67.58,5.22,5.22,0,0,1,.27-2.35c.27-.76,1.32-2.77-.5-2.26-.75.2-1.27,1-2.05,1-.57,0-1-.52-1.3-1A16.11,16.11,0,0,1,30,7.93a5,5,0,0,0-.7-1.36A1.47,1.47,0,0,0,27.94,6c-.54.11-.91.61-1.4.89a3.56,3.56,0,0,1-2.94-.24c-.46-.18-1-.43-1.07-.92-.05-.34.13-.7.09-1a2.21,2.21,0,0,0-.47-.86A1.12,1.12,0,0,1,22,3.23l-.14.09a.75.75,0,0,0,0,.92A2.27,2.27,0,0,1,22.34,5.12Z"/><path class="cls-9" d="M37.18,11.92a2.32,2.32,0,0,1,.44-.39,2.07,2.07,0,0,0,.54-.39.71.71,0,0,0,.14-.29,3.22,3.22,0,0,1-.39.25A2.21,2.21,0,0,0,37.18,11.92Z"/></g><path class="cls-1" d="M21.65,13a1.38,1.38,0,0,0,2,.74c1.09-.43,1-1.67.89-2.31l.66,0c.15.63.54,1.9,1.34,2,0,0,1.34.34,2-.26a5,5,0,0,0,.72-2.45l4.55.37.09-.3-4.64-.76S25.77,9,25.09,11H24.4c-1.14-1.45-3.06-.11-3.06-.11A6.2,6.2,0,0,0,21.65,13Z"/><path class="cls-3" d="M21.67,12.81a1.36,1.36,0,0,0,1.93.74c1.09-.43,1-1.68.89-2.32l.66,0c.15.62.54,1.89,1.34,2,0,0,1.34.33,2-.27a5,5,0,0,0,.72-2.45l4.55.37.09-.3-4.64-.76s-3.4-.91-4.08,1.06H24.4c-1.14-1.45-3.06-.1-3.06-.1A6.19,6.19,0,0,0,21.67,12.81Z"/></g></g></svg>